<?xml version="1.0" encoding="UTF-8" standalone="no"?>
<!DOCTYPE svg PUBLIC "-//W3C//DTD SVG 1.1//EN" "http://www.w3.org/Graphics/SVG/1.1/DTD/svg11.dtd">
<svg width="100%" height="100%" viewBox="0 0 137 156" version="1.1" xmlns="http://www.w3.org/2000/svg" xmlns:xlink="http://www.w3.org/1999/xlink" xml:space="preserve" xmlns:serif="http://www.serif.com/" style="fill-rule:evenodd;clip-rule:evenodd;stroke-linejoin:round;stroke-miterlimit:2;">
    <g transform="matrix(0.586744,0,0,0.586744,-6258.89,-634.361)">
        <g transform="matrix(4.16667,0,0,4.16667,8739.31,0)">
            <path d="M488.44,270.148L488.44,273.67L512.083,260.021C512.918,259.539 513.961,260.141 513.961,261.106L513.961,296.212L468.854,322.431C467.796,323.046 466.486,323.027 465.447,322.383L464.484,321.786C463.596,321.236 463.056,320.266 463.056,319.221L463.056,284.603C463.056,283.384 463.706,282.258 464.761,281.649L486.561,269.063C487.396,268.581 488.44,269.183 488.44,270.148Z" style="fill:rgb(174,198,221);fill-rule:nonzero;"/>
        </g>
        <g transform="matrix(4.16667,0,0,4.16667,8739.31,0)">
            <path d="M487.186,269.268C487.032,269.268 486.886,269.308 486.748,269.388L464.949,281.974C464.013,282.514 463.431,283.521 463.431,284.603L463.431,319.222C463.431,320.143 463.898,320.981 464.681,321.468L465.644,322.064C466.549,322.625 467.746,322.642 468.665,322.106L513.586,295.996L513.586,261.106C513.586,260.367 512.787,260.047 512.271,260.347L488.628,273.996C488.513,274.063 488.368,274.063 488.253,273.996C488.137,273.929 488.065,273.805 488.065,273.671L488.065,270.147C488.065,269.604 487.608,269.268 487.186,269.268ZM467.189,323.255C466.504,323.255 465.832,323.063 465.249,322.701L464.286,322.104C463.28,321.481 462.681,320.403 462.681,319.222L462.681,284.603C462.681,283.254 463.406,281.998 464.574,281.323L486.373,268.737C486.622,268.594 486.903,268.518 487.186,268.518C488.084,268.518 488.815,269.249 488.815,270.147L488.815,273.021L511.896,259.695C512.145,259.552 512.425,259.477 512.706,259.477C513.604,259.477 514.336,260.208 514.336,261.106L514.336,296.212C514.336,296.346 514.266,296.469 514.15,296.536L469.042,322.755C468.48,323.082 467.84,323.255 467.189,323.255Z" style="fill:rgb(31,55,107);fill-rule:nonzero;"/>
        </g>
        <g transform="matrix(4.16667,0,0,4.16667,8739.31,0)">
            <path d="M516.284,292.338L465.379,321.729L465.379,291.486L516.284,262.095L516.284,292.338Z" style="fill:white;fill-rule:nonzero;"/>
        </g>
        <g transform="matrix(4.16667,0,0,4.16667,8739.31,0)">
            <path d="M465.754,291.702L465.754,321.079L515.909,292.121L515.909,262.744L465.754,291.702ZM465.379,322.104L465.191,322.054C465.075,321.986 465.004,321.862 465.004,321.729L465.004,291.485C465.004,291.352 465.075,291.228 465.191,291.16L516.098,261.77C516.213,261.703 516.357,261.703 516.473,261.77C516.589,261.837 516.659,261.961 516.659,262.095L516.659,292.338C516.659,292.472 516.589,292.596 516.473,292.663L465.566,322.054L465.379,322.104Z" style="fill:rgb(31,55,107);fill-rule:nonzero;"/>
        </g>
        <g transform="matrix(4.16667,0,0,4.16667,8739.31,0)">
            <path d="M515.89,295.194L468.77,322.399C467.787,322.967 466.58,322.984 465.581,322.446L465.274,322.28L465.594,322.403C466.363,322.697 467.189,322.129 467.189,321.306L467.189,297.347C467.189,296.128 467.839,295.002 468.894,294.393L516.216,267.072C517.051,266.589 518.094,267.192 518.094,268.157L518.094,291.375C518.094,292.95 517.254,294.406 515.89,295.194Z" style="fill:rgb(174,198,221);fill-rule:nonzero;"/>
        </g>
        <g transform="matrix(4.16667,0,0,4.16667,8739.31,0)">
            <path d="M467.047,322.462C467.57,322.467 468.117,322.343 468.582,322.074L515.702,294.869C516.945,294.151 517.719,292.813 517.719,291.375L517.719,268.156C517.719,267.418 516.919,267.099 516.403,267.396L469.082,294.718C468.146,295.258 467.563,296.266 467.563,297.347L467.563,321.306C467.563,321.765 467.363,322.177 467.047,322.462ZM467.134,323.213C466.531,323.213 465.934,323.062 465.403,322.776L465.096,322.61C464.921,322.517 464.851,322.304 464.933,322.124C465.015,321.944 465.222,321.857 465.408,321.931L465.729,322.054C466.243,322.249 466.813,321.844 466.813,321.306L466.813,297.347C466.813,295.998 467.539,294.742 468.707,294.067L516.028,266.746C516.276,266.603 516.557,266.527 516.84,266.527C517.737,266.527 518.469,267.258 518.469,268.156L518.469,291.375C518.469,293.079 517.552,294.667 516.077,295.52L468.957,322.725C468.403,323.044 467.773,323.213 467.134,323.213Z" style="fill:rgb(31,55,107);fill-rule:nonzero;"/>
        </g>
    </g>
</svg>
