<?xml version="1.0" encoding="UTF-8" standalone="no"?><!DOCTYPE svg PUBLIC "-//W3C//DTD SVG 1.1//EN" "http://www.w3.org/Graphics/SVG/1.1/DTD/svg11.dtd"><svg width="100%" height="100%" viewBox="0 0 1145 219" version="1.1" xmlns="http://www.w3.org/2000/svg" xmlns:xlink="http://www.w3.org/1999/xlink" xml:space="preserve" xmlns:serif="http://www.serif.com/" style="fill-rule:evenodd;clip-rule:evenodd;stroke-linejoin:round;stroke-miterlimit:2;"><rect id="PIE" x="0" y="0" width="1144.71" height="218.789" style="fill:none;"/><clipPath id="_clip1"><rect x="0" y="0" width="1144.71" height="218.789"/></clipPath><g clip-path="url(#_clip1)"><g><rect x="0" y="0" width="1145.33" height="220" style="fill:#fff;"/><g><rect x="41.917" y="33.999" width="1063.42" height="4.668" style="fill:#ddd;"/><path d="M795.095,157.68c-0,-7.55 -6.13,-13.68 -13.68,-13.68l-415.307,-0c-7.55,-0 -13.68,6.13 -13.68,13.68l0,62.32l442.667,-0l-0,-62.32Z" style="fill:#004e98;"/><text x="377.387px" y="195.152px" style="font-family:'BrandonGrotesque-Bold', 'Brandon Grotesque', sans-serif;font-weight:450;font-size:41.219px;fill:#fff;">w<tspan x="402.159px 426.932px 451.334px 460.403px 469.718px 487.443px 496.511px 516.626px 533.567px 554.383px 563.698px 573.055px 590.78px 599.848px 616.789px 626.146px 639.048px 655.989px 674.661px 691.273px 700.588px 720.58px 734.677px 756.276px " y="195.152px 195.152px 195.152px 195.152px 195.152px 195.152px 195.152px 195.152px 195.152px 195.152px 195.152px 195.152px 195.152px 195.152px 195.152px 195.152px 195.152px 195.152px 195.152px 195.152px 195.152px 195.152px 195.152px 195.152px ">ww.ie.uchile.cl/covid19/</tspan></text><g><g><g><path d="M74.894,86.383c-0,-1.201 -0.976,-2.177 -2.177,-2.177l-27.289,0c-1.202,0 -2.177,0.976 -2.177,2.177l-0,27.749c-0,1.202 0.975,2.177 2.177,2.177l27.289,0c1.201,0 2.177,-0.975 2.177,-2.177l-0,-27.749Z" style="fill:#004e98;"/><path d="M56.049,93.716l0,3.446l-3.971,0l0,4.522l3.971,-0l0,11.313l4.889,-0l-0,-11.313l3.645,-0l0.693,-4.522l-4.338,0l-0,-2.934c-0,-1.237 0.606,-2.442 2.549,-2.442l1.972,-0l-0,-3.849c-0,-0 -1.79,-0.307 -3.501,-0.307c-3.573,0 -5.909,2.167 -5.909,6.086Z" style="fill:#fff;fill-rule:nonzero;"/></g><text x="80.286px" y="107.169px" style="font-family:'BrandonGrotesque-Bold', 'Brandon Grotesque', sans-serif;font-weight:450;font-size:24.1px;fill:#004e98;">I<tspan x="87.468px 100.82px 112.508px 124.269px 134.174px 144.103px 154.008px 159.455px 170.372px 181.892px 198.858px 214.981px " y="107.169px 107.169px 107.169px 107.169px 107.169px 107.169px 107.169px 107.169px 107.169px 107.169px 107.169px 107.169px ">EducaciónUCH</tspan></text></g><g><path d="M298.604,86.439c-0,-1.201 -0.976,-2.177 -2.177,-2.177l-27.289,0c-1.202,0 -2.177,0.976 -2.177,2.177l-0,27.749c-0,1.202 0.975,2.177 2.177,2.177l27.289,0c1.201,0 2.177,-0.975 2.177,-2.177l-0,-27.749Z" style="fill:#004e98;"/><path d="M294.695,92.799c-0.763,0.345 -1.606,0.554 -2.43,0.692c0.391,-0.065 0.965,-0.773 1.194,-1.058c0.352,-0.438 0.642,-0.934 0.807,-1.47c0.021,-0.044 0.037,-0.096 -0.005,-0.128c-0.054,-0.021 -0.088,-0.01 -0.129,0.011c-0.919,0.493 -1.869,0.85 -2.881,1.102c-0.083,0.021 -0.146,0 -0.198,-0.053c-0.084,-0.094 -0.163,-0.183 -0.252,-0.257c-0.425,-0.361 -0.88,-0.646 -1.394,-0.855c-0.675,-0.275 -1.414,-0.392 -2.141,-0.345c-0.707,0.046 -1.402,0.246 -2.03,0.574c-0.629,0.329 -1.19,0.786 -1.638,1.338c-0.462,0.571 -0.804,1.244 -0.978,1.958c-0.168,0.69 -0.155,1.372 -0.052,2.069c0.016,0.116 0.006,0.131 -0.099,0.116c-3.956,-0.59 -7.234,-2.004 -9.896,-5.038c-0.116,-0.131 -0.178,-0.131 -0.273,0.01c-1.165,1.745 -0.6,4.551 0.855,5.929c0.195,0.185 0.394,0.369 0.609,0.536c-0.079,0.016 -1.048,-0.089 -1.911,-0.536c-0.114,-0.073 -0.173,-0.03 -0.184,0.101c-0.01,0.189 0.006,0.362 0.032,0.567c0.224,1.769 1.449,3.406 3.127,4.046c0.201,0.084 0.421,0.157 0.636,0.192c-0.382,0.084 -0.777,0.145 -1.873,0.059c-0.136,-0.026 -0.19,0.043 -0.136,0.173c0.823,2.246 2.602,2.915 3.934,3.296c0.179,0.031 0.357,0.031 0.536,0.073c-0.011,0.016 -0.022,0.016 -0.032,0.031c-0.441,0.674 -1.974,1.176 -2.688,1.424c-1.297,0.455 -2.71,0.659 -4.081,0.523c-0.219,-0.032 -0.266,-0.03 -0.325,0c-0.061,0.037 -0.008,0.089 0.063,0.146c0.278,0.184 0.561,0.347 0.849,0.504c0.872,0.463 1.779,0.83 2.73,1.092c4.903,1.354 10.427,0.359 14.108,-3.299c2.891,-2.872 3.904,-6.834 3.904,-10.801c0,-0.154 0.184,-0.241 0.293,-0.322c0.752,-0.565 1.359,-1.242 1.92,-1.997c0.126,-0.17 0.126,-0.32 0.126,-0.383l0,-0.02c0,-0.063 0,-0.045 -0.097,-0Z" style="fill:#fff;fill-rule:nonzero;"/></g><text x="303.996px" y="107.169px" style="font-family:'BrandonGrotesque-Bold', 'Brandon Grotesque', sans-serif;font-weight:450;font-size:24.1px;fill:#004e98;">I<tspan x="311.178px 324.53px 336.218px 347.979px 357.884px 367.813px 377.718px 383.165px 394.082px 405.602px 422.569px 438.691px " y="107.169px 107.169px 107.169px 107.169px 107.169px 107.169px 107.169px 107.169px 107.169px 107.169px 107.169px 107.169px ">EducaciónUCH</tspan></text><g><path d="M519.489,86.383c-0,-1.201 -0.976,-2.177 -2.178,-2.177l-27.288,0c-1.202,0 -2.177,0.976 -2.177,2.177l-0,27.749c-0,1.202 0.975,2.177 2.177,2.177l27.288,0c1.202,0 2.178,-0.975 2.178,-2.177l-0,-27.749Z" style="fill:#004e98;"/><g><path d="M509.599,93.054c-0.725,0 -1.313,0.589 -1.313,1.314c0,0.726 0.588,1.314 1.313,1.314c0.726,-0 1.314,-0.588 1.314,-1.314c-0,-0.725 -0.588,-1.314 -1.314,-1.314Z" style="fill:#fff;fill-rule:nonzero;"/><path d="M503.759,103.793c-1.949,0 -3.535,-1.586 -3.535,-3.535c0,-1.95 1.586,-3.534 3.535,-3.534c1.949,-0 3.535,1.584 3.535,3.534c-0,1.949 -1.586,3.535 -3.535,3.535Zm0,-9.054c-3.042,-0 -5.519,2.476 -5.519,5.519c0,3.043 2.477,5.519 5.519,5.519c3.042,0 5.519,-2.476 5.519,-5.519c-0,-3.043 -2.477,-5.519 -5.519,-5.519Z" style="fill:#fff;fill-rule:nonzero;"/><path d="M499.194,91.161c-2.549,0 -4.623,2.074 -4.623,4.624l-0,8.946c-0,2.549 2.074,4.623 4.623,4.623l8.946,0c2.55,0 4.624,-2.074 4.624,-4.623l-0,-8.946c-0,-2.55 -2.074,-4.624 -4.624,-4.624l-8.946,0Zm8.946,20.302l-8.946,-0c-3.712,-0 -6.732,-3.02 -6.732,-6.732l0,-8.946c0,-3.712 3.02,-6.732 6.732,-6.732l8.946,0c3.712,0 6.732,3.02 6.732,6.732l-0,8.946c-0,3.712 -3.02,6.732 -6.732,6.732Z" style="fill:#fff;fill-rule:nonzero;"/></g></g><text x="525.387px" y="107.169px" style="font-family:'BrandonGrotesque-Bold', 'Brandon Grotesque', sans-serif;font-weight:450;font-size:24.1px;fill:#004e98;">i<tspan x="530.833px 541.196px 552.885px 564.646px 574.551px 584.48px 594.385px 599.832px 610.749px 622.895px 634.656px 644.561px 656.732px 662.178px 667.649px " y="107.169px 107.169px 107.169px 107.169px 107.169px 107.169px 107.169px 107.169px 107.169px 107.169px 107.169px 107.169px 107.169px 107.169px 107.169px ">educacionuchile</tspan></text><g><text x="751.774px" y="107.169px" style="font-family:'BrandonGrotesque-Bold', 'Brandon Grotesque', sans-serif;font-weight:450;font-size:24.1px;fill:#004e98;">I<tspan x="758.956px 772.307px 783.996px 795.757px 805.662px 815.591px 825.496px 830.943px 841.86px 853.38px 870.346px 886.469px " y="107.169px 107.169px 107.169px 107.169px 107.169px 107.169px 107.169px 107.169px 107.169px 107.169px 107.169px 107.169px ">EducaciónUCH</tspan></text><g><path d="M746.795,86.383c0,-1.201 -0.975,-2.177 -2.177,-2.177l-27.288,0c-1.202,0 -2.178,0.976 -2.178,2.177l0,27.749c0,1.202 0.976,2.177 2.178,2.177l27.288,0c1.202,0 2.177,-0.975 2.177,-2.177l0,-27.749Z" style="fill:#004e98;"/><g><g><path d="M743.327,92.638c0,-0.671 -0.545,-1.216 -1.216,-1.216l-22.275,0c-0.671,0 -1.215,0.545 -1.215,1.216l-0,15.24c-0,0.671 0.544,1.215 1.215,1.215l22.275,0c0.671,0 1.216,-0.544 1.216,-1.215l0,-15.24Z" style="fill:#fff;"/><path d="M733.78,100.41l-4.062,2.01c-0.159,0.085 -0.7,-0.029 -0.7,-0.21l-0,-4.125c-0,-0.183 0.545,-0.299 0.705,-0.207l3.888,2.114c0.163,0.094 0.334,0.33 0.169,0.418Z" style="fill:#004e98;"/></g></g></g></g><g><text x="973.191px" y="107.169px" style="font-family:'BrandonGrotesque-Bold', 'Brandon Grotesque', sans-serif;font-weight:450;font-size:24.1px;fill:#004e98;">i<tspan x="978.638px 989.001px 1000.69px 1012.45px 1022.36px 1032.28px 1042.19px 1047.64px 1058.55px 1070.7px 1082.46px 1092.37px " y="107.169px 107.169px 107.169px 107.169px 107.169px 107.169px 107.169px 107.169px 107.169px 107.169px 107.169px 107.169px ">educacionuch</tspan></text><g><path d="M967.799,86.439c-0,-1.201 -0.976,-2.177 -2.178,-2.177l-27.288,0c-1.202,0 -2.178,0.976 -2.178,2.177l0,27.749c0,1.202 0.976,2.177 2.178,2.177l27.288,0c1.202,0 2.178,-0.975 2.178,-2.177l-0,-27.749Z" style="fill:#004e98;"/><g><path d="M943.633,89.352c1.459,-0 2.64,1.183 2.64,2.639c0,1.455 -1.181,2.64 -2.64,2.64c-1.462,0 -2.644,-1.185 -2.644,-2.64c0,-1.456 1.182,-2.639 2.644,-2.639Zm-2.282,7.279l4.562,-0l-0,14.645l-4.562,-0l0,-14.645Z" style="fill:#fff;fill-rule:nonzero;"/><path d="M948.769,96.631l4.366,-0l0,2.003l0.06,-0c0.609,-1.153 2.095,-2.367 4.312,-2.367c4.608,-0 5.458,3.032 5.458,6.976l-0,8.033l-4.549,-0l0,-7.122c0,-1.698 -0.033,-3.883 -2.366,-3.883c-2.37,0 -2.731,1.852 -2.731,3.759l-0,7.246l-4.55,-0l-0,-14.645Z" style="fill:#fff;fill-rule:nonzero;"/></g></g></g></g></g></g></g></svg>