<?xml version="1.0" encoding="UTF-8" standalone="no"?>
<!DOCTYPE svg PUBLIC "-//W3C//DTD SVG 1.1//EN" "http://www.w3.org/Graphics/SVG/1.1/DTD/svg11.dtd">
<svg width="100%" height="100%" viewBox="0 0 811 339" version="1.1" xmlns="http://www.w3.org/2000/svg" xmlns:xlink="http://www.w3.org/1999/xlink" xml:space="preserve" xmlns:serif="http://www.serif.com/" style="fill-rule:evenodd;clip-rule:evenodd;stroke-miterlimit:2;">
    <g transform="matrix(1.42048,0,0,4.38222,-424.209,-408.859)">
        <path d="M398.632,100.836L398.406,93.3L298.864,93.3L298.864,94.031C301.272,94.031 303.191,94.068 304.62,94.141C306.05,94.214 307.103,94.373 307.78,94.617C308.457,94.86 308.909,95.226 309.135,95.714C309.36,96.202 309.473,96.836 309.473,97.616L309.473,138.516C309.473,139.345 309.36,139.991 309.135,140.455C308.909,140.918 308.42,141.272 307.667,141.516C306.915,141.76 305.824,141.918 304.395,141.991C302.965,142.064 301.046,142.101 298.639,142.101L298.639,142.833L339.945,142.833L339.945,142.101C337.387,142.101 335.393,142.064 333.964,141.991C332.534,141.918 331.443,141.76 330.691,141.516C329.938,141.272 329.449,140.918 329.224,140.455C328.998,139.991 328.885,139.345 328.885,138.516L328.659,118.834L371.997,118.834C377.113,118.834 380.763,119.042 382.944,119.456C385.126,119.871 386.443,120.932 386.895,122.639L389.829,122.639L389.829,111.591L386.895,111.591C386.594,112.42 386.105,113.079 385.427,113.566C384.75,114.054 383.847,114.42 382.719,114.664C381.59,114.908 380.123,115.066 378.317,115.139C376.512,115.213 374.405,115.249 371.997,115.249L328.885,115.249L328.885,98.494C328.885,97.714 329.073,97.238 329.449,97.068C329.825,96.897 331.293,96.812 333.851,96.812L378.092,96.812C380.8,96.812 383.133,96.848 385.089,96.921C387.045,96.994 388.7,97.165 390.055,97.433C391.409,97.702 392.537,98.104 393.44,98.641C394.343,99.177 395.02,99.909 395.472,100.836L398.632,100.836Z" style="fill:rgb(0,74,147);fill-rule:nonzero;"/>
    </g>
    <g transform="matrix(7.56623,0,0,5.74936,-2222.15,-531.486)">
        <path d="M339.278,111.775C339.278,106.805 338.094,102.598 336.147,99.413C334.201,96.228 331.464,94.567 328.506,94.624C325.237,94.687 323.197,96.393 321.478,99.126C319.758,101.859 318.945,105.559 318.989,110.136C319.038,115.338 319.851,119.3 321.804,122.562C323.758,125.825 326.576,127.879 329.509,127.879C332.338,127.879 334.865,126.34 336.598,123.53C338.331,120.72 339.278,116.472 339.278,111.775ZM329.313,92.494C331.286,92.494 332.709,92.842 334.26,93.585C335.811,94.328 337.216,95.477 338.475,97.031C339.98,98.91 340.962,100.78 341.76,103.256C342.558,105.733 342.957,108.363 342.957,111.147C342.957,113.982 342.535,116.664 341.692,119.191C340.848,121.719 339.648,123.897 338.09,125.724C336.844,127.193 335.394,128.341 333.739,129.17C332.085,129.998 330.836,130.007 329.175,130.007C327.099,130.007 325.188,129.504 323.442,128.496C321.697,127.488 320.155,125.994 318.819,124.013C317.599,122.202 316.668,120.17 316.025,117.915C315.383,115.661 315.275,113.729 315.275,111.236C315.275,108.537 315.661,105.988 316.433,103.589C317.205,101.189 318.325,99.084 319.791,97.274C321.115,95.634 322.607,94.379 324.269,93.508C325.93,92.636 327.535,92.494 329.313,92.494Z" style="fill:rgb(0,75,147);fill-rule:nonzero;"/>
    </g>
    <g transform="matrix(7.56623,0,0,5.74936,-1784.25,-530.525)">
        <path d="M339.278,111.775C339.278,106.805 338.094,102.598 336.147,99.413C334.201,96.228 331.464,94.567 328.506,94.624C325.237,94.687 323.197,96.393 321.478,99.126C319.758,101.859 318.945,105.559 318.989,110.136C319.038,115.338 319.851,119.3 321.804,122.562C323.758,125.825 326.576,127.879 329.509,127.879C332.338,127.879 334.865,126.34 336.598,123.53C338.331,120.72 339.278,116.472 339.278,111.775ZM329.313,92.494C331.286,92.494 332.709,92.842 334.26,93.585C335.811,94.328 337.216,95.477 338.475,97.031C339.98,98.91 340.962,100.78 341.76,103.256C342.558,105.733 342.957,108.363 342.957,111.147C342.957,113.982 342.535,116.664 341.692,119.191C340.848,121.719 339.648,123.897 338.09,125.724C336.844,127.193 335.394,128.341 333.739,129.17C332.085,129.998 330.836,130.007 329.175,130.007C327.099,130.007 325.188,129.504 323.442,128.496C321.697,127.488 320.155,125.994 318.819,124.013C317.599,122.202 316.668,120.17 316.025,117.915C315.383,115.661 315.275,113.729 315.275,111.236C315.275,108.537 315.661,105.988 316.433,103.589C317.205,101.189 318.325,99.084 319.791,97.274C321.115,95.634 322.607,94.379 324.269,93.508C325.93,92.636 327.535,92.494 329.313,92.494Z" style="fill:rgb(0,75,147);fill-rule:nonzero;"/>
    </g>
    <g transform="matrix(9.81202,0,0,9.81202,542.584,4.08874)">
        <path d="M-0.024,21.004C-0.024,21.004 -2.075,21.634 -3.833,21.604C-5.501,21.576 -6.973,21.353 -8.303,20.811C-9.634,20.268 -10.721,19.518 -11.657,18.539C-12.594,17.56 -13.264,16.408 -13.753,15.035C-14.243,13.662 -14.438,12.235 -14.438,10.575C-14.438,8.978 -14.221,7.682 -13.711,6.309C-13.2,4.936 -12.447,3.7 -11.5,2.688C-10.553,1.678 -9.494,0.999 -8.164,0.435C-6.834,-0.129 -5.55,-0.372 -3.911,-0.372C-2.783,-0.372 -1.672,-0.261 -0.544,-0.006C-0.416,0.037 -0.149,0.129 0.054,0.182C0.256,0.235 0.408,0.274 0.621,0.338C0.834,0.402 1.045,0.459 1.236,0.502C1.428,0.545 1.555,0.565 1.683,0.565C2.087,0.565 2.442,0.48 2.609,0.097L2.653,1.145C2.653,1.571 2.648,1.599 2.637,2.046C2.626,2.493 2.624,2.758 2.592,3.183C2.561,3.595 2.577,3.75 2.492,4.07C1.747,2.985 0.957,2.143 -0.013,1.561C-0.965,0.99 -2.199,0.769 -3.668,0.769C-5.094,0.769 -6.431,1.132 -7.473,1.653C-8.516,2.175 -9.373,3.076 -10.043,3.949C-10.714,4.821 -11.112,5.741 -11.442,6.911C-11.772,8.082 -11.937,9.623 -11.937,10.921C-11.937,12.262 -11.741,13.389 -11.4,14.559C-11.06,15.73 -10.466,16.8 -9.774,17.662C-9.083,18.524 -8.034,19.241 -6.981,19.741C-5.927,20.241 -4.672,20.444 -3.224,20.444C-2.713,20.444 -2.177,20.429 -1.581,20.407C-0.986,20.386 -0.246,20.305 0.34,20.209C0.925,20.113 1.459,19.928 1.991,19.726C2.523,19.524 2.674,19.406 3.094,19.128L3.115,19.184C2.094,20.099 1.2,20.61 -0.024,21.004Z" style="fill:rgb(0,75,147);fill-rule:nonzero;"/>
    </g>
    <g transform="matrix(5.73967,0,0,2.06838,-1540.76,56.3813)">
        <path d="M301.055,126.336L300.708,126.336C300.563,127.26 300.411,127.993 300.252,128.536C300.092,129.078 299.912,129.51 299.709,129.832C299.506,130.153 299.278,130.364 299.025,130.464C298.771,130.565 298.471,130.615 298.123,130.615L294.54,130.615C294.453,130.615 294.348,130.625 294.225,130.645C294.102,130.665 293.986,130.655 293.878,130.615C293.769,130.575 293.675,130.464 293.595,130.284C293.516,130.103 293.476,129.832 293.476,129.47L293.476,113.74L297.885,113.74C298.131,113.74 298.337,113.771 298.503,113.831C298.67,113.891 298.808,114.032 298.916,114.253C299.025,114.474 299.108,114.785 299.166,115.187C299.224,115.589 299.267,116.151 299.296,116.874L299.578,116.874L299.578,107.774L299.296,107.774C299.267,108.457 299.224,109 299.166,109.401C299.108,109.803 299.025,110.104 298.916,110.305C298.808,110.506 298.666,110.637 298.493,110.697C298.319,110.757 298.116,110.787 297.885,110.787L293.476,110.787L293.476,96.987C293.476,96.344 293.494,95.952 293.53,95.811C293.566,95.671 293.707,95.6 293.954,95.6L298.341,95.6C298.847,95.6 299.235,95.771 299.502,96.113C299.77,96.454 299.94,97.388 300.013,98.915L300.317,98.915L300.295,92.708L290.609,92.708L290.609,93.31C291.058,93.31 291.34,93.481 291.456,93.823C291.572,94.164 291.63,94.978 291.63,96.263L291.63,129.952C291.63,131.238 291.572,132.051 291.456,132.393C291.34,132.734 291.058,132.905 290.609,132.905L290.609,133.508L300.512,133.508L301.055,126.336Z" style="fill:rgb(0,74,147);fill-rule:nonzero;stroke:rgb(3,74,142);stroke-width:0.72px;"/>
    </g>
    <g transform="matrix(5.73967,0,0,2.06838,-1540.76,56.3813)">
        <path d="M302.641,133.508L307.506,133.508C308.591,133.508 309.656,133.126 310.698,132.363C311.74,131.599 312.682,130.213 313.521,128.204C314.347,126.236 314.926,123.976 315.259,121.424C315.592,118.873 315.758,116.131 315.758,113.198C315.758,109.703 315.563,106.669 315.172,104.098C314.781,101.527 314.231,99.397 313.521,97.71C312.812,96.022 311.961,94.767 310.97,93.943C309.978,93.119 308.881,92.708 307.679,92.708L302.641,92.708L302.641,93.31C302.858,93.31 303.039,93.33 303.184,93.371C303.328,93.411 303.437,93.531 303.509,93.732C303.582,93.933 303.632,94.234 303.661,94.636C303.69,95.038 303.705,95.58 303.705,96.263L303.705,129.952C303.705,130.635 303.69,131.177 303.661,131.579C303.632,131.981 303.582,132.282 303.509,132.483C303.437,132.684 303.328,132.805 303.184,132.845C303.039,132.885 302.858,132.905 302.641,132.905L302.641,133.508ZM305.551,96.625C305.768,96.143 306.014,95.841 306.289,95.721C306.564,95.6 306.832,95.54 307.093,95.54C308.121,95.54 309.051,95.892 309.884,96.595C310.716,97.298 311.426,98.373 312.012,99.819C312.598,101.265 313.051,103.083 313.369,105.273C313.688,107.463 313.847,110.044 313.847,113.017C313.847,116.151 313.681,118.833 313.348,121.063C313.015,123.293 312.544,125.121 311.936,126.547C311.328,127.973 310.589,129.018 309.721,129.681C308.852,130.344 307.889,130.675 306.832,130.675C306.76,130.675 306.651,130.665 306.506,130.645C306.362,130.625 306.217,130.565 306.072,130.464C305.927,130.364 305.804,130.213 305.703,130.012C305.602,129.811 305.551,129.53 305.551,129.169L305.551,96.625Z" style="fill:rgb(0,74,147);fill-rule:nonzero;stroke:rgb(3,74,142);stroke-width:0.72px;"/>
    </g>
    <g transform="matrix(5.73967,0,0,2.06838,-1540.76,56.3813)">
        <path d="M330.852,93.31L330.852,92.708L327.399,92.708L327.399,93.31C327.703,93.31 327.935,93.421 328.094,93.642C328.253,93.863 328.366,94.174 328.431,94.576C328.496,94.978 328.528,95.48 328.528,96.083L328.528,119.948C328.528,123.443 328.177,126.195 327.475,128.204C326.773,130.213 325.785,131.218 324.511,131.218C323.121,131.218 322.118,130.143 321.503,127.993C320.887,125.844 320.58,122.921 320.58,119.225L320.58,96.263C320.58,95.58 320.594,95.038 320.623,94.636C320.652,94.234 320.706,93.933 320.786,93.732C320.866,93.531 320.974,93.411 321.112,93.371C321.249,93.33 321.434,93.31 321.666,93.31L321.666,92.708L317.626,92.708L317.626,93.31L317.952,93.31C318.328,93.31 318.553,93.581 318.625,94.124C318.697,94.666 318.734,95.379 318.734,96.263L318.734,119.104C318.734,123.966 319.211,127.702 320.167,130.314C321.123,132.925 322.476,134.231 324.228,134.231C325.966,134.231 327.316,132.945 328.279,130.374C329.241,127.803 329.723,124.086 329.723,119.225L329.723,96.625C329.723,96.062 329.745,95.54 329.788,95.058C329.831,94.576 329.911,94.164 330.027,93.823C330.143,93.481 330.309,93.31 330.526,93.31L330.852,93.31Z" style="fill:rgb(0,74,147);fill-rule:nonzero;stroke:rgb(3,74,142);stroke-width:0.72px;"/>
    </g>
    <g transform="matrix(5.73967,0,0,2.06838,-1540.76,56.3813)">
        <path d="M344.882,129.41L344.795,128.385C344.505,129.068 344.18,129.601 343.818,129.982C343.456,130.364 343.076,130.645 342.678,130.826C342.279,131.007 341.878,131.117 341.472,131.157C341.067,131.198 340.69,131.218 340.343,131.218C339.358,131.218 338.508,130.746 337.791,129.801C337.074,128.857 336.481,127.572 336.01,125.944C335.54,124.317 335.189,122.399 334.957,120.189C334.725,117.979 334.609,115.609 334.609,113.078C334.609,110.627 334.722,108.296 334.946,106.087C335.17,103.877 335.511,101.948 335.967,100.301C336.423,98.654 337.006,97.338 337.715,96.354C338.424,95.369 339.264,94.877 340.234,94.877C341.233,94.877 342.044,95.47 342.667,96.655C343.289,97.84 343.854,99.578 344.361,101.868C344.419,101.265 344.458,100.562 344.48,99.759C344.502,98.955 344.516,98.132 344.524,97.288C344.531,96.444 344.534,95.62 344.534,94.817L344.534,92.587L344.296,92.587C344.223,93.31 344.049,93.672 343.774,93.672C343.687,93.672 343.579,93.632 343.449,93.551C343.318,93.471 343.181,93.371 343.036,93.25C342.891,93.129 342.75,93.019 342.612,92.919C342.475,92.818 342.363,92.728 342.276,92.647C341.508,92.165 340.741,91.924 339.974,91.924C338.859,91.924 337.849,92.457 336.944,93.521C336.039,94.586 335.265,96.072 334.62,97.981C333.976,99.889 333.48,102.139 333.133,104.731C332.785,107.322 332.611,110.125 332.611,113.138C332.611,116.272 332.778,119.134 333.111,121.726C333.444,124.317 333.929,126.537 334.566,128.385C335.203,130.233 335.974,131.67 336.879,132.694C337.784,133.719 338.815,134.231 339.974,134.231C340.886,134.231 341.758,133.859 342.591,133.116C343.423,132.373 344.187,131.137 344.882,129.41Z" style="fill:rgb(0,74,147);fill-rule:nonzero;stroke:rgb(3,74,142);stroke-width:0.72px;"/>
    </g>
    <g transform="matrix(5.73967,0,0,2.06838,-1540.76,56.3813)">
        <path d="M359.932,133.508L359.932,132.905C359.469,132.664 359.158,132.001 358.999,130.916L353.222,92.286L352.027,92.286L346.467,129.349C346.409,129.751 346.348,130.153 346.283,130.555C346.218,130.956 346.138,131.318 346.044,131.64C345.95,131.961 345.841,132.242 345.718,132.483C345.595,132.724 345.447,132.865 345.273,132.905L345.273,133.508L348.313,133.508L348.313,132.905C347.85,132.905 347.586,132.624 347.521,132.061C347.456,131.499 347.503,130.695 347.662,129.651L348.878,121.213L355.415,121.213L356.762,130.374C356.921,131.378 356.921,132.051 356.762,132.393C356.602,132.734 356.356,132.905 356.023,132.905L356.023,133.508L359.932,133.508ZM355.046,118.26L349.312,118.26L352.179,98.614L355.046,118.26Z" style="fill:rgb(0,74,147);fill-rule:nonzero;stroke:rgb(3,74,142);stroke-width:0.72px;"/>
    </g>
    <g transform="matrix(5.73967,0,0,2.06838,-1540.76,56.3813)">
        <path d="M372.138,129.41L372.051,128.385C371.761,129.068 371.436,129.601 371.074,129.982C370.712,130.364 370.332,130.645 369.933,130.826C369.535,131.007 369.134,131.117 368.728,131.157C368.323,131.198 367.946,131.218 367.599,131.218C366.614,131.218 365.764,130.746 365.047,129.801C364.33,128.857 363.737,127.572 363.266,125.944C362.796,124.317 362.444,122.399 362.213,120.189C361.981,117.979 361.865,115.609 361.865,113.078C361.865,110.627 361.978,108.296 362.202,106.087C362.426,103.877 362.767,101.948 363.223,100.301C363.679,98.654 364.262,97.338 364.971,96.354C365.68,95.369 366.52,94.877 367.49,94.877C368.489,94.877 369.3,95.47 369.923,96.655C370.545,97.84 371.11,99.578 371.617,101.868C371.675,101.265 371.714,100.562 371.736,99.759C371.758,98.955 371.772,98.132 371.78,97.288C371.787,96.444 371.79,95.62 371.79,94.817L371.79,92.587L371.551,92.587C371.479,93.31 371.305,93.672 371.03,93.672C370.943,93.672 370.835,93.632 370.704,93.551C370.574,93.471 370.437,93.371 370.292,93.25C370.147,93.129 370.006,93.019 369.868,92.919C369.731,92.818 369.619,92.728 369.532,92.647C368.764,92.165 367.997,91.924 367.23,91.924C366.115,91.924 365.105,92.457 364.2,93.521C363.295,94.586 362.52,96.072 361.876,97.981C361.232,99.889 360.736,102.139 360.388,104.731C360.041,107.322 359.867,110.125 359.867,113.138C359.867,116.272 360.034,119.134 360.367,121.726C360.7,124.317 361.185,126.537 361.822,128.385C362.459,130.233 363.23,131.67 364.135,132.694C365.04,133.719 366.071,134.231 367.23,134.231C368.142,134.231 369.014,133.859 369.847,133.116C370.679,132.373 371.443,131.137 372.138,129.41Z" style="fill:rgb(0,74,147);fill-rule:nonzero;stroke:rgb(3,74,142);stroke-width:0.72px;"/>
    </g>
    <g transform="matrix(5.73967,0,0,2.06838,-1540.76,56.3813)">
        <path d="M377.871,133.508L377.871,132.905C377.625,132.905 377.426,132.885 377.274,132.845C377.122,132.805 377.003,132.694 376.916,132.513C376.829,132.333 376.771,132.041 376.742,131.64C376.713,131.238 376.699,130.675 376.699,129.952L376.699,96.263C376.699,95.54 376.713,94.978 376.742,94.576C376.771,94.174 376.829,93.883 376.916,93.702C377.003,93.521 377.122,93.411 377.274,93.371C377.426,93.33 377.625,93.31 377.871,93.31L377.871,92.708L373.658,92.708L373.658,93.31C373.904,93.31 374.103,93.33 374.255,93.371C374.407,93.411 374.527,93.521 374.614,93.702C374.701,93.883 374.758,94.174 374.787,94.576C374.816,94.978 374.831,95.54 374.831,96.263L374.831,129.952C374.831,130.675 374.816,131.238 374.787,131.64C374.758,132.041 374.701,132.333 374.614,132.513C374.527,132.694 374.407,132.805 374.255,132.845C374.103,132.885 373.904,132.905 373.658,132.905L373.658,133.508L377.871,133.508Z" style="fill:rgb(0,74,147);fill-rule:nonzero;stroke:rgb(3,74,142);stroke-width:0.72px;"/>
    </g>
    <g transform="matrix(5.73967,0,0,2.06838,-1540.76,56.3813)">
        <path d="M385.994,90.056C386.501,88.891 386.996,87.706 387.482,86.5C387.967,85.295 388.484,84.17 389.034,83.125C389.107,83.005 389.172,82.854 389.23,82.673C389.288,82.493 389.317,82.282 389.317,82.041C389.317,81.639 389.262,81.307 389.154,81.046C389.045,80.785 388.911,80.614 388.752,80.534C388.593,80.454 388.423,80.474 388.242,80.594C388.061,80.715 387.898,80.956 387.753,81.317C387.492,81.92 387.253,82.593 387.036,83.336C386.819,84.08 386.606,84.833 386.396,85.596C386.186,86.36 385.972,87.123 385.755,87.886C385.538,88.65 385.306,89.353 385.06,89.996L385.994,90.056ZM393.421,113.138C393.421,109.602 393.226,106.499 392.835,103.827C392.444,101.155 391.923,98.935 391.271,97.167C390.62,95.399 389.881,94.074 389.056,93.19C388.231,92.306 387.391,91.854 386.537,91.834C385.683,91.814 384.843,92.246 384.018,93.129C383.192,94.013 382.454,95.349 381.802,97.137C381.151,98.925 380.63,101.145 380.239,103.797C379.848,106.448 379.652,109.562 379.652,113.138C379.652,116.031 379.801,118.763 380.097,121.334C380.394,123.905 380.836,126.145 381.422,128.054C382.009,129.962 382.729,131.469 383.583,132.574C384.437,133.679 385.422,134.231 386.537,134.231C387.637,134.231 388.614,133.679 389.469,132.574C390.323,131.469 391.043,129.952 391.63,128.024C392.216,126.095 392.661,123.855 392.965,121.304C393.269,118.753 393.421,116.031 393.421,113.138ZM391.467,113.138C391.467,115.267 391.38,117.417 391.206,119.586C391.032,121.756 390.75,123.725 390.359,125.492C389.968,127.26 389.458,128.697 388.828,129.801C388.198,130.906 387.434,131.459 386.537,131.459C385.625,131.459 384.857,130.906 384.235,129.801C383.612,128.697 383.105,127.27 382.714,125.522C382.324,123.775 382.041,121.806 381.867,119.616C381.694,117.427 381.607,115.267 381.607,113.138C381.607,111.008 381.694,108.859 381.867,106.689C382.041,104.52 382.324,102.551 382.714,100.783C383.105,99.015 383.612,97.569 384.235,96.444C384.857,95.319 385.625,94.757 386.537,94.757C387.434,94.757 388.195,95.319 388.817,96.444C389.44,97.569 389.946,99.015 390.337,100.783C390.728,102.551 391.014,104.53 391.195,106.719C391.376,108.909 391.467,111.049 391.467,113.138Z" style="fill:rgb(0,74,147);fill-rule:nonzero;stroke:rgb(3,74,142);stroke-width:0.72px;"/>
    </g>
    <g transform="matrix(5.73967,0,0,2.06838,-1540.76,56.3813)">
        <path d="M408.45,93.31L408.45,92.708L404.932,92.708L404.932,93.31C405.236,93.31 405.471,93.391 405.638,93.551C405.804,93.712 405.92,93.973 405.985,94.335C406.05,94.696 406.086,95.158 406.094,95.721C406.101,96.283 406.105,96.966 406.105,97.77L406.105,125.613C404.773,120.028 403.419,114.544 402.043,109.16C400.668,103.776 399.314,98.292 397.982,92.708L395.115,92.708L395.115,93.31C395.333,93.31 395.495,93.34 395.604,93.401C395.713,93.461 395.803,93.581 395.875,93.762C395.948,93.943 396.013,94.204 396.071,94.546C396.129,94.887 396.201,95.319 396.288,95.841L396.288,128.566C396.288,129.369 396.284,130.042 396.277,130.585C396.27,131.127 396.23,131.569 396.158,131.911C396.085,132.252 395.97,132.503 395.81,132.664C395.651,132.825 395.419,132.905 395.115,132.905L395.115,133.508L398.612,133.508L398.612,132.905C398.322,132.905 398.098,132.825 397.939,132.664C397.779,132.503 397.667,132.242 397.602,131.881C397.537,131.519 397.501,131.067 397.493,130.525C397.486,129.982 397.483,129.329 397.483,128.566L397.483,99.216L406.191,133.809L407.299,133.809L407.299,97.77C407.299,97.007 407.303,96.344 407.31,95.781C407.317,95.219 407.353,94.757 407.418,94.395C407.484,94.033 407.596,93.762 407.755,93.581C407.914,93.401 408.146,93.31 408.45,93.31Z" style="fill:rgb(0,74,147);fill-rule:nonzero;stroke:rgb(3,74,142);stroke-width:0.72px;"/>
    </g>
    <g transform="matrix(1,0,0,1.08638,-9667.48,-1276.69)">
        <g transform="matrix(17.1525,0,0,15.7887,9673.59,1409.92)">
            <path d="M0,4.048C0,4.486 0.403,4.881 0.851,4.881L5.018,4.881C5.466,4.881 5.869,4.486 5.869,4.048L5.869,0C5.869,-0.438 5.466,-0.833 5.018,-0.833L0.851,-0.833C0.403,-0.833 0,-0.438 0,0L0,4.048Z" style="fill:rgb(236,236,236);fill-rule:nonzero;"/>
        </g>
        <g transform="matrix(1,0,0,0.92049,8845.14,-1532.98)">
            <path d="M869.019,3210.14L869.019,3218.86L866.417,3218.83C866.417,3218.83 866.121,3217.23 865.905,3216.58C865.689,3215.94 865.196,3215.53 863.965,3215.38C862.734,3215.24 862.501,3215.3 862.133,3215.28C861.765,3215.26 848.345,3215.28 848.345,3215.28L848.345,3229.96L861.342,3229.95C861.342,3229.95 863.48,3230.14 863.762,3229.01C864.043,3227.88 864.212,3226.67 864.212,3226.67L866.851,3226.67L866.851,3238.51L864.22,3238.51C864.22,3238.51 863.985,3237.15 863.834,3236.31C863.684,3235.46 863.014,3235.15 861.596,3235.11C860.178,3235.07 848.344,3235.11 848.344,3235.11L848.331,3251.34C848.331,3251.34 848.24,3251.66 848.953,3251.65C849.666,3251.65 853.413,3251.61 853.413,3251.61C853.413,3251.61 861.66,3251.6 862.092,3251.6C862.524,3251.6 865.31,3251.78 866.789,3250.15C868.269,3248.51 868.49,3247.34 868.697,3246.94L871.555,3246.93L869.493,3256.7L837.708,3256.7L837.708,3254.14C837.708,3254.14 838.701,3254.12 838.87,3254.12C839.04,3254.11 840.011,3254.14 840.519,3253.87C840.628,3253.81 840.863,3252.68 840.794,3250.88C840.762,3250.01 840.805,3235.32 840.805,3235.32L840.79,3214.4C840.79,3214.4 840.749,3213.57 840.547,3213.02C840.547,3213.02 840.246,3212.76 838.784,3212.76C837.322,3212.75 837.711,3212.74 837.711,3212.74L837.713,3210.17L869.019,3210.14Z" style="fill:rgb(0,75,147);"/>
        </g>
        <g transform="matrix(1,0,0,0.92049,8845.14,-1532.98)">
            <path d="M877.497,3210.17L887.669,3210.16C895.304,3221.59 903.055,3232.8 910.842,3243.92C910.852,3233.54 910.868,3223.03 910.809,3214.31C910.715,3212.9 910.219,3212.92 908.839,3212.77L907.282,3212.75L907.282,3210.17L919.892,3210.17L919.877,3212.74L918.424,3212.77C917.009,3212.91 916.535,3212.89 916.401,3214.65C916.41,3228.73 916.399,3242.89 916.394,3257.03L911.608,3257.03L886.623,3221.32L886.623,3251.9C886.636,3254.03 887.078,3253.99 888.644,3254.12L890.037,3254.14L890.04,3256.71L877.502,3256.71L877.495,3254.13L879.009,3254.11C880.711,3253.99 881.081,3253.83 881.051,3251.76L881.065,3214.78L880.509,3213.6C880.181,3212.89 880.015,3212.81 878.99,3212.77L877.5,3212.75L877.497,3210.17Z" style="fill:rgb(0,75,147);"/>
        </g>
    </g>
</svg>
