<?xml version="1.0" encoding="UTF-8" standalone="no"?>
<!DOCTYPE svg PUBLIC "-//W3C//DTD SVG 1.1//EN" "http://www.w3.org/Graphics/SVG/1.1/DTD/svg11.dtd">
<svg width="100%" height="100%" viewBox="0 0 514 429" version="1.1" xmlns="http://www.w3.org/2000/svg" xmlns:xlink="http://www.w3.org/1999/xlink" xml:space="preserve" xmlns:serif="http://www.serif.com/" style="fill-rule:evenodd;clip-rule:evenodd;stroke-linejoin:round;stroke-miterlimit:2;">
    <g transform="matrix(1.32742,0,0,1.32742,-21344.6,-9149.55)">
        <g transform="matrix(2.19786,0,0,2.19786,15104.4,6596.18)">
            <path d="M505.891,137.572C508.394,135.069 513.614,134.594 517.848,136.425C523.304,138.783 527.025,145.964 524.036,152.067C523.432,160.168 532.106,166.66 532.333,171.794C532.494,175.435 530.181,178.828 527.211,180.94C524.242,183.052 520.672,184.115 517.177,185.143C516.072,185.468 514.966,185.794 513.86,186.119C507.674,187.938 501.28,189.777 494.878,189.012C488.476,188.248 482.009,184.184 480.493,177.917C479.186,172.51 483.118,167.584 484.789,162.278C486.689,156.243 482.1,149.939 489.614,140.882C493.931,135.679 501.537,134.99 505.891,137.572Z" style="fill:white;fill-rule:nonzero;"/>
        </g>
        <g transform="matrix(2.19786,0,0,2.19786,15104.4,6596.18)">
            <path d="M500.063,136.477C496.467,136.477 492.551,137.929 489.903,141.121C485.08,146.935 485.344,151.645 485.576,155.8C485.703,158.083 485.824,160.239 485.147,162.39C484.624,164.049 483.879,165.682 483.158,167.261C481.526,170.837 479.984,174.215 480.858,177.829C482.42,184.289 489.243,187.962 494.922,188.64C501.351,189.407 507.94,187.469 513.754,185.759L517.072,184.783C520.499,183.775 524.044,182.733 526.994,180.635C529.503,178.849 532.126,175.594 531.959,171.811C531.867,169.75 530.259,167.327 528.556,164.762C526.094,161.055 523.302,156.852 523.662,152.039L523.698,151.902C524.94,149.368 525.053,146.426 524.016,143.618C522.883,140.55 520.521,137.989 517.698,136.769C513.599,134.996 508.528,135.465 506.156,137.837C506.036,137.958 505.847,137.983 505.7,137.895C504.138,136.968 502.154,136.477 500.063,136.477ZM497.921,189.563C496.892,189.563 495.862,189.507 494.833,189.384C488.905,188.677 481.775,184.814 480.129,178.005C479.194,174.14 480.863,170.484 482.476,166.949C483.187,165.391 483.923,163.78 484.431,162.165C485.067,160.144 484.951,158.055 484.827,155.842C484.587,151.549 484.314,146.683 489.326,140.642C493.679,135.395 501.288,134.601 505.835,137.108C508.517,134.665 513.676,134.213 517.995,136.08C521.004,137.381 523.518,140.101 524.72,143.359C525.819,146.336 525.707,149.461 524.405,152.166C524.098,156.694 526.798,160.759 529.18,164.347C531.02,167.117 532.608,169.508 532.708,171.778C532.859,175.194 530.836,178.822 527.429,181.246C524.376,183.417 520.77,184.477 517.283,185.503L513.966,186.479C509.002,187.938 503.479,189.563 497.921,189.563Z" style="fill-rule:nonzero;"/>
        </g>
        <g transform="matrix(2.19786,0,0,2.19786,15104.4,6596.18)">
            <path d="M519.279,191.824C517.844,187.63 516.875,183.292 515.89,178.306C513.919,177.969 511.891,177.934 509.909,178.203C509.018,178.325 508.045,178.562 507.547,179.273C507.236,179.719 507.169,180.275 507.111,180.807C506.714,184.462 506.317,188.118 505.92,191.774C505.89,192.055 505.86,192.348 505.96,192.614C506.102,192.994 506.477,193.248 506.843,193.454C508.888,194.605 513.97,201.973 516.327,201.582C518.383,201.241 517.741,193.323 519.279,191.824Z" style="fill:white;fill-rule:nonzero;"/>
        </g>
        <g transform="matrix(2.19786,0,0,2.19786,15104.4,6596.18)">
            <path d="M509.186,194.077C510.169,194.195 515.386,201.736 516.367,201.58C518.323,201.268 517.399,193.057 518.846,191.718C517.495,187.712 516.552,183.572 515.573,178.634C514.576,178.477 513.572,178.399 512.565,178.399C511.696,178.399 510.826,178.458 509.959,178.575C509.205,178.678 508.285,178.874 507.855,179.488C507.59,179.866 507.534,180.387 507.484,180.847L506.293,191.814C506.267,192.05 506.241,192.295 506.311,192.483C506.412,192.752 506.73,192.96 507.027,193.127M506.659,193.781C506.244,193.547 505.794,193.241 505.609,192.746C505.476,192.391 505.516,192.026 505.547,191.733L506.739,180.766C506.795,180.244 506.866,179.593 507.24,179.058C507.837,178.205 508.953,177.955 509.858,177.832C511.887,177.557 513.937,177.592 515.953,177.936C516.107,177.963 516.228,178.081 516.258,178.233C517.268,183.348 518.229,187.597 519.633,191.703C519.68,191.84 519.643,191.992 519.541,192.093C518.224,193.377 518.071,200.918 516.327,201.389C515.543,201.6 513.789,198.973 512.585,197.57C512.319,197.259 512.203,197 511.55,195.779" style="fill-rule:nonzero;"/>
        </g>
        <g transform="matrix(2.19786,0,0,2.19786,15104.4,6596.18)">
            <path d="M514.701,149.226C519.044,150.253 521.023,151.161 521.195,152.201C521.711,155.318 521.588,157.938 522.534,160.958C523.672,164.591 523.617,173.686 519.279,178.025C515.695,181.609 511.042,182.229 505.458,180.802C501.671,179.834 495.958,174.988 494.912,168.772C492.489,170.31 489.331,169.32 488.577,166.95C488.143,165.583 489.132,163.404 490.755,162.997C492.01,162.682 492.162,162.65 493.322,163.082C493.112,160.081 497.961,157.028 500.259,154.556C505.824,148.572 507.306,142.663 507.306,142.663C507.306,142.663 509.094,147.899 514.701,149.226Z" style="fill:white;fill-rule:nonzero;"/>
        </g>
        <g transform="matrix(2.19786,0,0,2.19786,15104.4,6596.18)">
            <path d="M494.912,168.397L495.065,168.429C495.18,168.481 495.261,168.586 495.282,168.71C496.312,174.836 502.008,179.533 505.551,180.439C511.331,181.915 515.734,181.039 519.013,177.76C523.209,173.564 523.302,164.665 522.177,161.07C521.563,159.113 521.393,157.353 521.214,155.489C521.114,154.455 521.011,153.385 520.825,152.262C520.617,151.011 516.099,149.942 514.615,149.591C510.298,148.57 508.183,145.363 507.367,143.739C506.702,145.682 504.823,150.199 500.533,154.812C499.891,155.503 499.068,156.225 498.198,156.989C496.022,158.899 493.557,161.063 493.696,163.056C493.704,163.183 493.648,163.306 493.546,163.383C493.444,163.459 493.31,163.478 493.19,163.434C492.13,163.038 492.058,163.057 490.846,163.361C490.236,163.514 489.665,163.997 489.281,164.687C488.876,165.413 488.744,166.236 488.934,166.836C489.233,167.775 489.985,168.524 490.998,168.893C492.203,169.33 493.591,169.167 494.711,168.455L494.912,168.397ZM510.597,181.886C508.984,181.886 507.243,181.645 505.365,181.165C501.635,180.212 495.954,175.612 494.641,169.354C493.419,169.959 491.998,170.054 490.742,169.597C489.509,169.149 488.589,168.225 488.22,167.063C487.968,166.273 488.124,165.222 488.626,164.322C489.11,163.452 489.853,162.837 490.664,162.633C491.802,162.347 492.131,162.286 492.958,162.556C493.189,160.388 495.577,158.292 497.703,156.426C498.559,155.674 499.367,154.965 499.984,154.301C505.421,148.455 506.928,142.63 506.942,142.572C506.983,142.411 507.124,142.296 507.29,142.289C507.457,142.281 507.607,142.385 507.661,142.541C507.678,142.592 509.457,147.6 514.788,148.861C519.396,149.951 521.361,150.901 521.565,152.139C521.755,153.288 521.86,154.37 521.961,155.417C522.137,157.241 522.302,158.963 522.892,160.846C524.065,164.592 523.95,173.884 519.544,178.29C517.141,180.693 514.187,181.886 510.597,181.886Z" style="fill-rule:nonzero;"/>
        </g>
        <g transform="matrix(1.50893,0,0,2.19786,15458.3,6596.18)">
            <path d="M510.845,174.464C510.7,174.464 510.552,174.456 510.401,174.441C509.008,174.301 507.694,173.618 506.703,172.516C506.564,172.362 506.577,172.125 506.731,171.987C506.885,171.849 507.121,171.861 507.26,172.014C508.127,172.977 509.269,173.574 510.477,173.695C511.553,173.802 512.477,173.438 512.95,172.717C513.064,172.544 513.297,172.496 513.469,172.609C513.643,172.723 513.69,172.956 513.577,173.129C513.018,173.982 512.016,174.464 510.845,174.464Z" style="fill-rule:nonzero;"/>
        </g>
        <g transform="matrix(-1.50202,0.14421,-0.210052,-2.1878,17030.6,7280.4)">
            <path d="M510.845,174.464C510.7,174.464 510.552,174.456 510.401,174.441C509.008,174.301 507.694,173.618 506.703,172.516C506.564,172.362 506.577,172.125 506.731,171.987C506.885,171.849 507.121,171.861 507.26,172.014C508.127,172.977 509.269,173.574 510.477,173.695C511.553,173.802 512.477,173.438 512.95,172.717C513.064,172.544 513.297,172.496 513.469,172.609C513.643,172.723 513.69,172.956 513.577,173.129C513.018,173.982 512.016,174.464 510.845,174.464Z" style="fill-rule:nonzero;"/>
        </g>
        <g transform="matrix(2.19786,0,0,2.19786,15104.4,6596.18)">
            <path d="M502.383,161.122C502.297,160.612 502.664,160.125 503.202,160.034C503.74,159.944 504.246,160.284 504.332,160.795C504.418,161.305 504.051,161.792 503.513,161.883C502.975,161.973 502.469,161.633 502.383,161.122Z" style="fill-rule:nonzero;"/>
        </g>
        <g transform="matrix(2.19786,0,0,2.19786,15104.4,6596.18)">
            <path d="M516.873,159.23C516.787,158.719 517.154,158.232 517.692,158.141C518.229,158.051 518.736,158.391 518.822,158.902C518.908,159.412 518.541,159.899 518.003,159.99C517.465,160.08 516.959,159.74 516.873,159.23Z" style="fill-rule:nonzero;"/>
        </g>
        <g transform="matrix(2.19786,0,0,2.19786,15104.4,6596.18)">
            <path d="M514.339,166.314L514.341,166.314L514.339,166.314ZM513.293,167.937C513.181,167.937 513.07,167.887 512.995,167.791C512.87,167.627 512.9,167.392 513.064,167.265L514.193,166.392L514.317,166.285L514.151,166.148C512.62,165.018 511.681,163.231 511.642,161.368C511.638,161.161 511.802,160.99 512.008,160.986L512.017,160.986C512.221,160.986 512.388,161.149 512.392,161.353C512.427,162.984 513.25,164.551 514.597,165.545C514.776,165.678 515.111,165.924 515.081,166.334C515.057,166.672 514.794,166.876 514.651,166.985L513.521,167.859L513.293,167.937Z" style="fill-rule:nonzero;"/>
        </g>
        <g transform="matrix(2.19786,0,0,2.19786,15104.4,6596.18)">
            <path d="M496.126,238.253C495.233,238.143 494.34,238.25 493.448,238.357C492.413,238.481 491.38,238.606 490.353,238.392L490.305,238.504C489.973,239.182 489.045,238.67 489.166,238.024C489.313,237.244 489.596,236.461 489.809,235.695C490.026,234.916 490.283,234.148 490.512,233.372C491.348,230.538 492.048,227.644 492.674,224.757C493.305,221.849 493.813,218.92 494.158,215.964C494.234,215.316 495.256,215.303 495.186,215.964C495.107,216.719 495.016,217.474 494.921,218.228C495.012,218.303 495.074,218.416 495.077,218.568C495.102,220.214 495.142,221.86 495.201,223.506C495.43,223.548 495.633,223.719 495.639,224.019C495.687,226.202 495.781,228.385 495.921,230.565C495.991,231.647 496.065,232.729 496.141,233.811C496.179,234.35 496.213,234.89 496.271,235.427C496.326,235.925 496.446,236.417 496.471,236.918L496.47,236.931C496.528,237.141 496.588,237.351 496.653,237.56C496.75,237.868 496.478,238.296 496.126,238.253ZM594.119,169.596C588.855,174 583.518,178.408 578.127,182.751C573.145,186.764 568.089,190.74 562.489,193.831C560.208,195.182 557.513,195.47 554.967,195.174C552.421,194.879 549.974,194.043 547.534,193.259C542.249,191.56 536.893,190.081 531.484,188.827C528.601,188.612 524.861,188.595 518.943,189.13C518.172,191.429 518.067,192.05 517.624,192.56C517.151,193.103 517.53,201.365 516.438,201.597C514.894,201.926 510.486,194.376 509.491,194.159C507.583,193.743 506.146,192.222 505.812,190.298C504.11,190.699 502.401,191.41 500.703,191.872C494.701,193.505 488.916,195.443 484.727,199.825C482.158,202.512 480.367,205.846 478.879,209.253C475.429,217.154 471.675,233.096 469.736,241.498C469.082,244.332 468.44,247.371 469.492,250.083C469.876,251.072 470.504,252 471.411,252.55C472.616,253.279 474.115,253.249 475.523,253.204C488.117,252.8 500.731,253.015 513.563,253.446C513.602,253.054 513.888,253.304 514.181,253.554C514.472,253.803 514.767,254.053 514.82,253.663C517.831,251.14 527.763,246.895 539.492,249.553C539.405,243.444 538.705,237.082 538.739,230.859C538.96,230.016 539.984,227.829 540.914,226.715C541.324,226.223 542.085,218.148 541.836,217.559C540.859,215.244 540.899,213.562 539.781,211.31C539.573,210.89 540.007,210.382 540.448,210.643L540.616,210.738L541.776,211.064C542.453,211.22 542.193,211.077 542.851,211.297C543.089,211.377 543.324,211.464 543.56,211.551C546.065,212.478 550.724,213.294 555.398,213.941C560.072,214.587 566.539,213.98 570.465,211.362C577.097,207.134 581.092,201.924 586.473,196.492C591.021,191.9 595.57,187.308 600.118,182.716C596.774,179.102 594.9,174.381 594.119,169.596Z" style="fill:rgb(57,107,153);fill-rule:nonzero;"/>
        </g>
        <g transform="matrix(-0.0864441,0.672179,-0.672179,-0.0864441,17005.8,5461.59)">
            <path d="M2284.07,556.753L2307.68,554.654C2307.68,554.654 2266.34,504.957 2258,513.486C2252.2,519.405 2284.07,556.753 2284.07,556.753Z" style="fill:white;fill-rule:nonzero;stroke:black;stroke-width:1.85px;"/>
        </g>
        <g transform="matrix(2.19786,0,0,2.19786,15104.4,6596.18)">
            <path d="M611.84,175.189C612.087,174.163 610.189,172.744 610.454,171.722C610.915,169.942 611.409,168.17 611.926,166.405C611.834,166.318 611.761,166.194 611.652,166.171C611.756,165.21 611.324,164.086 610.575,163.323C609.773,163.182 608.968,162.917 608.162,162.635C607.855,162.528 607.549,162.435 607.249,162.286C607.059,162.191 606.868,162.106 606.676,162.023L606.662,162.02L606.483,161.942L606.339,161.881C605.692,161.619 605.041,161.385 604.394,161.123C604.227,161.055 604.1,160.928 604.058,160.782L603.881,160.902C603.378,161.053 601.392,162.04 599.636,164.892C597.943,167.642 597.113,169.815 594.686,171.544C595.522,174.354 595.456,176.235 597.529,178.381C598.311,179.19 598.042,180.935 598.898,181.446C601.356,179.196 604.91,178.014 607.828,176.603C607.947,176.09 611.718,175.701 611.84,175.189Z" style="fill:white;fill-rule:nonzero;"/>
        </g>
        <g transform="matrix(0.527486,0,0,0.527486,7650.63,3749.1)">
            <path d="M16288.6,6405.84C16288.6,6405.84 16327.9,6408.02 16340.4,6413.07C16352.9,6418.13 16391.5,6454.46 16383.8,6469.51C16376,6484.55 16334.6,6473.03 16324.2,6473.45C16324.2,6473.45 16321.7,6454.51 16302.4,6449.18C16283,6443.85 16269.4,6444.87 16269.4,6444.87C16269.4,6444.87 16277.1,6413.37 16288.6,6405.84Z" style="fill:white;"/>
        </g>
        <g transform="matrix(2.19786,0,0,2.19786,15104.4,6596.18)">
            <path d="M539.922,258.057L539.803,258.05C539.322,257.987 539.046,257.564 538.943,257.405L538.922,257.374C538.552,256.856 538.229,256.399 537.94,255.99C536.665,254.188 536.084,253.365 535.166,252.333C535.029,252.178 535.043,251.942 535.197,251.804C535.352,251.666 535.589,251.68 535.727,251.835C536.672,252.899 537.3,253.787 538.552,255.556C538.841,255.964 539.164,256.421 539.533,256.939L539.571,256.996C539.628,257.083 539.761,257.288 539.899,257.305C539.984,257.317 540.109,257.253 540.247,257.128C540.392,256.996 540.499,256.235 540.429,255.836C539.772,252.076 537.174,249.23 533.477,246.112C532.259,245.085 531.117,244.383 529.985,243.965C528.754,243.511 527.412,243.347 526.113,243.189C524.634,243.008 523.221,242.869 521.854,242.734C520.484,242.599 519.065,242.459 517.578,242.277C517.373,242.252 517.226,242.065 517.25,241.86C517.276,241.654 517.464,241.51 517.669,241.533C519.149,241.713 520.562,241.853 521.927,241.987C523.299,242.123 524.716,242.263 526.204,242.444C527.545,242.608 528.932,242.777 530.245,243.262C531.46,243.71 532.675,244.455 533.96,245.539C537.783,248.761 540.472,251.724 541.168,255.707C541.239,256.112 541.219,257.257 540.752,257.684C540.478,257.931 540.199,258.057 539.922,258.057Z" style="fill-rule:nonzero;"/>
        </g>
        <g transform="matrix(1.40771,0,0,2.19786,15528.6,6598.72)">
            <path d="M536.674,233.806L536.447,233.729C536.282,233.604 536.25,233.368 536.376,233.203C538.746,230.099 541.106,226.922 543.39,223.76C543.692,223.341 543.925,222.99 543.947,222.611C543.966,222.29 543.82,221.936 543.691,221.624L537.194,205.9C537.115,205.708 537.206,205.489 537.397,205.41C537.59,205.331 537.808,205.422 537.887,205.614L544.384,221.337C544.535,221.705 544.725,222.162 544.696,222.654C544.66,223.282 544.277,223.812 543.998,224.199C541.71,227.366 539.346,230.549 536.972,233.659C536.899,233.755 536.787,233.806 536.674,233.806Z" style="fill-rule:nonzero;"/>
        </g>
        <g transform="matrix(2.19786,0,0,2.19786,15104.4,6596.18)">
            <path d="M537.914,249.961C537.711,249.961 537.544,249.798 537.539,249.594C537.535,249.387 537.7,249.215 537.907,249.211L539.053,249.187C538.648,246.51 538.659,243.463 538.67,240.246C538.68,237.357 538.69,234.368 538.424,231.216C538.407,231.01 538.56,230.828 538.767,230.811C538.975,230.798 539.155,230.947 539.172,231.153C539.44,234.338 539.43,237.343 539.42,240.249C539.408,243.605 539.397,246.775 539.861,249.49C539.88,249.597 539.85,249.708 539.781,249.792C539.711,249.876 539.608,249.926 539.499,249.928L537.922,249.961L537.914,249.961Z" style="fill-rule:nonzero;"/>
        </g>
        <g transform="matrix(2.19786,0,0,2.19786,15104.4,6596.18)">
            <path d="M489.935,238.13C492.088,238.166 494.292,238.233 496.56,238.333C496.241,234.55 495.866,230.708 495.504,226.992C495.227,224.144 494.942,221.223 494.68,218.31C493.961,221.789 493.081,225.247 492.225,228.614C491.433,231.725 490.616,234.937 489.935,238.13ZM513.748,254.038L513.735,254.038C494.467,253.393 484.672,253.672 479.41,253.822C473.022,254.005 472.9,254.008 470.41,251.929L470.221,251.772C468.285,250.158 468.404,247.224 468.662,245.158C469.366,239.523 477.431,210.985 478.682,208.233C481.311,202.449 485.267,196.589 496.314,192.906L496.408,192.888C496.884,192.815 505.042,190.591 505.823,190.183C505.95,190.118 506.103,190.129 506.218,190.213C506.334,190.297 506.391,190.44 506.366,190.58C506.039,192.451 509.105,194.133 510.035,194.422C511.546,194.893 515.076,202.061 516.517,201.543C517.567,201.165 517.022,192.826 517.767,191.994C518.445,191.239 518.171,189.51 518.172,189.494C518.19,189.33 518.315,189.197 518.478,189.168C518.633,189.139 522.289,188.477 523.461,188.415C526.501,188.253 529.613,188.453 532.71,189.01C539.277,190.19 543.88,191.803 547.579,193.098C555.622,195.915 559.293,197.201 569.832,188.895C572.251,186.989 574.44,185.284 576.372,183.78C582.979,178.634 587.753,174.916 594.097,169.103C594.2,169.008 594.348,168.978 594.48,169.027C594.611,169.076 594.705,169.194 594.722,169.333C595.425,175.02 597.29,179.308 600.425,182.443C600.568,182.586 600.572,182.816 600.434,182.964C591.05,193.044 584.27,200.327 573.941,209.402C564.71,217.514 553.318,214.986 539.385,210.839C539.186,210.78 539.073,210.571 539.132,210.372C539.191,210.174 539.401,210.06 539.598,210.12C553.306,214.2 564.503,216.697 573.446,208.839C583.191,200.278 589.478,193.63 599.641,182.715C596.667,179.619 594.841,175.496 594.073,170.14C587.969,175.698 583.269,179.359 576.833,184.372C574.902,185.875 572.714,187.58 570.297,189.484C559.433,198.044 555.641,196.716 547.331,193.806C543.657,192.519 539.085,190.918 532.577,189.748C529.537,189.201 526.483,189.006 523.5,189.164C522.552,189.214 519.753,189.703 518.877,189.858C518.783,190.415 518.508,191.666 517.857,192.393C517.086,193.253 518.016,201.52 516.946,201.945C515.294,202.6 511.506,195.093 509.754,194.547C508.497,194.155 505.759,193.076 505.597,191.07C503.588,191.757 497.493,193.43 496.546,193.62C484.291,197.706 481.086,204.756 479.364,208.544C478.121,211.279 470.107,239.647 469.406,245.251C469.17,247.143 469.047,249.817 470.701,251.195L470.891,251.353C473.163,253.25 473.163,253.251 479.389,253.072C484.606,252.924 494.27,252.648 513.177,253.269C512.206,250.531 513.616,247.463 514.57,245.388C515.599,243.151 516.806,241.641 518.234,240.814C516.461,240.622 514.736,240.444 513.086,240.284C504.357,239.437 496.631,238.976 489.468,238.873C489.356,238.871 489.251,238.82 489.181,238.732C489.111,238.645 489.084,238.531 489.107,238.421C489.809,235.066 490.668,231.692 491.498,228.43C492.567,224.227 493.673,219.88 494.452,215.543C494.485,215.358 494.652,215.227 494.839,215.235C495.027,215.243 495.179,215.39 495.195,215.578C495.514,219.36 495.889,223.203 496.251,226.919C496.614,230.642 496.989,234.492 497.308,238.284L497.306,238.367C502.249,238.6 507.493,238.988 513.158,239.537C515.182,239.733 517.32,239.957 519.518,240.201C519.597,240.203 519.685,240.216 519.784,240.231L520.01,240.35L520.013,240.353L520.013,240.354L520.06,240.422L520.107,240.615L520.107,240.617L520.098,240.684L520.012,240.851L519.904,240.936L519.818,240.967C517.992,241.439 516.5,242.987 515.252,245.702C514.234,247.915 512.84,250.947 514.085,253.498C514.143,253.617 514.133,253.756 514.063,253.867C513.992,253.974 513.875,254.038 513.748,254.038Z" style="fill-rule:nonzero;"/>
        </g>
        <g transform="matrix(2.19786,0,0,2.19786,15104.4,6596.18)">
            <path d="M520.497,242.51L520.442,242.506C520.237,242.476 520.096,242.286 520.125,242.08C520.174,241.745 520.088,241.395 519.888,241.12C519.793,240.988 519.69,240.946 519.677,240.949C519.477,241.005 519.271,240.886 519.216,240.687C519.161,240.487 519.279,240.281 519.479,240.226C519.833,240.129 520.222,240.303 520.495,240.68C520.809,241.111 520.945,241.661 520.867,242.189C520.84,242.375 520.68,242.51 520.497,242.51Z" style="fill-rule:nonzero;"/>
        </g>
        <g transform="matrix(2.19786,0,0,2.19786,15104.4,6596.18)">
            <path d="M605.513,164.262C606.486,163.508 607.734,163.116 608.964,163.178C609.737,163.218 610.506,163.43 611.274,163.336C612.042,163.242 612.846,162.703 612.875,161.93C612.894,161.443 612.601,160.995 612.251,160.656C611.33,159.766 610.021,159.422 608.761,159.192C607.977,159.049 607.119,159.418 606.332,159.54C605.631,159.649 605.023,159.459 604.401,159.802C604.016,160.014 603.629,160.26 603.394,160.632C603.068,161.147 603.092,161.804 603.169,162.409C603.248,163.039 603.391,163.701 603.832,164.158C604.273,164.616 605.009,164.653 605.513,164.262Z" style="fill:white;fill-rule:nonzero;"/>
        </g>
        <g transform="matrix(2.19786,0,0,2.19786,15104.4,6596.18)">
            <path d="M609.563,175.298C610.469,175.077 612.99,174.188 612.656,173.656C612.246,173.004 610.983,169.08 610.222,168.965C608.922,168.768 607.548,169.266 606.206,170.097C605.791,170.354 605.638,172.681 605.525,173.156C605.465,173.407 605.568,173.67 605.702,173.891C606.09,174.529 607.326,174.357 607.514,175.08C608.136,177.477 608.118,176.311 608.437,176.375C608.755,176.44 609.247,175.375 609.563,175.298Z" style="fill:white;fill-rule:nonzero;"/>
        </g>
        <g transform="matrix(2.19786,0,0,2.19786,15104.4,6596.18)">
            <path d="M611.289,173.49C611.915,173.446 612.548,173.396 613.146,173.204C613.744,173.013 614.313,172.664 614.653,172.137C614.994,171.609 615.066,170.886 614.733,170.354C614.323,169.702 613.476,169.508 612.715,169.393C611.415,169.196 610.097,169.061 608.787,169.174C608.301,169.215 607.715,169.378 607.602,169.853C607.542,170.105 607.645,170.368 607.779,170.589C608.167,171.227 608.359,171.921 609.099,172.023C609.421,172.068 612.223,172.766 611.289,173.49Z" style="fill:white;fill-rule:nonzero;"/>
        </g>
        <g transform="matrix(2.19786,0,0,2.19786,15104.4,6596.18)">
            <path d="M612.776,170.417C613.402,170.373 614.035,170.323 614.633,170.131C615.231,169.94 615.8,169.591 616.141,169.064C616.481,168.536 616.554,167.813 616.22,167.281C615.811,166.629 614.964,166.435 614.202,166.32C612.903,166.123 611.584,165.988 610.275,166.1C610.125,166.113 609.881,166.094 609.61,166.074C608.999,166.03 608.254,165.986 608.176,166.316C608.116,166.567 606.986,167.742 607.12,167.963C607.508,168.601 610.339,168.603 611.078,168.705C611.4,168.749 613.71,169.693 612.776,170.417Z" style="fill:white;fill-rule:nonzero;"/>
        </g>
        <g transform="matrix(2.19786,0,0,2.19786,15104.4,6596.18)">
            <path d="M616.22,167.281C616.571,167.802 618.122,166.017 618.462,165.489C618.803,164.962 618.876,164.238 618.542,163.707C618.133,163.055 617.285,162.861 616.524,162.745C615.225,162.548 613.906,162.414 612.597,162.526C612.11,162.568 611.253,162.655 611.14,163.13C611.08,163.381 608.637,164.21 608.772,164.432C609.16,165.069 607.721,166.1 611.059,165.978C611.384,165.966 615.289,165.899 616.22,167.281Z" style="fill:white;fill-rule:nonzero;"/>
        </g>
        <g transform="matrix(2.19786,0,0,2.19786,15104.4,6596.18)">
            <path d="M609.632,162.773C611.198,162.384 614.82,162.829 614.692,161.319C614.628,160.552 613.06,159.667 612.298,159.552C610.999,159.355 609.559,159.151 608.249,159.263C607.763,159.305 604.587,159.582 604.474,160.058C604.414,160.31 602.721,161.006 602.855,161.227C603.243,161.865 604.248,164.874 604.988,164.976C605.31,165.02 607.247,163.366 609.632,162.773Z" style="fill:white;fill-rule:nonzero;"/>
        </g>
        <g transform="matrix(2.19786,0,0,2.19786,15108.7,6589.69)">
            <path d="M607.556,179.555C605.471,179.992 595.924,184.853 597.393,184.373C597.59,184.308 596.889,184.038 596.939,183.826C597.115,183.09 607.62,178.453 608.568,178.272C609.441,178.106 611.81,175.994 612.305,175.406C612.683,174.957 612.844,174.201 612.398,173.684C611.823,173.018 610.848,172.85 609.899,172.735C608.133,172.519 606.12,172.601 605.69,173.173C605.649,173.228 605.539,173.375 605.697,173.743C606.125,174.74 608.823,174.724 609.977,174.718C610.115,174.717 610.239,174.715 610.35,174.717C610.556,174.718 610.724,174.887 610.722,175.094C610.722,175.3 610.554,175.467 610.347,175.467L610.265,175.467C610.178,175.467 610.083,175.467 609.981,175.468C608.461,175.477 605.632,175.493 605.008,174.038C604.736,173.405 604.903,172.973 605.09,172.723C605.937,171.593 609.054,171.877 609.99,171.99C611.036,172.117 612.216,172.325 612.966,173.194C613.606,173.936 613.569,175.069 612.879,175.889C612.209,176.685 608.483,179.36 607.556,179.555Z" style="fill-rule:nonzero;"/>
        </g>
        <g transform="matrix(2.19786,0,0,2.19786,15104.4,6596.18)">
            <path d="M614.674,170.962C614.537,170.962 614.405,170.886 614.339,170.756C614.245,170.571 614.319,170.345 614.504,170.252C615.487,169.755 616.13,169.046 616.182,168.402C616.221,167.927 615.947,167.473 615.371,167.053C614.28,166.258 611.907,166.161 610.127,166.476C608.494,166.765 607.568,167.704 607.497,167.963L607.613,168.18C607.923,168.492 608.575,168.687 608.892,168.625C609.095,168.588 609.292,168.719 609.331,168.923C609.37,169.126 609.237,169.323 609.033,169.362C608.439,169.475 607.546,169.176 607.081,168.709C606.814,168.44 606.7,168.122 606.761,167.814C606.89,167.164 608.183,166.059 609.996,165.738C611.874,165.405 614.494,165.486 615.813,166.447C616.812,167.175 616.971,167.945 616.93,168.463C616.855,169.379 616.075,170.298 614.843,170.921L614.674,170.962Z" style="fill-rule:nonzero;"/>
        </g>
        <g transform="matrix(2.19786,0,0,2.19786,15104.4,6596.18)">
            <path d="M594.8,171.665C594.695,171.665 594.591,171.622 594.516,171.536C594.381,171.38 594.397,171.143 594.554,171.007C597.287,168.634 598.315,166.808 599.223,165.198C599.784,164.201 600.314,163.259 601.168,162.288C602.634,160.619 603.732,159.742 606.009,159.269C611.119,158.209 612.368,158.901 613.372,159.457L613.58,159.571C614.458,160.036 615.002,160.702 615.037,161.353C615.058,161.767 614.872,162.129 614.512,162.372C613.545,163.023 612.405,163.033 611.303,163.043C610.328,163.051 609.407,163.059 608.665,163.5C606.444,164.82 606.324,164.943 605.543,165.749C605.39,165.906 605.212,166.089 604.992,166.309C604.845,166.456 604.608,166.456 604.461,166.309C604.315,166.163 604.315,165.926 604.461,165.779C604.679,165.562 604.853,165.382 605.004,165.226C605.827,164.379 605.975,164.226 608.282,162.855C609.198,162.311 610.265,162.302 611.297,162.293C612.333,162.284 613.313,162.275 614.093,161.749C614.233,161.655 614.295,161.541 614.287,161.392C614.273,161.109 613.987,160.635 613.229,160.234L613.009,160.113C612.113,159.617 610.999,158.999 606.161,160.003C604.081,160.435 603.113,161.21 601.732,162.783C600.93,163.696 600.418,164.604 599.876,165.566C598.939,167.229 597.877,169.115 595.045,171.574L594.8,171.665Z" style="fill-rule:nonzero;"/>
        </g>
        <g transform="matrix(2.19786,0,0,2.19786,15104.4,6596.18)">
            <path d="M616.228,167.735C616.115,167.735 616.004,167.685 615.93,167.589C615.804,167.425 615.834,167.189 615.999,167.063C616.187,166.918 616.431,166.776 616.712,166.612C617.815,165.97 618.709,165.361 618.482,164.415C618.227,163.354 616.342,162.803 615.046,162.803L614.991,162.803C613.651,162.82 612.3,163.196 610.995,163.559L610.626,163.662C609.976,163.841 608.907,164.337 609.018,165.06C609.034,165.162 609.095,165.419 609.318,165.582C609.517,165.726 609.807,165.768 610.18,165.707C610.382,165.673 610.577,165.812 610.611,166.017C610.644,166.221 610.505,166.414 610.301,166.447C609.724,166.542 609.244,166.455 608.877,166.188C608.426,165.86 608.307,165.37 608.276,165.174C608.098,164.012 609.322,163.244 610.426,162.938L610.793,162.836C612.146,162.46 613.544,162.071 614.982,162.053C616.402,162.039 618.82,162.614 619.211,164.24C619.587,165.805 618.084,166.681 617.09,167.26C616.841,167.405 616.607,167.541 616.456,167.657L616.228,167.735Z" style="fill-rule:nonzero;"/>
        </g>
        <g transform="matrix(2.19786,0,0,2.19786,15104.4,6596.18)">
            <path d="M514.524,254.324C514.044,254.324 513.497,254.108 513.289,253.594C513.211,253.402 513.304,253.183 513.495,253.106C513.688,253.028 513.906,253.121 513.985,253.313C514.064,253.508 514.362,253.595 514.61,253.569C515.13,253.512 515.596,253.111 515.984,252.726C516.417,252.295 516.826,251.83 517.198,251.344C517.323,251.179 517.56,251.148 517.724,251.274C517.888,251.4 517.919,251.636 517.794,251.8C517.401,252.312 516.969,252.803 516.513,253.258C516.033,253.734 515.443,254.232 514.693,254.315L514.524,254.324Z" style="fill-rule:nonzero;"/>
        </g>
        <g transform="matrix(2.19786,0,0,2.19786,15093.8,6675.23)">
            <path d="M510.971,197.651C508.223,197.651 505.498,196.063 504.19,193.639C504.092,193.457 504.16,193.23 504.342,193.131C504.524,193.033 504.752,193.101 504.85,193.283C506.116,195.629 508.854,197.107 511.51,196.878C511.713,196.86 511.898,197.013 511.916,197.22C511.934,197.426 511.781,197.608 511.575,197.626C511.374,197.643 511.172,197.651 510.971,197.651Z" style="fill-rule:nonzero;"/>
        </g>
        <g transform="matrix(2.19786,0,0,2.19786,15104.4,6596.18)">
            <path d="M484.89,239.234C484.708,239.234 484.548,239.101 484.52,238.916C484.489,238.711 484.629,238.52 484.834,238.488C486.829,238.182 488.569,238.088 490.838,238.167C491.045,238.174 491.207,238.348 491.2,238.555C491.193,238.762 491.023,238.925 490.812,238.917C488.594,238.84 486.894,238.931 484.947,239.229L484.89,239.234Z" style="fill-rule:nonzero;"/>
        </g>
        <g transform="matrix(2.19786,0,0,2.19786,15104.4,6596.18)">
            <path d="M493.554,167.444C493.394,167.444 493.246,167.342 493.196,167.182C492.811,165.962 492.679,164.645 492.814,163.373C492.836,163.167 493.021,163.017 493.227,163.04C493.433,163.062 493.582,163.246 493.56,163.452C493.436,164.622 493.557,165.834 493.911,166.956C493.974,167.154 493.864,167.364 493.666,167.427L493.554,167.444Z" style="fill-rule:nonzero;"/>
        </g>
        <g transform="matrix(2.19786,0,0,2.19786,15104.4,6596.18)">
            <path d="M516.862,187.134L516.841,187.132L516.693,187.116L516.594,187.098L516.544,187.089L516.52,187.085L516.533,187.086C516.099,186.999 515.706,186.751 515.305,186.569C514.388,186.082 513.473,185.591 512.565,185.086C510.85,184.141 509.06,183.337 507.309,182.462L507.402,181.601C508.519,181.791 509.584,181.886 510.597,181.886C512.591,181.886 514.39,181.517 516.007,180.778C516.46,182.962 516.919,184.997 517.43,186.947C517.34,187.02 517.232,187.075 517.109,187.105L516.854,187.132L516.862,187.134Z" style="fill:rgb(222,222,222);fill-rule:nonzero;"/>
        </g>
        <g transform="matrix(2.19786,0,0,2.19786,15104.4,6596.18)">
            <path d="M517.43,186.947C516.919,184.997 516.46,182.962 516.007,180.778C516.12,180.726 516.232,180.672 516.344,180.617L516.344,180.618L516.395,180.756L516.378,180.944C516.547,181.564 516.716,182.184 516.886,182.804C517.007,183.472 517.2,184.124 517.43,184.763C517.528,185.106 517.627,185.449 517.721,185.793C517.765,185.955 517.806,186.119 517.848,186.284L517.723,186.493C517.672,186.67 517.573,186.831 517.43,186.947ZM507.309,182.462C507.201,182.408 507.093,182.354 506.985,182.299L506.846,182.197C506.906,181.995 506.979,181.797 507.043,181.595L507.059,181.54C507.174,181.561 507.288,181.582 507.402,181.601L507.309,182.462Z" style="fill-rule:nonzero;"/>
        </g>
        <g transform="matrix(2.19786,0,0,2.19786,15104.4,6596.18)">
            <path d="M510.597,181.886C509.584,181.886 508.519,181.791 507.402,181.601C507.288,181.582 507.174,181.561 507.059,181.54L507.089,181.435L507.101,181.208L507.099,181.029C507.558,181.068 508.017,181.089 508.478,181.089L508.591,181.089C508.798,181.183 509.007,181.276 509.217,181.367C509.538,181.508 509.861,181.647 510.184,181.786C510.255,181.645 510.383,181.529 510.573,181.475C511.114,181.358 512.971,181.273 513.555,181.115C514.279,180.947 514.661,180.774 514.982,180.627C515.328,180.469 515.729,180.194 516.091,180.194C516.213,180.194 516.331,180.225 516.44,180.304C516.344,180.365 516.289,180.475 516.344,180.617C516.232,180.672 516.12,180.726 516.007,180.778C514.39,181.517 512.591,181.886 510.597,181.886Z" style="fill-rule:nonzero;"/>
        </g>
        <g transform="matrix(2.19786,0,0,2.19786,15104.4,6596.18)">
            <path d="M515.209,253.357C515.331,253.266 515.463,253.172 515.602,253.077C515.477,253.182 515.346,253.278 515.209,253.357Z" style="fill:rgb(222,222,222);fill-rule:nonzero;"/>
        </g>
        <g transform="matrix(2.19786,0,0,2.19786,15104.4,6596.18)">
            <path d="M514.523,253.574C514.336,253.574 514.138,253.514 514.036,253.396C513.78,252.837 513.648,252.257 513.607,251.668C513.885,251.685 514.226,251.696 514.604,251.709C514.702,251.713 514.802,251.716 514.904,251.72L514.918,251.783L514.958,251.722C515.512,251.742 516.146,251.769 516.817,251.819C516.552,252.134 516.274,252.438 515.984,252.726C515.864,252.845 515.737,252.966 515.602,253.077C515.463,253.172 515.331,253.266 515.209,253.357C515.018,253.468 514.818,253.546 514.61,253.569C514.581,253.572 514.552,253.574 514.523,253.574ZM520.916,241.887C520.906,241.886 520.898,241.885 520.888,241.884C520.888,241.682 520.857,241.481 520.797,241.288C520.817,241.312 520.835,241.338 520.851,241.365C520.953,241.528 520.966,241.716 520.916,241.887ZM520.136,241.808C519.556,241.748 518.966,241.685 518.366,241.615C518.806,241.327 519.268,241.117 519.753,240.985C519.792,241.011 519.841,241.055 519.888,241.12C520.034,241.321 520.12,241.562 520.136,241.808Z" style="fill:rgb(150,185,215);fill-rule:nonzero;"/>
        </g>
        <g transform="matrix(2.19786,0,0,2.19786,15104.4,6596.18)">
            <path d="M514.886,250.969C514.799,250.966 514.563,250.919 514.479,250.916C514.081,250.902 513.878,250.934 513.603,250.916C513.703,249.072 514.563,247.199 515.252,245.702C515.937,244.212 516.695,243.073 517.543,242.271C517.554,242.274 517.565,242.276 517.578,242.277C518.281,242.363 518.968,242.44 519.642,242.511C519.487,242.556 519.326,242.591 519.181,242.652C518.633,242.879 518.883,242.74 518.359,243.177C517.469,244.125 517.24,244.429 516.557,245.642C515.922,246.806 515.481,247.813 515.149,249.487C515.008,250.257 514.909,250.509 514.886,250.969Z" style="fill:rgb(150,185,215);fill-rule:nonzero;"/>
        </g>
        <g transform="matrix(2.19786,0,0,2.19786,15104.4,6596.18)">
            <path d="M516.817,251.819C516.146,251.769 515.512,251.742 514.958,251.722L514.886,250.969C515.249,251.036 515.905,251.043 516.219,251.07C516.958,251.132 517.436,251.239 517.502,251.239C517.79,251.239 516.813,251.724 517.116,251.678C517.532,251.615 517.11,251.668 517.116,251.678C517.084,251.716 516.849,251.781 516.817,251.819ZM514.903,251.714C514.903,251.714 514.702,251.713 514.604,251.709C514.226,251.696 513.885,251.685 513.607,251.668C513.59,251.418 513.59,251.167 513.603,250.916C513.878,250.934 514.232,250.946 514.63,250.96C514.714,250.963 514.867,250.884 514.886,250.969C515,251.467 515.042,251.786 514.898,251.671L514.903,251.714Z" style="fill-rule:nonzero;"/>
        </g>
        <g transform="matrix(2.19786,0,0,2.19786,15104.4,6596.18)">
            <path d="M519.642,242.511C518.968,242.44 518.281,242.363 517.578,242.277C517.565,242.276 517.554,242.274 517.543,242.271C517.807,242.02 518.083,241.801 518.366,241.615C518.966,241.685 519.556,241.748 520.136,241.808C520.142,241.899 520.138,241.99 520.125,242.08C520.107,242.202 520.151,242.318 520.231,242.399C520.112,242.41 519.994,242.419 519.875,242.428C519.801,242.461 519.722,242.487 519.642,242.511ZM520.888,241.966L520.888,241.884C520.898,241.885 520.906,241.886 520.916,241.887C520.908,241.914 520.899,241.94 520.888,241.966Z" style="fill-rule:nonzero;"/>
        </g>
        <g transform="matrix(2.19786,0,0,2.19786,15104.4,6596.18)">
            <path d="M514.036,253.396C514.013,253.371 513.997,253.343 513.985,253.313C513.926,253.167 513.784,253.078 513.637,253.078C513.62,253.078 513.604,253.079 513.589,253.081C513.239,252.109 513.334,250.82 513.612,249.384C513.836,248.296 513.807,248.155 514.172,247.016C514.775,245.429 515.597,243.899 516.744,242.638C516.965,242.399 517.203,242.174 517.456,241.969C517.377,241.695 517.754,241.468 517.986,241.251C518.176,241.047 518.127,240.921 518.393,240.915C518.539,240.901 518.688,240.895 518.835,240.895C519.024,240.895 519.211,240.904 519.4,240.918C519.453,240.947 519.513,240.963 519.577,240.963C519.61,240.963 519.643,240.959 519.677,240.949L519.679,240.949C519.689,240.949 519.716,240.959 519.753,240.985C519.268,241.117 518.806,241.327 518.366,241.615C518.083,241.801 517.807,242.02 517.543,242.271C516.695,243.073 515.937,244.212 515.252,245.702C514.563,247.199 513.703,249.072 513.603,250.916C513.59,251.167 513.59,251.418 513.607,251.668C513.648,252.257 513.78,252.837 514.036,253.396Z" style="fill-rule:nonzero;"/>
        </g>
        <g transform="matrix(2.19786,0,0,2.19786,15104.4,6596.18)">
            <path d="M520.231,242.399C520.151,242.318 520.107,242.202 520.125,242.08C520.138,241.99 520.142,241.899 520.136,241.808C520.12,241.562 520.034,241.321 519.888,241.12C519.841,241.055 519.792,241.011 519.753,240.985C519.716,240.959 519.689,240.949 519.679,240.949L519.677,240.949C519.643,240.959 519.61,240.963 519.577,240.963C519.513,240.963 519.453,240.947 519.4,240.918C519.599,240.933 519.797,240.951 519.995,240.968C520.286,240.995 520.61,241.053 520.797,241.288C520.857,241.481 520.888,241.682 520.888,241.884L520.888,241.966C520.787,242.205 520.559,242.392 520.281,242.392L520.27,242.392L520.237,242.399L520.231,242.399Z" style="fill-rule:nonzero;"/>
        </g>
        <g transform="matrix(2.19786,0,0,2.19786,15104.4,6596.18)">
            <path d="M514.61,253.828C514.249,253.828 513.909,253.666 513.651,253.241C513.629,253.189 513.607,253.135 513.589,253.081C513.604,253.079 513.62,253.078 513.637,253.078C513.784,253.078 513.926,253.167 513.985,253.313C513.997,253.343 514.013,253.371 514.036,253.396C514.138,253.514 514.336,253.574 514.523,253.574C514.552,253.574 514.581,253.572 514.61,253.569C514.818,253.546 515.018,253.468 515.209,253.357C515.346,253.278 515.477,253.182 515.602,253.077C515.737,252.966 515.864,252.845 515.984,252.726C516.274,252.438 516.552,252.134 516.817,251.819C516.849,251.781 516.88,251.743 516.912,251.705C517.15,252.19 516.848,252.597 516.448,252.879C516.339,252.966 516.228,253.051 516.115,253.134C515.687,253.498 515.125,253.828 514.61,253.828Z" style="fill-rule:nonzero;"/>
        </g>
        <g transform="matrix(2.19786,0,0,2.19786,15104.4,6596.18)">
            <path d="M489.182,237.941C489.238,237.66 489.311,237.379 489.391,237.098C489.332,237.366 489.274,237.634 489.217,237.901C489.205,237.915 489.194,237.928 489.182,237.941Z" style="fill:rgb(222,222,222);fill-rule:nonzero;"/>
        </g>
        <g transform="matrix(2.19786,0,0,2.19786,15104.4,6596.18)">
            <path d="M485.679,238.423C485.636,238.272 485.87,238.021 485.9,237.839C485.904,237.54 486.111,237.302 486.254,237.052C486.479,236.675 486.684,236.285 486.892,235.898C487.593,234.62 488.934,231.963 489.136,231.394C489.687,230.091 490.655,227.95 491.299,225.518C491.556,224.657 491.759,223.781 492.006,222.917C492.139,222.498 492.193,221.852 492.762,221.852L492.763,221.852C492.883,221.853 493.002,221.893 493.102,221.961C492.589,224.14 492.039,226.303 491.498,228.43C490.777,231.263 490.034,234.182 489.391,237.098C489.311,237.379 489.238,237.66 489.182,237.941C489.121,238.01 489.056,238.078 488.989,238.143C487.922,238.155 486.693,238.303 485.679,238.423Z" style="fill:rgb(35,67,97);fill-rule:nonzero;"/>
        </g>
        <g transform="matrix(2.19786,0,0,2.19786,15104.4,6596.18)">
            <path d="M489.217,237.901C489.274,237.634 489.332,237.366 489.391,237.098C490.034,234.182 490.777,231.263 491.498,228.43C492.039,226.303 492.589,224.14 493.102,221.961C493.237,222.053 493.335,222.198 493.345,222.366C493.353,222.783 493.198,223.2 493.139,223.615C492.886,224.931 492.675,226.259 492.28,227.543C491.708,229.304 491.137,231.065 490.533,232.815C490.628,232.868 490.711,232.941 490.767,233.042C490.889,233.235 490.857,233.465 490.8,233.675C490.727,234.027 490.661,234.381 490.574,234.73C490.307,235.843 489.974,237.025 489.217,237.901Z" style="fill-rule:nonzero;"/>
        </g>
        <g transform="matrix(2.19786,0,0,2.19786,15104.4,6596.18)">
            <path d="M486.065,238.641C486.003,238.55 485.955,238.449 485.924,238.339C486.938,238.219 487.922,238.155 488.989,238.143C488.926,238.204 488.861,238.263 488.792,238.32L488.645,238.438C487.787,238.446 486.908,238.465 486.065,238.641Z" style="fill-rule:nonzero;"/>
        </g>
        <g transform="matrix(2.19786,0,0,2.19786,15104.4,6596.18)">
            <path d="M480.522,255.335C479.195,255.335 477.91,255.27 477.172,255.16C475.646,255.041 474.166,254.672 472.728,254.158C472.333,254.064 472.165,253.643 472.26,253.298C473.124,253.762 474.042,253.897 475.897,253.897C476.807,253.897 477.975,254.124 479.41,253.822C482.236,253.227 509.553,253.341 513.261,253.995C514.236,254.054 514.365,254.527 514.663,254.723C514.987,254.935 515.37,254.892 513.607,255.526C513.251,255.539 488.526,255.029 488.17,255.057C486.388,255.155 484.602,255.132 482.822,255.262C482.112,255.312 481.31,255.335 480.522,255.335Z" style="fill:rgb(222,222,222);fill-rule:nonzero;"/>
        </g>
        <g transform="matrix(2.19786,0,0,2.19786,15104.4,6596.18)">
            <path d="M473.494,252.955C473.353,252.921 473.221,252.882 473.094,252.837C473.227,252.86 473.361,252.906 473.494,252.955Z" style="fill:rgb(150,185,215);fill-rule:nonzero;"/>
        </g>
        <g transform="matrix(2.19786,0,0,2.19786,15104.4,6596.18)">
            <path d="M526.062,258.093C525.97,258.093 525.877,258.078 525.789,258.047L525.776,258.009C525.35,256.735 524.909,255.418 524.036,254.452C523.533,253.896 522.882,253.423 522.086,253.034C521.606,252.799 521.073,252.595 520.487,252.423C520.398,252.396 520.306,252.37 520.213,252.345C519.617,252.185 518.186,251.907 517.556,251.819C517.722,251.786 517.548,251.604 517.717,251.6C517.745,251.597 517.517,251.449 517.556,251.449C517.678,251.449 518.972,251.725 519.066,251.735C520.63,251.87 521.905,252.853 522.825,253.211C523.479,253.548 524.378,254.078 525.176,254.715C525.778,255.65 526.137,256.724 526.487,257.771L526.549,257.955C526.401,258.043 526.232,258.093 526.062,258.093Z" style="fill-rule:nonzero;"/>
        </g>
        <g transform="matrix(2.19786,0,0,2.19786,15104.4,6596.18)">
            <path d="M512.435,253.995C510.721,253.94 509.086,253.893 507.523,253.852C507.024,253.839 506.532,253.827 506.048,253.815C504.085,253.767 502.242,253.731 500.514,253.703C499.919,253.694 499.337,253.685 498.769,253.678C497.625,253.663 496.534,253.652 495.493,253.644C494.924,253.64 494.371,253.637 493.831,253.635C493.195,253.633 492.578,253.631 491.981,253.631C491.291,253.631 490.628,253.633 489.989,253.636C489.735,253.637 489.485,253.638 489.239,253.64C484.837,253.667 481.696,253.757 479.41,253.822C477.944,253.864 476.807,253.897 475.897,253.897C474.042,253.897 473.124,253.762 472.26,253.298C472.304,253.138 472.404,252.995 472.564,252.906C472.68,252.845 472.798,252.821 472.917,252.821C472.976,252.821 473.035,252.827 473.094,252.837C473.221,252.882 473.353,252.921 473.494,252.955C473.684,253.025 473.873,253.103 474.059,253.137C474.996,253.435 476.659,253.533 478.34,253.533C479.931,253.533 481.538,253.445 482.563,253.358C485.556,253.175 488.652,253.032 491.657,253.032C491.81,253.032 491.964,253.033 492.116,253.033C492.382,253.038 492.648,253.04 492.914,253.04C493.32,253.04 493.726,253.036 494.131,253.032C494.537,253.028 494.943,253.023 495.349,253.023C496.103,253.023 496.857,253.037 497.611,253.091C499.92,253.206 502.235,253.126 504.536,253.393C505.819,253.504 507.1,253.645 508.386,253.729C509.526,253.808 510.672,253.81 511.809,253.934C512.018,253.952 512.227,253.973 512.435,253.995Z" style="fill-rule:nonzero;"/>
        </g>
        <g transform="matrix(2.19786,0,0,2.19786,15104.4,6596.18)">
            <path d="M514.524,254.324C514.266,254.324 513.987,254.262 513.754,254.124C514.025,254.143 514.294,254.156 514.565,254.156C514.732,254.156 514.9,254.151 515.067,254.14C515.237,254.11 515.406,254.068 515.572,254.015C515.536,254.035 515.499,254.056 515.461,254.075C515.226,254.197 514.969,254.284 514.693,254.315L514.524,254.324Z" style="fill-rule:nonzero;"/>
        </g>
        <g transform="matrix(2.19786,0,0,2.19786,15104.4,6596.18)">
            <path d="M487.333,162.13L487.257,162.104L487.235,161.928C489.142,159.472 490.568,156.611 491.947,153.845C493.674,150.381 495.459,146.799 498.204,143.995C500.217,141.939 502.673,140.372 505.049,138.857L505.222,138.895L505.183,139.068C502.82,140.575 500.376,142.134 498.383,144.17C495.666,146.946 493.889,150.51 492.171,153.957C490.787,156.734 489.355,159.605 487.432,162.081L487.333,162.13Z" style="fill-rule:nonzero;"/>
        </g>
        <g transform="matrix(2.19786,0,0,2.19786,15104.4,6596.18)">
            <path d="M489.912,160.366L489.808,160.31L489.844,160.137C492.278,158.531 493.797,155.919 495.265,153.393C495.948,152.217 496.655,151.001 497.448,149.893C498.777,148.036 500.417,146.396 502.003,144.81C503.25,143.563 504.54,142.274 505.668,140.889L505.844,140.871L505.862,141.047C504.726,142.442 503.432,143.736 502.18,144.987C500.601,146.566 498.968,148.199 497.652,150.038C496.865,151.137 496.161,152.348 495.481,153.519C493.998,156.07 492.465,158.708 489.981,160.346L489.912,160.366Z" style="fill-rule:nonzero;"/>
        </g>
        <g transform="matrix(2.19786,0,0,2.19786,15104.4,6596.18)">
            <path d="M497.783,154.692L497.717,154.673L497.678,154.5C498.56,153.106 499.597,151.775 500.599,150.488C502.346,148.243 504.153,145.923 505.157,143.236L505.318,143.163L505.392,143.324C504.374,146.046 502.555,148.382 500.796,150.641C499.797,151.924 498.765,153.251 497.889,154.634L497.783,154.692Z" style="fill-rule:nonzero;"/>
        </g>
        <g transform="matrix(2.19786,0,0,2.19786,15104.4,6596.18)">
            <path d="M487.131,160.128L487.081,160.117L487.017,159.953C487.527,158.783 488.021,157.58 488.499,156.417C489.808,153.231 491.162,149.937 493,146.958C495.041,143.649 498.574,139.404 503.81,137.968L503.964,138.056L503.876,138.21C498.718,139.624 495.23,143.819 493.213,147.089C491.385,150.051 490.035,153.335 488.73,156.512C488.252,157.677 487.757,158.881 487.246,160.053L487.131,160.128Z" style="fill-rule:nonzero;"/>
        </g>
        <g transform="matrix(2.19786,0,0,2.19786,15104.4,6596.18)">
            <path d="M487.126,155.409L487.11,155.408L487.001,155.269C487.586,150.575 489.587,145.999 492.638,142.383C494.949,139.643 497.434,138.026 500.025,137.575L500.169,137.677L500.068,137.821C497.537,138.262 495.101,139.851 492.829,142.544C489.809,146.124 487.828,150.653 487.249,155.299L487.126,155.409Z" style="fill-rule:nonzero;"/>
        </g>
        <g transform="matrix(2.19786,0,0,2.19786,15104.4,6596.18)">
            <path d="M486.613,183.082L486.536,183.055C483.696,180.835 482.172,177.092 482.654,173.519C482.798,172.451 483.104,171.431 483.413,170.487C484.12,168.333 484.98,166.206 485.97,164.166L486.138,164.108L486.196,164.275C485.21,166.305 484.353,168.421 483.65,170.566C483.345,171.497 483.043,172.504 482.901,173.552C482.431,177.038 483.918,180.691 486.69,182.858L486.712,183.034L486.613,183.082Z" style="fill-rule:nonzero;"/>
        </g>
        <g transform="matrix(2.19786,0,0,2.19786,15104.4,6596.18)">
            <path d="M492.182,186.962L492.089,186.921C488.844,183.31 486.118,179.983 485.612,175.827C485.313,173.364 485.883,170.887 486.48,168.789L486.635,168.703L486.721,168.858C486.13,170.932 485.566,173.378 485.86,175.796C486.357,179.88 489.059,183.175 492.275,186.754L492.265,186.93L492.182,186.962Z" style="fill-rule:nonzero;"/>
        </g>
        <g transform="matrix(2.19786,0,0,2.19786,15104.4,6596.18)">
            <path d="M496.553,187.612L496.491,187.595C490.567,184.207 487.06,176.859 488.152,170.122L488.295,170.018L488.398,170.162C487.322,176.799 490.778,184.04 496.615,187.378L496.662,187.549L496.553,187.612Z" style="fill-rule:nonzero;"/>
        </g>
        <g transform="matrix(2.19786,0,0,2.19786,15104.4,6596.18)">
            <path d="M505.542,183.934L505.499,183.926C499.931,181.901 495.504,177.265 493.947,171.828L494.033,171.673L494.187,171.759C495.723,177.12 500.09,181.692 505.585,183.691L505.659,183.852L505.542,183.934Z" style="fill-rule:nonzero;"/>
        </g>
        <g transform="matrix(2.19786,0,0,2.19786,15104.4,6596.18)">
            <path d="M500.381,187.443L500.34,187.436C497.896,186.6 495.67,184.963 493.902,182.701C492.412,180.796 491.227,178.409 490.378,175.607C490.006,174.378 489.651,172.928 489.84,171.484L489.98,171.376L490.088,171.517C489.905,172.913 490.253,174.331 490.617,175.535C491.457,178.307 492.628,180.667 494.098,182.547C495.837,184.77 498.023,186.379 500.421,187.199L500.499,187.358L500.381,187.443Z" style="fill-rule:nonzero;"/>
        </g>
        <g transform="matrix(2.19786,0,0,2.19786,15104.4,6596.18)">
            <path d="M503.8,186.515L503.771,186.512C502.475,186.203 501.354,185.433 500.428,184.721C495.865,181.211 492.796,176.525 491.788,171.525L491.886,171.378L492.033,171.476C493.029,176.416 496.065,181.049 500.58,184.522C501.485,185.219 502.579,185.97 503.83,186.269L503.922,186.419L503.8,186.515Z" style="fill-rule:nonzero;"/>
        </g>
        <g transform="matrix(2.19786,0,0,2.19786,15104.4,6596.18)">
            <path d="M522.914,152.016L522.801,151.945C520.792,147.659 517.781,143.825 514.094,140.858C511.308,138.616 508.823,137.83 506.714,138.522L506.556,138.442L506.635,138.285C508.832,137.565 511.394,138.365 514.25,140.664C517.968,143.654 521.003,147.518 523.028,151.839L522.968,152.005L522.914,152.016Z" style="fill-rule:nonzero;"/>
        </g>
        <g transform="matrix(2.19786,0,0,2.19786,15104.4,6596.18)">
            <path d="M518.93,148.327L518.838,148.287C517.254,146.551 515.617,144.757 513.747,143.276C511.654,141.617 509.526,140.574 507.423,140.177L507.324,140.031L507.47,139.931C509.613,140.336 511.777,141.396 513.901,143.08C515.788,144.573 517.432,146.375 519.023,148.118L519.015,148.295L518.93,148.327Z" style="fill-rule:nonzero;"/>
        </g>
        <g transform="matrix(2.19786,0,0,2.19786,15104.4,6596.18)">
            <path d="M516.263,147.602L516.209,147.589C513.555,146.293 511.147,144.581 509.051,142.499L509.05,142.322L509.227,142.322C511.304,144.384 513.69,146.081 516.318,147.365L516.375,147.532L516.263,147.602Z" style="fill-rule:nonzero;"/>
        </g>
        <g transform="matrix(2.19786,0,0,2.19786,15104.4,6596.18)">
            <path d="M523.412,148.705L523.301,148.638C520.59,143.434 516.151,139.241 510.801,136.831L510.738,136.666L510.903,136.603C516.305,139.036 520.786,143.269 523.523,148.522L523.469,148.691L523.412,148.705Z" style="fill-rule:nonzero;"/>
        </g>
        <g transform="matrix(2.19786,0,0,2.19786,15104.4,6596.18)">
            <path d="M522.659,144.656L522.555,144.599C520.728,141.786 518.267,139.35 515.437,137.553L515.398,137.38L515.57,137.342C518.431,139.158 520.919,141.62 522.763,144.463L522.727,144.635L522.659,144.656Z" style="fill-rule:nonzero;"/>
        </g>
        <g transform="matrix(2.19786,0,0,2.19786,15104.4,6596.18)">
            <path d="M518.348,182.217L518.228,182.126L518.314,181.972C522.768,180.695 526.166,176.41 526.392,171.781C526.496,169.658 525.994,167.557 525.471,165.586C524.728,162.786 523.862,159.969 523.025,157.245L523.262,157.165L523.143,157.202L523.263,157.172C524.102,159.898 524.969,162.717 525.713,165.522C526.241,167.511 526.748,169.634 526.642,171.794C526.411,176.526 522.937,180.907 518.383,182.212L518.348,182.217Z" style="fill-rule:nonzero;"/>
        </g>
        <g transform="matrix(2.19786,0,0,2.19786,15104.4,6596.18)">
            <path d="M519.45,179.992L519.336,179.919L519.396,179.753C521.841,178.621 523.091,175.829 523.82,173.827C524.018,173.279 524.241,172.637 524.35,171.977C524.545,170.796 524.38,169.585 524.221,168.413L524.328,168.272L524.469,168.379C524.631,169.569 524.798,170.799 524.597,172.018C524.484,172.699 524.258,173.353 524.055,173.913C523.312,175.957 522.031,178.809 519.502,179.98L519.45,179.992Z" style="fill-rule:nonzero;"/>
        </g>
        <g transform="matrix(2.19786,0,0,2.19786,15104.4,6596.18)">
            <path d="M524.523,180.324L524.427,180.28L524.442,180.103C526.558,178.309 528.051,175.713 528.538,172.981C529.024,170.25 528.519,167.298 527.153,164.883L527.2,164.713L527.371,164.76C528.765,167.225 529.28,170.237 528.784,173.025C528.287,175.813 526.763,178.463 524.603,180.294L524.523,180.324Z" style="fill-rule:nonzero;"/>
        </g>
        <g transform="matrix(2.19786,0,0,2.19786,15104.4,6596.18)">
            <path d="M528.815,177.709L528.747,177.689L528.71,177.516C530.043,175.442 530.545,172.863 530.089,170.441L530.189,170.294L530.335,170.394C530.803,172.879 530.287,175.524 528.92,177.651L528.815,177.709Z" style="fill-rule:nonzero;"/>
        </g>
        <g transform="matrix(2.19786,0,0,2.19786,15104.4,6596.18)">
            <path d="M521.343,151.587C521.288,151.503 521.222,151.42 521.146,151.338C521.227,151.412 521.294,151.494 521.343,151.587Z" style="fill:rgb(222,222,222);fill-rule:nonzero;"/>
        </g>
        <g transform="matrix(2.19786,0,0,2.19786,15104.4,6596.18)">
            <path d="M494.35,162.522C494.136,162.522 493.92,162.448 493.758,162.308C494.163,160.531 496.292,158.662 498.198,156.989C499.068,156.225 499.891,155.503 500.533,154.812C504.823,150.199 506.702,145.682 507.367,143.739C508.183,145.363 510.298,148.57 514.615,149.591C516.099,149.942 520.617,151.011 520.825,152.262C520.854,152.442 520.883,152.622 520.909,152.8C520.802,152.849 520.69,152.869 520.577,152.869C520.36,152.869 520.137,152.795 519.932,152.714C519.18,152.454 518.419,152.218 517.649,152.02C513.839,151.242 510.515,149.783 507.964,146.99C507.827,147.284 507.685,147.574 507.55,147.86C506.293,150.579 504.528,153.033 502.455,155.189C500.168,157.597 496.527,159.879 495.076,162.108C494.922,162.39 494.637,162.522 494.35,162.522Z" style="fill:rgb(222,222,222);fill-rule:nonzero;"/>
        </g>
        <g transform="matrix(2.19786,0,0,2.19786,15104.4,6596.18)">
            <path d="M493.758,162.308C493.641,162.207 493.552,162.071 493.511,161.903C493.355,161.418 493.75,161.05 494.014,160.694C495.764,158.251 498.442,156.724 500.51,154.583C503.118,152.015 504.835,149.347 506.465,145.701C506.518,145.568 506.601,145.35 506.625,145.25L506.648,145.181C506.619,144.978 506.67,144.774 506.778,144.602C506.83,144.297 506.894,143.998 507.11,143.772C507.218,143.656 507.35,143.582 507.491,143.54C507.794,143.968 508.103,144.393 508.421,144.811C508.771,145.272 509.128,145.727 509.493,146.176C509.79,146.541 510.129,147.096 510.638,147.096L510.642,147.096L510.836,147.265C510.978,147.366 511.29,147.59 511.401,147.655C512.46,148.383 513.791,149.01 514.388,149.22C515.861,149.767 517.414,150.04 518.925,150.457C519.703,150.759 520.669,150.904 521.146,151.338C521.222,151.42 521.288,151.503 521.343,151.587C521.403,151.701 521.438,151.831 521.439,151.98C521.429,152.294 521.275,152.595 520.997,152.751C520.968,152.77 520.939,152.786 520.909,152.8C520.883,152.622 520.854,152.442 520.825,152.262C520.617,151.011 516.099,149.942 514.615,149.591C510.298,148.57 508.183,145.363 507.367,143.739C506.702,145.682 504.823,150.199 500.533,154.812C499.891,155.503 499.068,156.225 498.198,156.989C496.292,158.662 494.163,160.531 493.758,162.308Z" style="fill-rule:nonzero;"/>
        </g>
        <g transform="matrix(2.19786,0,0,2.19786,15104.4,6596.18)">
            <path d="M559.786,216.925C558.968,216.925 558.151,216.885 557.34,216.814C554.364,216.608 551.365,216.381 548.473,215.609C545.919,214.829 543.508,213.654 540.995,212.755C540.93,212.737 540.868,212.716 540.811,212.69L540.249,211.33C540.271,211.257 540.301,211.187 540.337,211.121C547.232,213.151 553.496,214.727 559.177,214.727C564.62,214.727 569.528,213.28 573.941,209.402C577.98,205.854 581.476,202.58 584.797,199.305L586.922,199.305C586.65,199.562 586.385,199.827 586.118,200.089C584.666,201.483 583.287,202.949 581.955,204.458C577.546,209.33 572.416,213.824 566.096,215.962C564.066,216.652 561.926,216.925 559.786,216.925Z" style="fill:rgb(222,222,222);fill-rule:nonzero;"/>
        </g>
        <g transform="matrix(2.19786,0,0,2.19786,15104.4,6596.18)">
            <path d="M587.868,198.555L585.555,198.555C590.438,193.702 594.999,188.802 600.434,182.964C600.572,182.816 600.568,182.586 600.425,182.443C600.391,182.409 600.357,182.375 600.323,182.341C600.369,182.28 599.515,181.425 599.557,181.368C599.936,180.888 601.243,180.584 601.577,180.074C602.645,179.645 604.528,178.666 606.052,177.979C607.305,177.416 608.294,177.104 608.577,176.987C609.512,176.601 610.834,176.042 611.499,175.557C612.06,175.148 612.699,174.767 613.391,174.094C614.999,173.278 615.334,172.282 615.329,171.586C615.327,171.322 615.277,171.068 615.194,170.829C615.219,170.78 615.244,170.732 615.269,170.683C616.253,170.076 616.864,169.268 616.93,168.463C616.952,168.188 616.917,167.844 616.732,167.472C616.842,167.404 616.964,167.333 617.09,167.26C617.346,167.111 617.635,166.943 617.917,166.748C618.243,166.839 618.524,167.088 618.613,167.435C618.683,167.69 618.648,167.97 618.513,168.199C618.326,168.631 618.133,169.059 617.941,169.489C617.258,171.174 616.334,172.729 615.352,174.254C614.978,174.893 614.768,175.044 614.325,175.644C613.949,176.197 611.986,177.292 611.416,177.626C609.648,178.604 609.248,178.853 607.319,179.446C605.631,179.936 604.495,180.483 603.388,181.212C603.199,181.391 603.232,181.388 602.307,182.661C600.933,184.507 599.44,186.264 597.878,187.954C594.717,191.648 591.477,195.289 587.868,198.555ZM603.225,179.138C603.727,178.894 604.248,178.706 604.778,178.542C604.255,178.741 603.726,178.944 603.225,179.138Z" style="fill:rgb(222,222,222);fill-rule:nonzero;"/>
        </g>
        <g transform="matrix(2.19786,0,0,2.19786,15104.4,6596.18)">
            <path d="M540.811,212.69C540.268,212.444 540.094,211.831 540.249,211.33L540.811,212.69Z" style="fill-rule:nonzero;"/>
        </g>
        <g transform="matrix(2.19786,0,0,2.19786,15104.4,6596.18)">
            <path d="M559.177,214.727C553.496,214.727 547.232,213.151 540.337,211.121C540.488,210.842 541.379,210.632 541.005,210.723C540.76,210.782 540.582,210.809 540.597,210.807C541.077,210.947 542.161,211.438 542.648,211.209C542.715,211.177 542.758,211.048 542.83,211.066C545.023,211.796 547.141,212.761 549.394,213.298C552.093,213.892 553.266,213.963 556.143,214.218C557.471,214.354 558.805,214.459 560.139,214.459C561.067,214.459 561.995,214.408 562.919,214.281C568.127,213.457 574.797,209.211 579.245,204.3C581.046,202.429 582.775,200.493 584.663,198.706C585.016,198.352 585.366,197.994 585.733,197.654C585.993,197.352 586.352,197.115 586.73,197.103C587.13,196.73 587.53,196.356 587.94,195.993C590.252,193.872 592.332,191.517 594.448,189.204C596.285,187.097 599.033,184.046 600.323,182.341C600.357,182.375 600.391,182.409 600.425,182.443C600.568,182.586 600.572,182.816 600.434,182.964C594.999,188.802 590.438,193.702 585.555,198.555C585.303,198.805 585.051,199.055 584.797,199.305C581.476,202.58 577.98,205.854 573.941,209.402C569.528,213.28 564.62,214.727 559.177,214.727Z" style="fill-rule:nonzero;"/>
        </g>
        <g transform="matrix(2.19786,0,0,2.19786,15104.4,6596.18)">
            <path d="M614.213,172.553C614.3,172.416 614.385,172.277 614.469,172.136C614.405,172.285 614.318,172.424 614.213,172.553Z" style="fill:rgb(222,222,222);fill-rule:nonzero;"/>
        </g>
        <g transform="matrix(2.19786,0,0,2.19786,15104.4,6596.18)">
            <path d="M615.269,170.683C615.627,169.98 615.914,169.338 616.079,168.901C616.15,168.727 616.58,167.736 616.579,167.736C616.579,167.736 616.558,167.782 616.509,167.894L616.612,167.648C616.63,167.603 616.648,167.558 616.666,167.513C616.687,167.5 616.709,167.486 616.732,167.472C616.917,167.844 616.952,168.188 616.93,168.463C616.864,169.268 616.253,170.076 615.269,170.683Z" style="fill-rule:nonzero;"/>
        </g>
        <g transform="matrix(2.19786,0,0,2.19786,15104.4,6596.18)">
            <path d="M613.382,174.098C613.544,173.727 613.744,173.299 614.044,172.817C614.101,172.73 614.157,172.642 614.213,172.553C614.318,172.424 614.405,172.285 614.469,172.136C614.727,171.702 614.973,171.256 615.194,170.829C615.277,171.068 615.327,171.322 615.329,171.586C615.334,172.282 614.999,173.278 613.391,174.094C613.388,174.095 613.385,174.097 613.382,174.098Z" style="fill-rule:nonzero;"/>
        </g>
        <g transform="matrix(2.19786,0,0,2.19786,15104.4,6596.18)">
            <path d="M616.666,167.513C616.771,167.248 616.888,166.983 617.156,166.842C617.307,166.752 617.475,166.71 617.641,166.71C617.734,166.71 617.827,166.723 617.917,166.748C617.635,166.943 617.346,167.111 617.09,167.26C616.964,167.333 616.842,167.404 616.732,167.472C616.709,167.486 616.687,167.5 616.666,167.513Z" style="fill-rule:nonzero;"/>
        </g>
        <g transform="matrix(1,0,0,1,4138.12,638.207)">
            <g transform="matrix(0.10668,0,0,0.10668,11842.1,6131.84)">
                <rect x="2290.99" y="3006.58" width="47.13" height="579.76" style="fill:rgb(23,18,9);fill-rule:nonzero;"/>
            </g>
            <g transform="matrix(0.10668,0,0,0.10668,11842.1,6131.84)">
                <path d="M2373.55,2764.96C2373.55,2820.75 2418.79,2865.99 2474.59,2865.99C2530.38,2865.99 2575.62,2820.75 2575.62,2764.96C2575.62,2709.16 2530.38,2663.92 2474.59,2663.92C2418.79,2663.92 2373.55,2709.16 2373.55,2764.96Z" style="fill:rgb(23,18,9);fill-rule:nonzero;"/>
            </g>
            <g transform="matrix(0.10668,0,0,0.10668,11842.1,6131.84)">
                <path d="M2290.98,3006.59L2319.67,3036.44L2456.12,2813.24L2427.43,2783.39L2290.98,3006.59Z" style="fill:rgb(23,18,9);fill-rule:nonzero;"/>
            </g>
        </g>
        <g transform="matrix(1,0,0,1,956.465,55.7083)">
            <path d="M15187.6,7115.32L15127.7,7115.32C15125.3,7115.32 15123.3,7113.32 15123.3,7110.87L15123.3,7095.05C15123.3,7092.6 15125.3,7090.6 15127.7,7090.6L15453.2,7090.6C15455.6,7090.6 15457.6,7092.6 15457.6,7095.05L15457.6,7110.87C15457.6,7113.32 15455.6,7115.32 15453.2,7115.32L15391.5,7115.32L15391.5,7159.95L15187.6,7159.95L15187.6,7115.32Z" style="fill:rgb(202,202,202);fill-rule:nonzero;"/>
        </g>
        <g transform="matrix(0.342304,0,0,0.342304,10361.9,4368.11)">
            <g transform="matrix(1.11958,0,0,1.11958,14325.2,7208.07)">
                <path d="M2853.97,674.672C2857.02,668.481 2865.02,666.188 2871.83,669.549C2878.64,672.91 2881.68,680.654 2878.63,686.844C2875.57,693.034 2867.57,695.328 2860.76,691.967C2853.95,688.605 2850.91,680.862 2853.97,674.672Z" style="fill-rule:nonzero;"/>
            </g>
            <g transform="matrix(1.11958,0,0,1.11958,14325.2,7208.07)">
                <rect x="2726.5" y="787.767" width="183" height="23" style="fill-rule:nonzero;"/>
            </g>
            <g transform="matrix(1.11958,0,0,1.11958,14325.2,7208.07)">
                <rect x="2772.75" y="694.833" width="5.5" height="107.434" style="fill-rule:nonzero;"/>
            </g>
            <g transform="matrix(1.11958,0,0,1.11958,14325.2,7208.07)">
                <rect x="2860.6" y="670.267" width="9" height="129" style="fill-rule:nonzero;"/>
            </g>
            <g transform="matrix(1.11958,0,0,1.11958,14325.2,7208.07)">
                <path d="M2802.54,706.728L2795.35,716.338L2817.77,733.106L2824.96,723.496L2802.54,706.728Z" style="fill-rule:nonzero;"/>
            </g>
            <g transform="matrix(1.11958,0,0,1.11958,14325.2,7208.07)">
                <path d="M2908.53,690.794L2904.42,697.658L2923.29,708.959L2927.4,702.095L2908.53,690.794Z" style="fill-rule:nonzero;"/>
            </g>
            <g transform="matrix(1.11958,0,0,1.11958,14325.2,7208.07)">
                <path d="M2685.02,663.849L2636.44,622.812C2633.01,619.919 2632.46,614.85 2635.18,611.284L2657.76,581.633C2660.48,578.067 2665.51,577.256 2669.21,579.789L2721.68,615.722L2685.02,663.849Z" style="fill-rule:nonzero;"/>
            </g>
            <g transform="matrix(1.11958,0,0,1.11958,14325.2,7208.07)">
                <path d="M2818.84,708.305L2801.47,731.529L2717.38,668.65L2734.75,645.425L2818.84,708.305Z" style="fill:rgb(105,57,47);fill-rule:nonzero;"/>
            </g>
            <g transform="matrix(1.11958,0,0,1.11958,14325.2,7208.07)">
                <path d="M2818.84,708.305L2801.47,731.529L2747.01,690.808L2764.38,667.583L2818.84,708.305Z" style="fill:rgb(74,40,33);fill-rule:nonzero;"/>
            </g>
            <g transform="matrix(1.11958,0,0,1.11958,14325.2,7208.07)">
                <path d="M2720.71,603.715L2673.4,666.982L2707.04,692.135L2754.35,628.867L2720.71,603.715Z" style="fill:rgb(133,72,60);fill-rule:nonzero;"/>
            </g>
            <g transform="matrix(1.11958,0,0,1.11958,14325.2,7208.07)">
                <path d="M2736.2,615.297L2688.89,678.565L2690.9,680.062L2738.2,616.795L2736.2,615.297Z" style="fill-rule:nonzero;"/>
            </g>
            <g transform="matrix(1.11958,0,0,1.11958,14325.2,7208.07)">
                <path d="M2740.61,618.591L2693.3,681.858L2695.3,683.356L2742.61,620.088L2740.61,618.591Z" style="fill-rule:nonzero;"/>
            </g>
            <g transform="matrix(1.11958,0,0,1.11958,14325.2,7208.07)">
                <path d="M2816.1,649.446L2824.31,635.718L2913.2,688.932C2916.24,690.748 2917.22,694.678 2915.41,697.711L2913.76,700.457C2911.95,703.489 2908.02,704.476 2904.98,702.66L2816.1,649.446Z" style="fill:rgb(34,44,77);fill-rule:nonzero;"/>
            </g>
            <g transform="matrix(1.11958,0,0,1.11958,14325.2,7208.07)">
                <path d="M2786.55,622.436C2793.62,610.633 2808.92,606.792 2820.72,613.859C2832.52,620.925 2836.36,636.221 2829.3,648.025C2822.23,659.828 2806.93,663.668 2795.13,656.602C2783.33,649.535 2779.49,634.239 2786.55,622.436Z" style="fill:rgb(140,122,113);fill-rule:nonzero;"/>
            </g>
            <g transform="matrix(1.11958,0,0,1.11958,14325.2,7208.07)">
                <path d="M2808.72,662.51L2832.34,623.042L2848.86,632.93L2825.23,672.398L2808.72,662.51Z" style="fill:rgb(44,57,99);fill-rule:nonzero;"/>
            </g>
        </g>
        <g transform="matrix(-0.342304,0,0,0.342304,22196.7,4206.63)">
            <g transform="matrix(1.11958,0,0,1.11958,15197.4,7682.34)">
                <rect x="2058.74" y="793.767" width="84" height="17" style="fill-rule:nonzero;"/>
            </g>
            <g transform="matrix(1.11958,0,0,1.11958,15197.4,7682.34)">
                <rect x="2086.24" y="779.517" width="29" height="14.5" style="fill-rule:nonzero;"/>
            </g>
            <g transform="matrix(1.11958,0,0,1.11958,15197.4,7682.34)">
                <rect x="2177.62" y="781.767" width="116" height="29" style="fill-rule:nonzero;"/>
            </g>
            <g transform="matrix(1.11958,0,0,1.11958,15197.4,7682.34)">
                <rect x="2232.16" y="684.767" width="6.91" height="102" style="fill-rule:nonzero;"/>
            </g>
            <g transform="matrix(1.11958,0,0,1.11958,15197.4,7682.34)">
                <rect x="2097.99" y="645.267" width="5.5" height="157" style="fill-rule:nonzero;"/>
            </g>
            <g transform="matrix(1.11958,0,0,1.11958,15197.4,7682.34)">
                <path d="M2031.77,626.93L2048.32,641.429C2062.65,653.986 2084.45,652.547 2097,638.216C2109.56,623.885 2108.12,602.089 2093.79,589.532L2077.25,575.034C2062.91,562.477 2041.12,563.915 2028.56,578.246C2016,592.577 2017.44,614.374 2031.77,626.93Z" style="fill:rgb(81,81,81);fill-rule:nonzero;"/>
            </g>
            <g transform="matrix(1.11958,0,0,1.11958,15197.4,7682.34)">
                <path d="M2133.03,685.073L2076.51,635.55C2071.73,631.365 2071.26,624.099 2075.44,619.322C2079.63,614.545 2086.89,614.066 2091.67,618.251L2148.19,667.774C2152.97,671.96 2153.45,679.226 2149.26,684.003C2145.07,688.78 2137.81,689.259 2133.03,685.073Z" style="fill-rule:nonzero;"/>
            </g>
            <g transform="matrix(1.11958,0,0,1.11958,15197.4,7682.34)">
                <path d="M2143.05,685.543L2157.72,698.394L2164.64,690.497L2149.97,677.646L2143.05,685.543Z" style="fill-rule:nonzero;"/>
            </g>
            <g transform="matrix(1.11958,0,0,1.11958,15197.4,7682.34)">
                <path d="M2058.3,645.81C2045.67,635.607 2048.9,614.585 2056.67,604.596C2066.45,592.03 2081.25,588.648 2096.26,595.55L2095.68,596.82C2074.95,587.29 2062.27,599.684 2057.78,605.455C2050.53,614.777 2047.38,635.193 2059.18,644.723L2058.3,645.81Z" style="fill-rule:nonzero;"/>
            </g>
            <g transform="matrix(1.11958,0,0,1.11958,15197.4,7682.34)">
                <path d="M2136.19,682.131C2135.75,679.551 2136.31,676.809 2137.72,674.609C2139.14,672.408 2141.4,670.76 2143.93,670.087L2144.29,671.438C2142.09,672.022 2140.13,673.453 2138.9,675.365C2137.67,677.275 2137.18,679.657 2137.56,681.898L2136.19,682.131Z" style="fill:white;fill-rule:nonzero;"/>
            </g>
            <g transform="matrix(1.11958,0,0,1.11958,15197.4,7682.34)">
                <path d="M2269,720.419L2210.88,672.79C2205.97,668.764 2205.25,661.518 2209.27,656.606C2213.3,651.693 2220.54,650.974 2225.46,654.999L2283.58,702.629C2288.49,706.655 2289.21,713.9 2285.19,718.813C2281.16,723.726 2273.92,724.445 2269,720.419Z" style="fill-rule:nonzero;"/>
            </g>
            <g transform="matrix(1.11958,0,0,1.11958,15197.4,7682.34)">
                <path d="M2279.03,720.558L2289.94,729.491L2296.59,721.369L2285.69,712.436L2279.03,720.558Z" style="fill-rule:nonzero;"/>
            </g>
            <g transform="matrix(1.11958,0,0,1.11958,15197.4,7682.34)">
                <path d="M2272.06,717.375C2271.54,714.812 2272.01,712.053 2273.35,709.805C2274.69,707.559 2276.89,705.836 2279.4,705.082L2279.8,706.419C2277.63,707.076 2275.71,708.571 2274.55,710.522C2273.38,712.474 2272.97,714.87 2273.43,717.095L2272.06,717.375Z" style="fill:white;fill-rule:nonzero;"/>
            </g>
            <g transform="matrix(1.11958,0,0,1.11958,15197.4,7682.34)">
                <path d="M2164.19,649.508C2164.19,630.035 2179.98,614.249 2199.45,614.249C2218.92,614.249 2234.71,630.035 2234.71,649.508C2234.71,668.981 2218.92,684.767 2199.45,684.767C2179.98,684.767 2164.19,668.981 2164.19,649.508Z" style="fill-rule:nonzero;"/>
            </g>
        </g>
        <g transform="matrix(1.11958,0,0,0.673078,14888.7,6614.24)">
            <path d="M1210.63,759.598C1210.6,758.625 1206.84,662.838 1205.55,631.099L1206.1,631.447L1207.85,630.163C1209.14,661.908 1212.48,758.561 1212.51,759.533L1210.63,759.598Z" style="fill:rgb(23,18,9);fill-rule:nonzero;"/>
        </g>
        <g transform="matrix(0.384162,0,0,0.384162,15777.1,6845.81)">
            <path d="M1232.05,698.12C1229.85,698.12 1228.06,699.909 1228.06,702.109C1228.06,704.31 1229.85,706.1 1232.05,706.1C1234.25,706.1 1236.04,704.31 1236.04,702.109C1236.04,699.909 1234.25,698.12 1232.05,698.12ZM1232.05,707.978C1228.81,707.978 1226.18,705.345 1226.18,702.109C1226.18,698.874 1228.81,696.242 1232.05,696.242C1235.28,696.242 1237.91,698.874 1237.91,702.109C1237.91,705.345 1235.28,707.978 1232.05,707.978Z" style="fill-rule:nonzero;"/>
        </g>
        <g transform="matrix(0.384162,0,0,0.384162,15775.1,6818.56)">
            <path d="M1232.05,698.12C1229.85,698.12 1228.06,699.909 1228.06,702.109C1228.06,704.31 1229.85,706.1 1232.05,706.1C1234.25,706.1 1236.04,704.31 1236.04,702.109C1236.04,699.909 1234.25,698.12 1232.05,698.12ZM1232.05,707.978C1228.81,707.978 1226.18,705.345 1226.18,702.109C1226.18,698.874 1228.81,696.242 1232.05,696.242C1235.28,696.242 1237.91,698.874 1237.91,702.109C1237.91,705.345 1235.28,707.978 1232.05,707.978Z" style="fill-rule:nonzero;"/>
        </g>
        <g transform="matrix(0.384162,0,0,0.384162,15770.6,6773.51)">
            <path d="M1232.05,698.12C1229.85,698.12 1228.06,699.909 1228.06,702.109C1228.06,704.31 1229.85,706.1 1232.05,706.1C1234.25,706.1 1236.04,704.31 1236.04,702.109C1236.04,699.909 1234.25,698.12 1232.05,698.12ZM1232.05,707.978C1228.81,707.978 1226.18,705.345 1226.18,702.109C1226.18,698.874 1228.81,696.242 1232.05,696.242C1235.28,696.242 1237.91,698.874 1237.91,702.109C1237.91,705.345 1235.28,707.978 1232.05,707.978Z" style="fill-rule:nonzero;"/>
        </g>
        <path d="M16240.7,7039.23C16242.3,7038.48 16248.2,7039.6 16253.7,7041.32C16259.3,7043.03 16267.5,7039.96 16264.4,7032.94C16261.1,7025.38 16255,7012.75 16251.5,7009.97C16248,7007.19 16242.6,7008.25 16242.6,7008.25C16242.6,7008.25 16241.4,7020.73 16241.2,7025.45C16241.1,7030.18 16240.8,7036.17 16240.1,7037.68C16239.3,7039.18 16239.1,7039.97 16240.7,7039.23Z" style="fill:rgb(59,116,170);"/>
        <path d="M16240.7,7039.23C16242.3,7038.48 16248.2,7039.6 16253.7,7041.32C16259.3,7043.03 16267.5,7039.96 16264.4,7032.94C16261.1,7025.38 16255,7012.75 16251.5,7009.97C16248,7007.19 16242.6,7008.25 16242.6,7008.25C16242.6,7008.25 16241.4,7020.73 16241.2,7025.45C16241.1,7030.18 16240.8,7036.17 16240.1,7037.68C16239.3,7039.18 16239.1,7039.97 16240.7,7039.23ZM16241.4,7037.8C16241.5,7037.23 16241.7,7036.42 16241.9,7035.44C16242.2,7032.82 16242.4,7028.84 16242.5,7025.49C16242.6,7021.59 16243.5,7012.38 16243.8,7009.35C16245.3,7009.2 16248.4,7009.16 16250.7,7010.95C16251.7,7011.73 16252.8,7013.35 16254.1,7015.4C16257.3,7020.49 16261,7028.2 16263.3,7033.44C16265.8,7039.3 16258.7,7041.55 16254.1,7040.12C16250.2,7038.89 16246,7037.96 16243.3,7037.77C16242.5,7037.72 16241.9,7037.73 16241.4,7037.8Z"/>
        <g transform="matrix(-0.962633,0.27081,0.27081,0.962633,29958.6,-4135.75)">
            <path d="M16233.6,7042.19C16235.1,7041.23 16248.5,7041.49 16255.2,7042.11C16261,7042.63 16267.5,7040.59 16264.4,7032.94C16260.2,7022.48 16257.1,7010.19 16247.6,7008.99C16247.6,7008.99 16246.1,7013.28 16244.1,7018.01C16241.7,7023.52 16241.9,7021.96 16240.4,7025.61C16240.1,7026.09 16239.6,7026.77 16239.3,7027.44C16237.4,7031.98 16234.4,7040.08 16234.4,7040.08C16234.4,7040.5 16232.1,7043.2 16233.6,7042.19Z" style="fill:rgb(59,116,170);"/>
            <path d="M16233.6,7042.19C16235.1,7041.23 16248.5,7041.49 16255.2,7042.11C16261,7042.63 16267.5,7040.59 16264.4,7032.94C16260.2,7022.48 16257.1,7010.19 16247.6,7008.99C16247.6,7008.99 16246.1,7013.28 16244.1,7018.01C16241.7,7023.52 16241.9,7021.96 16240.4,7025.61C16240.1,7026.09 16239.6,7026.77 16239.3,7027.44C16237.4,7031.98 16234.4,7040.08 16234.4,7040.08C16234.4,7040.5 16232.1,7043.2 16233.6,7042.19ZM16235.5,7040.52L16235.7,7040.51C16240.1,7040.1 16249.9,7040.36 16255.3,7040.86C16257.2,7041.03 16259.2,7040.91 16260.8,7040.35C16261.8,7040.02 16262.6,7039.54 16263.2,7038.84C16264.2,7037.65 16264.3,7035.89 16263.3,7033.41C16261.2,7028.22 16259.4,7022.59 16256.9,7018.1C16254.8,7014.27 16252.2,7011.28 16248.4,7010.41C16247.8,7011.97 16246.7,7015.12 16245.2,7018.5C16242.9,7024.01 16243.1,7022.45 16241.5,7026.11C16241.3,7026.59 16240.8,7027.26 16240.5,7027.93C16238.7,7032.18 16235.9,7039.55 16235.6,7040.43C16235.6,7040.46 16235.5,7040.49 16235.5,7040.52Z"/>
        </g>
        <ellipse cx="16184.5" cy="6970.18" rx="2.548" ry="2.554" style="fill:rgb(23,18,9);"/>
        <path d="M16184.5,6967.62C16185.9,6967.62 16187,6968.77 16187,6970.18C16187,6971.59 16185.9,6972.73 16184.5,6972.73C16183.1,6972.73 16181.9,6971.59 16181.9,6970.18C16181.9,6968.77 16183.1,6967.62 16184.5,6967.62ZM16184.5,6968.88C16185.2,6968.88 16185.8,6969.46 16185.8,6970.18C16185.8,6970.89 16185.2,6971.48 16184.5,6971.48C16183.8,6971.48 16183.2,6970.89 16183.2,6970.18C16183.2,6969.46 16183.8,6968.88 16184.5,6968.88Z"/>
        <g transform="matrix(1,0,0,1,49.4225,53.1175)">
            <ellipse cx="16184.5" cy="6970.18" rx="2.548" ry="2.554" style="fill:white;"/>
            <path d="M16184.5,6967.62C16185.9,6967.62 16187,6968.77 16187,6970.18C16187,6971.59 16185.9,6972.73 16184.5,6972.73C16183.1,6972.73 16181.9,6971.59 16181.9,6970.18C16181.9,6968.77 16183.1,6967.62 16184.5,6967.62ZM16184.5,6968.25C16185.5,6968.25 16186.4,6969.11 16186.4,6970.18C16186.4,6971.24 16185.5,6972.1 16184.5,6972.1C16183.4,6972.1 16182.5,6971.24 16182.5,6970.18C16182.5,6969.11 16183.4,6968.25 16184.5,6968.25Z"/>
        </g>
        <path d="M16220.3,7017.14C16220.3,7017.14 16225.9,7017.34 16230.9,7019.05C16233.1,7019.79 16232.9,7021.05 16233.9,7020.67C16234.3,7020.5 16233.9,7019.55 16235.4,7018.72C16237.5,7017.6 16241.6,7016.43 16242.4,7015.11" style="fill:none;stroke:black;stroke-width:0.94px;stroke-linecap:round;stroke-linejoin:bevel;stroke-miterlimit:1.5;"/>
    </g>
</svg>
