<?xml version="1.0" encoding="utf-8"?>
<!-- Generator: Adobe Illustrator 24.0.2, SVG Export Plug-In . SVG Version: 6.00 Build 0)  -->
<svg version="1.1" id="Capa_1" xmlns="http://www.w3.org/2000/svg" xmlns:xlink="http://www.w3.org/1999/xlink" x="0px" y="0px"
	 viewBox="0 0 255 75" style="enable-background:new 0 0 255 75;" xml:space="preserve">
<style type="text/css">
	.st0{fill:#FFFFFF;}
</style>
<g>
	<g>
		<path class="st0" d="M23.4,58.3l0.1,4.5c0,0,0,0.1,0.1,0.1c0,0,0.1,0,0.1,0c0,0,1.1-0.3,2.1-0.3c0.7,0,1.2,0.1,1.4,0.4
			c-0.3-0.1-1-0.3-1.8-0.3c-0.8,0-1.5,0.1-2.3,0.4c0-1.3-0.1-4.2-0.1-5C23.1,58.3,23.3,58.3,23.4,58.3 M23.6,63.8v0.9l-1.3-0.3
			c0,0-0.3-0.1-0.3-0.5c0-0.1,0-0.2,0.1-0.3c0,0,0.1-0.1,0.1-0.1L23.6,63.8z M22.8,63.3l-0.4-0.1l0.4-0.3
			C22.8,63.1,22.8,63.2,22.8,63.3 M21.9,64.5c0.1,0.1,0.2,0.1,0.3,0.2l8.2,2c0,0,0,0,0,0c0,0,0.1,0,0.1,0c0,0,0,0,0,0c0,0,0,0,0,0
			l2.1-2.4l0.4,0L30.7,67l-9.1-2.2L21.9,64.5z M21.3,65.1l0.9,0.2v1l-0.8-0.2c0,0-0.4-0.1-0.4-0.6C21,65.2,21.2,65.1,21.3,65.1
			 M22.4,65.4l5.2,1.3v1.2l-5.2-1.5V65.4z M27.9,66.7l2.7,0.6v1.4L27.9,68V66.7z M30.9,68.5l0-1.2l2.3-2.6c0,0.2,0,0.2,0,0.4
			c0,0.1,0.1,0.2,0.2,0.3L30.9,68.5z M32.7,63.6l-2.1,2.4l0-0.6l0-0.3l2-2.1c0,0.1,0,0.2,0,0.3C32.6,63.5,32.6,63.6,32.7,63.6
			 M32.4,62.8L32,63.2c0-0.1,0-0.2,0-0.5L32.4,62.8z M30.2,65.2l0,0.3l0,0.8l-2.1-0.5v-1L30.2,65.2z M27.8,64.7v1l-3.2-0.8V64
			L27.8,64.7z M24.3,64v0.9l-0.5-0.1v-0.9L24.3,64z M31.8,63.4l-1.4,1.5l-7-1.5c0.6-0.2,1.3-0.3,2-0.3c1.1,0,1.9,0.3,1.9,0.3
			c0,0,0.1,0,0.1,0c0.4-0.2,1-0.3,1.8-0.3C30.4,63.1,31.8,63.4,31.8,63.4C31.8,63.4,31.8,63.4,31.8,63.4 M31.7,57.6c0,1,0,3.7,0,4.9
			c0,0.2,0,0.4,0,0.5c-0.4-0.1-1.4-0.2-2.5-0.2c-0.7,0-1.2,0.1-1.6,0.2c0.1-0.1,0.5-0.5,1.5-0.5c0.5,0,1.2,0.1,1.9,0.3
			c0,0,0.1,0,0.1,0c0,0,0.1-0.1,0.1-0.1c0-1.1,0-3.6,0-5C31.3,57.7,31.5,57.6,31.7,57.6 M30.9,62.5c-0.7-0.2-1.3-0.3-1.8-0.3
			c-0.8,0-1.3,0.2-1.5,0.4l0.1-5.5c0.3-0.2,0.5-0.3,0.8-0.3c0.3,0,0.5,0.1,0.9,0.2c0.2,0.1,0.4,0.1,0.6,0.1c0.3,0,0.7-0.1,0.9-0.2
			C30.9,57.9,30.9,61.1,30.9,62.5 M27.4,56.7c-0.5,0-0.9-0.3-1.1-0.7c0.1,0,0.3,0.1,0.4,0.1c0,0,0.1,0,0.1-0.1c0,0,0-0.1,0-0.1
			c-0.1-0.1-0.3-0.3-0.4-0.5c0.1,0,0.3,0.1,0.4,0.1c0,0,0.1,0,0.1-0.1c0,0,0-0.1,0-0.1c-0.1-0.1-0.2-0.2-0.3-0.4
			c0.1,0,0.2,0.1,0.3,0.1c0,0,0.1,0,0.1,0c0.3-0.3,0.3-0.6,0.3-0.9c0,0,0,0,0,0c0,0,0,0,0,0c0,0.2,0.1,0.6,0.4,0.8c0,0,0.1,0,0.1,0
			c0.1,0,0.2,0,0.3-0.1c-0.1,0.2-0.2,0.3-0.3,0.4c0,0-0.1,0.1,0,0.1c0,0,0.1,0.1,0.1,0.1c0.2,0,0.3-0.1,0.4-0.1
			c-0.1,0.2-0.2,0.4-0.4,0.5c0,0-0.1,0.1,0,0.1c0,0,0.1,0.1,0.1,0.1c0.2,0,0.3-0.1,0.4-0.1C28.3,56.5,27.8,56.7,27.4,56.7 M26.8,57
			c0.2,0,0.4,0.1,0.5,0.1c0,0.6-0.1,3.3-0.1,5.5c-0.3-0.2-0.8-0.3-1.4-0.3c-0.8,0-1.6,0.2-2,0.3l-0.1-4.8c0.1,0,0.2,0,0.4,0
			c0.4,0,1.1-0.1,1.7-0.4C26.2,57.1,26.5,57,26.8,57 M23.4,58c-0.3,0-0.5-0.1-0.5-0.1c0,0-0.1,0-0.1,0c0,0-0.1,0.1-0.1,0.1
			c0,0,0.1,2.7,0.1,4.4l-0.9,0.8c0,0,0,0,0,0c0,0,0,0,0,0c-0.1,0.1-0.2,0.3-0.2,0.5c0,0.1,0,0.3,0.1,0.4L21,64.9c0,0,0,0,0,0
			c-0.1,0.1-0.2,0.3-0.2,0.6c0,0.6,0.4,0.9,0.6,0.9l9.3,2.6c0,0,0,0,0,0c0,0,0,0,0,0c0,0,0,0,0.1,0c0,0,0.1,0,0.1-0.1l2.9-3.7
			c0,0,0-0.1,0-0.1c0,0,0-0.1-0.1-0.1c0,0-0.1-0.1-0.1-0.2c0-0.2,0-0.2,0-0.5l0-0.2c0,0,0,0,0,0c0,0,0,0,0,0c0-0.1-0.1-0.2-0.1-0.2
			l-0.5,0l0.2-0.2c0,0,0-0.1,0-0.1c0,0,0-0.1-0.1-0.1c0,0-0.1,0-0.1-0.1c0-0.1,0-0.2,0-0.5l0-0.2c0,0,0,0,0,0c0,0,0,0,0,0
			c0-0.1-0.1-0.2-0.1-0.2L32,62.4c0-1.5,0-4.4,0-5c0-0.1,0-0.1-0.1-0.1c0,0-0.1,0-0.1,0c-0.2,0.1-0.4,0.1-0.6,0.2c0-0.3,0-0.6,0-0.6
			c0-0.1,0-0.1-0.1-0.1c0,0-0.1,0-0.2,0c0,0-0.5,0.2-1,0.2c-0.2,0-0.4,0-0.5-0.1c-0.3-0.1-0.7-0.3-1-0.3c0,0-0.1,0-0.1,0
			c0.2-0.2,0.3-0.4,0.4-0.7c0,0,0-0.1,0-0.1c0,0-0.1,0-0.1,0c0,0-0.1,0.1-0.3,0.1c0.1-0.2,0.2-0.4,0.3-0.6c0,0,0-0.1,0-0.1
			c0,0-0.1,0-0.1,0c0,0-0.1,0.1-0.3,0.1c0.1-0.1,0.2-0.3,0.2-0.5c0,0,0-0.1,0-0.1c0,0-0.1,0-0.1,0c0,0-0.2,0.1-0.4,0.1
			c-0.2-0.2-0.2-0.5-0.3-0.7c0-0.2-0.1-0.3-0.2-0.3c-0.2,0-0.2,0.2-0.2,0.4c0,0.2-0.1,0.5-0.2,0.7c-0.2,0-0.4-0.2-0.4-0.2
			c0,0-0.1,0-0.1,0c0,0,0,0.1,0,0.1c0,0.1,0.1,0.3,0.2,0.5c-0.2-0.1-0.3-0.1-0.3-0.1c0,0-0.1,0-0.1,0c0,0,0,0.1,0,0.1
			c0.1,0.2,0.1,0.4,0.3,0.6c-0.1,0-0.2-0.1-0.2-0.1c0,0-0.1,0-0.1,0c0,0,0,0.1,0,0.1c0.1,0.4,0.3,0.6,0.7,0.8c-0.3,0-0.6,0.1-1,0.3
			c-0.6,0.3-1.1,0.4-1.5,0.4c-0.3,0-0.5,0-0.5,0c0,0-0.1,0-0.1,0c0,0-0.1,0.1-0.1,0.1L23.4,58z M7.5,53.6l-0.3,0.3l0.1,0.4L7,54
			l-0.4,0.2l0.1-0.4l-0.3-0.3l0.4,0L7,53.1l0.2,0.4L7.5,53.6z M7.6,54.1L7.6,54.1l0.8-0.8l-1.1-0.1l-0.4-1l-0.4,1l-1.1,0.1L6.3,54
			l-0.3,1L7,54.4L7,54.5l0,0l2.4,7l0.2-0.1l-1.8-5.3l1.8,4.4l0.1-0.1L7.9,56l1.9,4l0.1-0.1l-2-4.1l2.1,3.7l0.1-0.1l-2.1-3.8l2.3,3.5
			l0.1-0.1l-2.3-3.5l2.5,3.3l0.1-0.1l-2.5-3.3l2.7,3.1l0.1-0.1l-2.7-3.1l3,3l0.1-0.1l-3-3l3.3,2.9L12,58l-3.3-2.9l3.8,2.8l0.1-0.1
			L8.8,55l4.4,2.8l0.1-0.1L7.6,54.1z M16.2,60.3C16.2,60.3,16.2,60.3,16.2,60.3c0,0-0.1,0-0.2,0c-0.1,0-0.1,0-0.1,0c0,0,0,0,0,0
			c-0.1,0-0.1,0-0.2,0c-0.1,0-0.1,0-0.1,0c-0.1-0.1-0.1-0.1-0.2-0.1c-0.1,0-0.1,0-0.2,0l0,0c-0.1,0-0.2,0.1-0.2,0.2c0,0,0,0,0,0
			c0,0,0,0.1,0,0.2c0,0-0.1,0.1-0.2,0.1c-0.1,0-0.1,0-0.1,0c0,0,0-0.1,0.1-0.1c0-0.1,0-0.2,0-0.2c0,0,0,0,0,0c0,0,0,0,0,0
			c0,0,0.1,0,0.1,0c0.1,0,0.2,0,0.2,0c0,0,0,0,0,0c0-0.1,0.1-0.1,0.1-0.1c0,0,0.1-0.1,0.1-0.3c0-0.1,0-0.1,0-0.2c0,0,0,0,0,0
			c0-0.1-0.1-0.1-0.1-0.2c0,0,0,0,0,0c0-0.1-0.1-0.1-0.1-0.1c0,0,0,0,0,0c0,0,0.1,0,0.1-0.1C15.6,59.4,16,59.8,16.2,60.3 M15,59.7
			c0,0.1,0,0.1-0.1,0.1l0,0c0,0-0.1,0.1-0.1,0.2c0,0,0,0,0,0c-0.1,0-0.2,0-0.2,0c0,0-0.1,0-0.1,0c0,0-0.1,0.1-0.1,0.1
			c0,0.1,0,0.1,0,0.2c0,0,0,0,0,0c0,0.1-0.1,0.3-0.1,0.3c0,0.1,0.1,0.1,0.3,0.2c0,0,0,0,0,0c0.1,0,0.4-0.1,0.4-0.2c0,0,0-0.1,0-0.2
			c0,0,0-0.1,0-0.1l0,0c0,0,0.1,0,0.1,0c0,0,0.1,0,0.2,0.1c0,0,0.1,0,0.1,0c0,0,0,0,0.1,0c0.1,0,0.2,0.1,0.3,0c0.1,0,0.1,0,0.1,0h0
			c0,0.1,0,0.1,0,0.2c0,0,0,0.1,0,0.1c0,0-0.1,0.1-0.1,0.1c0,0-0.1,0-0.3,0.1c0,0,0,0,0,0c-0.1,0-0.2,0.1-0.3,0.2
			c0,0-0.2,0.3-0.1,0.5c0,0,0,0,0,0.1c0,0.1,0,0.2,0.1,0.2c0,0,0,0.1,0.1,0.2c0,0.1,0.1,0.2,0.1,0.3c0.1,0.1,0.1,0.2,0.1,0.2
			c0,0.1,0,0.1,0.1,0.2c0,0.1,0.1,0.1,0.1,0.2c0,0,0,0.1,0,0.1c0,0.1,0,0.2,0,0.2c0,0,0,0.1,0,0.2c-0.6,0.8-1.5,1.3-2.5,1.3
			c-1.7,0-3.1-1.4-3.1-3.1c0-0.5,0.1-1,0.3-1.4c0.1,0.1,0.3,0.1,0.4,0.1c0,0,0.1,0.1,0.2,0.3c0,0.1,0,0.1,0.1,0.1
			c0,0,0.1,0.1,0.2,0.1c0.1,0.1,0.2,0.1,0.2,0.2c0,0.1,0.1,0.1,0.2,0.2c0,0-0.1,0-0.1,0c-0.1,0-0.1,0.1-0.1,0.1
			c-0.1,0.1-0.1,0.3-0.1,0.6c0,0.1,0,0.1,0,0.2c0,0.1,0,0.2,0.5,0.4c0.1,0,0.1,0.2,0.1,0.3c0,0,0,0.1,0,0.1c0,0,0,0.2,0,0.4
			c0,0.2,0,0.2,0,0.3c0,0,0,0.1,0,0.3c0,0.4,0,0.5,0.1,0.6c0,0.1,0.1,0.1,0.2,0.1c0.1,0,0.2-0.1,0.2-0.1c0,0,0,0,0-0.1
			c0,0,0.2-0.5,0.3-0.9c0-0.3,0.1-0.3,0.1-0.3c0,0,0,0,0.1-0.1c0.1-0.1,0.3-0.3,0.4-0.4c0.1-0.1,0.3-0.5,0.3-0.7
			c0-0.2-0.4-0.4-0.6-0.4c-0.1,0-0.4-0.2-0.5-0.2c0,0-0.7-0.6-0.8-0.6c-0.1,0-0.3-0.4-0.4-0.5c0-0.1,0.1-0.2,0.1-0.3c0,0,0,0,0.1,0
			c0,0,0.1,0,0.1,0c0,0,0.1,0,0.1,0.1c0,0.1,0,0.3,0.1,0.3c0,0,0,0,0,0c0.1,0,0.3-0.1,0.3-0.3c0-0.1,0.2-0.2,0.3-0.3c0,0,0,0,0,0
			c0,0,0.1,0,0.1,0.1c0,0,0,0,0.1,0c0.1,0.1,0.3,0,0.4-0.1c0.1-0.1,0.1-0.2,0.1-0.3c0-0.1,0-0.2,0-0.2c0-0.1,0-0.1,0-0.2
			c0-0.2-0.1-0.2-0.2-0.2c-0.1,0-0.1,0-0.1,0c0,0-0.1,0-0.1,0c0,0,0,0,0,0c-0.1,0-0.2,0.1-0.3,0.2c-0.1,0.1-0.1,0.1-0.2,0.1
			c-0.1,0-0.1-0.1-0.1-0.1c0-0.1,0-0.2,0-0.3c0.3-0.1,0.7-0.2,1.1-0.2c0,0,0.1,0,0.1,0l0,0c0,0,0,0,0,0c0,0,0,0.2,0.1,0.3
			c0.1,0.1,0.1,0.2,0.2,0.2c0,0,0.1,0.1,0.1,0.1c0,0.1,0.1,0.2,0.3,0.2c0,0,0,0,0,0c0.1,0,0.2-0.2,0.2-0.5c0,0,0-0.1,0-0.1
			c0,0,0-0.1,0.1-0.1c0.2,0.1,0.3,0.1,0.5,0.2c-0.1,0-0.1,0.1-0.1,0.2c0,0.1,0,0.1,0.1,0.2c0,0,0,0,0,0.1c0,0,0,0,0,0.1
			c0,0,0,0,0,0.1C15,59.6,15,59.7,15,59.7 M14.3,58.6c0,0.1-0.1,0.2-0.1,0.2c0,0,0,0.1,0,0.1c0,0.1,0,0.2,0,0.3c0,0,0,0,0,0
			c0-0.1-0.1-0.2-0.2-0.3c-0.1,0-0.1-0.1-0.1-0.1c0,0,0-0.2,0-0.2l0-0.1C13.9,58.5,14.1,58.6,14.3,58.6 M12.5,59.3
			c0.1,0,0.2-0.1,0.3-0.2c0-0.1,0.1-0.1,0.2-0.2c0.1,0,0.1,0,0.2,0c0,0,0,0,0,0c0,0.1,0,0.1,0,0.2c0,0.1,0,0.1,0,0.3
			c0,0.1,0,0.1,0,0.1c0,0-0.1,0.1-0.1,0.1c0,0,0,0,0,0c-0.1,0-0.1-0.1-0.2-0.1c0,0-0.1,0-0.1,0c-0.1,0.1-0.3,0.2-0.4,0.4
			c0,0,0,0.1-0.1,0.1c0,0,0,0,0-0.1c0-0.1-0.1-0.2-0.2-0.3c0,0,0,0-0.1,0c0,0-0.1,0-0.1,0c-0.1,0-0.1,0-0.1,0.1
			c-0.1,0.1-0.2,0.3-0.2,0.5c0,0.2,0.3,0.6,0.5,0.7c0.1,0,0.7,0.5,0.8,0.6c0.1,0.1,0.5,0.2,0.6,0.2c0.3,0.1,0.5,0.2,0.5,0.3
			c0,0.2-0.1,0.5-0.2,0.5c-0.1,0.1-0.3,0.2-0.4,0.4c0,0,0,0-0.1,0.1c-0.1,0.1-0.1,0.1-0.2,0.4c-0.1,0.3-0.2,0.7-0.2,0.8
			c0,0,0,0-0.1,0c0-0.1,0-0.3,0-0.5c0-0.2,0-0.2,0-0.3c0,0,0-0.2,0-0.2c0-0.3,0-0.4,0-0.4c0,0,0,0,0-0.1c0-0.1-0.1-0.3-0.3-0.4
			c-0.2-0.1-0.3-0.2-0.3-0.2c0,0,0-0.1,0-0.2c0-0.1,0-0.3,0-0.4c0,0,0.1,0,0.1-0.1c0.1-0.1,0.3-0.1,0.3-0.2c0-0.1-0.1-0.2-0.2-0.2
			c0,0-0.1,0-0.1,0c0-0.1-0.1-0.2-0.3-0.3c-0.1,0-0.1-0.1-0.2-0.1c0,0,0,0,0-0.1c-0.1-0.2-0.2-0.4-0.4-0.4c-0.1,0-0.3-0.1-0.3-0.1
			c0.3-0.5,0.8-1,1.4-1.2c0,0.1,0,0.2,0,0.2C12.2,59.3,12.4,59.4,12.5,59.3 M16.1,65.1v1.2c0,0,0,0,0,0V69h-0.9v-2.7
			c0-0.1-0.1-0.2-0.2-0.2H6.4v-1.1H16.1z M9.4,64.8H6.8l1.3-2.1L9.4,64.8z M9,63.7l-0.6-1c0.1,0,0.1-0.1,0.2-0.1L9,63.7z M8.5,61.9
			c0,0.2-0.2,0.5-0.5,0.5c-0.2,0-0.5-0.2-0.5-0.5s0.2-0.5,0.5-0.5C8.3,61.4,8.5,61.7,8.5,61.9 M7.6,62.5c0.1,0,0.1,0.1,0.2,0.1
			l-0.6,1.1L7.6,62.5z M16,62.5c0-0.1-0.1-0.2-0.2-0.4c0,0-0.1-0.1-0.1-0.2c0-0.1-0.1-0.2-0.1-0.2c0,0-0.1-0.1-0.1-0.2
			c0,0,0-0.1-0.1-0.1c0-0.1,0.1-0.2,0.1-0.2c0,0,0.1-0.1,0.2-0.1c0.1,0,0.2-0.1,0.2-0.1c0.1,0,0.2-0.2,0.2-0.2c0,0,0.1-0.1,0-0.1
			c0,0,0-0.1-0.1-0.2c0,0,0-0.1,0-0.1c0.2,0.4,0.2,0.8,0.2,1.2c0,0.5-0.1,1-0.4,1.4c0,0,0-0.1,0-0.1c0-0.1,0-0.1,0-0.2
			c0-0.1,0-0.2-0.1-0.2C16,62.5,16,62.5,16,62.5 M13.4,58.2c-1.9,0-3.4,1.5-3.4,3.4c0,1.5,1,2.7,2.3,3.2H9.7l-0.9-2.5
			c0.1-0.1,0.1-0.2,0.1-0.4c0-0.4-0.3-0.8-0.8-0.8c-0.4,0-0.8,0.3-0.8,0.8c0,0.1,0,0.3,0.1,0.4l-0.9,2.6H6.2c-0.1,0-0.2,0.1-0.2,0.2
			v1.4c0,0.1,0.1,0.2,0.2,0.2h8.6v2.7c0,0.1,0.1,0.2,0.2,0.2h1.3c0.1,0,0.2-0.1,0.2-0.2v-2.8c0,0,0,0,0,0V65c0-0.1-0.1-0.2-0.2-0.2
			h-1.8c1.3-0.5,2.3-1.7,2.3-3.2C16.8,59.7,15.3,58.2,13.4,58.2 M8.5,37.9H5.8l1.4-3.1L8.5,37.9z M7.3,34.3c0-0.1-0.1-0.1-0.1-0.1
			s-0.1,0-0.1,0.1L5.4,38c0,0,0,0.1,0,0.2c0,0,0.1,0.1,0.1,0.1h3.2c0.1,0,0.1,0,0.1-0.1c0,0,0-0.1,0-0.2L7.3,34.3z M14.2,37.9
			l1.4-3.1l1.4,3.1H14.2z M14,38.2h3.2c0.1,0,0.1,0,0.1-0.1c0,0,0-0.1,0-0.2l-1.6-3.7c0-0.1-0.1-0.1-0.1-0.1c-0.1,0-0.1,0-0.1,0.1
			L13.8,38c0,0,0,0.1,0,0.2C13.9,38.2,13.9,38.2,14,38.2 M17.6,38.1c0,1.1-0.9,1.9-2,1.9c-1.1,0-2-0.8-2-1.9l1.9-4.3
			c0,0,0-0.1,0-0.2c0,0-0.1-0.1-0.1-0.1H7.4c-0.1,0-0.1,0-0.1,0.1c0,0,0,0.1,0,0.2l1.9,4.3c0,1.1-0.9,1.9-2,1.9c-1.1,0-2-0.8-2-1.9
			l2.1-4.8h8.2L17.6,38.1z M11.4,35.1l0.4,7.6H11L11.4,35.1z M13.4,43.4h-4V43h4V43.4z M11.8,44.8l0,0.8h-1L11.8,44.8z M10.9,44.2
			l0-0.5h0.6L10.9,44.2z M11.8,43.9l0,0.5l-1,0.8l0-0.5L11.8,43.9z M12.7,45.9C12.6,46.6,12,47,11.4,47c-0.6,0-1.2-0.5-1.3-1.1H12.7
			z M17.9,38.1C17.9,38.1,17.9,38.1,17.9,38.1l-2.2-5c0-0.1-0.1-0.1-0.1-0.1h-4l-0.1-1.1c0-0.1-0.1-0.2-0.2-0.2
			c-0.1,0-0.2,0.1-0.2,0.2L11.1,33h-4c-0.1,0-0.1,0-0.1,0.1l-2.2,4.9c0,0,0,0,0,0.1c0,1.3,1.1,2.3,2.3,2.3s2.3-1,2.3-2.3
			c0,0,0,0,0-0.1l-1.8-4.1h3.4l-0.4,8.7H9.2c-0.1,0-0.2,0.1-0.2,0.2v0.7c0,0.1,0.1,0.2,0.2,0.2h1.4l-0.1,1.9H10c0,0-0.1,0-0.1,0
			c0,0,0,0.1,0,0.1c0,0.9,0.7,1.6,1.6,1.6c0.9,0,1.6-0.7,1.6-1.6c0,0,0-0.1,0-0.1c0,0-0.1,0-0.1,0h-0.6l-0.1-1.9h1.4
			c0.1,0,0.2-0.1,0.2-0.2v-0.7c0-0.1-0.1-0.2-0.2-0.2h-1.5l-0.4-8.7h3.5l-1.8,4.1c0,0,0,0,0,0.1c0,1.3,1.1,2.3,2.3,2.3
			S17.9,39.4,17.9,38.1 M20.5,46c0-0.1-0.1-0.2-0.2-0.2c-0.1,0-0.2,0.1-0.2,0.2c0,0.1,0.1,0.2,0.2,0.2C20.5,46.2,20.5,46.1,20.5,46
			 M18.9,50.7c0,0.3,0.3,0.6,0.6,0.6S20,51,20,50.7c0-0.3-0.3-0.6-0.6-0.6S18.9,50.4,18.9,50.7 M25.9,34.7c0,0.2,0.1,0.3,0.3,0.3
			c0.2,0,0.3-0.1,0.3-0.3c0-0.2-0.1-0.3-0.3-0.3C26.1,34.4,25.9,34.5,25.9,34.7 M33,48l-0.2-0.1l-1.5-2.1c0,0,0-0.1,0-0.1
			c0-0.2-0.1-0.3-0.2-0.4c0,0,0,0-0.1-0.1c0,0-0.1-0.1-0.1-0.1c0,0,0,0,0,0c0,0-0.1-0.1-0.1-0.1c0,0,0-0.1,0-0.1c0,0,0-0.1,0-0.1
			c0,0,0-0.1,0-0.1c0,0,0-0.1,0-0.2l2.2,3.4L33,48z M30.7,45.2c0,0,0.1,0.1,0.1,0.1c0,0,0.1,0.1,0.1,0.1c0,0.1,0.1,0.1,0.1,0.2
			c0,0.5-0.1,1.1-0.2,1.3c0,0,0-0.1,0-0.1c0-0.2-0.1-0.3-0.2-0.5c-0.1-0.1-0.1-0.1-0.2-0.2c-0.2-0.1-0.3-0.3-0.3-0.5
			c0,0,0-0.1,0-0.1c0-0.4,0-0.7-0.4-1.1c-0.2-0.2-0.4-0.2-0.6-0.3c-0.3-0.1-0.5-0.2-0.8-0.6c-0.3-0.4,0.1-0.9,0.3-1.2
			c0,0,0.1,0.1,0.1,0.1c0,0,0.1,0.1,0.1,0.1c0,0,0,0,0,0c0,0.1,0.1,0.1,0.1,0.2c0.1,0.1,0.1,0.2,0.1,0.3l0,0c0,0.1,0,0.2,0,0.2
			c0.1,0.1,0.2,0.1,0.2,0.1c0,0,0.1,0,0.1,0c0,0,0,0,0,0c0,0,0.1,0,0.1,0c0,0,0,0,0,0c0.1,0,0.2,0,0.3,0c0.1,0,0.3,0,0.3,0.1
			c0.2,0.1,0.3,0.2,0.3,0.5c0,0.1,0,0.2,0,0.3c0,0,0,0,0,0C30.3,44.8,30.5,45.1,30.7,45.2 M29.9,43.1c0,0-0.1,0-0.1,0c0,0,0,0,0,0
			c-0.1,0-0.1,0-0.2,0c-0.1,0-0.1,0-0.2,0c0,0,0,0,0,0l-0.3-0.4c0,0,0,0,0,0c-0.1-0.1-0.1-0.2-0.2-0.3c0,0,0,0,0-0.1l-0.1-0.2
			c0,0,0,0,0.1,0c0.1,0,0.1,0,0.2,0c0.1,0,0.1,0,0.2,0c0,0,0.1,0,0.1,0c0,0,0,0,0,0L29.9,43.1z M29.6,41.8c-0.1,0-0.1-0.1-0.2-0.1
			c0,0,0,0,0,0c0,0-0.1,0-0.1,0c0,0,0,0,0,0c0,0,0,0,0,0c-0.1,0-0.2,0-0.3,0c0,0-0.1,0-0.1,0c-0.1,0-0.2,0-0.3,0.1l0,0
			c-0.3,0.1-0.7,0.1-1,0.1c-0.4,0-0.6-0.1-0.8-0.3c-0.5-0.5-0.1-1.3,0.1-1.6c0.1,0.1,0.2,0.3,0.3,0.5c0,0.1,0,0.2,0,0.3
			c0.1,0.1,0.2,0.2,0.4,0.2c0,0,0,0,0,0c0,0,0,0,0,0c0,0,0,0,0,0c0.2,0,0.4,0,0.6-0.1c0.1,0,0.1,0,0.2,0c0,0,0,0,0,0
			c0.2-0.1,0.4-0.1,0.6-0.1c0.3,0,0.6,0.1,0.7,0.3C29.8,41.2,29.9,41.4,29.6,41.8 M26.8,39.2C26.9,39.2,26.9,39.2,26.8,39.2
			c0.1,0,0.2,0,0.2,0c0,0,0.1,0,0.1,0c0,0,0,0,0.1,0c0,0,0,0,0.1,0c0,0,0,0,0,0l0.9,1.4c-0.1,0-0.2,0-0.3,0.1c0,0,0,0,0,0
			c-0.1,0-0.2,0-0.3,0l-1-1.4C26.7,39.2,26.8,39.2,26.8,39.2 M28.2,39.6c-0.2-0.3-0.4-0.8-0.8-0.8c0,0,0,0,0,0c0,0,0,0,0,0
			c0,0,0,0,0,0c0,0-0.1,0-0.1,0c0,0-0.1,0-0.1,0c0,0-0.1,0-0.2,0c0,0-0.1,0-0.1,0c0,0-0.1,0-0.1,0c-0.1,0-0.1,0-0.2,0
			c0,0-0.1,0-0.1,0c-0.1,0-0.2,0-0.2,0c-1.3,0-2-0.6-2.2-1.7C24,36.5,24,36,24,35.6c0-0.1,0-0.2,0.1-0.4c0,0,0-0.1,0-0.1
			c0-0.1,0.1-0.2,0.1-0.3c0,0,0,0,0,0c0-0.1,0.1-0.1,0.1-0.2c0-0.1,0.1-0.1,0.1-0.2c0,0,0-0.1,0.1-0.1c0.1-0.2,0.3-0.3,0.3-0.3
			c0,0,0,0,0,0c0.2-0.2,0.5-0.3,0.8-0.3c0.5,0,1,0.4,1.1,0.8c0.1,0.6-0.2,1.2-0.3,1.4c-0.1,0-0.4-0.2-0.6-0.5c0-0.1-0.1-0.1-0.2,0
			c-0.1,0.1-0.3,0.2-0.4,0.5c0,0,0,0,0,0c0,0,0,0.1-0.1,0.2c0,0,0,0,0,0c0,0,0,0,0,0.1c0,0,0,0,0,0c0,0.2-0.1,0.4-0.1,0.6
			c0,0,0,0,0,0c0,0.1,0,0.1,0,0.2c0,0,0,0,0,0.1c0,0.1,0,0.1,0.1,0.2c0,0,0,0,0,0.1c0,0.1,0.1,0.2,0.1,0.3c0,0,0,0,0,0l0,0
			c0.3,0.4,0.7,0.5,1.1,0.5c0,0,0,0,0,0c0.1,0,0.2,0,0.3,0c0,0,0,0,0,0c0,0,0.1,0,0.1,0c0.1,0,0.3,0,0.4,0c0.4,0,0.7,0.1,0.9,0.3
			C28.5,38.8,28.3,39.3,28.2,39.6 M26.4,37.7C26.4,37.7,26.3,37.7,26.4,37.7c-0.1,0-0.2,0-0.3,0c0,0-0.1,0-0.1,0c0,0-0.1,0-0.1,0
			c0,0-0.1,0-0.1-0.1c0,0,0,0-0.1,0c0,0-0.1-0.1-0.1-0.1c-0.1-0.1-0.1-0.2-0.1-0.3c-0.1-0.3-0.1-0.6,0-0.8L26.4,37.7z M24.1,34.2
			C24.1,34.2,24.1,34.3,24.1,34.2c-0.1,0.1-0.1,0.2-0.2,0.3c0,0,0,0.1,0,0.1c0,0.1-0.1,0.2-0.1,0.4c0,0,0,0.1,0,0.1c0,0,0,0.1,0,0.1
			l-1.1-1.5c0,0-0.1-0.1-0.1-0.1c0,0,0,0,0,0c-0.1,0-0.3,0.1-0.4,0.1c-0.2,0-0.4-0.1-0.5-0.2c-0.2-0.3,0.1-0.9,0.6-1.3
			c0.3-0.2,0.6-0.3,0.9-0.3c0.2,0,0.4,0.1,0.5,0.2c0.2,0.2,0.1,0.6-0.2,0.9c0,0.1,0,0.1,0,0.2L24.1,34.2z M33.3,48.5
			c0.1,0,0.1-0.1,0.1-0.2l-0.2-0.7c0,0,0,0,0-0.1l-2.5-3.8c0-0.2-0.1-0.4-0.4-0.5l-0.7-1.1c0.4-0.5,0.5-0.9,0.3-1.3
			c-0.3-0.4-0.7-0.5-1.4-0.4L28.3,40c0.3-0.4,0.7-1.2,0.1-1.9c-0.3-0.4-0.8-0.4-1.1-0.4c-0.1,0-0.3,0-0.4,0c0,0,0,0,0,0l-1.2-1.8
			c0-0.1,0.1-0.1,0.1-0.1c0.2,0.2,0.5,0.4,0.7,0.4c0.1,0,0.1,0,0.1,0c0.2-0.1,0.6-1,0.5-1.7c-0.1-0.6-0.8-1.1-1.4-1.1
			c-0.4,0-0.7,0.1-1,0.4c0,0-0.1,0.1-0.2,0.2l-0.6-0.9c0.3-0.4,0.4-0.9,0.1-1.2c-0.2-0.2-0.4-0.4-0.8-0.4c-0.4,0-0.7,0.1-1.1,0.4
			c-0.7,0.5-1,1.3-0.7,1.8c0.2,0.2,0.4,0.4,0.8,0.4c0.1,0,0.2,0,0.4,0l1.2,1.7c0,0.4,0,1,0.1,1.6c0.2,1.3,1,2,2.5,2l0.4,0.5
			c-0.4,0.5-0.9,1.5-0.2,2.2c0.2,0.2,0.6,0.4,1,0.4c0.3,0,0.6,0,0.9-0.1l0,0c-0.2,0.2-0.8,0.9-0.4,1.6c0.3,0.5,0.6,0.6,0.9,0.7
			c0.2,0.1,0.3,0.1,0.5,0.2c0.3,0.3,0.3,0.5,0.3,0.9c0,0,0,0.1,0,0.1c0,0.4,0.2,0.5,0.4,0.7c0.1,0.1,0.1,0.1,0.2,0.2
			c0.1,0.1,0.1,0.2,0.2,0.3c0.1,0.2,0.1,0.4,0.3,0.4c0,0,0,0,0,0c0,0,0.1,0,0.2-0.1c0.1-0.2,0.2-0.6,0.3-1.1l1.3,1.8c0,0,0,0,0,0
			l0.6,0.4C33.2,48.5,33.2,48.5,33.3,48.5C33.3,48.5,33.3,48.5,33.3,48.5 M35,30.1v19.2H24.1c-0.4-1.2-1.2-2.3-2.3-2.9c0,0,0,0,0,0
			c-0.1,0-0.2-0.2-0.3-0.3c-0.2-0.3-0.5-0.8-1.1-0.7c-0.3,0.1-0.5,0.1-0.6,0.2V30.1H35z M19.5,19v-2.5l3.4,4.6L19.5,19z M23.1,21
			l-3.4-4.6l2.3,0.8l0,0.1c0,0,0,0,0,0L23.1,21z M22.3,16.8C22.3,16.8,22.3,16.8,22.3,16.8l-0.1,0.1l-2.4-0.8l5.5-1.8l-1.8,1.5
			c0,0,0,0,0,0l-0.3,0.2c0,0,0,0,0,0L22.3,16.8z M25.2,14.2l-5.4,1.8l1.4-2l0,0l1.2,0.1c0,0,0,0,0,0l0.4,0c0,0,0,0,0,0L25.2,14.2z
			 M21,13.8l-1.4,2v-5.7l1,2.5l0,0.1L21,13.8z M19.7,46.9C19.7,46.9,19.7,46.9,19.7,46.9C19.8,47,20,47,20,47c0.2,0,0.6,0.1,0.9,0.2
			c1.4,0.6,2.3,1.9,2.3,3.5c0,0.6-0.1,1.1-0.4,1.6l-0.9-1.6l0,0l0,0L19.7,46.9z M19.4,47.1l1.6,2.7c-0.5-0.3-1-0.5-1.6-0.5
			c-0.6,0-1.1,0.2-1.6,0.5L19.4,47.1z M16,52.4c-0.2-0.5-0.4-1.1-0.4-1.6c0-2,1.6-3.6,3.5-3.8l-2.2,3.8l0,0l0,0L16,52.4z M22.6,52.8
			c-0.7,1-1.8,1.7-3.2,1.7s-2.5-0.7-3.2-1.7H22.6z M21.7,51l0.9,1.5h-6.3l0.9-1.5c0.6,0.7,1.4,1.1,2.3,1.1
			C20.3,52.1,21.2,51.7,21.7,51 M20.4,49.9c0.4,0.2,0.8,0.5,1.1,0.9c-0.3,0.4-0.7,0.7-1.1,0.9c0.2-0.2,0.3-0.5,0.3-0.9
			C20.8,50.4,20.6,50.1,20.4,49.9 M18.1,50.7c0,0.3,0.1,0.6,0.3,0.9c-0.4-0.2-0.8-0.5-1.1-0.9c0.3-0.4,0.7-0.7,1.1-0.9
			C18.2,50.1,18.1,50.4,18.1,50.7 M19.1,49.7c0.1,0,0.2,0,0.3,0c0.1,0,0.2,0,0.3,0c0.5,0.1,0.8,0.5,0.8,1c0,0.5-0.4,1-0.9,1.1
			c0,0,0,0,0,0c-0.1,0-0.1,0-0.2,0s-0.1,0-0.2,0c0,0,0,0,0,0c-0.5-0.1-0.9-0.5-0.9-1.1C18.3,50.2,18.7,49.8,19.1,49.7 M19.6,46.2
			c0,0,0.1,0.1,0.1,0.2c-0.1,0-0.2,0.1-0.2,0.2c0,0,0,0,0,0.1c0,0,0,0-0.1,0c-2.3,0-4.1,1.9-4.1,4.1c0,2.3,1.9,4.1,4.1,4.1
			c2.3,0,4.1-1.9,4.1-4.1c0-1.6-0.9-3-2.3-3.7l0,0c0,0,0,0,0,0c-0.2-0.1-1.1-0.3-1.1-0.3c-0.1,0-0.2,0-0.2-0.1c0.1,0,0.1,0,0.2,0
			c0.1,0,0.1,0,0.1-0.1c0-0.1,0-0.1,0-0.2C20,46.2,19.9,46,19.8,46c0,0,0,0,0,0c0,0,0.1-0.1,0.5-0.2c0.4-0.1,0.6,0.2,0.8,0.5
			c0.1,0.2,0.2,0.3,0.4,0.4l0,0c1.4,0.8,2.4,2.3,2.4,4c0,2.5-2,4.5-4.5,4.5c-2.5,0-4.5-2-4.5-4.5c0-2.5,2-4.5,4.5-4.5
			C19.5,46.2,19.5,46.2,19.6,46.2 M19.3,19L19.3,19l-1,0.7c0,0,0,0,0,0l-0.1,0l-2.3,1.5l3.4-4.6V19z M19.3,15.8l-1.4-2l0,0l1.4-3.7
			V15.8z M19.1,15.9l-5.4-1.8l2.5-0.1c0,0,0,0,0,0l0.4,0c0,0,0,0,0,0l1.2-0.1l0,0L19.1,15.9z M13.6,14.4l5.4,1.8l-2.3,0.8l-0.1-0.1
			c0,0,0,0,0,0l-0.9-0.7c0,0,0,0,0,0l-0.3-0.2L13.6,14.4z M16.8,17.1l2.3-0.8L15.8,21L16.8,17.1z M19.2,30.1v15.8
			c-2.1,0.1-3.8,1.5-4.4,3.5H3.9V30.1H19.2z M3.9,49.9h10.8c0,0.3-0.1,0.6-0.1,0.8c0,2.6,2,4.7,4.6,4.8v15.4
			c-0.6-0.4-1.4-0.5-2.1-0.5H5.4c-1,0-1.5-0.5-1.5-1.5V49.9z M19.7,55.6c2.6-0.1,4.6-2.3,4.6-4.8c0-0.3,0-0.6-0.1-0.8H35v19
			c0,1-0.5,1.5-1.5,1.5H21.8c-0.7,0-1.6,0.2-2.1,0.5V55.6z M19.7,29.2v-9.8l0.7,0.4l2,6.1c0,0,0,0.1,0.1,0.1c0,0,0,0,0.1,0
			c0,0,0,0,0.1,0l0.2-0.1c0.1,0,0.1-0.1,0.1-0.2l-1.8-5.4l2,1.3l4,5.5c0,0,0.1,0.1,0.1,0.1c0,0,0.1,0,0.1,0l0.2-0.1
			c0,0,0.1-0.1,0.1-0.1c0,0,0-0.1,0-0.1l-4.1-5.6L22.9,19l4.7,3.4c0,0,0.1,0,0.1,0c0,0,0,0,0,0c0,0,0.1,0,0.1-0.1l0.1-0.2
			c0.1-0.1,0-0.2,0-0.2l-5.2-3.8l-0.2-0.7l9.7,3.1c0,0,0,0,0,0c0,0,0,0,0.1,0c0,0,0.1-0.1,0.1-0.1l0.1-0.2c0-0.1,0-0.2-0.1-0.2
			l-9.6-3.1l0.6-0.5h6.4c0.1,0,0.2-0.1,0.2-0.2V16c0,0,0-0.1,0-0.1c0,0-0.1,0-0.1,0H24l1.9-1.5l6.5-2.1c0.1,0,0.1-0.1,0.1-0.2
			l-0.1-0.2c0,0,0-0.1-0.1-0.1c0,0-0.1,0-0.1,0l-6.6,2.2l-2.3-0.1l4.7-3.4c0.1-0.1,0.1-0.2,0-0.2l-0.1-0.2c0,0-0.1-0.1-0.1-0.1
			c0,0-0.1,0-0.1,0l-5.2,3.8l-0.8,0l6-8.2c0,0,0-0.1,0-0.1c0,0,0-0.1-0.1-0.1L27.3,5c-0.1-0.1-0.2,0-0.2,0l-6,8.2l-0.3-0.7l2-6.1
			c0,0,0-0.1,0-0.1c0,0-0.1-0.1-0.1-0.1l-0.2-0.1c-0.1,0-0.2,0-0.2,0.1l-1.8,5.5l-0.9-2.2V2.7c0-0.1-0.1-0.2-0.2-0.2h-0.2
			c-0.1,0-0.2,0.1-0.2,0.2v6.9l-0.9,2.2l-1.8-5.5c0,0,0-0.1-0.1-0.1c0,0-0.1,0-0.1,0l-0.2,0.1C16,6.3,16,6.4,16,6.5l2,6.1l-0.3,0.7
			l-6-8.2C11.7,5,11.6,5,11.5,5l-0.2,0.1c0,0-0.1,0.1-0.1,0.1c0,0,0,0.1,0,0.1l6,8.2l-0.8,0l-5.2-3.8c0,0-0.1,0-0.1,0
			c0,0-0.1,0-0.1,0.1l-0.1,0.2c-0.1,0.1,0,0.2,0,0.2l4.7,3.4l-2.3,0.1l-6.6-2.2c0,0-0.1,0-0.1,0c0,0-0.1,0.1-0.1,0.1L6.4,12
			c0,0.1,0,0.2,0.1,0.2l6.5,2.1l1.9,1.5H9.2C9.1,15.8,9,15.9,9,16v0.2c0,0.1,0.1,0.2,0.2,0.2h6.4l0.6,0.5L6.5,20
			c-0.1,0-0.1,0.1-0.1,0.2l0.1,0.2c0,0,0,0.1,0.1,0.1c0,0,0,0,0.1,0c0,0,0,0,0.1,0l9.7-3.1l-0.2,0.7L11,21.9c-0.1,0.1-0.1,0.2,0,0.2
			l0.1,0.2c0,0,0.1,0.1,0.1,0.1c0,0,0,0,0,0c0,0,0.1,0,0.1,0L16,19l-0.6,2.3l-4.1,5.6c0,0,0,0.1,0,0.1c0,0,0,0.1,0.1,0.1l0.2,0.1
			c0,0,0.1,0,0.1,0c0,0,0.1,0,0.1-0.1l4-5.5l2-1.3L16,25.8c0,0,0,0.1,0,0.1c0,0,0.1,0.1,0.1,0.1l0.2,0.1c0,0,0,0,0,0
			c0.1,0,0.1,0,0.2-0.1l2-6.1l0.7-0.4v9.8H3v39.6c0,1.5,0.9,2.4,2.4,2.4H17c0.5,0,2,0.1,2,0.8v0.4h0.9v-0.4c0-0.6,1.4-0.8,2-0.8
			h11.6c1.5,0,2.4-0.9,2.4-2.4V29.2H19.7z"/>
	</g>
	<rect x="42.4" y="29.2" class="st0" width="1.4" height="42.1"/>
	<g>
		<path class="st0" d="M203,60.7c-0.1,0-0.1,0.1-0.2,0.1c0,0.1,0,0.1-0.1,0.2c0,0.1,0,0.2,0,0.3v6.2h-0.5l-4.1-5.9v5
			c0,0.1,0,0.2,0,0.3c0,0.1,0,0.2,0.1,0.2c0,0.1,0.1,0.1,0.2,0.1c0.1,0,0.2,0,0.3,0v0.1H197v-0.1c0.1,0,0.3,0,0.3,0s0.1-0.1,0.2-0.1
			c0-0.1,0.1-0.1,0.1-0.2c0-0.1,0-0.2,0-0.3v-5.6c0-0.1-0.1-0.2-0.1-0.2c0-0.1-0.1-0.1-0.1-0.1c0,0-0.1-0.1-0.1-0.1
			c-0.1,0-0.1,0-0.2,0v-0.1h1.4c0.6,1,1.3,1.9,1.9,2.8c0.7,0.9,1.3,1.9,1.9,2.8v-4.8c0-0.1,0-0.3,0-0.4c0-0.1,0-0.2-0.1-0.2
			c0-0.1-0.1-0.1-0.2-0.1c-0.1,0-0.2,0-0.3,0v-0.1h1.7v0.1C203.2,60.6,203.1,60.6,203,60.7 M194.3,62.9c-0.1-0.4-0.2-0.7-0.4-1
			c-0.2-0.3-0.4-0.6-0.7-0.7c-0.3-0.2-0.7-0.3-1.1-0.3c-0.4,0-0.8,0.1-1.1,0.3c-0.3,0.2-0.5,0.4-0.7,0.7c-0.2,0.3-0.3,0.6-0.4,1
			c-0.1,0.4-0.1,0.7-0.1,1.1c0,0.4,0,0.7,0.1,1.1c0.1,0.4,0.2,0.7,0.4,1c0.2,0.3,0.4,0.5,0.7,0.7c0.3,0.2,0.7,0.3,1.1,0.3
			c0.4,0,0.8-0.1,1.1-0.3c0.3-0.2,0.5-0.4,0.7-0.7c0.2-0.3,0.3-0.6,0.4-1c0.1-0.4,0.1-0.7,0.1-1.1C194.5,63.7,194.4,63.3,194.3,62.9
			 M195.2,65.4c-0.1,0.4-0.4,0.8-0.6,1.1s-0.6,0.6-1,0.8c-0.4,0.2-0.9,0.3-1.4,0.3c-0.5,0-1-0.1-1.4-0.3c-0.4-0.2-0.7-0.4-1-0.8
			c-0.3-0.3-0.5-0.7-0.6-1.1c-0.1-0.4-0.2-0.9-0.2-1.4c0-0.6,0.1-1.1,0.3-1.6c0.2-0.5,0.4-0.8,0.7-1.1c0.3-0.3,0.7-0.5,1.1-0.7
			c0.4-0.2,0.8-0.2,1.2-0.2c0.4,0,0.8,0.1,1.2,0.2c0.4,0.2,0.7,0.4,1.1,0.7c0.3,0.3,0.6,0.7,0.7,1.1c0.2,0.5,0.3,1,0.3,1.6
			C195.4,64.5,195.3,65,195.2,65.4 M191.4,60.1c0.1-0.1,0.2-0.2,0.3-0.4s0.2-0.3,0.3-0.4c0.1-0.1,0.2-0.3,0.3-0.4s0.2-0.2,0.3-0.3
			c0.1-0.1,0.1-0.1,0.2-0.1c0.1,0,0.2,0,0.2,0c0.1,0,0.1,0,0.2,0.1c0.1,0,0.1,0.1,0.1,0.2c0,0,0,0.1,0,0.1c0,0-0.1,0.1-0.1,0.1
			c-0.3,0.2-0.5,0.4-0.7,0.6s-0.5,0.4-0.7,0.6L191.4,60.1z M185.2,67.5v-0.1c0.1,0,0.2,0,0.3,0c0.1,0,0.1,0,0.2-0.1
			c0,0,0.1-0.1,0.1-0.1c0-0.1,0-0.2,0-0.3v-5.8c0-0.1,0-0.2,0-0.3c0-0.1,0-0.1-0.1-0.1c0,0-0.1,0-0.2-0.1c-0.1,0-0.2,0-0.3,0v-0.1h2
			v0.1c-0.1,0-0.2,0-0.3,0c-0.1,0-0.1,0-0.2,0.1c0,0-0.1,0.1-0.1,0.1s0,0.2,0,0.3v5.8c0,0.1,0,0.2,0,0.3c0,0.1,0,0.1,0.1,0.1
			c0,0,0.1,0.1,0.2,0.1c0.1,0,0.2,0,0.3,0v0.1H185.2z M182.7,67.4c-0.4,0.1-0.8,0.2-1.2,0.2c-0.6,0-1-0.1-1.5-0.3
			c-0.4-0.2-0.8-0.4-1.1-0.7c-0.3-0.3-0.5-0.7-0.7-1.1c-0.2-0.4-0.2-0.9-0.2-1.5c0-0.5,0.1-1,0.2-1.4c0.2-0.4,0.4-0.8,0.7-1.2
			c0.3-0.3,0.7-0.6,1.1-0.8c0.4-0.2,0.9-0.3,1.4-0.3c0.4,0,0.7,0,1.1,0.1c0,0,0.1,0,0.2,0c0.1,0,0.1,0,0.2,0.1c0.1,0,0.1,0,0.2,0.1
			c0.1,0,0.1,0,0.2,0c0.1,0,0.2-0.1,0.2-0.2h0.1v0.4c0,0.1,0,0.3,0,0.4c0,0.1,0,0.3,0,0.4c0,0.1,0,0.3-0.1,0.4
			c-0.2-0.4-0.5-0.7-0.8-0.9c-0.3-0.2-0.7-0.3-1.2-0.3c-0.5,0-0.9,0.1-1.2,0.3c-0.3,0.2-0.6,0.4-0.8,0.7c-0.2,0.3-0.4,0.6-0.5,1
			c-0.1,0.4-0.2,0.8-0.2,1.2c0,0.4,0.1,0.8,0.2,1.2c0.1,0.4,0.3,0.7,0.5,1c0.2,0.3,0.5,0.5,0.8,0.7c0.3,0.2,0.7,0.2,1.2,0.2
			c0.2,0,0.3,0,0.5,0c0.2,0,0.4,0,0.6-0.1c0.2,0,0.4-0.1,0.5-0.1c0.2-0.1,0.3-0.2,0.5-0.3l0,0.2C183.4,67.1,183.1,67.3,182.7,67.4
			 M173.5,61.5l-1.4,3.4h2.7L173.5,61.5z M175.3,67.5v-0.1c0.2,0,0.3,0,0.4-0.1c0.1-0.1,0.1-0.2,0-0.3l-0.6-1.6h-3.1l-0.6,1.4
			c-0.1,0.2-0.1,0.3-0.1,0.4c0,0.1,0.2,0.1,0.4,0.1v0.1h-1.4v-0.1c0.1,0,0.2,0,0.2-0.1c0.1,0,0.1-0.1,0.2-0.1c0-0.1,0.1-0.1,0.1-0.2
			c0-0.1,0.1-0.1,0.1-0.2l2.6-6.3h0.6l2.7,6.6c0.1,0.2,0.2,0.3,0.4,0.3v0.1H175.3z M168.2,67.4c-0.4,0.1-0.8,0.2-1.2,0.2
			c-0.5,0-1-0.1-1.5-0.3c-0.4-0.2-0.8-0.4-1.1-0.7c-0.3-0.3-0.5-0.7-0.7-1.1c-0.2-0.4-0.2-0.9-0.2-1.5c0-0.5,0.1-1,0.2-1.4
			c0.2-0.4,0.4-0.8,0.7-1.2c0.3-0.3,0.7-0.6,1.1-0.8c0.4-0.2,0.9-0.3,1.4-0.3c0.4,0,0.7,0,1.1,0.1c0,0,0.1,0,0.2,0
			c0.1,0,0.1,0,0.2,0.1c0.1,0,0.1,0,0.2,0.1c0.1,0,0.1,0,0.2,0c0.1,0,0.2-0.1,0.2-0.2h0.1v0.4c0,0.1,0,0.3,0,0.4c0,0.1,0,0.3,0,0.4
			c0,0.1,0,0.3-0.1,0.4c-0.2-0.4-0.5-0.7-0.8-0.9c-0.3-0.2-0.7-0.3-1.2-0.3c-0.5,0-0.9,0.1-1.2,0.3c-0.3,0.2-0.6,0.4-0.8,0.7
			c-0.2,0.3-0.4,0.6-0.5,1c-0.1,0.4-0.2,0.8-0.2,1.2c0,0.4,0.1,0.8,0.2,1.2c0.1,0.4,0.3,0.7,0.5,1c0.2,0.3,0.5,0.5,0.8,0.7
			c0.3,0.2,0.7,0.2,1.2,0.2c0.2,0,0.3,0,0.5,0c0.2,0,0.4,0,0.6-0.1c0.2,0,0.4-0.1,0.5-0.1c0.2-0.1,0.3-0.2,0.5-0.3l0,0.2
			C168.9,67.1,168.6,67.3,168.2,67.4 M161.7,60.6c-0.1,0-0.2,0-0.2,0.1c-0.1,0.1-0.1,0.1-0.1,0.2c0,0.1,0,0.2,0,0.3v0.3v3.6
			c0,0.8-0.2,1.5-0.7,1.9c-0.5,0.4-1.1,0.7-1.9,0.7c-0.8,0-1.5-0.2-1.9-0.7c-0.5-0.4-0.7-1.1-0.7-1.9v-3.9c0-0.2,0-0.3-0.1-0.4
			c0-0.1-0.1-0.1-0.3-0.1h-0.2v-0.1h1.9v0.1c-0.1,0-0.2,0-0.3,0c-0.1,0-0.1,0-0.2,0.1s-0.1,0.1-0.1,0.2c0,0.1,0,0.2,0,0.3v3.9
			c0,0.6,0.1,1.1,0.4,1.5c0.3,0.4,0.8,0.6,1.4,0.6c0.6,0,1.1-0.2,1.4-0.5c0.3-0.3,0.5-0.8,0.5-1.4v-3.7v-0.4c0-0.1,0-0.2,0-0.3
			c0-0.1-0.1-0.1-0.2-0.2c-0.1,0-0.2-0.1-0.3-0.1v-0.1h1.6v0.1H161.7z M149,66.8c0,0.1,0,0.1,0.1,0.1c0,0,0.1,0.1,0.2,0.1
			c0.1,0,0.1,0,0.2,0c0.1,0,0.1,0,0.2,0c0.5,0,1-0.1,1.4-0.2c0.4-0.1,0.8-0.3,1.1-0.5c0.3-0.2,0.5-0.6,0.7-0.9s0.2-0.8,0.2-1.4
			c0-0.5-0.1-1-0.2-1.3c-0.2-0.4-0.4-0.7-0.6-0.9c-0.3-0.2-0.6-0.4-1-0.6c-0.4-0.1-0.8-0.2-1.3-0.2c-0.1,0-0.3,0-0.4,0
			c-0.1,0-0.2,0.1-0.4,0.2V66.8z M147.7,67.4c0.1,0,0.2,0,0.3,0c0.1,0,0.1,0,0.2-0.1c0,0,0.1-0.1,0.1-0.2c0-0.1,0-0.2,0-0.3v-5.8
			c0-0.1,0-0.2,0-0.3c0-0.1,0-0.1-0.1-0.2s-0.1-0.1-0.2-0.1c-0.1,0-0.2,0-0.3,0v-0.1h2.4c0.6,0,1.1,0.1,1.6,0.2
			c0.5,0.1,0.9,0.4,1.2,0.6c0.3,0.3,0.6,0.7,0.8,1.1c0.2,0.4,0.3,1,0.3,1.6c0,0.5-0.1,1-0.2,1.4c-0.2,0.4-0.4,0.8-0.8,1.2
			c-0.4,0.3-0.8,0.6-1.3,0.7c-0.5,0.1-1,0.2-1.5,0.2h-2.3V67.4z M145.9,67.5h-4.7v-0.1c0.2,0,0.3,0,0.4-0.1c0.1-0.1,0.1-0.2,0.1-0.4
			v-5.8c0-0.2,0-0.4-0.1-0.4c-0.1-0.1-0.2-0.1-0.4-0.1v-0.1h4.6l0,1.1h-0.1c0-0.3-0.1-0.4-0.2-0.5c-0.1-0.1-0.3-0.1-0.6-0.1h-2.1
			c-0.1,0-0.2,0-0.2,0c0,0,0,0.1,0,0.2v2.4h2.1c0.1,0,0.2,0,0.3,0c0.1,0,0.1,0,0.2-0.1c0.1,0,0.1-0.1,0.1-0.2c0-0.1,0-0.2,0.1-0.3
			h0.1v1.6h-0.1c0-0.1,0-0.2-0.1-0.3c0-0.1-0.1-0.1-0.1-0.2c-0.1,0-0.1-0.1-0.2-0.1c-0.1,0-0.2,0-0.3,0h-2.1v2.7
			c0,0.1,0,0.1,0.1,0.1c0,0,0.1,0.1,0.1,0.1c0.1,0,0.1,0,0.2,0c0.1,0,0.1,0,0.1,0h1.7c0.2,0,0.3,0,0.4,0c0.1,0,0.2-0.1,0.3-0.1
			c0.1-0.1,0.2-0.1,0.3-0.2c0.1-0.1,0.1-0.2,0.2-0.4h0.2L145.9,67.5z M134.6,60.7c-0.1,0-0.1,0.1-0.2,0.1c0,0.1,0,0.1-0.1,0.2
			c0,0.1,0,0.2,0,0.3v6.2h-0.5l-4.1-5.9v5c0,0.1,0,0.2,0,0.3c0,0.1,0,0.2,0.1,0.2c0,0.1,0.1,0.1,0.2,0.1c0.1,0,0.2,0,0.3,0v0.1h-1.7
			v-0.1c0.1,0,0.3,0,0.3,0s0.1-0.1,0.2-0.1c0-0.1,0.1-0.1,0.1-0.2c0-0.1,0-0.2,0-0.3v-5.6c0-0.1-0.1-0.2-0.1-0.2
			c0-0.1-0.1-0.1-0.1-0.1c0,0-0.1-0.1-0.1-0.1c-0.1,0-0.1,0-0.2,0v-0.1h1.4c0.6,1,1.3,1.9,1.9,2.8c0.7,0.9,1.3,1.9,1.9,2.8v-4.8
			c0-0.1,0-0.3,0-0.4c0-0.1,0-0.2-0.1-0.2c0-0.1-0.1-0.1-0.2-0.1c-0.1,0-0.2,0-0.3,0v-0.1h1.7v0.1C134.8,60.6,134.7,60.6,134.6,60.7
			 M126.9,67.5h-4.7v-0.1c0.2,0,0.3,0,0.4-0.1c0.1-0.1,0.1-0.2,0.1-0.4v-5.8c0-0.2,0-0.4-0.1-0.4c-0.1-0.1-0.2-0.1-0.4-0.1v-0.1h4.6
			l0,1.1h-0.1c0-0.3-0.1-0.4-0.2-0.5c-0.1-0.1-0.3-0.1-0.6-0.1h-2.1c-0.1,0-0.2,0-0.2,0c0,0,0,0.1,0,0.2v2.4h2.1c0.1,0,0.2,0,0.3,0
			c0.1,0,0.1,0,0.2-0.1c0.1,0,0.1-0.1,0.1-0.2c0-0.1,0-0.2,0.1-0.3h0.1v1.6h-0.1c0-0.1,0-0.2-0.1-0.3c0-0.1-0.1-0.1-0.1-0.2
			c-0.1,0-0.1-0.1-0.2-0.1c-0.1,0-0.2,0-0.3,0h-2.1v2.7c0,0.1,0,0.1,0.1,0.1c0,0,0.1,0.1,0.1,0.1c0.1,0,0.1,0,0.2,0
			c0.1,0,0.1,0,0.1,0h1.7c0.2,0,0.3,0,0.4,0c0.1,0,0.2-0.1,0.3-0.1c0.1-0.1,0.2-0.1,0.3-0.2c0.1-0.1,0.1-0.2,0.2-0.4h0.2L126.9,67.5
			z M111.8,67.4c0,0-0.1,0.1-0.1,0.1h-0.1l-0.1-1.5l0,0h0.1c0.1,0.3,0.3,0.5,0.5,0.7c0.2,0.2,0.4,0.3,0.7,0.4
			c0.2,0.1,0.5,0.1,0.7,0.1c0.2,0,0.5-0.1,0.7-0.2c0.2-0.1,0.4-0.2,0.5-0.4c0.1-0.2,0.2-0.4,0.2-0.6c0-0.3-0.1-0.5-0.2-0.7
			c-0.2-0.2-0.4-0.4-0.6-0.5c-0.2-0.2-0.5-0.3-0.8-0.5c-0.3-0.1-0.5-0.3-0.8-0.5c-0.2-0.2-0.4-0.4-0.6-0.6c-0.2-0.2-0.2-0.5-0.2-0.9
			c0-0.3,0.1-0.5,0.2-0.7c0.1-0.2,0.3-0.4,0.4-0.5c0.2-0.2,0.4-0.3,0.6-0.3c0.2-0.1,0.5-0.1,0.7-0.1c0.1,0,0.3,0,0.4,0
			c0.1,0,0.3,0.1,0.4,0.1c0,0,0.1,0,0.1,0c0.1,0,0.1,0,0.2,0.1c0.1,0,0.1,0,0.2,0.1c0.1,0,0.1,0,0.1,0c0.1,0,0.2-0.1,0.2-0.2h0.1
			c0,0.3,0.1,0.5,0.1,0.8c0,0.3,0,0.5,0,0.8h-0.1c-0.1-0.3-0.2-0.5-0.4-0.6c-0.2-0.2-0.4-0.3-0.6-0.4c-0.2-0.1-0.4-0.1-0.7-0.1
			c-0.2,0-0.4,0-0.6,0.1c-0.2,0.1-0.3,0.2-0.5,0.4c-0.1,0.2-0.2,0.4-0.2,0.6c0,0.2,0,0.3,0.1,0.5s0.2,0.3,0.4,0.4
			c0.2,0.1,0.4,0.3,0.6,0.4c0.2,0.1,0.4,0.2,0.6,0.4l-0.1,0c0.2,0.1,0.4,0.2,0.7,0.4c0.2,0.1,0.4,0.3,0.6,0.5
			c0.2,0.2,0.3,0.4,0.4,0.6c0.1,0.2,0.1,0.5,0.1,0.7c0,0.3-0.1,0.6-0.2,0.8c-0.1,0.2-0.3,0.4-0.5,0.6c-0.2,0.2-0.4,0.3-0.7,0.4
			c-0.3,0.1-0.5,0.1-0.8,0.1c-0.3,0-0.6,0-0.8-0.1c-0.3-0.1-0.5-0.1-0.8-0.2C111.8,67.3,111.8,67.3,111.8,67.4 M108.7,62.9
			c-0.1-0.4-0.2-0.7-0.4-1c-0.2-0.3-0.4-0.6-0.7-0.7c-0.3-0.2-0.7-0.3-1.1-0.3c-0.4,0-0.8,0.1-1.1,0.3c-0.3,0.2-0.5,0.4-0.7,0.7
			c-0.2,0.3-0.3,0.6-0.4,1c-0.1,0.4-0.1,0.7-0.1,1.1c0,0.4,0,0.7,0.1,1.1c0.1,0.4,0.2,0.7,0.4,1c0.2,0.3,0.4,0.5,0.7,0.7
			c0.3,0.2,0.7,0.3,1.1,0.3c0.4,0,0.8-0.1,1.1-0.3c0.3-0.2,0.5-0.4,0.7-0.7c0.2-0.3,0.3-0.6,0.4-1c0.1-0.4,0.1-0.7,0.1-1.1
			C108.8,63.7,108.8,63.3,108.7,62.9 M109.5,65.4c-0.1,0.4-0.4,0.8-0.6,1.1c-0.3,0.3-0.6,0.6-1,0.8c-0.4,0.2-0.9,0.3-1.4,0.3
			c-0.5,0-1-0.1-1.4-0.3c-0.4-0.2-0.7-0.4-1-0.8c-0.3-0.3-0.5-0.7-0.6-1.1c-0.1-0.4-0.2-0.9-0.2-1.4c0-0.6,0.1-1.1,0.3-1.6
			c0.2-0.5,0.4-0.8,0.7-1.1c0.3-0.3,0.7-0.5,1.1-0.7c0.4-0.2,0.8-0.2,1.2-0.2c0.4,0,0.8,0.1,1.2,0.2c0.4,0.2,0.7,0.4,1.1,0.7
			c0.3,0.3,0.6,0.7,0.7,1.1c0.2,0.5,0.3,1,0.3,1.6C109.7,64.5,109.7,65,109.5,65.4 M96.3,66.8c0,0.1,0,0.1,0.1,0.1
			c0,0,0.1,0.1,0.2,0.1c0.1,0,0.1,0,0.2,0c0.1,0,0.1,0,0.2,0c0.5,0,1-0.1,1.4-0.2c0.4-0.1,0.8-0.3,1.1-0.5c0.3-0.2,0.5-0.6,0.7-0.9
			c0.2-0.4,0.2-0.8,0.2-1.4c0-0.5-0.1-1-0.2-1.3c-0.2-0.4-0.4-0.7-0.6-0.9c-0.3-0.2-0.6-0.4-1-0.6C97.9,61.1,97.5,61,97,61
			c-0.1,0-0.3,0-0.4,0c-0.1,0-0.2,0.1-0.4,0.2V66.8z M94.9,67.4c0.1,0,0.2,0,0.3,0c0.1,0,0.1,0,0.2-0.1c0,0,0.1-0.1,0.1-0.2
			c0-0.1,0-0.2,0-0.3v-5.8c0-0.1,0-0.2,0-0.3c0-0.1,0-0.1-0.1-0.2c0,0-0.1-0.1-0.2-0.1c-0.1,0-0.2,0-0.3,0v-0.1h2.4
			c0.6,0,1.1,0.1,1.6,0.2c0.5,0.1,0.9,0.4,1.2,0.6c0.3,0.3,0.6,0.7,0.8,1.1c0.2,0.4,0.3,1,0.3,1.6c0,0.5-0.1,1-0.2,1.4
			c-0.2,0.4-0.4,0.8-0.8,1.2c-0.4,0.3-0.8,0.6-1.3,0.7c-0.5,0.1-1,0.2-1.5,0.2h-2.3V67.4z M89.8,61.5l-1.4,3.4h2.7L89.8,61.5z
			 M91.6,67.5v-0.1c0.2,0,0.3,0,0.4-0.1c0.1-0.1,0.1-0.2,0-0.3l-0.6-1.6h-3.1l-0.6,1.4c-0.1,0.2-0.1,0.3-0.1,0.4
			c0,0.1,0.2,0.1,0.4,0.1v0.1h-1.4v-0.1c0.1,0,0.2,0,0.2-0.1c0.1,0,0.1-0.1,0.2-0.1c0-0.1,0.1-0.1,0.1-0.2c0-0.1,0.1-0.1,0.1-0.2
			l2.6-6.3h0.6l2.7,6.6c0.1,0.2,0.2,0.3,0.4,0.3v0.1H91.6z M84.8,67.5h-5.3v-0.4l4.2-6.1h-3c-0.3,0-0.5,0.1-0.6,0.2
			c-0.1,0.1-0.2,0.3-0.3,0.6h-0.1l0.1-1.2h5v0.4L80.6,67h3.3c0.3,0,0.5-0.1,0.6-0.2s0.2-0.3,0.3-0.6h0.1L84.8,67.5z M77.4,60.7
			c-0.1,0-0.1,0.1-0.2,0.1c0,0.1,0,0.1-0.1,0.2c0,0.1,0,0.2,0,0.3v6.2h-0.5l-4.1-5.9v5c0,0.1,0,0.2,0,0.3c0,0.1,0,0.2,0.1,0.2
			c0,0.1,0.1,0.1,0.2,0.1s0.2,0,0.3,0v0.1h-1.7v-0.1c0.1,0,0.3,0,0.3,0c0.1,0,0.1-0.1,0.2-0.1c0-0.1,0.1-0.1,0.1-0.2
			c0-0.1,0-0.2,0-0.3v-5.6c0-0.1-0.1-0.2-0.1-0.2c0-0.1-0.1-0.1-0.1-0.1c0,0-0.1-0.1-0.1-0.1c-0.1,0-0.1,0-0.2,0v-0.1h1.4
			c0.6,1,1.3,1.9,1.9,2.8c0.7,0.9,1.3,1.9,1.9,2.8v-4.8c0-0.1,0-0.3,0-0.4c0-0.1,0-0.2-0.1-0.2c0-0.1-0.1-0.1-0.2-0.1
			c-0.1,0-0.2,0-0.3,0v-0.1h1.7v0.1C77.6,60.6,77.5,60.6,77.4,60.7 M66.3,61.5L65,64.9h2.7L66.3,61.5z M68.1,67.5v-0.1
			c0.2,0,0.3,0,0.4-0.1c0.1-0.1,0.1-0.2,0-0.3l-0.6-1.6h-3.1l-0.6,1.4c-0.1,0.2-0.1,0.3-0.1,0.4c0,0.1,0.2,0.1,0.4,0.1v0.1H63v-0.1
			c0.1,0,0.2,0,0.2-0.1c0.1,0,0.1-0.1,0.2-0.1c0-0.1,0.1-0.1,0.1-0.2c0-0.1,0.1-0.1,0.1-0.2l2.6-6.3h0.6l2.7,6.6
			c0.1,0.2,0.2,0.3,0.4,0.3v0.1H68.1z M63.1,60.8c-0.1,0.1-0.1,0.2-0.2,0.3l-2.5,6.5H60l-2.7-6.5c-0.1-0.1-0.1-0.2-0.2-0.3
			c-0.1-0.1-0.2-0.1-0.3-0.1v-0.1h1.8v0.1c-0.1,0-0.1,0-0.2,0c-0.1,0-0.1,0-0.2,0c0,0-0.1,0.1-0.1,0.1c0,0,0,0.1,0,0.2l2.1,5.3
			l1.9-5.1c0.1-0.2,0.1-0.3,0.1-0.4c0-0.1-0.2-0.1-0.4-0.2v-0.1h1.5v0.1C63.3,60.6,63.2,60.7,63.1,60.8 M53.5,61.5l-1.4,3.4h2.7
			L53.5,61.5z M55.3,67.5v-0.1c0.2,0,0.3,0,0.4-0.1c0.1-0.1,0.1-0.2,0-0.3L55,65.4h-3.1l-0.6,1.4c-0.1,0.2-0.1,0.3-0.1,0.4
			c0,0.1,0.2,0.1,0.4,0.1v0.1h-1.4v-0.1c0.1,0,0.2,0,0.2-0.1c0.1,0,0.1-0.1,0.2-0.1c0-0.1,0.1-0.1,0.1-0.2c0-0.1,0.1-0.1,0.1-0.2
			l2.6-6.3h0.6l2.7,6.6c0.1,0.2,0.2,0.3,0.4,0.3v0.1H55.3z"/>
		<path class="st0" d="M199.3,54.8c0,0-0.1,0.1-0.1,0.1h-0.1l-0.1-1.5l0,0h0.1c0.1,0.3,0.3,0.5,0.5,0.7s0.4,0.3,0.7,0.4
			s0.5,0.1,0.7,0.1c0.2,0,0.5-0.1,0.7-0.2c0.2-0.1,0.4-0.2,0.5-0.4c0.1-0.2,0.2-0.4,0.2-0.6c0-0.3-0.1-0.5-0.2-0.7
			c-0.2-0.2-0.4-0.4-0.6-0.5c-0.2-0.2-0.5-0.3-0.8-0.5c-0.3-0.1-0.5-0.3-0.8-0.5c-0.2-0.2-0.4-0.4-0.6-0.6s-0.2-0.5-0.2-0.9
			c0-0.3,0.1-0.5,0.2-0.7c0.1-0.2,0.3-0.4,0.5-0.5c0.2-0.2,0.4-0.3,0.6-0.3c0.2-0.1,0.5-0.1,0.7-0.1c0.1,0,0.3,0,0.4,0
			c0.1,0,0.3,0.1,0.4,0.1c0,0,0.1,0,0.1,0c0.1,0,0.1,0,0.2,0.1c0.1,0,0.1,0,0.2,0.1c0.1,0,0.1,0,0.1,0c0.1,0,0.2-0.1,0.2-0.2h0.1
			c0,0.3,0.1,0.5,0.1,0.8c0,0.3,0,0.5,0,0.8h-0.1c-0.1-0.3-0.2-0.5-0.4-0.7c-0.2-0.2-0.4-0.3-0.6-0.4c-0.2-0.1-0.4-0.1-0.7-0.1
			c-0.2,0-0.4,0-0.6,0.1c-0.2,0.1-0.3,0.2-0.5,0.4c-0.1,0.2-0.2,0.4-0.2,0.6c0,0.2,0,0.4,0.1,0.5c0.1,0.1,0.2,0.3,0.4,0.4
			c0.2,0.1,0.4,0.3,0.6,0.4c0.2,0.1,0.4,0.2,0.6,0.4l-0.1,0c0.2,0.1,0.4,0.2,0.7,0.4c0.2,0.1,0.4,0.3,0.6,0.5
			c0.2,0.2,0.3,0.4,0.4,0.6c0.1,0.2,0.1,0.5,0.1,0.8c0,0.3-0.1,0.6-0.2,0.8c-0.1,0.2-0.3,0.4-0.5,0.6c-0.2,0.2-0.4,0.3-0.7,0.4
			c-0.3,0.1-0.5,0.1-0.8,0.1c-0.3,0-0.6,0-0.8-0.1c-0.3-0.1-0.5-0.1-0.8-0.2C199.4,54.8,199.4,54.8,199.3,54.8 M195.2,50.4
			c-0.1-0.4-0.2-0.7-0.4-1c-0.2-0.3-0.4-0.6-0.7-0.7c-0.3-0.2-0.7-0.3-1.1-0.3c-0.4,0-0.8,0.1-1.1,0.3c-0.3,0.2-0.5,0.4-0.7,0.7
			c-0.2,0.3-0.3,0.6-0.4,1c-0.1,0.4-0.1,0.7-0.1,1.1c0,0.4,0,0.7,0.1,1.1c0.1,0.4,0.2,0.7,0.4,1c0.2,0.3,0.4,0.5,0.7,0.7
			c0.3,0.2,0.7,0.3,1.1,0.3c0.4,0,0.8-0.1,1.1-0.3c0.3-0.2,0.5-0.4,0.7-0.7c0.2-0.3,0.3-0.6,0.4-1c0.1-0.4,0.1-0.7,0.1-1.1
			C195.3,51.1,195.3,50.7,195.2,50.4 M196,52.9c-0.1,0.4-0.4,0.8-0.6,1.2c-0.3,0.3-0.6,0.6-1,0.8c-0.4,0.2-0.9,0.3-1.4,0.3
			c-0.5,0-1-0.1-1.4-0.3c-0.4-0.2-0.7-0.4-1-0.8c-0.3-0.3-0.5-0.7-0.6-1.2c-0.1-0.4-0.2-0.9-0.2-1.4c0-0.6,0.1-1.1,0.3-1.6
			c0.2-0.5,0.4-0.8,0.7-1.1c0.3-0.3,0.7-0.5,1.1-0.7c0.4-0.2,0.8-0.2,1.2-0.2c0.4,0,0.8,0.1,1.2,0.2c0.4,0.2,0.7,0.4,1.1,0.7
			s0.6,0.7,0.7,1.1c0.2,0.5,0.3,1,0.3,1.6C196.3,51.9,196.2,52.4,196,52.9 M185,54.9v-0.1c0.1,0,0.2,0,0.3,0c0.1,0,0.1,0,0.2-0.1
			c0,0,0.1-0.1,0.1-0.2c0-0.1,0-0.2,0-0.3v-5.8c0-0.1,0-0.2,0-0.3c0-0.1,0-0.1-0.1-0.2c0,0-0.1,0-0.2-0.1c-0.1,0-0.2,0-0.3,0v-0.1h2
			V48c-0.1,0-0.2,0-0.3,0c-0.1,0-0.1,0-0.2,0.1c0,0-0.1,0.1-0.1,0.2c0,0.1,0,0.2,0,0.3v5.8c0,0.1,0,0.2,0,0.3c0,0.1,0,0.1,0.1,0.2
			c0,0,0.1,0,0.2,0.1c0.1,0,0.2,0,0.3,0v0.1H185z M177.5,54.2c0,0.1,0,0.1,0.1,0.1c0,0,0.1,0.1,0.2,0.1c0.1,0,0.1,0,0.2,0
			c0.1,0,0.1,0,0.2,0c0.5,0,1-0.1,1.4-0.2c0.4-0.1,0.8-0.3,1.1-0.5c0.3-0.2,0.5-0.6,0.7-0.9c0.2-0.4,0.2-0.8,0.2-1.4
			c0-0.5-0.1-1-0.2-1.3c-0.2-0.4-0.4-0.7-0.6-0.9s-0.6-0.4-1-0.6c-0.4-0.1-0.8-0.2-1.3-0.2c-0.1,0-0.3,0-0.4,0
			c-0.1,0-0.2,0.1-0.4,0.2V54.2z M176.1,54.8c0.1,0,0.2,0,0.3,0c0.1,0,0.1,0,0.2-0.1c0,0,0.1-0.1,0.1-0.2c0-0.1,0-0.2,0-0.3v-5.8
			c0-0.1,0-0.2,0-0.3c0-0.1,0-0.1-0.1-0.2c0,0-0.1-0.1-0.2-0.1c-0.1,0-0.2,0-0.3,0v-0.1h2.4c0.6,0,1.1,0.1,1.6,0.2
			c0.5,0.1,0.9,0.4,1.2,0.6c0.3,0.3,0.6,0.7,0.8,1.1c0.2,0.4,0.3,1,0.3,1.6c0,0.5-0.1,1-0.2,1.4c-0.2,0.4-0.4,0.8-0.8,1.2
			c-0.4,0.3-0.8,0.6-1.3,0.7c-0.5,0.1-1,0.2-1.5,0.2h-2.3V54.8z M172.8,48c-0.1,0-0.2,0-0.2,0.1c-0.1,0.1-0.1,0.1-0.1,0.2
			c0,0.1,0,0.2,0,0.3v0.3v3.6c0,0.8-0.2,1.5-0.7,1.9c-0.5,0.4-1.1,0.7-1.9,0.7c-0.8,0-1.5-0.2-1.9-0.7c-0.5-0.4-0.7-1.1-0.7-1.9
			v-3.9c0-0.2,0-0.3-0.1-0.4c0-0.1-0.1-0.1-0.3-0.1h-0.2v-0.1h1.9V48c-0.1,0-0.2,0-0.3,0c-0.1,0-0.1,0-0.2,0.1c0,0-0.1,0.1-0.1,0.2
			c0,0.1,0,0.2,0,0.3v3.9c0,0.6,0.1,1.1,0.4,1.5s0.8,0.6,1.4,0.6c0.6,0,1.1-0.2,1.4-0.5c0.3-0.3,0.5-0.8,0.5-1.4v-3.7v-0.4
			c0-0.1,0-0.2,0-0.3c0-0.1-0.1-0.1-0.2-0.2c-0.1,0-0.2-0.1-0.3-0.1v-0.1h1.6V48H172.8z M163.7,49.2c-0.1-0.3-0.1-0.5-0.3-0.6
			c-0.1-0.1-0.3-0.1-0.6-0.1h-1.3v5.9c0,0.1,0,0.2,0,0.3c0,0.1,0,0.1,0.1,0.2c0,0,0.1,0.1,0.2,0.1c0.1,0,0.2,0,0.3,0v0.1h-2v-0.1
			c0.1,0,0.2,0,0.3,0c0.1,0,0.1,0,0.2-0.1c0,0,0.1-0.1,0.1-0.2c0-0.1,0-0.2,0-0.3v-5.9h-1.4c-0.3,0-0.5,0.1-0.6,0.2
			c-0.1,0.1-0.2,0.3-0.3,0.6h-0.1l0-1.2h5.4l0,1.2H163.7z M151.8,54.8c0,0-0.1,0.1-0.1,0.1h-0.1l-0.1-1.5l0,0h0.1
			c0.1,0.3,0.3,0.5,0.5,0.7s0.4,0.3,0.7,0.4c0.2,0.1,0.5,0.1,0.7,0.1c0.2,0,0.5-0.1,0.7-0.2c0.2-0.1,0.4-0.2,0.5-0.4
			c0.1-0.2,0.2-0.4,0.2-0.6c0-0.3-0.1-0.5-0.2-0.7c-0.2-0.2-0.4-0.4-0.6-0.5c-0.2-0.2-0.5-0.3-0.8-0.5c-0.3-0.1-0.5-0.3-0.8-0.5
			c-0.2-0.2-0.4-0.4-0.6-0.6c-0.2-0.2-0.2-0.5-0.2-0.9c0-0.3,0.1-0.5,0.2-0.7c0.1-0.2,0.3-0.4,0.4-0.5c0.2-0.2,0.4-0.3,0.6-0.3
			s0.5-0.1,0.7-0.1c0.1,0,0.3,0,0.4,0c0.1,0,0.3,0.1,0.4,0.1c0,0,0.1,0,0.1,0c0.1,0,0.1,0,0.2,0.1c0.1,0,0.1,0,0.2,0.1
			c0.1,0,0.1,0,0.1,0c0.1,0,0.2-0.1,0.2-0.2h0.1c0,0.3,0.1,0.5,0.1,0.8c0,0.3,0,0.5,0,0.8h-0.1c-0.1-0.3-0.2-0.5-0.4-0.7
			c-0.2-0.2-0.4-0.3-0.6-0.4c-0.2-0.1-0.4-0.1-0.7-0.1c-0.2,0-0.4,0-0.6,0.1c-0.2,0.1-0.3,0.2-0.5,0.4c-0.1,0.2-0.2,0.4-0.2,0.6
			c0,0.2,0,0.4,0.2,0.5c0.1,0.1,0.2,0.3,0.4,0.4c0.2,0.1,0.4,0.3,0.6,0.4c0.2,0.1,0.4,0.2,0.6,0.4l-0.1,0c0.2,0.1,0.4,0.2,0.7,0.4
			c0.2,0.1,0.4,0.3,0.6,0.5c0.2,0.2,0.3,0.4,0.4,0.6c0.1,0.2,0.1,0.5,0.1,0.8c0,0.3-0.1,0.6-0.2,0.8c-0.1,0.2-0.3,0.4-0.5,0.6
			s-0.4,0.3-0.7,0.4c-0.3,0.1-0.5,0.1-0.8,0.1c-0.3,0-0.6,0-0.8-0.1c-0.3-0.1-0.5-0.1-0.8-0.2C151.9,54.8,151.9,54.8,151.8,54.8
			 M148.6,54.9h-4.7v-0.1c0.2,0,0.3,0,0.4-0.1c0.1-0.1,0.1-0.2,0.1-0.4v-5.8c0-0.2,0-0.4-0.1-0.4c-0.1-0.1-0.2-0.1-0.4-0.1v-0.1h4.6
			l0,1.1h-0.1c0-0.3-0.1-0.4-0.2-0.5c-0.1-0.1-0.3-0.1-0.6-0.1h-2.1c-0.1,0-0.2,0-0.2,0c0,0,0,0.1,0,0.2V51h2.1c0.1,0,0.2,0,0.3,0
			c0.1,0,0.2,0,0.2-0.1c0.1,0,0.1-0.1,0.1-0.2c0-0.1,0-0.2,0.1-0.3h0.1v1.6H148c0-0.1,0-0.2-0.1-0.3c0-0.1-0.1-0.1-0.1-0.2
			c-0.1,0-0.1-0.1-0.2-0.1c-0.1,0-0.2,0-0.3,0h-2.1v2.7c0,0.1,0,0.1,0.1,0.1c0,0,0.1,0,0.1,0.1c0.1,0,0.1,0,0.2,0c0.1,0,0.1,0,0.2,0
			h1.7c0.2,0,0.3,0,0.4,0c0.1,0,0.2-0.1,0.3-0.1c0.1-0.1,0.2-0.1,0.3-0.2c0.1-0.1,0.1-0.2,0.2-0.4h0.2L148.6,54.9z M136.4,54.9h-4.7
			v-0.1c0.2,0,0.3,0,0.4-0.1c0.1-0.1,0.1-0.2,0.1-0.4v-5.8c0-0.2,0-0.4-0.1-0.4c-0.1-0.1-0.2-0.1-0.4-0.1v-0.1h4.6l0,1.1h-0.1
			c0-0.3-0.1-0.4-0.2-0.5c-0.1-0.1-0.3-0.1-0.6-0.1h-2.1c-0.1,0-0.2,0-0.2,0c0,0,0,0.1,0,0.2V51h2.1c0.1,0,0.2,0,0.3,0
			c0.1,0,0.2,0,0.2-0.1c0.1,0,0.1-0.1,0.1-0.2c0-0.1,0-0.2,0.1-0.3h0.1v1.6h-0.1c0-0.1,0-0.2-0.1-0.3c0-0.1-0.1-0.1-0.1-0.2
			c-0.1,0-0.1-0.1-0.2-0.1c-0.1,0-0.2,0-0.3,0h-2.1v2.7c0,0.1,0,0.1,0.1,0.1c0,0,0.1,0,0.1,0.1c0.1,0,0.1,0,0.2,0c0.1,0,0.1,0,0.2,0
			h1.7c0.2,0,0.3,0,0.4,0c0.1,0,0.2-0.1,0.3-0.1c0.1-0.1,0.2-0.1,0.3-0.2c0.1-0.1,0.1-0.2,0.2-0.4h0.2L136.4,54.9z M124.1,54.2
			c0,0.1,0,0.1,0.1,0.1c0,0,0.1,0.1,0.2,0.1c0.1,0,0.1,0,0.2,0c0.1,0,0.1,0,0.2,0c0.5,0,1-0.1,1.4-0.2c0.4-0.1,0.8-0.3,1.1-0.5
			c0.3-0.2,0.5-0.6,0.7-0.9c0.2-0.4,0.2-0.8,0.2-1.4c0-0.5-0.1-1-0.2-1.3c-0.2-0.4-0.4-0.7-0.6-0.9s-0.6-0.4-1-0.6
			c-0.4-0.1-0.8-0.2-1.3-0.2c-0.1,0-0.3,0-0.4,0c-0.1,0-0.2,0.1-0.4,0.2V54.2z M122.8,54.8c0.1,0,0.2,0,0.3,0c0.1,0,0.1,0,0.2-0.1
			c0,0,0.1-0.1,0.1-0.2c0-0.1,0-0.2,0-0.3v-5.8c0-0.1,0-0.2,0-0.3c0-0.1,0-0.1-0.1-0.2c0,0-0.1-0.1-0.2-0.1c-0.1,0-0.2,0-0.3,0v-0.1
			h2.4c0.6,0,1.1,0.1,1.6,0.2c0.5,0.1,0.9,0.4,1.2,0.6c0.3,0.3,0.6,0.7,0.8,1.1c0.2,0.4,0.3,1,0.3,1.6c0,0.5-0.1,1-0.2,1.4
			c-0.2,0.4-0.4,0.8-0.8,1.2c-0.4,0.3-0.8,0.6-1.3,0.7c-0.5,0.1-1,0.2-1.5,0.2h-2.3V54.8z M114.4,50.4c-0.1-0.4-0.2-0.7-0.4-1
			c-0.2-0.3-0.4-0.6-0.7-0.7c-0.3-0.2-0.7-0.3-1.1-0.3c-0.4,0-0.8,0.1-1.1,0.3c-0.3,0.2-0.5,0.4-0.7,0.7c-0.2,0.3-0.3,0.6-0.4,1
			c-0.1,0.4-0.1,0.7-0.1,1.1c0,0.4,0,0.7,0.1,1.1c0.1,0.4,0.2,0.7,0.4,1c0.2,0.3,0.4,0.5,0.7,0.7c0.3,0.2,0.7,0.3,1.1,0.3
			c0.4,0,0.8-0.1,1.1-0.3c0.3-0.2,0.5-0.4,0.7-0.7c0.2-0.3,0.3-0.6,0.4-1c0.1-0.4,0.1-0.7,0.1-1.1C114.6,51.1,114.5,50.7,114.4,50.4
			 M115.3,52.9c-0.1,0.4-0.4,0.8-0.6,1.2c-0.3,0.3-0.6,0.6-1,0.8c-0.4,0.2-0.9,0.3-1.4,0.3c-0.5,0-1-0.1-1.4-0.3
			c-0.4-0.2-0.8-0.4-1-0.8c-0.3-0.3-0.5-0.7-0.6-1.2c-0.1-0.4-0.2-0.9-0.2-1.4c0-0.6,0.1-1.1,0.3-1.6c0.2-0.5,0.4-0.8,0.7-1.1
			c0.3-0.3,0.7-0.5,1.1-0.7c0.4-0.2,0.8-0.2,1.2-0.2c0.4,0,0.8,0.1,1.2,0.2c0.4,0.2,0.7,0.4,1.1,0.7c0.3,0.3,0.6,0.7,0.7,1.1
			c0.2,0.5,0.3,1,0.3,1.6C115.5,51.9,115.4,52.4,115.3,52.9 M106.9,49.2c-0.1-0.3-0.1-0.5-0.3-0.6c-0.1-0.1-0.3-0.1-0.6-0.1h-1.3
			v5.9c0,0.1,0,0.2,0,0.3c0,0.1,0,0.1,0.1,0.2c0,0,0.1,0.1,0.2,0.1c0.1,0,0.2,0,0.3,0v0.1h-2v-0.1c0.1,0,0.2,0,0.3,0
			c0.1,0,0.1,0,0.2-0.1c0,0,0.1-0.1,0.1-0.2c0-0.1,0-0.2,0-0.3v-5.9h-1.4c-0.3,0-0.5,0.1-0.6,0.2c-0.1,0.1-0.2,0.3-0.3,0.6h-0.1
			l0-1.2h5.4l0,1.2H106.9z M98.5,48c-0.1,0-0.2,0-0.2,0.1c-0.1,0.1-0.1,0.1-0.1,0.2c0,0.1,0,0.2,0,0.3v0.3v3.6
			c0,0.8-0.2,1.5-0.7,1.9c-0.5,0.4-1.1,0.7-1.9,0.7c-0.8,0-1.5-0.2-1.9-0.7c-0.5-0.4-0.7-1.1-0.7-1.9v-3.9c0-0.2,0-0.3-0.1-0.4
			c0-0.1-0.1-0.1-0.3-0.1h-0.2v-0.1h1.9V48c-0.1,0-0.2,0-0.3,0c-0.1,0-0.1,0-0.2,0.1c0,0-0.1,0.1-0.1,0.2c0,0.1,0,0.2,0,0.3v3.9
			c0,0.6,0.1,1.1,0.4,1.5c0.3,0.4,0.8,0.6,1.4,0.6c0.6,0,1.1-0.2,1.4-0.5c0.3-0.3,0.5-0.8,0.5-1.4v-3.7v-0.4c0-0.1,0-0.2,0-0.3
			c0-0.1-0.1-0.1-0.2-0.2c-0.1,0-0.2-0.1-0.3-0.1v-0.1h1.6V48H98.5z M89.4,49.2c-0.1-0.3-0.1-0.5-0.3-0.6c-0.1-0.1-0.3-0.1-0.6-0.1
			h-1.3v5.9c0,0.1,0,0.2,0,0.3c0,0.1,0,0.1,0.1,0.2c0,0,0.1,0.1,0.2,0.1c0.1,0,0.2,0,0.3,0v0.1h-2v-0.1c0.1,0,0.2,0,0.3,0
			c0.1,0,0.1,0,0.2-0.1c0,0,0.1-0.1,0.1-0.2c0-0.1,0-0.2,0-0.3v-5.9H85c-0.3,0-0.5,0.1-0.6,0.2c-0.1,0.1-0.2,0.3-0.3,0.6H84l0-1.2
			h5.4l0,1.2H89.4z M79.4,54.9v-0.1c0.1,0,0.2,0,0.3,0c0.1,0,0.1,0,0.2-0.1c0,0,0.1-0.1,0.1-0.2c0-0.1,0-0.2,0-0.3v-5.8
			c0-0.1,0-0.2,0-0.3c0-0.1,0-0.1-0.1-0.2c0,0-0.1,0-0.2-0.1c-0.1,0-0.2,0-0.3,0v-0.1h2V48c-0.1,0-0.2,0-0.3,0c-0.1,0-0.1,0-0.2,0.1
			c0,0-0.1,0.1-0.1,0.2c0,0.1,0,0.2,0,0.3v5.8c0,0.1,0,0.2,0,0.3c0,0.1,0,0.1,0.1,0.2c0,0,0.1,0,0.2,0.1c0.1,0,0.2,0,0.3,0v0.1H79.4
			z M76.4,49.2c-0.1-0.3-0.1-0.5-0.3-0.6c-0.1-0.1-0.3-0.1-0.6-0.1h-1.3v5.9c0,0.1,0,0.2,0,0.3c0,0.1,0,0.1,0.1,0.2
			c0,0,0.1,0.1,0.2,0.1c0.1,0,0.2,0,0.3,0v0.1h-2v-0.1c0.1,0,0.2,0,0.3,0c0.1,0,0.1,0,0.2-0.1c0,0,0.1-0.1,0.1-0.2
			c0-0.1,0-0.2,0-0.3v-5.9H72c-0.3,0-0.5,0.1-0.6,0.2c-0.1,0.1-0.2,0.3-0.3,0.6H71l0-1.2h5.4l0,1.2H76.4z M64.5,54.8
			c0,0-0.1,0.1-0.1,0.1h-0.1l-0.1-1.5l0,0h0.1c0.1,0.3,0.3,0.5,0.5,0.7c0.2,0.2,0.4,0.3,0.7,0.4s0.5,0.1,0.7,0.1
			c0.2,0,0.5-0.1,0.7-0.2c0.2-0.1,0.4-0.2,0.5-0.4c0.1-0.2,0.2-0.4,0.2-0.6c0-0.3-0.1-0.5-0.2-0.7c-0.2-0.2-0.4-0.4-0.6-0.5
			c-0.2-0.2-0.5-0.3-0.8-0.5c-0.3-0.1-0.5-0.3-0.8-0.5c-0.2-0.2-0.4-0.4-0.6-0.6s-0.2-0.5-0.2-0.9c0-0.3,0.1-0.5,0.2-0.7
			c0.1-0.2,0.3-0.4,0.4-0.5c0.2-0.2,0.4-0.3,0.6-0.3s0.5-0.1,0.7-0.1c0.1,0,0.3,0,0.4,0c0.1,0,0.3,0.1,0.4,0.1c0,0,0.1,0,0.1,0
			c0.1,0,0.1,0,0.2,0.1c0.1,0,0.1,0,0.2,0.1c0.1,0,0.1,0,0.1,0c0.1,0,0.2-0.1,0.2-0.2h0.1c0,0.3,0.1,0.5,0.1,0.8c0,0.3,0,0.5,0,0.8
			h-0.1c-0.1-0.3-0.2-0.5-0.4-0.7c-0.2-0.2-0.4-0.3-0.6-0.4c-0.2-0.1-0.4-0.1-0.7-0.1c-0.2,0-0.4,0-0.6,0.1
			c-0.2,0.1-0.3,0.2-0.5,0.4c-0.1,0.2-0.2,0.4-0.2,0.6c0,0.2,0,0.4,0.2,0.5c0.1,0.1,0.2,0.3,0.4,0.4c0.2,0.1,0.4,0.3,0.6,0.4
			c0.2,0.1,0.4,0.2,0.6,0.4l-0.1,0c0.2,0.1,0.4,0.2,0.7,0.4c0.2,0.1,0.4,0.3,0.6,0.5c0.2,0.2,0.3,0.4,0.4,0.6
			c0.1,0.2,0.1,0.5,0.1,0.8c0,0.3-0.1,0.6-0.2,0.8c-0.1,0.2-0.3,0.4-0.5,0.6s-0.4,0.3-0.7,0.4c-0.3,0.1-0.5,0.1-0.8,0.1
			c-0.3,0-0.6,0-0.8-0.1c-0.3-0.1-0.5-0.1-0.8-0.2C64.6,54.8,64.6,54.8,64.5,54.8 M61.3,48.1c-0.1,0-0.1,0.1-0.2,0.1
			c0,0.1,0,0.1-0.1,0.2c0,0.1,0,0.2,0,0.3V55h-0.5l-4.1-5.9v5c0,0.1,0,0.2,0,0.3c0,0.1,0,0.2,0.1,0.2c0,0.1,0.1,0.1,0.2,0.1
			c0.1,0,0.2,0,0.3,0v0.1h-1.7v-0.1c0.1,0,0.3,0,0.3,0c0.1,0,0.1-0.1,0.2-0.1c0-0.1,0.1-0.1,0.1-0.2c0-0.1,0-0.2,0-0.3v-5.6
			c0-0.1-0.1-0.2-0.1-0.2c0-0.1-0.1-0.1-0.1-0.1c0,0-0.1-0.1-0.1-0.1s-0.1,0-0.2,0v-0.1h1.4c0.6,1,1.3,1.9,1.9,2.8
			c0.7,0.9,1.3,1.9,1.9,2.8v-4.8c0-0.1,0-0.3,0-0.4c0-0.1,0-0.2-0.1-0.2c0-0.1-0.1-0.1-0.2-0.1c-0.1,0-0.2,0-0.3,0v-0.1h1.7V48
			C61.5,48,61.4,48.1,61.3,48.1 M50.2,54.9v-0.1c0.1,0,0.2,0,0.3,0c0.1,0,0.1,0,0.2-0.1c0,0,0.1-0.1,0.1-0.2c0-0.1,0-0.2,0-0.3v-5.8
			c0-0.1,0-0.2,0-0.3c0-0.1,0-0.1-0.1-0.2c0,0-0.1,0-0.2-0.1c-0.1,0-0.2,0-0.3,0v-0.1h2V48c-0.1,0-0.2,0-0.3,0c-0.1,0-0.1,0-0.2,0.1
			c0,0-0.1,0.1-0.1,0.2c0,0.1,0,0.2,0,0.3v5.8c0,0.1,0,0.2,0,0.3c0,0.1,0,0.1,0.1,0.2c0,0,0.1,0,0.2,0.1c0.1,0,0.2,0,0.3,0v0.1H50.2
			z"/>
		<path class="st0" d="M58.4,33.2c-0.1,0-0.2,0-0.3,0.1c-0.1,0.1-0.1,0.2-0.2,0.3c0,0.1,0,0.2,0,0.4v0.3v4.8c0,1.1-0.3,2-0.9,2.5
			c-0.6,0.6-1.5,0.9-2.6,0.9c-1.1,0-2-0.3-2.6-0.9c-0.6-0.6-0.9-1.4-0.9-2.6v-5.2c0-0.2,0-0.4-0.1-0.5c0-0.1-0.2-0.2-0.4-0.2h-0.2
			v-0.1h2.6v0.1c-0.1,0-0.3,0-0.4,0c-0.1,0-0.2,0-0.2,0.1c-0.1,0-0.1,0.1-0.1,0.2c0,0.1,0,0.2,0,0.4v5.2c0,0.8,0.2,1.5,0.6,2
			c0.4,0.5,1,0.7,1.9,0.7c0.8,0,1.4-0.2,1.9-0.7c0.4-0.5,0.7-1.1,0.7-1.9v-5v-0.5c0-0.1,0-0.3-0.1-0.3c0-0.1-0.1-0.2-0.2-0.2
			c-0.1,0-0.2-0.1-0.4-0.1v-0.1h2.2v0.1H58.4z"/>
		<path class="st0" d="M68.4,33.3c-0.1,0-0.2,0.1-0.2,0.2c0,0.1-0.1,0.2-0.1,0.3c0,0.1,0,0.3,0,0.5v8.2h-0.7l-5.5-7.9v6.7
			c0,0.2,0,0.3,0,0.4c0,0.1,0,0.2,0.1,0.3c0,0.1,0.1,0.1,0.2,0.2c0.1,0,0.2,0.1,0.4,0.1v0.1h-2.2v-0.1c0.2,0,0.3,0,0.4-0.1
			c0.1,0,0.2-0.1,0.2-0.2c0-0.1,0.1-0.2,0.1-0.3c0-0.1,0-0.3,0-0.5v-7.5c-0.1-0.1-0.1-0.2-0.1-0.3c0-0.1-0.1-0.1-0.1-0.2
			c0,0-0.1-0.1-0.2-0.1c-0.1,0-0.2,0-0.3,0v-0.1h1.8c0.8,1.3,1.7,2.5,2.6,3.7c0.9,1.2,1.7,2.5,2.6,3.7v-6.3c0-0.2,0-0.3,0-0.5
			c0-0.1,0-0.2-0.1-0.3c0-0.1-0.1-0.1-0.2-0.2c-0.1,0-0.3-0.1-0.4-0.1v-0.1h2.2v0.1C68.6,33.2,68.5,33.2,68.4,33.3"/>
		<path class="st0" d="M70.6,42.4v-0.1c0.2,0,0.3,0,0.4,0c0.1,0,0.2,0,0.2-0.1c0.1,0,0.1-0.1,0.1-0.2c0-0.1,0-0.2,0-0.4v-7.7
			c0-0.2,0-0.3,0-0.4c0-0.1-0.1-0.2-0.1-0.2c-0.1,0-0.1-0.1-0.2-0.1c-0.1,0-0.2,0-0.4,0v-0.1h2.7v0.1c-0.2,0-0.3,0-0.4,0
			c-0.1,0-0.2,0-0.2,0.1c-0.1,0-0.1,0.1-0.1,0.2c0,0.1,0,0.2,0,0.4v7.7c0,0.2,0,0.3,0,0.4c0,0.1,0.1,0.2,0.1,0.2
			c0.1,0,0.1,0.1,0.2,0.1c0.1,0,0.2,0,0.4,0v0.1H70.6z"/>
		<path class="st0" d="M83.2,33.4c-0.1,0.1-0.2,0.2-0.2,0.4l-3.4,8.7h-0.6l-3.5-8.7c-0.1-0.2-0.2-0.3-0.3-0.4
			c-0.1-0.1-0.3-0.2-0.4-0.2v-0.1h2.4v0.1c-0.1,0-0.2,0-0.3,0c-0.1,0-0.2,0-0.2,0.1c-0.1,0-0.1,0.1-0.1,0.1c0,0.1,0,0.2,0,0.3
			l2.8,7.1l2.6-6.8c0.1-0.3,0.1-0.4,0.1-0.6c-0.1-0.1-0.2-0.2-0.5-0.2v-0.1h2v0.1C83.5,33.2,83.3,33.3,83.2,33.4"/>
		<path class="st0" d="M90.4,42.4h-6.3v-0.1c0.3,0,0.5,0,0.5-0.1c0.1-0.1,0.1-0.3,0.1-0.6v-7.7c0-0.3,0-0.5-0.1-0.6
			c-0.1-0.1-0.3-0.1-0.5-0.1v-0.1h6.1l0,1.4H90c0-0.3-0.2-0.6-0.3-0.6c-0.2-0.1-0.4-0.1-0.7-0.1h-2.8c-0.2,0-0.2,0-0.3,0
			c0,0,0,0.1,0,0.3v3.1h2.8c0.1,0,0.3,0,0.4,0c0.1,0,0.2,0,0.3-0.1c0.1,0,0.1-0.1,0.2-0.2c0-0.1,0.1-0.2,0.1-0.4h0.2v2.1h-0.2
			c0-0.2,0-0.3-0.1-0.4c0-0.1-0.1-0.2-0.2-0.2c-0.1-0.1-0.2-0.1-0.3-0.1s-0.2,0-0.4,0h-2.8v3.6c0,0.1,0,0.1,0.1,0.2
			c0.1,0,0.1,0.1,0.2,0.1c0.1,0,0.1,0,0.2,0c0.1,0,0.1,0,0.2,0h2.3c0.2,0,0.4,0,0.6,0c0.2,0,0.3-0.1,0.4-0.1
			c0.1-0.1,0.2-0.2,0.3-0.3c0.1-0.1,0.2-0.3,0.3-0.5h0.2L90.4,42.4z"/>
		<path class="st0" d="M97.8,42.4c-0.2-0.5-0.4-0.9-0.7-1.3c-0.2-0.4-0.5-0.8-0.7-1.1c-0.3-0.3-0.5-0.7-0.8-1c-0.3-0.3-0.6-0.6-1-1
			l-1,0v3.5c0,0.2,0,0.3,0,0.4c0,0.1,0,0.2,0.1,0.2c0,0,0.1,0.1,0.2,0.1c0.1,0,0.2,0,0.4,0v0.1h-2.5v-0.1c0.1,0,0.2,0,0.3,0
			c0.1,0,0.2,0,0.2-0.1c0,0,0.1-0.1,0.1-0.2c0-0.1,0-0.2,0-0.4v-7.7c0-0.1,0-0.3,0-0.4c0-0.1,0-0.2-0.1-0.2c0,0-0.1-0.1-0.2-0.1
			c-0.1,0-0.2,0-0.3,0v-0.1h3.3c0.4,0,0.8,0,1.2,0.1c0.4,0.1,0.7,0.2,1,0.4c0.3,0.2,0.5,0.4,0.7,0.8c0.2,0.3,0.3,0.7,0.3,1.2
			c0,0.3-0.1,0.7-0.2,0.9c-0.1,0.3-0.3,0.5-0.5,0.7c-0.2,0.2-0.5,0.3-0.8,0.4c-0.3,0.1-0.6,0.2-0.9,0.2c0.3,0.2,0.5,0.4,0.6,0.6
			c0.2,0.2,0.3,0.3,0.4,0.4c0.1,0.1,0.2,0.3,0.4,0.4c0.1,0.2,0.3,0.3,0.4,0.5c0.2,0.2,0.4,0.5,0.5,0.8c0.2,0.3,0.3,0.6,0.5,0.8
			c0.1,0.3,0.3,0.5,0.4,0.6c0.1,0.2,0.2,0.3,0.3,0.3v0.1H97.8z M93.6,37.4h0.7c0.3,0,0.7,0,1-0.1c0.3-0.1,0.6-0.2,0.9-0.3
			c0.3-0.2,0.5-0.4,0.6-0.6c0.2-0.3,0.2-0.6,0.2-1c0-0.3-0.1-0.6-0.2-0.8c-0.1-0.2-0.3-0.4-0.5-0.5c-0.2-0.1-0.5-0.2-0.7-0.3
			c-0.3,0-0.6-0.1-0.8-0.1h-0.3c-0.1,0-0.2,0-0.3,0c-0.1,0-0.2,0-0.3,0.1c-0.1,0-0.2,0.1-0.2,0.2V37.4z"/>
		<path class="st0" d="M101.2,42.2c0,0-0.1,0.1-0.1,0.2h-0.2l-0.1-2l0,0h0.1c0.2,0.4,0.4,0.7,0.7,0.9c0.3,0.2,0.6,0.4,0.9,0.5
			c0.3,0.1,0.6,0.1,0.9,0.1c0.3,0,0.6-0.1,0.9-0.2c0.3-0.1,0.5-0.3,0.6-0.6c0.2-0.2,0.2-0.5,0.2-0.9c0-0.4-0.1-0.7-0.3-1
			c-0.2-0.3-0.5-0.5-0.8-0.7c-0.3-0.2-0.7-0.4-1.1-0.6c-0.4-0.2-0.7-0.4-1.1-0.7c-0.3-0.2-0.6-0.5-0.8-0.9c-0.2-0.3-0.3-0.7-0.3-1.2
			c0-0.4,0.1-0.7,0.2-1c0.2-0.3,0.4-0.5,0.6-0.7c0.2-0.2,0.5-0.4,0.8-0.5c0.3-0.1,0.6-0.2,1-0.2c0.2,0,0.4,0,0.6,0
			c0.2,0,0.4,0.1,0.6,0.1c0,0,0.1,0,0.2,0c0.1,0,0.2,0,0.3,0.1c0.1,0,0.2,0.1,0.3,0.1c0.1,0,0.1,0,0.1,0c0.2,0,0.2-0.1,0.3-0.3h0.2
			c0,0.3,0.1,0.7,0.1,1c0,0.4,0,0.7,0,1h-0.2c-0.1-0.3-0.3-0.6-0.5-0.9c-0.2-0.2-0.5-0.4-0.8-0.5c-0.3-0.1-0.6-0.2-0.9-0.2
			c-0.3,0-0.6,0.1-0.8,0.2c-0.3,0.1-0.5,0.3-0.6,0.5c-0.2,0.2-0.2,0.5-0.2,0.8c0,0.2,0.1,0.5,0.2,0.7c0.1,0.2,0.3,0.4,0.5,0.5
			c0.2,0.2,0.5,0.4,0.8,0.5c0.3,0.2,0.5,0.3,0.8,0.5l-0.1,0c0.3,0.2,0.6,0.3,0.9,0.5c0.3,0.2,0.5,0.4,0.7,0.6
			c0.2,0.2,0.4,0.5,0.5,0.8c0.1,0.3,0.2,0.6,0.2,1c0,0.4-0.1,0.7-0.3,1.1c-0.2,0.3-0.4,0.6-0.7,0.8c-0.3,0.2-0.6,0.4-0.9,0.5
			c-0.3,0.1-0.7,0.2-1.1,0.2c-0.4,0-0.8,0-1.1-0.1c-0.3-0.1-0.7-0.2-1.1-0.3C101.3,42.1,101.2,42.1,101.2,42.2"/>
		<path class="st0" d="M107.9,42.4v-0.1c0.2,0,0.3,0,0.4,0c0.1,0,0.2,0,0.2-0.1c0.1,0,0.1-0.1,0.1-0.2c0-0.1,0-0.2,0-0.4v-7.7
			c0-0.2,0-0.3,0-0.4c0-0.1-0.1-0.2-0.1-0.2c-0.1,0-0.1-0.1-0.2-0.1c-0.1,0-0.2,0-0.4,0v-0.1h2.7v0.1c-0.2,0-0.3,0-0.4,0
			c-0.1,0-0.2,0-0.2,0.1c-0.1,0-0.1,0.1-0.1,0.2c0,0.1,0,0.2,0,0.4v7.7c0,0.2,0,0.3,0,0.4c0,0.1,0.1,0.2,0.1,0.2
			c0.1,0,0.1,0.1,0.2,0.1c0.1,0,0.2,0,0.4,0v0.1H107.9z"/>
		<path class="st0" d="M112.4,42.2c0.1,0,0.3,0,0.3,0c0.1,0,0.2,0,0.2-0.1c0,0,0.1-0.1,0.1-0.2c0-0.1,0-0.2,0-0.4v-7.7
			c0-0.2,0-0.3,0-0.4c0-0.1-0.1-0.2-0.1-0.2c0,0-0.1-0.1-0.2-0.1c-0.1,0-0.2,0-0.3,0v-0.1h3.2c0.8,0,1.5,0.1,2.1,0.3
			c0.6,0.2,1.2,0.5,1.6,0.9c0.4,0.4,0.8,0.9,1,1.5c0.2,0.6,0.4,1.3,0.4,2.1c0,0.7-0.1,1.3-0.3,1.9c-0.2,0.6-0.6,1.1-1.1,1.5
			c-0.5,0.5-1.1,0.8-1.8,0.9c-0.7,0.2-1.3,0.3-2,0.3h-3.1V42.2z M114.2,41.4c0,0.1,0,0.1,0.1,0.2c0.1,0,0.1,0.1,0.2,0.1
			c0.1,0,0.2,0,0.3,0c0.1,0,0.2,0,0.2,0c0.7,0,1.3-0.1,1.8-0.2c0.5-0.2,1-0.4,1.4-0.7c0.4-0.3,0.7-0.7,0.9-1.2
			c0.2-0.5,0.3-1.1,0.3-1.8c0-0.7-0.1-1.3-0.3-1.8c-0.2-0.5-0.5-0.9-0.9-1.2c-0.4-0.3-0.8-0.6-1.3-0.7c-0.5-0.2-1.1-0.2-1.8-0.2
			c-0.2,0-0.3,0-0.5,0c-0.2,0-0.3,0.1-0.5,0.2V41.4z"/>
		<path class="st0" d="M127.6,42.4v-0.1c0.2,0,0.4,0,0.5-0.1c0.1-0.1,0.1-0.2,0-0.5l-0.9-2.1h-4.1l-0.8,1.9
			c-0.1,0.2-0.1,0.4-0.1,0.5c0,0.1,0.2,0.2,0.5,0.2v0.1h-1.9v-0.1c0.1,0,0.2,0,0.3-0.1c0.1-0.1,0.1-0.1,0.2-0.2
			c0.1-0.1,0.1-0.2,0.2-0.2c0-0.1,0.1-0.2,0.1-0.3l3.5-8.4h0.8l3.7,8.8c0.1,0.2,0.3,0.4,0.6,0.5v0.1H127.6z M125.1,34.4l-1.8,4.5
			h3.6L125.1,34.4z"/>
		<path class="st0" d="M131,42.2c0.1,0,0.3,0,0.3,0c0.1,0,0.2,0,0.2-0.1c0,0,0.1-0.1,0.1-0.2c0-0.1,0-0.2,0-0.4v-7.7
			c0-0.2,0-0.3,0-0.4c0-0.1-0.1-0.2-0.1-0.2c0,0-0.1-0.1-0.2-0.1c-0.1,0-0.2,0-0.3,0v-0.1h3.2c0.8,0,1.5,0.1,2.1,0.3
			c0.6,0.2,1.2,0.5,1.6,0.9c0.4,0.4,0.8,0.9,1,1.5c0.2,0.6,0.4,1.3,0.4,2.1c0,0.7-0.1,1.3-0.3,1.9c-0.2,0.6-0.6,1.1-1.1,1.5
			c-0.5,0.5-1.1,0.8-1.8,0.9c-0.7,0.2-1.3,0.3-2,0.3H131V42.2z M132.9,41.4c0,0.1,0,0.1,0.1,0.2c0.1,0,0.1,0.1,0.2,0.1
			c0.1,0,0.2,0,0.3,0c0.1,0,0.2,0,0.2,0c0.7,0,1.3-0.1,1.8-0.2c0.5-0.2,1-0.4,1.4-0.7c0.4-0.3,0.7-0.7,0.9-1.2
			c0.2-0.5,0.3-1.1,0.3-1.8c0-0.7-0.1-1.3-0.3-1.8c-0.2-0.5-0.5-0.9-0.9-1.2c-0.4-0.3-0.8-0.6-1.3-0.7c-0.5-0.2-1.1-0.2-1.8-0.2
			c-0.2,0-0.3,0-0.5,0c-0.2,0-0.3,0.1-0.5,0.2V41.4z"/>
		<path class="st0" d="M144.7,42.2c0.1,0,0.3,0,0.3,0c0.1,0,0.2,0,0.2-0.1c0,0,0.1-0.1,0.1-0.2c0-0.1,0-0.2,0-0.4v-7.7
			c0-0.2,0-0.3,0-0.4c0-0.1-0.1-0.2-0.1-0.2c0,0-0.1-0.1-0.2-0.1c-0.1,0-0.2,0-0.3,0v-0.1h3.2c0.8,0,1.5,0.1,2.1,0.3
			c0.6,0.2,1.2,0.5,1.6,0.9c0.4,0.4,0.8,0.9,1,1.5c0.2,0.6,0.4,1.3,0.4,2.1c0,0.7-0.1,1.3-0.3,1.9c-0.2,0.6-0.6,1.1-1.1,1.5
			c-0.5,0.5-1.1,0.8-1.8,0.9c-0.7,0.2-1.3,0.3-2,0.3h-3.1V42.2z M146.6,41.4c0,0.1,0,0.1,0.1,0.2c0.1,0,0.1,0.1,0.2,0.1
			c0.1,0,0.2,0,0.3,0c0.1,0,0.2,0,0.2,0c0.7,0,1.3-0.1,1.8-0.2c0.5-0.2,1-0.4,1.4-0.7c0.4-0.3,0.7-0.7,0.9-1.2
			c0.2-0.5,0.3-1.1,0.3-1.8c0-0.7-0.1-1.3-0.3-1.8c-0.2-0.5-0.5-0.9-0.9-1.2c-0.4-0.3-0.8-0.6-1.3-0.7c-0.5-0.2-1.1-0.2-1.8-0.2
			c-0.2,0-0.3,0-0.5,0c-0.2,0-0.3,0.1-0.5,0.2V41.4z"/>
		<path class="st0" d="M160.6,42.4h-6.3v-0.1c0.3,0,0.5,0,0.5-0.1c0.1-0.1,0.1-0.3,0.1-0.6v-7.7c0-0.3,0-0.5-0.1-0.6
			c-0.1-0.1-0.3-0.1-0.5-0.1v-0.1h6.1l0,1.4h-0.2c0-0.3-0.2-0.6-0.3-0.6c-0.2-0.1-0.4-0.1-0.7-0.1h-2.8c-0.2,0-0.2,0-0.3,0
			c0,0,0,0.1,0,0.3v3.1h2.8c0.1,0,0.3,0,0.4,0c0.1,0,0.2,0,0.3-0.1c0.1,0,0.1-0.1,0.2-0.2c0-0.1,0.1-0.2,0.1-0.4h0.2v2.1h-0.2
			c0-0.2,0-0.3-0.1-0.4c0-0.1-0.1-0.2-0.2-0.2c-0.1-0.1-0.2-0.1-0.3-0.1c-0.1,0-0.2,0-0.4,0h-2.8v3.6c0,0.1,0,0.1,0.1,0.2
			c0.1,0,0.1,0.1,0.2,0.1c0.1,0,0.1,0,0.2,0c0.1,0,0.1,0,0.2,0h2.3c0.2,0,0.4,0,0.6,0c0.2,0,0.3-0.1,0.4-0.1
			c0.1-0.1,0.2-0.2,0.3-0.3c0.1-0.1,0.2-0.3,0.3-0.5h0.2L160.6,42.4z"/>
		<path class="st0" d="M172.4,42.3c-0.5,0.2-1.1,0.3-1.7,0.3c-0.7,0-1.4-0.1-2-0.4c-0.6-0.2-1.1-0.6-1.5-1c-0.4-0.4-0.7-0.9-0.9-1.5
			c-0.2-0.6-0.3-1.2-0.3-2c0-0.7,0.1-1.3,0.3-1.9c0.2-0.6,0.5-1.1,0.9-1.5c0.4-0.4,0.9-0.8,1.5-1c0.6-0.2,1.2-0.4,1.9-0.4
			c0.5,0,1,0.1,1.5,0.2c0.1,0,0.1,0,0.2,0.1c0.1,0,0.2,0,0.3,0.1c0.1,0,0.2,0.1,0.3,0.1c0.1,0,0.2,0,0.2,0c0.2,0,0.3-0.1,0.3-0.2
			h0.2v0.5c0,0.2,0,0.4,0,0.6c0,0.2,0,0.4,0,0.6c0,0.2,0,0.3-0.1,0.5c-0.3-0.5-0.7-0.9-1.1-1.2c-0.4-0.3-0.9-0.4-1.5-0.4
			c-0.6,0-1.1,0.1-1.6,0.3c-0.4,0.2-0.8,0.5-1.1,0.9c-0.3,0.4-0.5,0.8-0.6,1.3c-0.1,0.5-0.2,1-0.2,1.6c0,0.6,0.1,1.1,0.2,1.6
			c0.1,0.5,0.4,0.9,0.7,1.3c0.3,0.4,0.7,0.7,1.1,0.9c0.5,0.2,1,0.3,1.6,0.3c0.2,0,0.5,0,0.7,0c0.3,0,0.5,0,0.8-0.1
			c0.3,0,0.5-0.1,0.7-0.2c0.2-0.1,0.4-0.2,0.6-0.4l0.1,0.2C173.4,41.8,172.9,42.1,172.4,42.3"/>
		<path class="st0" d="M180.5,42.4v-0.1c0.1,0,0.3,0,0.4,0c0.1,0,0.2,0,0.2-0.1c0,0,0.1-0.1,0.1-0.2c0-0.1,0-0.2,0-0.4V38h-4.5v3.6
			c0,0.2,0,0.3,0,0.4c0,0.1,0,0.2,0.1,0.2c0,0,0.1,0.1,0.2,0.1c0.1,0,0.2,0,0.4,0v0.1h-2.5v-0.1c0.1,0,0.3,0,0.4,0
			c0.1,0,0.2,0,0.2-0.1c0,0,0.1-0.1,0.1-0.2c0-0.1,0-0.2,0-0.4v-7.7c0-0.2,0-0.3,0-0.4c0-0.1-0.1-0.2-0.1-0.2c0,0-0.1-0.1-0.2-0.1
			c-0.1,0-0.2,0-0.4,0v-0.1h2.5v0.1c-0.1,0-0.3,0-0.4,0c-0.1,0-0.2,0-0.2,0.1c0,0-0.1,0.1-0.1,0.2c0,0.1,0,0.2,0,0.4v3.4h4.5v-3.4
			c0-0.2,0-0.3,0-0.4c0-0.1-0.1-0.2-0.1-0.2c0,0-0.1-0.1-0.2-0.1c-0.1,0-0.2,0-0.4,0v-0.1h2.5v0.1c-0.1,0-0.3,0-0.4,0
			s-0.2,0-0.2,0.1c-0.1,0-0.1,0.1-0.1,0.2c0,0.1,0,0.2,0,0.4v7.7c0,0.2,0,0.3,0,0.4c0,0.1,0,0.2,0.1,0.2c0.1,0,0.1,0.1,0.2,0.1
			c0.1,0,0.2,0,0.4,0v0.1H180.5z"/>
		<path class="st0" d="M184.9,42.4v-0.1c0.2,0,0.3,0,0.4,0c0.1,0,0.2,0,0.2-0.1c0.1,0,0.1-0.1,0.1-0.2c0-0.1,0-0.2,0-0.4v-7.7
			c0-0.2,0-0.3,0-0.4c0-0.1-0.1-0.2-0.1-0.2c-0.1,0-0.1-0.1-0.2-0.1c-0.1,0-0.2,0-0.4,0v-0.1h2.7v0.1c-0.2,0-0.3,0-0.4,0
			c-0.1,0-0.2,0-0.2,0.1c-0.1,0-0.1,0.1-0.1,0.2c0,0.1,0,0.2,0,0.4v7.7c0,0.2,0,0.3,0,0.4c0,0.1,0.1,0.2,0.1,0.2
			c0.1,0,0.1,0.1,0.2,0.1c0.1,0,0.2,0,0.4,0v0.1H184.9z"/>
		<path class="st0" d="M195.6,42.4h-6.2v-0.1c0.1,0,0.3,0,0.4,0c0.1,0,0.2,0,0.2-0.1c0,0,0.1-0.1,0.1-0.2c0-0.1,0-0.2,0-0.4v-7.7
			c0-0.1,0-0.3,0-0.4c0-0.1,0-0.2-0.1-0.2c0,0-0.1-0.1-0.2-0.1c-0.1,0-0.2,0-0.4,0v-0.1h2.5v0.1c-0.1,0-0.3,0-0.4,0
			c-0.1,0-0.2,0-0.2,0.1c-0.1,0-0.1,0.1-0.1,0.2c0,0.1,0,0.2,0,0.4v7.6c0,0.1,0,0.1,0.1,0.2c0.1,0,0.1,0.1,0.2,0.1
			c0.1,0,0.1,0,0.2,0c0.1,0,0.1,0,0.2,0h2c0.2,0,0.5,0,0.7,0c0.2,0,0.4-0.1,0.5-0.1c0.1-0.1,0.3-0.2,0.4-0.3
			c0.1-0.1,0.2-0.3,0.3-0.6l0.2,0L195.6,42.4z"/>
		<path class="st0" d="M203,42.4h-6.3v-0.1c0.3,0,0.5,0,0.5-0.1c0.1-0.1,0.1-0.3,0.1-0.6v-7.7c0-0.3,0-0.5-0.1-0.6
			c-0.1-0.1-0.3-0.1-0.5-0.1v-0.1h6.1l0,1.4h-0.2c0-0.3-0.2-0.6-0.3-0.6c-0.2-0.1-0.4-0.1-0.7-0.1h-2.8c-0.2,0-0.2,0-0.3,0
			c0,0,0,0.1,0,0.3v3.1h2.8c0.1,0,0.3,0,0.4,0c0.1,0,0.2,0,0.3-0.1c0.1,0,0.1-0.1,0.2-0.2c0-0.1,0.1-0.2,0.1-0.4h0.2v2.1h-0.2
			c0-0.2,0-0.3-0.1-0.4c0-0.1-0.1-0.2-0.2-0.2c-0.1-0.1-0.2-0.1-0.3-0.1c-0.1,0-0.2,0-0.4,0h-2.8v3.6c0,0.1,0,0.1,0.1,0.2
			c0.1,0,0.1,0.1,0.2,0.1c0.1,0,0.1,0,0.2,0c0.1,0,0.1,0,0.2,0h2.3c0.2,0,0.4,0,0.6,0c0.2,0,0.3-0.1,0.4-0.1
			c0.1-0.1,0.2-0.2,0.3-0.3c0.1-0.1,0.2-0.3,0.3-0.5h0.2L203,42.4z"/>
		<path class="st0" d="M210.5,67.5V67c0.6,0,1,0,1.4-0.1c0.4,0,0.6-0.1,0.8-0.3c0.2-0.2,0.3-0.4,0.4-0.7c0.1-0.3,0.1-0.8,0.1-1.4
			V44.2c0-0.6,0-1.1-0.1-1.4c-0.1-0.3-0.2-0.6-0.4-0.7c-0.2-0.2-0.5-0.2-0.8-0.3c-0.4,0-0.8-0.1-1.4-0.1v-0.5h9.8v0.5
			c-0.6,0-1,0-1.4,0.1c-0.4,0-0.6,0.1-0.8,0.3c-0.2,0.2-0.3,0.4-0.4,0.7c-0.1,0.3-0.1,0.8-0.1,1.4v20.3c0,0.6,0,1.1,0.1,1.4
			c0.1,0.3,0.2,0.6,0.4,0.7c0.2,0.2,0.5,0.2,0.8,0.3c0.4,0,0.8,0.1,1.4,0.1v0.5H210.5z"/>
		<path class="st0" d="M212.4,38.2c0,0.5,0.4,0.9,0.9,0.9h4.3c0.5,0,0.9-0.4,0.9-0.9v-4.3c0-0.5-0.4-0.9-0.9-0.9h-4.3
			c-0.5,0-0.9,0.4-0.9,0.9V38.2z"/>
		<path class="st0" d="M234.3,64.1c0,0.3,0.1,0.5,0.3,0.7c0.2,0.2,0.4,0.2,0.7,0.3c0.3,0,0.5,0,0.8,0c0.3,0,0.5,0,0.7,0h8.4
			c0.8,0,1.5,0,2.1-0.1c0.6-0.1,1.1-0.3,1.6-0.5c0.5-0.3,0.9-0.6,1.3-1.1c0.4-0.5,0.7-1.1,1.1-1.9h0.8l-1.3,6.1h-23.1V67
			c1,0,1.7-0.1,2-0.4c0.3-0.3,0.4-1,0.4-2.1V36c0-1.1-0.1-1.8-0.4-2.1c-0.3-0.3-0.9-0.4-2-0.4V33h22.6l0.1,5.2h-0.7
			c-0.2-1.3-0.6-2.1-1.2-2.4c-0.6-0.3-1.5-0.4-2.7-0.4h-10.2c-0.6,0-0.9,0.1-1,0.2c-0.1,0.1-0.1,0.5-0.1,1V64.1z"/>
		<path class="st0" d="M237.6,52.4c0,0.5,0.4,0.9,0.9,0.9h4.3c0.5,0,0.9-0.4,0.9-0.9v-4.3c0-0.5-0.4-0.9-0.9-0.9h-4.3
			c-0.5,0-0.9,0.4-0.9,0.9V52.4z"/>
	</g>
</g>
</svg>
