<svg id="Capa_1" data-name="Capa 1" xmlns="http://www.w3.org/2000/svg" xmlns:xlink="http://www.w3.org/1999/xlink" viewBox="0 0 252 70.86"><defs><clipPath id="clip-path" transform="translate(-1.5 -2.07)"><rect x="1.5" y="2.07" width="252" height="70.86" style="fill:none"/></clipPath></defs><title>logotipo-footer</title><g style="clip-path:url(#clip-path)"><path d="M22.16,58.57l.05,4.55a.15.15,0,0,0,.07.12.17.17,0,0,0,.14,0A10.39,10.39,0,0,1,24.57,63a1.77,1.77,0,0,1,1.38.4,6.15,6.15,0,0,0-1.82-.27,6.76,6.76,0,0,0-2.3.41c0-1.36-.08-4.23-.1-5l.43.07m.12,5.55V65L21,64.68a.44.44,0,0,1-.3-.48.4.4,0,0,1,.08-.31.18.18,0,0,1,.13,0Zm-.77-.49-.36-.08.36-.32v.4m-.87,1.2a.64.64,0,0,0,.29.17l8.25,2h0a.13.13,0,0,0,.1,0,0,0,0,0,0,0,0s0,0,.05,0l2.08-2.4.44,0-2.43,2.84-9.22-2.24Zm-.62.63.91.21v1l-.83-.23s-.36-.1-.36-.6.17-.43.28-.43m1.12.27L26.42,67v1.27l-5.28-1.49Zm5.5,1.33,2.72.65v1.38l-2.72-.76Zm3.08,1.78V67.61L32,64.94a1.26,1.26,0,0,0,0,.39.59.59,0,0,0,.17.29ZM31.53,64l-2.12,2.45,0-.62v-.27l2-2.12a1.06,1.06,0,0,0,0,.31.65.65,0,0,0,.13.25m-.31-.89-.41.45V63Zm-2.17,2.47v1.1l-2.15-.52v-1ZM26.59,65v1l-3.2-.78v-.91Zm-3.52-.73v.89l-.46-.11v-.88Zm7.55-.57L29.2,65.24l-7-1.48a6.41,6.41,0,0,1,2-.32,5.52,5.52,0,0,1,1.92.32.17.17,0,0,0,.14,0A3.88,3.88,0,0,1,28,63.45a15.69,15.69,0,0,1,2.63.27h0m-.1-5.88c0,1,0,3.71,0,5,0,.21,0,.39,0,.51a15.79,15.79,0,0,0-2.5-.24,5,5,0,0,0-1.66.23,2.08,2.08,0,0,1,1.54-.46,7.47,7.47,0,0,1,1.93.3.14.14,0,0,0,.14,0A.16.16,0,0,0,30,63C30,62,30,59.36,30,58l.52-.13m-.85,5a7,7,0,0,0-1.81-.26A2.76,2.76,0,0,0,26.3,63l.1-5.6a1.58,1.58,0,0,1,.81-.25,2.35,2.35,0,0,1,.93.24,1.61,1.61,0,0,0,.63.12,2.88,2.88,0,0,0,.9-.17c0,.9,0,4.1,0,5.54M26.14,57A1.23,1.23,0,0,1,25,56.29a1.72,1.72,0,0,0,.42.1.11.11,0,0,0,.08-.19,1.31,1.31,0,0,1-.38-.54,1.72,1.72,0,0,0,.42.1.1.1,0,0,0,.11-.07.1.1,0,0,0,0-.12,1.06,1.06,0,0,1-.26-.39,1.77,1.77,0,0,0,.31.08.12.12,0,0,0,.09,0,1.45,1.45,0,0,0,.35-.87v0h0a1.51,1.51,0,0,0,.36.85.09.09,0,0,0,.09,0,1.86,1.86,0,0,0,.34-.07,1,1,0,0,1-.28.42.11.11,0,0,0,0,.13.12.12,0,0,0,.11.07,2.33,2.33,0,0,0,.42-.11,1.29,1.29,0,0,1-.37.54.1.1,0,0,0,0,.13.11.11,0,0,0,.11.07,2.33,2.33,0,0,0,.42-.11,1.23,1.23,0,0,1-1.11.66m-.55.32a1.19,1.19,0,0,1,.48.09c0,.56-.07,3.35-.12,5.59a2.58,2.58,0,0,0-1.38-.29,9.63,9.63,0,0,0-2,.25L22.47,58l.4,0a3.27,3.27,0,0,0,1.7-.45,2,2,0,0,1,1-.31m-3.44,1-.55-.09a.17.17,0,0,0-.14,0,.18.18,0,0,0-.06.13s.07,2.74.1,4.49l-.93.84h0s0,0,0,0a.72.72,0,0,0-.18.53.81.81,0,0,0,.08.37l-.8.69s0,0,0,0a.79.79,0,0,0-.23.62.87.87,0,0,0,.62.91l9.44,2.65h.09a.16.16,0,0,0,.13-.06l2.89-3.73a.17.17,0,0,0,0-.14.18.18,0,0,0-.1-.11.27.27,0,0,1-.14-.18,2,2,0,0,1,0-.55v-.24s0,0,0,0a.17.17,0,0,0-.15-.18l-.48,0,.16-.19a.14.14,0,0,0,0-.14.16.16,0,0,0-.09-.12.21.21,0,0,1-.11-.14,1.09,1.09,0,0,1,0-.46V63h0a.17.17,0,0,0-.15-.18l-.74-.06c0-1.48,0-4.44,0-5.09a.15.15,0,0,0-.07-.13.14.14,0,0,0-.14,0l-.63.16c0-.35,0-.58,0-.59a.17.17,0,0,0-.07-.13.15.15,0,0,0-.16,0,2.68,2.68,0,0,1-1,.23,1.35,1.35,0,0,1-.5-.09,2.72,2.72,0,0,0-1.06-.27l-.09,0a1.44,1.44,0,0,0,.43-.67.11.11,0,0,0,0-.12.13.13,0,0,0-.12,0,1.38,1.38,0,0,1-.25.11,2.08,2.08,0,0,0,.28-.61.09.09,0,0,0,0-.11.09.09,0,0,0-.12,0,1.77,1.77,0,0,1-.26.11,2.22,2.22,0,0,0,.2-.48.1.1,0,0,0,0-.1.11.11,0,0,0-.11,0,1.69,1.69,0,0,1-.44.13,1.28,1.28,0,0,1-.27-.7c0-.19-.06-.35-.21-.35s-.19.18-.22.38a1.36,1.36,0,0,1-.25.71,1.77,1.77,0,0,1-.42-.16.1.1,0,0,0-.12,0,.1.1,0,0,0,0,.11,2,2,0,0,0,.2.48L25,55.37a.09.09,0,0,0-.12,0,.11.11,0,0,0,0,.11,2,2,0,0,0,.27.61,2,2,0,0,1-.25-.11.11.11,0,0,0-.12,0,.11.11,0,0,0,0,.11,1.41,1.41,0,0,0,.67.84,2.38,2.38,0,0,0-1,.34,3,3,0,0,1-1.53.41,2.64,2.64,0,0,1-.53-.05.14.14,0,0,0-.13,0,.15.15,0,0,0-.06.13ZM6.08,53.78l-.34.27.11.43-.37-.24-.37.24.11-.43-.34-.27.44,0,.16-.41.16.41Zm0,.49,0-.1.82-.67-1.06-.06-.39-1-.39,1L4,53.5l.82.67-.27,1,.9-.57.09.06h0L8,61.81l.16-.05L6.33,56.44l1.81,4.43.15-.07L6.43,56.26l1.94,4,.14-.07-2-4.15,2.13,3.77.14-.08L6.62,55.92l2.31,3.52.14-.08L6.73,55.8l2.52,3.32.13-.1L6.83,55.65,9.6,58.81l.12-.1L7,55.55l3.05,3,.11-.11-3-3,3.37,2.9.11-.12-3.38-2.9L11,58.17l.1-.13L7.33,55.23l4.42,2.82.08-.14Zm8.7,6.32h0a.36.36,0,0,0-.16,0,.24.24,0,0,0-.12,0h0a.4.4,0,0,1-.21,0l-.12,0a.73.73,0,0,0-.2-.1.3.3,0,0,0-.21,0h0c-.11,0-.16.14-.19.22v0s0,.14,0,.2a.41.41,0,0,1-.17.07l-.14,0a1.31,1.31,0,0,1,0-.15.22.22,0,0,0,0-.21v0l0,0h.1a.41.41,0,0,0,.21,0l0,0,.11-.15a.39.39,0,0,0,.13-.26.52.52,0,0,0,0-.19.07.07,0,0,0,0-.05.34.34,0,0,0-.08-.18l0,0-.06-.1a0,0,0,0,1,0,0l.09-.06a3.17,3.17,0,0,1,1.05,1.22M13.66,60a.2.2,0,0,1-.07.12h0s-.08.11-.11.15l0,0h-.19a.1.1,0,0,0-.07,0,.54.54,0,0,0-.11.13.19.19,0,0,0,0,.18.11.11,0,0,1,0,0A.7.7,0,0,0,13,61c0,.07.08.1.32.16h0c.1,0,.4-.08.4-.23s0-.13,0-.21l0-.07h.11l.16.09a.13.13,0,0,0,.1,0l.06,0a.74.74,0,0,0,.31,0,.23.23,0,0,0,.11,0h0a.47.47,0,0,0,0,.17l0,.12-.09.08a1.2,1.2,0,0,0-.3.07h0a1.23,1.23,0,0,0-.29.17s-.21.34-.08.47a.39.39,0,0,0,0,.06.61.61,0,0,0,.11.23.42.42,0,0,1,.06.15.75.75,0,0,0,.13.27.45.45,0,0,1,.12.24.71.71,0,0,0,.08.19.88.88,0,0,1,.06.17.49.49,0,0,1,0,.13,1.22,1.22,0,0,0,0,.22,1.36,1.36,0,0,1,0,.24,3.11,3.11,0,0,1-5.63-1.83,3.16,3.16,0,0,1,.35-1.41,1.45,1.45,0,0,0,.44.14s.08.05.21.31a.36.36,0,0,0,.06.1l.2.15a1.73,1.73,0,0,1,.25.17c0,.09.11.14.18.18l-.1,0-.14.07c-.12.08-.12.28-.09.58a1.36,1.36,0,0,1,0,.18c0,.05,0,.22.49.41.06,0,.11.2.13.27l0,.07a3.66,3.66,0,0,1,0,.37,1.27,1.27,0,0,0,0,.29s0,.14,0,.26a3.34,3.34,0,0,0,.07.58.14.14,0,0,0,.15.1.67.67,0,0,0,.25-.08.07.07,0,0,0,0-.06,6,6,0,0,0,.27-.89c0-.26.06-.28.12-.33l.07-.09a3,3,0,0,1,.36-.36,1,1,0,0,0,.29-.75c0-.23-.37-.38-.64-.45a4.36,4.36,0,0,1-.48-.19A6.36,6.36,0,0,0,10.6,61a1.28,1.28,0,0,1-.37-.56.45.45,0,0,1,.12-.3l.07,0,.09,0a.08.08,0,0,1,.06.05c0,.15,0,.29.12.32h0c.11,0,.26-.14.32-.3a.61.61,0,0,1,.3-.27h0a.24.24,0,0,1,.11.06l.06,0a.3.3,0,0,0,.37-.1.37.37,0,0,0,.09-.3,1,1,0,0,1,0-.25s0-.11,0-.21-.14-.22-.18-.22a.42.42,0,0,0-.15,0l-.1,0h0c-.12,0-.22.11-.33.22a.87.87,0,0,1-.16.14c-.06,0-.1,0-.11-.13s0-.18,0-.28A3.23,3.23,0,0,1,12,58.8l.15,0h0a.06.06,0,0,0,0,0,1.13,1.13,0,0,0,.07.33.48.48,0,0,0,.25.22.22.22,0,0,1,.09.13c0,.12.12.19.28.19h0c.14,0,.16-.19.18-.5a.39.39,0,0,0,0-.09l.06-.13a3.42,3.42,0,0,1,.47.23.22.22,0,0,0-.12.21.37.37,0,0,0,.09.22l0,0s0,.05,0,.06,0,0,0,.06a.66.66,0,0,1,0,.15m-.72-1.1a1.09,1.09,0,0,0-.09.21.31.31,0,0,0,0,.11c0,.07,0,.23,0,.3h0a.39.39,0,0,0-.21-.29c-.08,0-.12-.07-.14-.12a1.25,1.25,0,0,1-.05-.24l0-.08a2.56,2.56,0,0,1,.54.11m-1.81.73a.65.65,0,0,0,.25-.2c0-.05.15-.15.18-.15a.65.65,0,0,0,.21-.05h0c0,.09,0,.14,0,.19a1.53,1.53,0,0,0,0,.29.17.17,0,0,1,0,.13l-.1.06,0,0a.48.48,0,0,0-.25-.11.2.2,0,0,0-.11,0,.73.73,0,0,0-.41.38.44.44,0,0,1-.06.1v0a.33.33,0,0,0-.24-.27h-.06a.42.42,0,0,0-.15,0,.16.16,0,0,0-.13.06.65.65,0,0,0-.19.5,1.39,1.39,0,0,0,.5.72,8,8,0,0,1,.76.58,2.83,2.83,0,0,0,.57.25c.32.09.47.2.48.27a.92.92,0,0,1-.2.55,3,3,0,0,0-.4.4l-.06.07c-.09.09-.12.14-.18.44a5.32,5.32,0,0,1-.24.82l-.06,0c0-.12,0-.34,0-.48a2.07,2.07,0,0,0,0-.28v-.25a1.17,1.17,0,0,0,0-.45.43.43,0,0,1,0,0c0-.13-.09-.35-.27-.41s-.33-.16-.34-.2,0-.12,0-.21a1.66,1.66,0,0,1,0-.38l.12-.06c.14-.07.25-.12.27-.22s-.08-.17-.16-.21l-.08,0c0-.08-.13-.16-.34-.3l-.16-.1a.15.15,0,0,0,0-.06c-.1-.21-.21-.41-.38-.43a.85.85,0,0,1-.35-.11,3.08,3.08,0,0,1,1.37-1.23c0,.08,0,.16,0,.22a.32.32,0,0,0,.38.31m3.64,5.86v3.94h-1v-2.7a.17.17,0,0,0-.16-.17H4.92V65.48Zm-6.86-.33H5.31L6.61,63ZM7.52,64l-.64-1.06a.82.82,0,0,0,.2-.12ZM7.07,62.2a.46.46,0,1,1-.46-.46.46.46,0,0,1,.46.46m-.93.6a.72.72,0,0,0,.21.12L5.7,64Zm8.46,0a.71.71,0,0,0-.17-.35.56.56,0,0,1-.09-.19.94.94,0,0,0-.1-.23.69.69,0,0,1-.07-.15c0-.05,0-.09-.05-.13a.59.59,0,0,1,.07-.2.71.71,0,0,1,.2-.1,1.24,1.24,0,0,1,.25-.07c.11,0,.25-.17.25-.17a.2.2,0,0,0,0-.14,1.24,1.24,0,0,0-.06-.18.37.37,0,0,1,0-.14,3.18,3.18,0,0,1,.25,1.2,3.14,3.14,0,0,1-.38,1.46.28.28,0,0,0,0-.09v-.15a.78.78,0,0,0-.09-.24.55.55,0,0,1-.05-.13M12,58.48a3.43,3.43,0,0,0-1.13,6.67H8.24l-1-2.57a.74.74,0,0,0,.12-.38.79.79,0,0,0-.79-.78.78.78,0,0,0-.78.78.67.67,0,0,0,.11.37L5,65.15H4.76a.17.17,0,0,0-.16.17v1.4a.16.16,0,0,0,.16.16h8.72v2.7a.17.17,0,0,0,.17.16h1.28a.16.16,0,0,0,.16-.16V65.32a.17.17,0,0,0-.16-.17H13.14A3.43,3.43,0,0,0,12,58.48M7.07,37.91H4.33L5.7,34.75ZM5.85,34.28a.16.16,0,0,0-.3,0L3.93,38a.16.16,0,0,0,0,.15.16.16,0,0,0,.13.08H7.32a.16.16,0,0,0,.13-.08.16.16,0,0,0,0-.15Zm7,3.63,1.37-3.16,1.37,3.16Zm-.25.33h3.24a.16.16,0,0,0,.13-.08A.16.16,0,0,0,16,38l-1.62-3.73a.16.16,0,0,0-.15-.1.18.18,0,0,0-.15.1L12.45,38a.16.16,0,0,0,0,.15.16.16,0,0,0,.13.08m3.66-.08a2,2,0,0,1-4.08,0L14.1,33.8a.14.14,0,0,0,0-.15.16.16,0,0,0-.13-.08H6a.16.16,0,0,0-.13.08.14.14,0,0,0,0,.15l1.92,4.36a2,2,0,0,1-4.08,0L5.8,33.29h8.32ZM9.93,35.08l.39,7.65H9.55ZM12,43.45H8v-.4h4Zm-1.56,1.43,0,.84H9.42Zm-1-.55,0-.55h.62Zm.91-.34,0,.48-1,.82,0-.52Zm.88,2.06a1.3,1.3,0,0,1-2.56,0Zm5.32-7.92a.15.15,0,0,0,0-.07l-2.2-5a.15.15,0,0,0-.15-.1H10.15l-.06-1.14a.15.15,0,0,0-.16-.15.16.16,0,0,0-.16.15L9.71,33h-4a.16.16,0,0,0-.15.1l-2.2,5a.15.15,0,0,0,0,.07,2.36,2.36,0,0,0,4.72,0,.15.15,0,0,0,0-.07L6.21,33.9H9.67l-.44,8.83H7.8a.16.16,0,0,0-.16.16v.73a.16.16,0,0,0,.16.16H9.17l-.09,1.94H8.52a.21.21,0,0,0-.12.05.16.16,0,0,0,0,.12,1.62,1.62,0,0,0,3.24,0,.17.17,0,0,0-.17-.17h-.64l-.09-1.94h1.45a.17.17,0,0,0,.17-.16v-.73a.17.17,0,0,0-.17-.16H10.64L10.2,33.9h3.51l-1.84,4.16a.15.15,0,0,0,0,.07,2.36,2.36,0,0,0,4.72,0m2.65,8a.2.2,0,0,0-.2-.21.21.21,0,0,0-.21.21.2.2,0,0,0,.21.2.2.2,0,0,0,.2-.2m-1.71,4.77a.58.58,0,0,0,.58.58.57.57,0,0,0,.57-.58.56.56,0,0,0-.57-.57.57.57,0,0,0-.58.57M24.7,34.65A.32.32,0,0,0,25,35a.32.32,0,0,0,.33-.32.33.33,0,0,0-.33-.33.32.32,0,0,0-.32.33m7.14,13.44L31.63,48l-1.55-2.17V45.7a.65.65,0,0,0-.22-.45l-.06,0-.12-.12,0,0a.41.41,0,0,1-.07-.11s0-.05,0-.07a.7.7,0,0,1,0-.14.49.49,0,0,1,0-.12.92.92,0,0,1,0-.16l2.22,3.41Zm-2.36-2.76.1.1.1.11a.28.28,0,0,1,.07.17A4.74,4.74,0,0,1,29.6,47s0-.08,0-.12a1.34,1.34,0,0,0-.22-.47,1.62,1.62,0,0,0-.19-.18.7.7,0,0,1-.3-.5.57.57,0,0,1,0-.13,1.34,1.34,0,0,0-.45-1.12,1.55,1.55,0,0,0-.59-.29,1.12,1.12,0,0,1-.77-.56c-.26-.44.09-.95.29-1.18l.09.13.1.12,0,0,.13.2a1.31,1.31,0,0,1,.15.26h0a.19.19,0,0,0,0,.19.24.24,0,0,0,.21.09h.1l.09,0h0l.34,0a.83.83,0,0,1,.34.06.54.54,0,0,1,.32.47,1.24,1.24,0,0,1,0,.32h0a1,1,0,0,0,.24,1m-.77-2.19H28.6l-.18,0h-.21l-.27-.37v0l-.26-.35,0-.06-.15-.21h.05l.19,0H28Zm-.33-1.29a.56.56,0,0,0-.22-.08H28l-.29,0-.1,0-.34.05h0a5.69,5.69,0,0,1-1,.12,1.12,1.12,0,0,1-.82-.26c-.53-.56-.09-1.34.15-1.67l.32.47a.31.31,0,0,0,0,.29.51.51,0,0,0,.43.18h.06A3.4,3.4,0,0,0,27,40.9l.16,0h0a2.59,2.59,0,0,1,.58-.08.84.84,0,0,1,.73.31c.1.14.18.38-.12.76m-2.76-2.67h.1l.12,0h.1l.07,0h.08L27,40.57l-.3.06h0l-.28,0-1-1.46.24,0m1.32.42c-.16-.35-.43-.83-.77-.83h0l-.12,0-.12,0-.16,0h-.22l-.18,0H25a1.92,1.92,0,0,1-2.21-1.71,6.1,6.1,0,0,1,0-1.63,3.29,3.29,0,0,1,.07-.36s0-.06,0-.1a2.26,2.26,0,0,1,.1-.31s0,0,0,0,.06-.12.08-.18l.1-.18a.41.41,0,0,0,.05-.09,1.35,1.35,0,0,1,.29-.32l0,0a1.2,1.2,0,0,1,.84-.35,1.15,1.15,0,0,1,1.12.83,2.09,2.09,0,0,1-.28,1.39c-.12,0-.37-.2-.58-.45a.16.16,0,0,0-.19,0,.91.91,0,0,0-.38.46h0A.62.62,0,0,0,24,36s0,0,0,0l0,0h0a2,2,0,0,0-.09.64v0a1.38,1.38,0,0,0,0,.2.22.22,0,0,0,0,.08,1.21,1.21,0,0,0,.05.18l0,.08a2.1,2.1,0,0,0,.13.26h0a1.17,1.17,0,0,0,1.09.47h.43L26,38a1.06,1.06,0,0,1,.9.32,1.12,1.12,0,0,1,0,1.32m-1.79-1.93h-.28l-.1,0-.12,0-.11-.06-.06,0a.53.53,0,0,1-.12-.14,1.54,1.54,0,0,1-.15-.32,1.47,1.47,0,0,1,0-.81Zm-2.28-3.5a.25.25,0,0,1,0,.07l-.11.23,0,.1a3.22,3.22,0,0,0-.12.37.65.65,0,0,0,0,.13s0,.06,0,.09l-1.11-1.54a.15.15,0,0,0-.13-.07h0a1.39,1.39,0,0,1-.39,0,.6.6,0,0,1-.53-.22c-.22-.33.06-.94.62-1.32a1.76,1.76,0,0,1,.93-.32.62.62,0,0,1,.53.22.83.83,0,0,1-.19.93.15.15,0,0,0,0,.19Zm9.31,14.42a.17.17,0,0,0,.07-.17l-.16-.68a.17.17,0,0,0,0-.05l-2.5-3.83a.77.77,0,0,0-.35-.54l-.73-1.12q.68-.71.27-1.29a1.31,1.31,0,0,0-1.37-.4L27.06,40a1.51,1.51,0,0,0,.11-1.92A1.38,1.38,0,0,0,26,37.64h-.49l-1.18-1.8a1.46,1.46,0,0,1,.09-.15,1.26,1.26,0,0,0,.73.45.32.32,0,0,0,.14,0,2.09,2.09,0,0,0,.46-1.75,1.48,1.48,0,0,0-1.44-1.1,1.53,1.53,0,0,0-1.06.44,2.09,2.09,0,0,0-.19.18L22.5,33a1.07,1.07,0,0,0,.14-1.22.91.91,0,0,0-.8-.37,2.06,2.06,0,0,0-1.11.38c-.73.5-1,1.28-.71,1.78a.94.94,0,0,0,.8.36,1.47,1.47,0,0,0,.36,0l1.24,1.72a6.43,6.43,0,0,0,0,1.61,2.24,2.24,0,0,0,2.52,2l.38.52c-.4.49-.89,1.48-.21,2.19a1.38,1.38,0,0,0,1.06.37,5.39,5.39,0,0,0,.9-.1h0a1.3,1.3,0,0,0,.57,2.32,1.36,1.36,0,0,1,.47.22,1,1,0,0,1,.35.9v.13a1,1,0,0,0,.42.72l.16.16a1,1,0,0,1,.15.35c.06.19.12.4.33.43h0a.22.22,0,0,0,.17-.07,2.21,2.21,0,0,0,.27-1.07l1.34,1.86a.08.08,0,0,0,0,0l.57.39.09,0,.09,0M33.83,30V49.48h-11a5,5,0,0,0-2.36-2.91s0,0,0,0a1.17,1.17,0,0,1-.29-.34c-.22-.34-.53-.8-1.13-.7a1.59,1.59,0,0,0-.63.24V30ZM18.22,18.75V16.26l3.4,4.68Zm3.59,2.05-3.4-4.68,2.37.77,0,.05h0ZM21,16.57h0l-.11.09-2.37-.77L24,14.1l-1.85,1.51h0l-.28.23h0Zm2.93-2.69-5.49,1.78,1.47-2h0l1.17.06h0l.36,0h0Zm-4.22-.37-1.46,2V9.74l1,2.54,0,.06ZM18.39,47h0a.93.93,0,0,0,.32.11c.17,0,.63.12.89.2A3.84,3.84,0,0,1,22,50.87a3.73,3.73,0,0,1-.39,1.67l-.95-1.64h0l0,0Zm-.29.14L19.7,50a2.89,2.89,0,0,0-1.6-.48,2.93,2.93,0,0,0-1.61.48Zm-3.48,5.37A3.85,3.85,0,0,1,17.81,47l-2.22,3.84,0,0h0ZM21.3,53a3.86,3.86,0,0,1-6.4,0Zm-.88-1.84.87,1.51H14.9l.88-1.51a2.93,2.93,0,0,0,4.64,0M19.12,50a2.58,2.58,0,0,1,1.11.88,2.61,2.61,0,0,1-1.12.88,1.32,1.32,0,0,0,0-1.76m-2.38.87a1.4,1.4,0,0,0,.34.89A2.67,2.67,0,0,1,16,50.9,2.58,2.58,0,0,1,17.07,50a1.36,1.36,0,0,0-.33.87m1.07-1.06a2.85,2.85,0,0,1,.29,0,2.4,2.4,0,0,1,.28,0A1.1,1.1,0,0,1,18.32,52h0a.76.76,0,0,1-.21,0,.71.71,0,0,1-.21,0h0a1.1,1.1,0,0,1-.06-2.14m.46-3.54a1,1,0,0,0,.15.16.41.41,0,0,0-.24.17.17.17,0,0,0,0,.07H18.1a4.18,4.18,0,1,0,1.85.43v0s0,0,0,0a8.62,8.62,0,0,0-1.14-.28.57.57,0,0,1-.22-.07l.21,0a.16.16,0,0,0,.09-.27l-.34-.35a0,0,0,0,1,0,0s.11-.15.53-.23.56.18.81.56a1.37,1.37,0,0,0,.39.43h0a4.57,4.57,0,1,1-2.14-.54h.17M18,18.75l0,0-1,.65h0l-.06,0-2.28,1.47L18,16.26Zm0-3.23-1.47-2,0,0L18,9.74Zm-.19.15-5.51-1.79,2.49-.15h0l.36,0h0l1.19-.06h0Zm-5.58-1.56,5.49,1.78-2.36.77-.11-.09h0l-.89-.73h0l-.27-.21Zm3.2,2.77,2.38-.77L14.38,20.8ZM17.83,30V46a4.91,4.91,0,0,0-4.44,3.51h-11V30ZM2.37,50H13.26a4.8,4.8,0,0,0-.08.85,4.91,4.91,0,0,0,4.65,4.9V71.35a4.26,4.26,0,0,0-2.14-.51H3.93a1.37,1.37,0,0,1-1.56-1.57Zm16,5.75A4.91,4.91,0,0,0,23,50.87a4.8,4.8,0,0,0-.08-.85h10.9V69.27a1.37,1.37,0,0,1-1.56,1.57H20.51a4.24,4.24,0,0,0-2.14.51Zm0-26.62V19.24l.68.43,2,6.13a.16.16,0,0,0,.08.1h.12l.22-.08a.15.15,0,0,0,.1-.2l-1.78-5.49,2,1.32L25.88,27a.15.15,0,0,0,.13.07.19.19,0,0,0,.1,0l.18-.13a.19.19,0,0,0,.07-.11.24.24,0,0,0,0-.12l-4.12-5.66-.6-2.31,4.71,3.43a.19.19,0,0,0,.1,0h0a.17.17,0,0,0,.1-.06l.14-.19a.17.17,0,0,0,0-.23L21.38,17.9l-.19-.75L31,20.32H31a.1.1,0,0,0,.07,0,.14.14,0,0,0,.08-.09l.07-.22a.16.16,0,0,0-.1-.2L21.4,16.64l.62-.51h6.45a.16.16,0,0,0,.16-.16v-.23a.18.18,0,0,0-.05-.12.15.15,0,0,0-.11,0H22.7L24.58,14l6.56-2.13a.17.17,0,0,0,.1-.21l-.07-.21a.14.14,0,0,0-.08-.1.17.17,0,0,0-.12,0l-6.74,2.19-2.34-.13L26.65,10a.17.17,0,0,0,0-.23l-.14-.18a.18.18,0,0,0-.1-.07.28.28,0,0,0-.13,0L21,13.39l-.76-.05L26.33,5a.27.27,0,0,0,0-.12.16.16,0,0,0-.07-.11l-.18-.13a.16.16,0,0,0-.23,0L19.83,13l-.28-.72,2-6.19a.19.19,0,0,0,0-.13.16.16,0,0,0-.1-.08l-.22-.07a.16.16,0,0,0-.2.1l-1.81,5.56-.86-2.22v-7a.16.16,0,0,0-.16-.16H18a.16.16,0,0,0-.16.16v7L17,11.46,15.16,5.9a.2.2,0,0,0-.09-.09.16.16,0,0,0-.12,0l-.22.07a.17.17,0,0,0-.1.21l2,6.19-.28.72-6-8.32a.16.16,0,0,0-.23,0l-.19.13a.2.2,0,0,0-.06.11.14.14,0,0,0,0,.12l6.06,8.34-.76.05L9.87,9.53a.24.24,0,0,0-.12,0,.26.26,0,0,0-.11.07l-.13.18a.16.16,0,0,0,0,.23l4.75,3.46L12,13.57,5.23,11.38a.17.17,0,0,0-.12,0,.14.14,0,0,0-.08.1L5,11.7a.16.16,0,0,0,.1.21L11.62,14l1.88,1.54H7.73a.17.17,0,0,0-.17.16V16a.17.17,0,0,0,.17.16h6.44l.62.51L5.06,19.8A.15.15,0,0,0,5,20l.07.22a.14.14,0,0,0,.08.09.08.08,0,0,0,.07,0h.05L15,17.15l-.2.75L9.55,21.72a.16.16,0,0,0,0,.23l.13.19a.24.24,0,0,0,.11.06h0a.16.16,0,0,0,.09,0l4.72-3.43L14,21.05,9.87,26.71a.13.13,0,0,0,0,.12.19.19,0,0,0,.07.11l.18.13a.16.16,0,0,0,.09,0,.17.17,0,0,0,.14-.07l4-5.57,2.05-1.31-1.78,5.48a.16.16,0,0,0,0,.12.14.14,0,0,0,.09.08l.22.08H15a.17.17,0,0,0,.16-.11l2-6.13.67-.43v9.91H1.5V69.27A2.21,2.21,0,0,0,3.93,71.7H15.69c.51,0,2,.15,2,.8v.43h.87V72.5c0-.65,1.47-.8,2-.8H32.27a2.21,2.21,0,0,0,2.43-2.43V29.15Z" transform="translate(-1.5 -2.07)" style="fill:#1a171b"/></g><rect x="39.83" y="27.05" width="1.39" height="42.58" style="fill:#1a171b"/><g style="clip-path:url(#clip-path)"><path d="M203.91,61a.34.34,0,0,0-.17.14.85.85,0,0,0-.05.24v6.59h-.54l-4.18-6v5.42a.57.57,0,0,0,.06.24.27.27,0,0,0,.16.13.89.89,0,0,0,.32,0v.11h-1.68v-.11a.92.92,0,0,0,.33,0,.29.29,0,0,0,.17-.13.39.39,0,0,0,.06-.23v-6l-.1-.22a.85.85,0,0,0-.09-.14.31.31,0,0,0-.13-.06h-.24v-.11h1.38q1,1.45,1.95,2.85t2,2.85V61.33a.61.61,0,0,0-.06-.24.27.27,0,0,0-.16-.13,1.05,1.05,0,0,0-.34,0v-.11h1.69v.11a.92.92,0,0,0-.33,0m-8.75,2.28a3.22,3.22,0,0,0-.41-1,2.28,2.28,0,0,0-.73-.75,1.92,1.92,0,0,0-1.1-.29,1.94,1.94,0,0,0-1.1.29,2.28,2.28,0,0,0-.73.75,3.26,3.26,0,0,0-.41,1,5.29,5.29,0,0,0,0,2.24,3.22,3.22,0,0,0,.41,1,2.45,2.45,0,0,0,.73.74,2,2,0,0,0,1.1.28,2.06,2.06,0,0,0,1.11-.28,2.38,2.38,0,0,0,.73-.75,3.26,3.26,0,0,0,.41-1,5.4,5.4,0,0,0,.12-1.12,4.8,4.8,0,0,0-.13-1.11m.85,2.52a3.41,3.41,0,0,1-.64,1.17,3,3,0,0,1-1,.79,3.69,3.69,0,0,1-2.82,0,2.93,2.93,0,0,1-1-.79,3.36,3.36,0,0,1-.64-1.16,4.74,4.74,0,0,1-.21-1.42,4.23,4.23,0,0,1,.28-1.62,3.47,3.47,0,0,1,.75-1.15,3.21,3.21,0,0,1,1.06-.7,3.4,3.4,0,0,1,1.21-.22,3.23,3.23,0,0,1,1.22.24,3.15,3.15,0,0,1,1.06.68,3.42,3.42,0,0,1,.75,1.16,4.21,4.21,0,0,1,.28,1.61,4.34,4.34,0,0,1-.22,1.41m-3.8-5.42a2.9,2.9,0,0,0,.34-.36c.1-.14.21-.27.31-.4l.3-.39a2.32,2.32,0,0,1,.35-.35.59.59,0,0,1,.23-.13.71.71,0,0,1,.25,0,.48.48,0,0,1,.19.09.2.2,0,0,1,.08.17.14.14,0,0,1,0,.11.32.32,0,0,1-.09.08,6.29,6.29,0,0,0-.75.59c-.23.21-.47.41-.72.61ZM186,67.88v-.11h.29a.29.29,0,0,0,.17-.05.35.35,0,0,0,.09-.16,2,2,0,0,0,0-.29V61.43a1.85,1.85,0,0,0,0-.29.31.31,0,0,0-.09-.16.29.29,0,0,0-.17,0H186v-.11h2v.11h-.29a.29.29,0,0,0-.17,0,.31.31,0,0,0-.09.16,1.85,1.85,0,0,0,0,.29v5.83a2,2,0,0,0,0,.29.35.35,0,0,0,.09.16.29.29,0,0,0,.17.05H188v.11Zm-2.61-.07a4.34,4.34,0,0,1-2.75-.07,3.3,3.3,0,0,1-1.11-.75,3.12,3.12,0,0,1-.7-1.15,4.44,4.44,0,0,1-.24-1.49,4.34,4.34,0,0,1,.25-1.46,3.7,3.7,0,0,1,.72-1.17,3.35,3.35,0,0,1,1.11-.77,3.8,3.8,0,0,1,1.46-.27,5.24,5.24,0,0,1,1.11.12l.16.05.2.06.2.05.16,0a.24.24,0,0,0,.25-.19h.11v.82c0,.14,0,.28,0,.42a1.91,1.91,0,0,1-.06.37,2.78,2.78,0,0,0-.82-.9,1.94,1.94,0,0,0-1.16-.31,2.74,2.74,0,0,0-1.22.25,2.36,2.36,0,0,0-.84.69,3.11,3.11,0,0,0-.49,1,4.78,4.78,0,0,0-.16,1.21,4.4,4.4,0,0,0,.17,1.23,2.78,2.78,0,0,0,.51,1,2.46,2.46,0,0,0,.85.67,2.9,2.9,0,0,0,1.23.24h.54a3.68,3.68,0,0,0,.58-.06,3.41,3.41,0,0,0,.55-.14,1.72,1.72,0,0,0,.47-.28l0,.18a3,3,0,0,1-1.1.64m-9.28-6-1.37,3.41h2.75Zm1.85,6v-.11a.69.69,0,0,0,.36-.08c.07-.06.07-.18,0-.35l-.65-1.59h-3.14l-.59,1.46a.7.7,0,0,0-.07.42c0,.1.16.14.39.14v.11h-1.47v-.11a.38.38,0,0,0,.22-.07.75.75,0,0,0,.16-.15.78.78,0,0,0,.11-.18l.09-.21L174,60.74h.57l2.78,6.69a.56.56,0,0,0,.45.34v.11Zm-7.24-.07a4.31,4.31,0,0,1-2.74-.07,3.15,3.15,0,0,1-1.81-1.9,4.44,4.44,0,0,1-.24-1.49,4.11,4.11,0,0,1,.25-1.46,3.5,3.5,0,0,1,.71-1.17A3.29,3.29,0,0,1,166,61a3.75,3.75,0,0,1,1.45-.27,5.24,5.24,0,0,1,1.11.12l.16.05.21.06.2.05.15,0a.23.23,0,0,0,.25-.19h.12v.39c0,.14,0,.28,0,.43s0,.28,0,.42a1.91,1.91,0,0,1-.06.37,2.76,2.76,0,0,0-.81-.9,2,2,0,0,0-1.17-.31,2.67,2.67,0,0,0-1.21.25,2.36,2.36,0,0,0-.84.69,2.92,2.92,0,0,0-.49,1,4.73,4.73,0,0,0,0,2.44,3,3,0,0,0,.51,1,2.5,2.5,0,0,0,.86.67,2.85,2.85,0,0,0,1.22.24h.55a3.68,3.68,0,0,0,.57-.06,3,3,0,0,0,.55-.14,1.58,1.58,0,0,0,.47-.28l0,.18a3,3,0,0,1-1.1.64m-6.58-6.89a.36.36,0,0,0-.24.08.57.57,0,0,0-.11.22,1.12,1.12,0,0,0,0,.27V65.4a2.59,2.59,0,0,1-.7,1.94,2.71,2.71,0,0,1-1.95.66,2.63,2.63,0,0,1-1.95-.68,2.58,2.58,0,0,1-.69-1.94V61.43a.94.94,0,0,0,0-.37c0-.1-.14-.14-.32-.14h-.16v-.11h1.94v.11h-.26a.21.21,0,0,0-.16.06.3.3,0,0,0-.08.16,1.91,1.91,0,0,0,0,.28v4a2.41,2.41,0,0,0,.44,1.52,1.73,1.73,0,0,0,1.45.56,1.87,1.87,0,0,0,1.42-.52,2,2,0,0,0,.51-1.43V61.4a.48.48,0,0,0,0-.26.33.33,0,0,0-.16-.17.91.91,0,0,0-.33,0v-.11h1.66v.11Zm-12.78,6.21a.15.15,0,0,0,.07.14.49.49,0,0,0,.18.08l.2,0h.16a5.46,5.46,0,0,0,1.39-.17,2.74,2.74,0,0,0,1.06-.55,2.3,2.3,0,0,0,.68-1,3.6,3.6,0,0,0,.24-1.39,3.42,3.42,0,0,0-.23-1.34,2.48,2.48,0,0,0-.65-1,2.8,2.8,0,0,0-1-.56,4.67,4.67,0,0,0-1.34-.18,2.56,2.56,0,0,0-.39,0,.75.75,0,0,0-.35.16Zm-1.4.64h.26a.18.18,0,0,0,.15-.06.3.3,0,0,0,.08-.16,1.91,1.91,0,0,0,0-.28V61.43a1.91,1.91,0,0,0,0-.28.3.3,0,0,0-.08-.16.18.18,0,0,0-.15-.06h-.26v-.11h2.42a5.25,5.25,0,0,1,1.58.22,3.29,3.29,0,0,1,1.23.65,3,3,0,0,1,.79,1.1,4.05,4.05,0,0,1,.28,1.58,4.21,4.21,0,0,1-.24,1.43,2.84,2.84,0,0,1-.83,1.17,3.38,3.38,0,0,1-1.36.72,6.08,6.08,0,0,1-1.54.2h-2.33Zm-1.81.11h-4.76v-.11a.7.7,0,0,0,.41-.08.78.78,0,0,0,.08-.43V61.43a.75.75,0,0,0-.08-.43.7.7,0,0,0-.41-.08v-.11H146v1.08h-.15c0-.27-.12-.43-.24-.49a1.39,1.39,0,0,0-.56-.09H143c-.12,0-.19,0-.2,0a.38.38,0,0,0,0,.2v2.39h2.41a.52.52,0,0,0,.2-.07.28.28,0,0,0,.12-.16,1.26,1.26,0,0,0,.07-.28h.13V65h-.13a1.11,1.11,0,0,0-.07-.29.3.3,0,0,0-.12-.17.36.36,0,0,0-.19-.07l-.3,0h-2.12v2.73a.17.17,0,0,0,.06.14.26.26,0,0,0,.13.06,1,1,0,0,0,.17,0H145a2.85,2.85,0,0,0,.44,0,.81.81,0,0,0,.32-.11A.93.93,0,0,0,146,67a2.13,2.13,0,0,0,.22-.38h.16ZM134.68,61a.32.32,0,0,0-.16.14.6.6,0,0,0-.05.24c0,.1,0,.22,0,.35v6.24h-.53l-4.19-6V67c0,.13,0,.25,0,.34a.57.57,0,0,0,.05.24.3.3,0,0,0,.16.13,1,1,0,0,0,.33,0v.11h-1.68v-.11a1,1,0,0,0,.33,0,.33.33,0,0,0,.17-.13.64.64,0,0,0,.06-.23v-6c0-.09-.08-.16-.1-.22A.5.5,0,0,0,129,61a.26.26,0,0,0-.13-.06h-.23v-.11H130c.65,1,1.3,1.92,2,2.85s1.31,1.88,1.95,2.85V61.69c0-.14,0-.26,0-.36a.6.6,0,0,0,0-.24.29.29,0,0,0-.17-.13,1,1,0,0,0-.34,0v-.11H135v.11a1,1,0,0,0-.34,0m-7.83,6.92h-4.76v-.11a.67.67,0,0,0,.41-.08.7.7,0,0,0,.08-.43V61.43c0-.23,0-.37-.08-.43a.67.67,0,0,0-.41-.08v-.11h4.66v1.08h-.15c0-.27-.11-.43-.24-.49a1.39,1.39,0,0,0-.56-.09H123.7c-.12,0-.18,0-.2,0a.38.38,0,0,0,0,.2v2.39h2.41a.58.58,0,0,0,.21-.07.4.4,0,0,0,.12-.16,1.33,1.33,0,0,0,.06-.28h.13V65h-.13a1.19,1.19,0,0,0-.06-.29.34.34,0,0,0-.32-.24l-.3,0h-2.12v2.73a.17.17,0,0,0,.06.14.31.31,0,0,0,.13.06,1,1,0,0,0,.17,0h1.88a2.72,2.72,0,0,0,.43,0,.92.92,0,0,0,.33-.11,1.05,1.05,0,0,0,.26-.22,2.13,2.13,0,0,0,.22-.38h.16Zm-15.28-.14a.17.17,0,0,0,0,.13h-.12l-.06-1.53,0,0h.1a1.82,1.82,0,0,0,.5.72,2.13,2.13,0,0,0,.68.39,1.75,1.75,0,0,0,.72.1,1.61,1.61,0,0,0,.66-.17,1.27,1.27,0,0,0,.48-.44,1.28,1.28,0,0,0-.06-1.4,3,3,0,0,0-.61-.55c-.25-.16-.51-.32-.8-.47a5.72,5.72,0,0,1-.8-.5,2.51,2.51,0,0,1-.61-.65,1.64,1.64,0,0,1-.25-.92,1.49,1.49,0,0,1,.18-.73,1.67,1.67,0,0,1,.45-.54,1.9,1.9,0,0,1,.64-.35,2.34,2.34,0,0,1,.74-.12,3.11,3.11,0,0,1,.43,0l.42.1.12,0,.2.06.21.05.1,0a.21.21,0,0,0,.2-.2h.11c0,.26.06.52.08.79a5.41,5.41,0,0,1,0,.8h-.12a1.56,1.56,0,0,0-.4-.66,2.24,2.24,0,0,0-.6-.4,1.8,1.8,0,0,0-.69-.13,1.61,1.61,0,0,0-.63.12,1.17,1.17,0,0,0-.47.38,1,1,0,0,0-.18.61.84.84,0,0,0,.15.5,2.19,2.19,0,0,0,.36.39,5.89,5.89,0,0,0,.57.41l.62.35-.07,0a7.16,7.16,0,0,1,.66.39,3.24,3.24,0,0,1,.57.47,2,2,0,0,1,.39.59,1.79,1.79,0,0,1,.15.75,1.61,1.61,0,0,1-.2.8,1.82,1.82,0,0,1-.51.59,2.58,2.58,0,0,1-.72.37,2.72,2.72,0,0,1-.8.12,3.33,3.33,0,0,1-.84-.1l-.81-.22a.31.31,0,0,0-.13.06m-3.13-4.5a3.49,3.49,0,0,0-.42-1,2.18,2.18,0,0,0-.73-.75,1.91,1.91,0,0,0-1.09-.29,2,2,0,0,0-1.11.29,2.28,2.28,0,0,0-.73.75,3.52,3.52,0,0,0-.41,1,5.29,5.29,0,0,0,0,2.24,3.47,3.47,0,0,0,.41,1,2.45,2.45,0,0,0,.73.74,2.32,2.32,0,0,0,2.21,0,2.27,2.27,0,0,0,.73-.75,3.26,3.26,0,0,0,.41-1,4.85,4.85,0,0,0,0-2.23m.85,2.52a3.43,3.43,0,0,1-.65,1.17,3,3,0,0,1-1,.79,3.72,3.72,0,0,1-2.83,0,3,3,0,0,1-1-.79,3.53,3.53,0,0,1-.64-1.16,4.74,4.74,0,0,1-.21-1.42,4.23,4.23,0,0,1,.28-1.62,3.47,3.47,0,0,1,.75-1.15,3.15,3.15,0,0,1,1.07-.7,3.36,3.36,0,0,1,1.21-.22,3.22,3.22,0,0,1,1.21.24,3.12,3.12,0,0,1,1.81,1.84,4.21,4.21,0,0,1,.29,1.61,4.63,4.63,0,0,1-.22,1.41M95.9,67.13a.15.15,0,0,0,.07.14.49.49,0,0,0,.18.08.69.69,0,0,0,.2,0h.16a5.46,5.46,0,0,0,1.39-.17A2.74,2.74,0,0,0,99,66.67a2.3,2.3,0,0,0,.68-1,3.6,3.6,0,0,0,.24-1.39A3.42,3.42,0,0,0,99.65,63,2.48,2.48,0,0,0,99,62a2.8,2.8,0,0,0-1-.56,4.67,4.67,0,0,0-1.34-.18l-.39,0a.75.75,0,0,0-.35.16Zm-1.4.64h.26a.18.18,0,0,0,.15-.06.3.3,0,0,0,.08-.16,1.91,1.91,0,0,0,0-.28V61.43a1.91,1.91,0,0,0,0-.28.3.3,0,0,0-.08-.16.18.18,0,0,0-.15-.06H94.5v-.11h2.42A5.25,5.25,0,0,1,98.5,61a3.37,3.37,0,0,1,1.23.65,3,3,0,0,1,.79,1.1,4.05,4.05,0,0,1,.28,1.58,4.21,4.21,0,0,1-.24,1.43A2.84,2.84,0,0,1,99.73,67a3.38,3.38,0,0,1-1.36.72,6.08,6.08,0,0,1-1.54.2H94.5Zm-5.21-5.94-1.38,3.41h2.76Zm1.85,6v-.11a.65.65,0,0,0,.35-.08c.08-.06.08-.18,0-.35l-.65-1.59H87.7l-.58,1.46a.63.63,0,0,0-.07.42c0,.1.16.14.38.14v.11H86v-.11a.38.38,0,0,0,.21-.07.75.75,0,0,0,.16-.15.78.78,0,0,0,.11-.18,1,1,0,0,0,.09-.21l2.68-6.42h.57l2.78,6.69a.53.53,0,0,0,.44.34v.11Zm-6.9,0H78.89v-.37l4.26-6.2h-3a1,1,0,0,0-.64.16.87.87,0,0,0-.28.6h-.15l.11-1.26h5v.38L80,67.38h3.33a.83.83,0,0,0,.61-.2,1.14,1.14,0,0,0,.31-.58h.12ZM76.82,61a.3.3,0,0,0-.17.14.6.6,0,0,0-.05.24v6.59h-.54l-4.18-6v5.42a.57.57,0,0,0,.06.24.27.27,0,0,0,.16.13.89.89,0,0,0,.32,0v.11H70.74v-.11a.92.92,0,0,0,.33,0,.29.29,0,0,0,.17-.13.39.39,0,0,0,.06-.23v-6l-.1-.22a.85.85,0,0,0-.09-.14.31.31,0,0,0-.13-.06h-.24v-.11h1.38q1,1.45,1.95,2.85t2,2.85V61.33a.61.61,0,0,0-.06-.24A.27.27,0,0,0,75.8,61a1.05,1.05,0,0,0-.34,0v-.11h1.69v.11a.92.92,0,0,0-.33,0m-11.26.87-1.37,3.41h2.75Zm1.85,6v-.11a.69.69,0,0,0,.36-.08c.07-.06.07-.18,0-.35l-.65-1.59H64l-.59,1.46a.7.7,0,0,0-.07.42c0,.1.16.14.39.14v.11H62.24v-.11a.38.38,0,0,0,.22-.07.54.54,0,0,0,.15-.15.57.57,0,0,0,.12-.18l.09-.21,2.67-6.42h.57l2.78,6.69a.56.56,0,0,0,.45.34v.11ZM62.33,61a1.69,1.69,0,0,0-.17.3L59.6,68h-.42l-2.7-6.59a.87.87,0,0,0-.2-.31.46.46,0,0,0-.34-.13v-.11h1.85v.11h-.2a.38.38,0,0,0-.16,0,.18.18,0,0,0-.08.11.41.41,0,0,0,0,.2l2.13,5.37,2-5.14a.53.53,0,0,0,.05-.43q-.06-.14-.39-.15v-.11h1.5v.11a.39.39,0,0,0-.31.12m-9.78.79-1.38,3.41h2.75Zm1.84,6v-.11a.69.69,0,0,0,.36-.08c.08-.06.08-.18,0-.35l-.65-1.59H51l-.58,1.46a.63.63,0,0,0-.07.42c0,.1.16.14.38.14v.11H49.23v-.11a.38.38,0,0,0,.21-.07.75.75,0,0,0,.16-.15.78.78,0,0,0,.11-.18l.09-.21,2.67-6.42h.58l2.77,6.69a.56.56,0,0,0,.45.34v.11Z" transform="translate(-1.5 -2.07)" style="fill:#1a171b"/><path d="M200.22,55a.15.15,0,0,0-.05.13H200l0-1.53,0,0h.09a2,2,0,0,0,.51.72,1.9,1.9,0,0,0,.68.4,1.93,1.93,0,0,0,.72.1,1.74,1.74,0,0,0,.66-.18,1.38,1.38,0,0,0,.49-.44,1.15,1.15,0,0,0,.18-.65,1.11,1.11,0,0,0-.25-.75,2.49,2.49,0,0,0-.61-.55,6.74,6.74,0,0,0-.8-.47,5,5,0,0,1-.8-.51,2.35,2.35,0,0,1-.61-.65,1.56,1.56,0,0,1-.25-.92,1.54,1.54,0,0,1,.17-.73,1.88,1.88,0,0,1,.46-.55,2.09,2.09,0,0,1,.64-.35,2.34,2.34,0,0,1,.74-.12,3,3,0,0,1,.43,0l.43.1.11,0,.21.06.2.06.11,0a.21.21,0,0,0,.2-.2h.11c0,.26.06.53.08.8a7.06,7.06,0,0,1,0,.79h-.12a1.72,1.72,0,0,0-.41-.66,1.94,1.94,0,0,0-.6-.39,1.81,1.81,0,0,0-.69-.14,1.45,1.45,0,0,0-.63.13A1.14,1.14,0,0,0,201,49a1.05,1.05,0,0,0-.18.62.84.84,0,0,0,.15.5,2.19,2.19,0,0,0,.36.39,5.89,5.89,0,0,0,.57.41l.62.36-.07,0a7.16,7.16,0,0,1,.66.39,3,3,0,0,1,.57.47,1.93,1.93,0,0,1,.4.59,1.84,1.84,0,0,1,.15.76,1.61,1.61,0,0,1-.2.8,1.77,1.77,0,0,1-.52.6,2.27,2.27,0,0,1-.71.36,2.54,2.54,0,0,1-.81.13,3.34,3.34,0,0,1-.84-.11l-.82-.22a.27.27,0,0,0-.12.06M196,50.51a3.38,3.38,0,0,0-.42-1,2.41,2.41,0,0,0-.73-.76,2.25,2.25,0,0,0-2.21,0,2.31,2.31,0,0,0-.73.76,3.17,3.17,0,0,0-.41,1,4.82,4.82,0,0,0-.13,1.12,4.9,4.9,0,0,0,.13,1.13,3.22,3.22,0,0,0,.41,1,2.24,2.24,0,0,0,.73.74,2.25,2.25,0,0,0,2.21,0,2.21,2.21,0,0,0,.74-.75,3.22,3.22,0,0,0,.41-1,5.35,5.35,0,0,0,.13-1.12,5.41,5.41,0,0,0-.13-1.11m.85,2.53a3.34,3.34,0,0,1-.65,1.17,3,3,0,0,1-1,.79,3.32,3.32,0,0,1-1.41.29,3.41,3.41,0,0,1-1.43-.29,3,3,0,0,1-1-.79,3.53,3.53,0,0,1-.64-1.16,4.76,4.76,0,0,1-.21-1.43,4.23,4.23,0,0,1,.28-1.62,3.39,3.39,0,0,1,.76-1.16,3,3,0,0,1,1.06-.69,3.26,3.26,0,0,1,1.22-.23,3.39,3.39,0,0,1,1.21.24,3,3,0,0,1,1.07.69,3.3,3.3,0,0,1,.76,1.16,4.41,4.41,0,0,1,.28,1.61,4.36,4.36,0,0,1-.22,1.42m-11.14,2.12v-.1H186a.38.38,0,0,0,.17-.06.22.22,0,0,0,.08-.15,1.24,1.24,0,0,0,0-.3V48.69a1.19,1.19,0,0,0,0-.29.22.22,0,0,0-.08-.15.29.29,0,0,0-.17-.06h-.29v-.11h2v.11h-.29a.29.29,0,0,0-.17.06.27.27,0,0,0-.09.15,2.07,2.07,0,0,0,0,.29v5.85a2.11,2.11,0,0,0,0,.3.27.27,0,0,0,.09.15.38.38,0,0,0,.17.06h.29v.1Zm-7.66-.75a.19.19,0,0,0,.08.15.44.44,0,0,0,.17.07l.21,0h.16a5.46,5.46,0,0,0,1.39-.17,2.79,2.79,0,0,0,1.07-.55,2.39,2.39,0,0,0,.68-1,3.66,3.66,0,0,0,.24-1.4,3.45,3.45,0,0,0-.23-1.34,2.48,2.48,0,0,0-.65-.95,2.7,2.7,0,0,0-1-.56,4.67,4.67,0,0,0-1.34-.18,2.56,2.56,0,0,0-.39,0,.82.82,0,0,0-.36.15Zm-1.4.65h.26a.24.24,0,0,0,.23-.22,1.19,1.19,0,0,0,0-.29V48.69a1.1,1.1,0,0,0,0-.28.22.22,0,0,0-.23-.22h-.26v-.11h2.43a5.66,5.66,0,0,1,1.59.22,3.45,3.45,0,0,1,1.23.65,3.08,3.08,0,0,1,.79,1.11,4.05,4.05,0,0,1,.28,1.58,4.17,4.17,0,0,1-.24,1.43,2.81,2.81,0,0,1-.83,1.18,3.38,3.38,0,0,1-1.36.72,5.76,5.76,0,0,1-1.54.2h-2.35Zm-3.32-6.88a.32.32,0,0,0-.24.09.43.43,0,0,0-.11.21.84.84,0,0,0,0,.27v3.93a2.58,2.58,0,0,1-.69,1.94,2.75,2.75,0,0,1-2,.67,2.67,2.67,0,0,1-1.95-.68,2.64,2.64,0,0,1-.7-2v-4a1,1,0,0,0,0-.37c0-.09-.14-.14-.32-.14h-.16v-.11h2v.11h-.27a.38.38,0,0,0-.16.06.34.34,0,0,0-.07.16,1.1,1.1,0,0,0,0,.28v4A2.35,2.35,0,0,0,169,54.2a1.73,1.73,0,0,0,1.45.56,1.9,1.9,0,0,0,1.43-.52,2,2,0,0,0,.51-1.43V48.66a.67.67,0,0,0-.05-.26.31.31,0,0,0-.16-.16.77.77,0,0,0-.34-.06v-.11h1.67v.11Zm-9.19,1.15a1,1,0,0,0-.27-.57.94.94,0,0,0-.6-.15h-1.36v5.93a1.11,1.11,0,0,0,0,.29A.22.22,0,0,0,162,55a.29.29,0,0,0,.17.07h.29v.1h-2v-.1h.28a.29.29,0,0,0,.17-.07.27.27,0,0,0,.09-.15,1,1,0,0,0,0-.29V48.61h-1.39a1,1,0,0,0-.6.15,1,1,0,0,0-.27.57h-.1l0-1.26h5.51l0,1.26Zm-12,5.69a.16.16,0,0,0-.06.13h-.12l-.05-1.53,0,0H152a2,2,0,0,0,1.18,1.12,2,2,0,0,0,.73.1,1.79,1.79,0,0,0,.66-.18,1.27,1.27,0,0,0,.48-.44,1.23,1.23,0,0,0-.06-1.4,2.49,2.49,0,0,0-.61-.55,7.66,7.66,0,0,0-.8-.47,5,5,0,0,1-.8-.51,2.55,2.55,0,0,1-.62-.65,1.63,1.63,0,0,1-.24-.92,1.43,1.43,0,0,1,.17-.73,1.73,1.73,0,0,1,.46-.55,2,2,0,0,1,.64-.35,2.34,2.34,0,0,1,.74-.12,3.11,3.11,0,0,1,.43,0l.43.1.11,0,.21.06.2.06.1,0a.2.2,0,0,0,.2-.2h.12c0,.26.05.53.08.8a5.24,5.24,0,0,1,0,.79h-.11a1.72,1.72,0,0,0-.41-.66,1.94,1.94,0,0,0-.6-.39,1.81,1.81,0,0,0-.69-.14,1.45,1.45,0,0,0-.63.13,1.08,1.08,0,0,0-.47.37,1,1,0,0,0-.19.62.84.84,0,0,0,.15.5,2.72,2.72,0,0,0,.37.39,5.89,5.89,0,0,0,.57.41c.2.13.41.24.62.36l-.07,0a7.16,7.16,0,0,1,.66.39,3.75,3.75,0,0,1,.57.47,2.12,2.12,0,0,1,.4.59,1.84,1.84,0,0,1,.15.76,1.61,1.61,0,0,1-.2.8,2,2,0,0,1-.52.6,2.21,2.21,0,0,1-.72.36,2.44,2.44,0,0,1-.8.13,3.22,3.22,0,0,1-.84-.11l-.82-.22a.23.23,0,0,0-.12.06m-3.28.14h-4.78v-.1c.22,0,.36,0,.41-.09a.66.66,0,0,0,.09-.43V48.69a.64.64,0,0,0-.09-.42c-.05-.06-.19-.09-.41-.09v-.11h4.67v1.08h-.14c0-.26-.12-.43-.25-.48a1.36,1.36,0,0,0-.56-.09h-2.11a.4.4,0,0,0-.21,0,.5.5,0,0,0,0,.21v2.4h2.12l.29,0a.4.4,0,0,0,.21-.07.34.34,0,0,0,.12-.16.9.9,0,0,0,.06-.28h.14v1.58h-.14a1,1,0,0,0-.06-.29.4.4,0,0,0-.12-.16.4.4,0,0,0-.2-.08h-2.42v2.73a.2.2,0,0,0,.05.14.35.35,0,0,0,.14.06h2.05a2.72,2.72,0,0,0,.43,0,.76.76,0,0,0,.33-.11.78.78,0,0,0,.26-.22,1.66,1.66,0,0,0,.22-.38h.17Zm-12.28,0h-4.78v-.1a.61.61,0,0,0,.41-.09c.06-.06.08-.2.08-.43V48.69c0-.22,0-.36-.08-.42a.61.61,0,0,0-.41-.09v-.11h4.67v1.08h-.15c0-.26-.11-.43-.24-.48a1.39,1.39,0,0,0-.56-.09h-2.12c-.12,0-.18,0-.2,0a.45.45,0,0,0,0,.21v2.4h2.13l.29,0a.44.44,0,0,0,.21-.07.34.34,0,0,0,.12-.16,1.33,1.33,0,0,0,.06-.28h.14v1.58H136a1.45,1.45,0,0,0-.06-.29.4.4,0,0,0-.12-.16.44.44,0,0,0-.2-.08h-2.43v2.73a.17.17,0,0,0,.06.14.3.3,0,0,0,.14.06h2a2.76,2.76,0,0,0,.44,0,.76.76,0,0,0,.33-.11.9.9,0,0,0,.26-.22,1.66,1.66,0,0,0,.22-.38h.17Zm-12.47-.75a.19.19,0,0,0,.08.15.48.48,0,0,0,.18.07l.21,0h.15a5.54,5.54,0,0,0,1.4-.17,2.82,2.82,0,0,0,1.06-.55,2.3,2.3,0,0,0,.68-1,3.65,3.65,0,0,0,.25-1.4,3.45,3.45,0,0,0-.24-1.34,2.48,2.48,0,0,0-.65-.95,2.63,2.63,0,0,0-1-.56,4.67,4.67,0,0,0-1.34-.18,2.56,2.56,0,0,0-.39,0,.82.82,0,0,0-.36.15Zm-1.4.65H123a.24.24,0,0,0,.16-.07.21.21,0,0,0,.07-.15,1.12,1.12,0,0,0,0-.29V48.69a1,1,0,0,0,0-.28.26.26,0,0,0-.07-.16.3.3,0,0,0-.16-.06h-.26v-.11h2.43a5.66,5.66,0,0,1,1.59.22,3.29,3.29,0,0,1,1.23.65,3,3,0,0,1,.79,1.11,4,4,0,0,1,.29,1.58,4.17,4.17,0,0,1-.24,1.43,2.83,2.83,0,0,1-.84,1.18,3.38,3.38,0,0,1-1.36.72,5.76,5.76,0,0,1-1.54.2h-2.35Zm-8.42-4.55a3.38,3.38,0,0,0-.42-1,2.31,2.31,0,0,0-.73-.76,2.25,2.25,0,0,0-2.21,0,2.41,2.41,0,0,0-.73.76,3.17,3.17,0,0,0-.41,1,5.42,5.42,0,0,0-.13,1.12,5.52,5.52,0,0,0,.13,1.13,3.22,3.22,0,0,0,.41,1,2.34,2.34,0,0,0,.73.74,2,2,0,0,0,1.11.29,2.08,2.08,0,0,0,1.11-.29,2.18,2.18,0,0,0,.73-.75,3.22,3.22,0,0,0,.41-1,4.76,4.76,0,0,0,.13-1.12,5.41,5.41,0,0,0-.13-1.11m.85,2.53a3.48,3.48,0,0,1-.64,1.17,3.12,3.12,0,0,1-1,.79,3.4,3.4,0,0,1-1.42.29A3.33,3.33,0,0,1,110.6,55a2.91,2.91,0,0,1-1-.79,3.21,3.21,0,0,1-.64-1.16,4.79,4.79,0,0,1,.06-3,3.54,3.54,0,0,1,.76-1.16,3,3,0,0,1,1.07-.69,3.21,3.21,0,0,1,1.21-.23,3.48,3.48,0,0,1,1.22.24,3,3,0,0,1,1.06.69,3.3,3.3,0,0,1,.76,1.16,4.21,4.21,0,0,1,.28,1.61,4.36,4.36,0,0,1-.22,1.42m-8.47-3.71a1,1,0,0,0-.27-.57.94.94,0,0,0-.6-.15h-1.36v5.93a1.85,1.85,0,0,0,0,.29.22.22,0,0,0,.08.15.33.33,0,0,0,.18.07H105v.1h-2v-.1h.28a.29.29,0,0,0,.17-.07.2.2,0,0,0,.09-.15,1,1,0,0,0,0-.29V48.61h-1.38a.74.74,0,0,0-.88.72h-.1l0-1.26h5.5l0,1.26Zm-8.49-1.15a.3.3,0,0,0-.24.09.45.45,0,0,0-.12.21,1.24,1.24,0,0,0,0,.27v3.93a2.55,2.55,0,0,1-.7,1.94,3.17,3.17,0,0,1-3.91,0,2.64,2.64,0,0,1-.69-2v-4a1,1,0,0,0,0-.37c0-.09-.14-.14-.32-.14h-.16v-.11h2v.11h-.27a.34.34,0,0,0-.16.06.34.34,0,0,0-.08.16,1.91,1.91,0,0,0,0,.28v4a2.35,2.35,0,0,0,.45,1.52,1.71,1.71,0,0,0,1.45.56,1.9,1.9,0,0,0,1.43-.52,2,2,0,0,0,.5-1.43V48.66a.68.68,0,0,0,0-.26.31.31,0,0,0-.16-.16.77.77,0,0,0-.34-.06v-.11h1.66v.11ZM89,49.33a1,1,0,0,0-.27-.57,1,1,0,0,0-.6-.15H86.73v5.93a1,1,0,0,0,0,.29.22.22,0,0,0,.08.15.29.29,0,0,0,.17.07h.29v.1h-2v-.1h.28a.29.29,0,0,0,.17-.07.27.27,0,0,0,.09-.15,1.11,1.11,0,0,0,0-.29V48.61H84.46a1,1,0,0,0-.6.15,1,1,0,0,0-.28.57h-.09l0-1.26H89l0,1.26ZM78.81,55.16v-.1h.29a.38.38,0,0,0,.17-.06.22.22,0,0,0,.08-.15,1.24,1.24,0,0,0,0-.3V48.69a1.19,1.19,0,0,0,0-.29.22.22,0,0,0-.08-.15.29.29,0,0,0-.17-.06h-.29v-.11h2v.11h-.29a.29.29,0,0,0-.17.06.22.22,0,0,0-.08.15,1.12,1.12,0,0,0,0,.29v5.85a1.15,1.15,0,0,0,0,.3.22.22,0,0,0,.08.15.38.38,0,0,0,.17.06h.29v.1Zm-3-5.83a1,1,0,0,0-.26-.57,1,1,0,0,0-.61-.15H73.58v5.93a1.85,1.85,0,0,0,0,.29.27.27,0,0,0,.09.15.29.29,0,0,0,.17.07h.29v.1h-2v-.1h.28a.29.29,0,0,0,.17-.07.27.27,0,0,0,.09-.15,1.85,1.85,0,0,0,0-.29V48.61H71.31a1,1,0,0,0-.6.15,1,1,0,0,0-.28.57h-.09l0-1.26h5.51l0,1.26ZM63.76,55a.19.19,0,0,0,0,.13h-.13l0-1.53,0,0h.1a1.82,1.82,0,0,0,.5.72,1.94,1.94,0,0,0,1.4.5,1.79,1.79,0,0,0,.67-.18,1.27,1.27,0,0,0,.48-.44,1.28,1.28,0,0,0-.06-1.4,2.55,2.55,0,0,0-.62-.55,6.74,6.74,0,0,0-.8-.47,5.44,5.44,0,0,1-.8-.51,2.51,2.51,0,0,1-.61-.65,1.56,1.56,0,0,1-.25-.92,1.44,1.44,0,0,1,.18-.73,1.7,1.7,0,0,1,.45-.55,2,2,0,0,1,.65-.35,2.28,2.28,0,0,1,.73-.12A3.25,3.25,0,0,1,66,48l.42.1.12,0,.2.06.21.06.1,0a.2.2,0,0,0,.2-.2h.11c0,.26.06.53.08.8a5.28,5.28,0,0,1,0,.79h-.12A1.7,1.7,0,0,0,67,49a2.11,2.11,0,0,0-.61-.39,1.8,1.8,0,0,0-.68-.14,1.53,1.53,0,0,0-.64.13,1.14,1.14,0,0,0-.47.37,1.05,1.05,0,0,0-.18.62.84.84,0,0,0,.15.5,2.19,2.19,0,0,0,.36.39,6,6,0,0,0,.58.41c.2.13.41.24.62.36l-.08,0c.23.12.45.25.67.39a3.75,3.75,0,0,1,.57.47,2.12,2.12,0,0,1,.4.59,2,2,0,0,1,.14.76,1.51,1.51,0,0,1-.2.8,1.85,1.85,0,0,1-.51.6,2.43,2.43,0,0,1-.72.36,2.54,2.54,0,0,1-.81.13,3.34,3.34,0,0,1-.84-.11L63.89,55a.31.31,0,0,0-.13.06m-3.23-6.79a.3.3,0,0,0-.17.14.72.72,0,0,0,0,.24v6.6h-.54l-4.2-6v5.1c0,.14,0,.25,0,.34a.54.54,0,0,0,.05.24.32.32,0,0,0,.16.14,1.34,1.34,0,0,0,.33,0v.1H54.43v-.1a1.37,1.37,0,0,0,.34,0,.35.35,0,0,0,.16-.13.41.41,0,0,0,.06-.23c0-.1,0-.22,0-.36V48.62l-.11-.23a.48.48,0,0,0-.09-.13.33.33,0,0,0-.13-.07h-.24v-.11h1.38c.65,1,1.3,1.93,2,2.86s1.32,1.89,2,2.86V49c0-.14,0-.25,0-.35a.54.54,0,0,0,0-.24.25.25,0,0,0-.16-.14,1.09,1.09,0,0,0-.34,0v-.11h1.69v.11a.71.71,0,0,0-.33,0M49.22,55.16v-.1h.29a.38.38,0,0,0,.17-.06.22.22,0,0,0,.08-.15,1.24,1.24,0,0,0,0-.3V48.69a1.19,1.19,0,0,0,0-.29.22.22,0,0,0-.08-.15.29.29,0,0,0-.17-.06h-.29v-.11h2v.11H51a.29.29,0,0,0-.17.06.27.27,0,0,0-.09.15,2.07,2.07,0,0,0,0,.29v5.85a2.11,2.11,0,0,0,0,.3.27.27,0,0,0,.09.15.38.38,0,0,0,.17.06h.29v.1Z" transform="translate(-1.5 -2.07)" style="fill:#1a171b"/><path d="M57.55,33.15a.48.48,0,0,0-.32.11.73.73,0,0,0-.15.29,1.37,1.37,0,0,0,0,.36v5.21a3.41,3.41,0,0,1-.93,2.58,4.19,4.19,0,0,1-5.19,0A3.46,3.46,0,0,1,50,39.1V33.83a1.67,1.67,0,0,0-.07-.5c0-.12-.19-.18-.43-.18H49.3V33h2.58v.14h-.35a.4.4,0,0,0-.21.08.42.42,0,0,0-.11.21,3.63,3.63,0,0,0,0,.38v5.29a3.15,3.15,0,0,0,.59,2,2.31,2.31,0,0,0,1.92.74,2.53,2.53,0,0,0,1.9-.69,2.64,2.64,0,0,0,.68-1.91v-5.5a.87.87,0,0,0-.07-.35.49.49,0,0,0-.21-.22,1.06,1.06,0,0,0-.45-.07V33h2.21v.14Z" transform="translate(-1.5 -2.07)" style="fill:#1a171b"/><path d="M67.64,33.21a.36.36,0,0,0-.21.19.72.72,0,0,0-.07.32c0,.13,0,.28,0,.46v8.31h-.71l-5.57-8v6.77c0,.17,0,.33,0,.45a.57.57,0,0,0,.07.31.32.32,0,0,0,.21.18,1.23,1.23,0,0,0,.43.06v.14H59.55v-.14a1.28,1.28,0,0,0,.45-.06.35.35,0,0,0,.22-.17.67.67,0,0,0,.08-.31c0-.12,0-.28,0-.46V33.73c-.06-.12-.11-.22-.14-.3a.52.52,0,0,0-.13-.18.3.3,0,0,0-.17-.08,1.38,1.38,0,0,0-.32,0V33h1.84q1.28,1.93,2.6,3.79t2.6,3.8V34.18c0-.19,0-.35,0-.48a.76.76,0,0,0-.07-.32.37.37,0,0,0-.22-.18,1.75,1.75,0,0,0-.45-.05V33h2.25v.14a1.36,1.36,0,0,0-.45.06" transform="translate(-1.5 -2.07)" style="fill:#1a171b"/><path d="M69.94,42.42v-.14h.38a.48.48,0,0,0,.23-.08.3.3,0,0,0,.11-.2,2.06,2.06,0,0,0,0-.39V33.83a1.92,1.92,0,0,0,0-.39.3.3,0,0,0-.11-.2.48.48,0,0,0-.23-.08h-.38V33h2.7v.14h-.39a.52.52,0,0,0-.23.08.35.35,0,0,0-.11.2,1.92,1.92,0,0,0,0,.39V41.6a2.06,2.06,0,0,0,0,.39.35.35,0,0,0,.11.2.52.52,0,0,0,.23.08h.39v.14Z" transform="translate(-1.5 -2.07)" style="fill:#1a171b"/><path d="M82.69,33.31a1.76,1.76,0,0,0-.23.41l-3.4,8.8h-.57L74.9,33.74a1.27,1.27,0,0,0-.27-.42.65.65,0,0,0-.45-.17V33h2.46v.14h-.27a.52.52,0,0,0-.2.06.22.22,0,0,0-.11.15.47.47,0,0,0,0,.26L79,40.76l2.61-6.83a.83.83,0,0,0,.07-.57c-.06-.12-.23-.19-.53-.21V33h2v.14a.5.5,0,0,0-.41.16" transform="translate(-1.5 -2.07)" style="fill:#1a171b"/><path d="M89.9,42.42H83.56v-.14q.43,0,.54-.12a.88.88,0,0,0,.11-.56V33.83c0-.3,0-.49-.11-.56s-.25-.12-.54-.12V33h6.2v1.43h-.19c0-.35-.16-.57-.33-.65a1.81,1.81,0,0,0-.74-.12H85.7c-.16,0-.25,0-.27,0a.68.68,0,0,0,0,.27v3.19h2.83l.39,0a.85.85,0,0,0,.27-.09.49.49,0,0,0,.16-.21,2,2,0,0,0,.08-.38h.18v2.1h-.18a2.39,2.39,0,0,0-.08-.39.49.49,0,0,0-.16-.21.55.55,0,0,0-.27-.1l-.39,0H85.39v3.63a.22.22,0,0,0,.08.18.3.3,0,0,0,.18.08h2.72a5,5,0,0,0,.58,0,1.46,1.46,0,0,0,.43-.15,1.1,1.1,0,0,0,.35-.3,2,2,0,0,0,.29-.51h.23Z" transform="translate(-1.5 -2.07)" style="fill:#1a171b"/><path d="M97.47,42.42c-.22-.49-.44-.94-.66-1.33a11,11,0,0,0-.73-1.1,10,10,0,0,0-.84-1c-.31-.32-.66-.64-1-1l-1,0V41.6a1.77,1.77,0,0,0,0,.37.35.35,0,0,0,.1.21.29.29,0,0,0,.21.09h.36v.14H91.36v-.14l.34,0a.46.46,0,0,0,.2-.09A.31.31,0,0,0,92,42a3.26,3.26,0,0,0,0-.37V33.83a3.21,3.21,0,0,0,0-.36.29.29,0,0,0-.09-.21.31.31,0,0,0-.2-.09,1.67,1.67,0,0,0-.34,0V33h3.32a4.94,4.94,0,0,1,1.17.13,3.11,3.11,0,0,1,1,.42,2.33,2.33,0,0,1,.69.77,2.41,2.41,0,0,1,.25,1.17,1.94,1.94,0,0,1-.72,1.59,3.15,3.15,0,0,1-.76.44,3.92,3.92,0,0,1-.91.23q.41.33.66.57c.16.16.31.31.43.45l.37.45.43.53a6,6,0,0,1,.53.79l.47.82c.14.25.27.47.39.64s.24.27.35.27v.14Zm-4.28-5.06h.67a5.33,5.33,0,0,0,1-.09,2.74,2.74,0,0,0,.87-.32,1.68,1.68,0,0,0,.62-.62,1.81,1.81,0,0,0,.24-1,1.75,1.75,0,0,0-.19-.85,1.39,1.39,0,0,0-.53-.52,2.09,2.09,0,0,0-.74-.26,4.8,4.8,0,0,0-.85-.07h-.57a1.28,1.28,0,0,0-.28.07.6.6,0,0,0-.22.16Z" transform="translate(-1.5 -2.07)" style="fill:#1a171b"/><path d="M100.85,42.23a.24.24,0,0,0-.07.17h-.17l-.06-2,0,0h.13a2.54,2.54,0,0,0,.67,1,2.67,2.67,0,0,0,.9.52,2.6,2.6,0,0,0,1,.14,2.13,2.13,0,0,0,.88-.24,1.63,1.63,0,0,0,.64-.58,1.53,1.53,0,0,0,.24-.87,1.6,1.6,0,0,0-.32-1,3.65,3.65,0,0,0-.82-.73,11.43,11.43,0,0,0-1.06-.62,7.07,7.07,0,0,1-1.06-.67,3.35,3.35,0,0,1-.82-.86,2.25,2.25,0,0,1-.32-1.23,2,2,0,0,1,.23-1,2.47,2.47,0,0,1,.6-.73,2.64,2.64,0,0,1,.86-.46,3,3,0,0,1,1-.16,2.75,2.75,0,0,1,.57.05,3.9,3.9,0,0,1,.57.13l.15.05.27.07.27.08.14,0a.25.25,0,0,0,.26-.26h.16c0,.34.07.69.1,1.06a7.42,7.42,0,0,1,0,1.05h-.15a2.14,2.14,0,0,0-.54-.87,2.59,2.59,0,0,0-.8-.53,2.38,2.38,0,0,0-.91-.18,2.06,2.06,0,0,0-.84.16,1.5,1.5,0,0,0-.63.51,1.35,1.35,0,0,0-.24.82,1.08,1.08,0,0,0,.2.66,2.6,2.6,0,0,0,.48.52,8.61,8.61,0,0,0,.76.54c.27.17.55.32.82.47l-.09,0c.3.16.6.33.88.51a5.19,5.19,0,0,1,.76.63,2.64,2.64,0,0,1,.52.79,2.41,2.41,0,0,1,.2,1,2.1,2.1,0,0,1-.27,1.07,2.43,2.43,0,0,1-.68.78,3.06,3.06,0,0,1-.95.49,3.64,3.64,0,0,1-1.08.17,4.5,4.5,0,0,1-1.11-.14l-1.08-.3a.34.34,0,0,0-.17.08" transform="translate(-1.5 -2.07)" style="fill:#1a171b"/><path d="M107.63,42.42v-.14H108a.52.52,0,0,0,.23-.08.35.35,0,0,0,.11-.2,2.06,2.06,0,0,0,0-.39V33.83a1.92,1.92,0,0,0,0-.39.35.35,0,0,0-.11-.2.52.52,0,0,0-.23-.08h-.39V33h2.7v.14H110a.48.48,0,0,0-.23.08.3.3,0,0,0-.11.2,1.92,1.92,0,0,0,0,.39V41.6a2.06,2.06,0,0,0,0,.39.3.3,0,0,0,.11.2.48.48,0,0,0,.23.08h.38v.14Z" transform="translate(-1.5 -2.07)" style="fill:#1a171b"/><path d="M112.21,42.28h.34a.29.29,0,0,0,.21-.09.35.35,0,0,0,.1-.21,1.77,1.77,0,0,0,0-.37V33.83a1.94,1.94,0,0,0,0-.38.41.41,0,0,0-.1-.21.34.34,0,0,0-.21-.08h-.34V33h3.22a7.38,7.38,0,0,1,2.11.28,4.4,4.4,0,0,1,1.63.87,3.82,3.82,0,0,1,1.06,1.48,5.95,5.95,0,0,1,0,4,3.72,3.72,0,0,1-1.11,1.57,4.45,4.45,0,0,1-1.81.95,7.72,7.72,0,0,1-2,.27h-3.11Zm1.86-.86a.21.21,0,0,0,.1.19.7.7,0,0,0,.23.11l.28,0h.21a7.11,7.11,0,0,0,1.85-.22,3.83,3.83,0,0,0,1.42-.73,3.23,3.23,0,0,0,.9-1.26,4.92,4.92,0,0,0,.32-1.86,4.61,4.61,0,0,0-.31-1.78,3.17,3.17,0,0,0-.87-1.26,3.52,3.52,0,0,0-1.36-.75,6.18,6.18,0,0,0-1.78-.24,3.12,3.12,0,0,0-.52,0,1.05,1.05,0,0,0-.47.21Z" transform="translate(-1.5 -2.07)" style="fill:#1a171b"/><path d="M127.58,42.42v-.14a.76.76,0,0,0,.47-.12c.11-.08.11-.23,0-.46l-.86-2.12H123l-.78,2a.86.86,0,0,0-.09.55c0,.13.21.2.51.2v.14h-2v-.14a.56.56,0,0,0,.29-.1,1.19,1.19,0,0,0,.2-.19,1.32,1.32,0,0,0,.16-.25l.12-.28L125,32.91h.77l3.7,8.91a.75.75,0,0,0,.59.46v.14Zm-2.46-8.05-1.83,4.53H127Z" transform="translate(-1.5 -2.07)" style="fill:#1a171b"/><path d="M131.08,42.28h.35a.34.34,0,0,0,.21-.09.35.35,0,0,0,.1-.21,1.89,1.89,0,0,0,0-.37V33.83a2.06,2.06,0,0,0,0-.38.41.41,0,0,0-.1-.21.4.4,0,0,0-.21-.08h-.35V33h3.23a7.26,7.26,0,0,1,2.1.28,4.45,4.45,0,0,1,1.64.87,3.91,3.91,0,0,1,1,1.48,5.34,5.34,0,0,1,.38,2.09,5.61,5.61,0,0,1-.32,1.9,3.72,3.72,0,0,1-1.11,1.57,4.45,4.45,0,0,1-1.81.95,7.83,7.83,0,0,1-2,.27h-3.12Zm1.87-.86a.22.22,0,0,0,.09.19.88.88,0,0,0,.24.11l.28,0h.21a7.17,7.17,0,0,0,1.85-.22,3.78,3.78,0,0,0,1.41-.73,3.35,3.35,0,0,0,.91-1.26,4.92,4.92,0,0,0,.32-1.86,4.8,4.8,0,0,0-.31-1.78,3.17,3.17,0,0,0-.87-1.26,3.6,3.6,0,0,0-1.36-.75,6.2,6.2,0,0,0-1.79-.24,3.08,3.08,0,0,0-.51,0,1,1,0,0,0-.47.21Z" transform="translate(-1.5 -2.07)" style="fill:#1a171b"/><path d="M145,42.28h.34a.32.32,0,0,0,.21-.09.35.35,0,0,0,.1-.21,1.77,1.77,0,0,0,0-.37V33.83a1.94,1.94,0,0,0,0-.38.41.41,0,0,0-.1-.21.37.37,0,0,0-.21-.08H145V33h3.22a7.38,7.38,0,0,1,2.11.28,4.48,4.48,0,0,1,1.63.87A3.93,3.93,0,0,1,153,35.64a5.35,5.35,0,0,1,.37,2.09,5.61,5.61,0,0,1-.32,1.9,3.72,3.72,0,0,1-1.11,1.57,4.45,4.45,0,0,1-1.81.95,7.83,7.83,0,0,1-2,.27H145Zm1.86-.86a.21.21,0,0,0,.1.19.7.7,0,0,0,.23.11l.28,0h.21a7.17,7.17,0,0,0,1.85-.22,3.83,3.83,0,0,0,1.42-.73,3.33,3.33,0,0,0,.9-1.26,4.92,4.92,0,0,0,.32-1.86,4.61,4.61,0,0,0-.31-1.78,3.17,3.17,0,0,0-.87-1.26,3.6,3.6,0,0,0-1.36-.75,6.18,6.18,0,0,0-1.78-.24,3.12,3.12,0,0,0-.52,0,1,1,0,0,0-.47.21Z" transform="translate(-1.5 -2.07)" style="fill:#1a171b"/><path d="M161,42.42h-6.34v-.14a.8.8,0,0,0,.54-.12,1,1,0,0,0,.11-.56V33.83a.91.91,0,0,0-.11-.56.8.8,0,0,0-.54-.12V33h6.2v1.43h-.19c-.05-.35-.16-.57-.33-.65a1.81,1.81,0,0,0-.74-.12H156.8c-.16,0-.25,0-.27,0a.53.53,0,0,0,0,.27v3.19h2.82l.39,0a.77.77,0,0,0,.27-.09.42.42,0,0,0,.16-.21,1.41,1.41,0,0,0,.09-.38h.18v2.1h-.18a1.61,1.61,0,0,0-.09-.39A.42.42,0,0,0,160,38a.47.47,0,0,0-.26-.1l-.4,0h-2.82v3.63a.22.22,0,0,0,.08.18.3.3,0,0,0,.18.08h2.72a4.67,4.67,0,0,0,.57,0,1.43,1.43,0,0,0,.44-.15,1.1,1.1,0,0,0,.35-.3,2,2,0,0,0,.29-.51h.22Z" transform="translate(-1.5 -2.07)" style="fill:#1a171b"/><path d="M172.9,42.33a5.45,5.45,0,0,1-1.67.26,5.07,5.07,0,0,1-2-.36,4.42,4.42,0,0,1-1.49-1,4.5,4.5,0,0,1-.93-1.54,6,6,0,0,1-.32-2,5.61,5.61,0,0,1,.34-1.94,4.57,4.57,0,0,1,1-1.56,4.21,4.21,0,0,1,1.49-1,4.83,4.83,0,0,1,1.94-.37,6.69,6.69,0,0,1,1.47.16l.22.07.27.07.26.07.21,0A.31.31,0,0,0,174,33h.16v.51c0,.19,0,.38,0,.57l0,.57a2.18,2.18,0,0,1-.08.49,3.75,3.75,0,0,0-1.08-1.2,2.74,2.74,0,0,0-1.56-.41,3.51,3.51,0,0,0-1.61.34,3.23,3.23,0,0,0-1.12.91,3.84,3.84,0,0,0-.65,1.33,6.09,6.09,0,0,0-.22,1.62,5.8,5.8,0,0,0,.23,1.64,3.58,3.58,0,0,0,.67,1.32,3,3,0,0,0,1.14.89,3.73,3.73,0,0,0,1.63.33h.73a6.94,6.94,0,0,0,.77-.08,3.76,3.76,0,0,0,.73-.2,2,2,0,0,0,.62-.36l.06.23a4.09,4.09,0,0,1-1.47.86" transform="translate(-1.5 -2.07)" style="fill:#1a171b"/><path d="M181.15,42.42v-.14l.36,0a.41.41,0,0,0,.21-.09.42.42,0,0,0,.1-.2,1.77,1.77,0,0,0,0-.37V38H177.3V41.6a3.26,3.26,0,0,0,0,.37.53.53,0,0,0,.09.2.37.37,0,0,0,.2.09l.36,0v.14h-2.55v-.14l.36,0a.34.34,0,0,0,.21-.09.42.42,0,0,0,.1-.2,1.77,1.77,0,0,0,0-.37V33.83a1.77,1.77,0,0,0,0-.37.38.38,0,0,0-.1-.2.29.29,0,0,0-.21-.09,1.84,1.84,0,0,0-.36,0V33H178v.14a1.84,1.84,0,0,0-.36,0,.31.31,0,0,0-.2.09.46.46,0,0,0-.09.21,3.21,3.21,0,0,0,0,.36v3.42h4.55V33.83a1.77,1.77,0,0,0,0-.37.38.38,0,0,0-.1-.2.34.34,0,0,0-.21-.09,1.84,1.84,0,0,0-.36,0V33h2.56v.14a1.84,1.84,0,0,0-.36,0,.31.31,0,0,0-.2.09.28.28,0,0,0-.1.21,1.84,1.84,0,0,0,0,.36V41.6a1.89,1.89,0,0,0,0,.37.3.3,0,0,0,.1.2.37.37,0,0,0,.2.09l.36,0v.14Z" transform="translate(-1.5 -2.07)" style="fill:#1a171b"/><path d="M185.58,42.42v-.14H186a.52.52,0,0,0,.23-.08.35.35,0,0,0,.11-.2,3.46,3.46,0,0,0,0-.39V33.83a3.1,3.1,0,0,0,0-.39.35.35,0,0,0-.11-.2.52.52,0,0,0-.23-.08h-.39V33h2.7v.14h-.38a.44.44,0,0,0-.23.08.3.3,0,0,0-.11.2,1.92,1.92,0,0,0,0,.39V41.6a2.06,2.06,0,0,0,0,.39.3.3,0,0,0,.11.2.44.44,0,0,0,.23.08h.38v.14Z" transform="translate(-1.5 -2.07)" style="fill:#1a171b"/><path d="M196.43,42.42h-6.27v-.14l.35,0a.31.31,0,0,0,.29-.29,1.89,1.89,0,0,0,0-.37V33.83a1.84,1.84,0,0,0,0-.36.32.32,0,0,0-.09-.21.29.29,0,0,0-.2-.09,1.78,1.78,0,0,0-.35,0V33h2.55v.14a1.94,1.94,0,0,0-.36,0,.34.34,0,0,0-.21.09.39.39,0,0,0-.11.2,1.89,1.89,0,0,0,0,.37v7.66a.21.21,0,0,0,.07.18.3.3,0,0,0,.18.08h2.46a6.38,6.38,0,0,0,.66,0,1.37,1.37,0,0,0,.52-.13,1,1,0,0,0,.39-.32,2.33,2.33,0,0,0,.34-.58l.18.05Z" transform="translate(-1.5 -2.07)" style="fill:#1a171b"/><path d="M204,42.42h-6.34v-.14a.83.83,0,0,0,.55-.12,1,1,0,0,0,.11-.56V33.83a.91.91,0,0,0-.11-.56.83.83,0,0,0-.55-.12V33h6.2l0,1.43h-.2c0-.35-.15-.57-.32-.65a1.83,1.83,0,0,0-.75-.12h-2.8a.47.47,0,0,0-.28,0,.75.75,0,0,0,0,.27v3.19h2.82l.39,0a.85.85,0,0,0,.27-.09.49.49,0,0,0,.16-.21,1.14,1.14,0,0,0,.08-.38h.19v2.1h-.19a1.27,1.27,0,0,0-.08-.39A.49.49,0,0,0,203,38a.55.55,0,0,0-.26-.1l-.4,0h-2.82v3.63a.22.22,0,0,0,.08.18.3.3,0,0,0,.18.08h2.71a4.73,4.73,0,0,0,.58,0,1.52,1.52,0,0,0,.44-.15,1.22,1.22,0,0,0,.35-.3,2,2,0,0,0,.29-.51h.22Z" transform="translate(-1.5 -2.07)" style="fill:#1a171b"/><path d="M211.51,67.89v-.52c.58,0,1.06,0,1.41-.05a1.64,1.64,0,0,0,.85-.28,1.2,1.2,0,0,0,.41-.75,7.83,7.83,0,0,0,.1-1.45V44.29a7.64,7.64,0,0,0-.1-1.44,1.14,1.14,0,0,0-.41-.75,1.64,1.64,0,0,0-.85-.29c-.35,0-.83-.05-1.41-.05v-.51h10v.51c-.59,0-1.06,0-1.42.05a1.64,1.64,0,0,0-.84.29,1.14,1.14,0,0,0-.41.75,7.64,7.64,0,0,0-.1,1.44V64.84a7.83,7.83,0,0,0,.1,1.45,1.2,1.2,0,0,0,.41.75,1.64,1.64,0,0,0,.84.28c.36,0,.83.05,1.42.05v.52Z" transform="translate(-1.5 -2.07)" style="fill:#1a171b"/><path d="M213.45,38.16a.92.92,0,0,0,.88.89h4.32a.92.92,0,0,0,.88-.89v-4.3a.92.92,0,0,0-.88-.89h-4.32a.92.92,0,0,0-.88.89Z" transform="translate(-1.5 -2.07)" style="fill:#1a171b"/><path d="M235.6,64.43a.86.86,0,0,0,.28.7,1.3,1.3,0,0,0,.66.28,4.48,4.48,0,0,0,.83,0l.74,0h8.46a14.55,14.55,0,0,0,2.13-.13,4.36,4.36,0,0,0,2.9-1.65,7.84,7.84,0,0,0,1.08-1.88h.82l-1.28,6.14h-23.4v-.52a3,3,0,0,0,2-.44,3.36,3.36,0,0,0,.41-2.09V36a3.33,3.33,0,0,0-.41-2.08c-.27-.3-.94-.44-2-.44V33H251.7l.06,5.31H251c-.17-1.3-.58-2.1-1.21-2.39a6.62,6.62,0,0,0-2.74-.44H236.72c-.58,0-.91.06-1,.18a2.37,2.37,0,0,0-.12,1Z" transform="translate(-1.5 -2.07)" style="fill:#1a171b"/><path d="M238.93,52.58a.92.92,0,0,0,.89.89h4.31a.92.92,0,0,0,.88-.89v-4.3a.92.92,0,0,0-.88-.89h-4.31a.92.92,0,0,0-.89.89Z" transform="translate(-1.5 -2.07)" style="fill:#1a171b"/></g></svg>