<?xml version="1.0" encoding="utf-8"?>
<!-- Generator: Adobe Illustrator 26.0.3, SVG Export Plug-In . SVG Version: 6.00 Build 0)  -->
<svg version="1.1" id="Capa_1" xmlns="http://www.w3.org/2000/svg" xmlns:xlink="http://www.w3.org/1999/xlink" x="0px" y="0px"
	 viewBox="0 0 317.5 90.7" style="enable-background:new 0 0 317.5 90.7;" xml:space="preserve">
<style type="text/css">
	.st0{clip-path:url(#SVGID_00000176045131931272949310000012086777994648177570_);}
	.st1{fill:#163252;}
</style>
<g>
	<defs>
		<rect id="SVGID_1_" x="2.2" y="1.4" width="313.2" height="88"/>
	</defs>
	<clipPath id="SVGID_00000035522917872602953670000014420755996469189517_">
		<use xlink:href="#SVGID_1_"  style="overflow:visible;"/>
	</clipPath>
	<g style="clip-path:url(#SVGID_00000035522917872602953670000014420755996469189517_);">
		<path class="st1" d="M27.8,71.5l0.1,5.7c0,0,0,0.1,0,0.1c0,0,0.1,0,0.1,0h0.1c0.9-0.2,1.7-0.4,2.6-0.4c0.9,0,1.5,0.1,1.8,0.5
			c-0.7-0.2-1.5-0.4-2.3-0.4c-1,0-2,0.2-2.9,0.5c0-1.6-0.1-5.3-0.1-6.3c0,0.1,0.1,0.2,0.2,0.2C27.6,71.5,27.7,71.5,27.8,71.5z
			 M28.1,78.4v1.1l-1.6-0.4c-0.1-0.1-0.2-0.1-0.3-0.3c-0.1-0.1-0.1-0.2-0.1-0.4c0-0.1,0-0.1,0-0.2c0-0.1,0.1-0.1,0.1-0.2l0.1-0.1
			L28.1,78.4z M27.1,77.8l-0.5-0.1l0.5-0.4V77.8z M25.9,79.3c0.1,0.1,0.3,0.1,0.4,0.3l10.3,2.5h0.1l2.6-3h0.5L37,82.4l-11.4-2.8
			L25.9,79.3z M25.2,80.1l1.1,0.3v1.3l-1-0.3c-0.2-0.1-0.3-0.2-0.4-0.3c-0.1-0.1-0.1-0.3-0.1-0.5C24.8,80.2,25,80.1,25.2,80.1z
			 M26.6,80.4l6.5,1.6v1.5l-6.5-1.9V80.4z M33.5,82.1l3.4,0.8v1.8l-3.4-0.9V82.1z M37.2,84.3v-1.5l2.9-3.3v0.5
			c0,0.1,0.1,0.3,0.3,0.4L37.2,84.3z M39.5,78.2l-2.6,3v-1.1l2.5-2.6v0.4C39.4,78,39.4,78.2,39.5,78.2z M39.1,77.2l-0.5,0.5V77
			L39.1,77.2z M36.4,80.2v1.4l-2.6-0.6v-1.3L36.4,80.2z M33.3,79.5v1.3l-4-1v-1.1L33.3,79.5z M28.9,78.7v1.1l-0.6-0.1v-1.1
			L28.9,78.7z M38.4,77.9l-1.8,1.9l-8.8-1.9c0.8-0.3,1.7-0.4,2.5-0.4c0.8,0,1.6,0.1,2.4,0.4h0.1c0.7-0.3,1.5-0.4,2.3-0.4
			C36.2,77.6,37.3,77.7,38.4,77.9z M38.2,70.6v6.8c-1-0.2-2.1-0.3-3.1-0.3c-0.7,0-1.4,0.1-2,0.3c0.3-0.2,0.6-0.4,0.9-0.5
			s0.7-0.1,1-0.1c0.8,0,1.6,0.1,2.4,0.4h0.1l0.1-0.1v-6.3C37.8,70.7,38,70.7,38.2,70.6z M37.2,76.8c-0.7-0.2-1.5-0.4-2.3-0.4
			c-0.7-0.1-1.3,0.1-1.9,0.5l0.1-6.9c0.3-0.2,0.6-0.4,1-0.4c0.4,0,0.8,0.1,1.1,0.3c0.2,0.1,0.5,0.1,0.8,0.1c0.4,0,0.8-0.1,1.1-0.3
			V76.8z M32.8,69.5c-0.3,0-0.6-0.1-0.8-0.2c-0.2-0.2-0.4-0.4-0.6-0.6c0.1,0,0.4,0.1,0.5,0.1c0,0,0.1,0,0.1,0c0,0,0-0.1,0-0.1v-0.1
			c-0.2-0.2-0.4-0.4-0.5-0.6c0.1,0,0.4,0.1,0.5,0.1c0,0,0.1,0,0.1,0c0,0,0-0.1,0-0.1v-0.1c-0.2-0.1-0.3-0.3-0.4-0.5
			c0.1,0,0.3,0.1,0.4,0.1h0.1c0.1-0.1,0.3-0.3,0.3-0.5c0.1-0.2,0.1-0.4,0.1-0.6c0,0.2,0,0.4,0.1,0.6c0.1,0.2,0.2,0.3,0.4,0.4h0.1
			c0.1,0,0.1,0,0.2,0c0.1,0,0.1-0.1,0.2-0.1c-0.1,0.2-0.2,0.4-0.4,0.5c0,0-0.1,0.1,0,0.1l0.1,0.1c0.3,0,0.4-0.1,0.5-0.1
			c-0.1,0.3-0.3,0.5-0.5,0.6c0,0-0.1,0.1,0,0.1l0.1,0.1c0.3,0,0.4-0.1,0.5-0.1c-0.1,0.3-0.2,0.5-0.4,0.7
			C33.4,69.4,33.1,69.5,32.8,69.5z M32.1,69.9c0.2,0,0.4,0.1,0.6,0.1c0,0.8-0.1,4.1-0.1,6.9c-0.5-0.3-1.1-0.4-1.8-0.4
			c-0.9,0-1.7,0.2-2.5,0.4l-0.1-6h0.5c0.7,0,1.5-0.2,2.1-0.5C31.2,70.1,31.6,69.9,32.1,69.9z M27.8,71.1c-0.2,0-0.4,0-0.6-0.1h-0.1
			l-0.1,0.1c0,0,0.1,3.4,0.1,5.5l-1.1,1c-0.2,0.2-0.2,0.4-0.3,0.6c0,0.2,0,0.4,0.1,0.5l-1,1c-0.2,0.2-0.3,0.5-0.3,0.8
			c0,0.2,0,0.5,0.2,0.7c0.1,0.2,0.3,0.4,0.6,0.4L37,85h0.1c0,0,0.1,0,0.1,0c0,0,0-0.1,0-0.1l3.6-4.7v-0.1c0,0,0-0.1,0-0.1
			c0,0-0.1,0-0.1,0c-0.1-0.1-0.1-0.2-0.1-0.3v-0.9c0-0.1-0.1-0.2-0.1-0.3h-0.6l0.3-0.3v-0.1c0,0,0-0.1,0-0.1c0,0-0.1,0-0.1,0
			c0,0-0.1,0-0.1,0c0,0,0-0.1,0-0.1V77c0-0.1-0.1-0.2-0.1-0.3l-1.1-0.1v-6.3c0-0.1,0-0.1-0.1-0.1h-0.1c-0.3,0.1-0.5,0.1-0.8,0.3
			v-0.8c0-0.1,0-0.1-0.1-0.1h-0.3c-0.4,0.2-0.8,0.2-1.3,0.3c-0.2,0-0.4,0-0.6-0.1c-0.4-0.2-0.8-0.3-1.3-0.4H34
			c0.2-0.2,0.4-0.5,0.5-0.9v-0.1h-0.1c-0.1,0.1-0.2,0.1-0.4,0.1l0.4-0.8v-0.1h-0.1c-0.1,0.1-0.2,0.1-0.4,0.1
			c0.2-0.2,0.2-0.4,0.3-0.6V67H34c-0.2,0.1-0.3,0.1-0.5,0.1c-0.3-0.3-0.3-0.6-0.4-0.9C33,66,33,65.8,32.8,65.8
			c-0.1,0-0.3,0.3-0.3,0.5c0,0.3-0.1,0.6-0.3,0.9c-0.2,0-0.4-0.1-0.5-0.3h-0.1v0.1c0,0.2,0.1,0.4,0.3,0.6c-0.1-0.1-0.2-0.1-0.4-0.1
			h-0.1v0.1c0.1,0.3,0.1,0.5,0.4,0.8c-0.1,0-0.2-0.1-0.3-0.1h-0.1v0.1c0.1,0.2,0.2,0.4,0.3,0.6c0.2,0.2,0.3,0.3,0.6,0.4
			c-0.4,0-0.9,0.2-1.3,0.4c-0.6,0.3-1.2,0.5-1.9,0.5h-0.8l-0.1,0.1L27.8,71.1z M7.8,65.6L7.4,66l0.1,0.5l-0.4-0.4l-0.5,0.3l0.1-0.5
			l-0.4-0.4h0.5L7.2,65l0.3,0.5L7.8,65.6z M7.9,66.2l1-1l-1.4-0.1l-0.5-1.3l-0.5,1.3l-1.4,0.1l1.1,0.9l-0.4,1.3l1.3-0.8v0.1l3,8.8
			l0.3-0.1l-2.3-6.7l2.3,5.5l0.1-0.1l-2.3-5.5l2.4,5l0.1-0.1l-2.5-5.2L11,73l0.1-0.1l-2.6-4.8l2.9,4.4l0.1-0.1L8.6,68l3.1,4.1
			l0.1-0.1l-3.1-4.1l3.4,3.9l0.1-0.1l-3.4-3.9l3.8,3.8l0.1-0.1L9,67.6l4.1,3.6l0.4-0.1l-4.1-3.6l4.8,3.5l0.1-0.1l-4.8-3.5l5.5,3.5
			l0.1-0.1L7.9,66.2z M18.8,74H18c-0.1-0.1-0.1-0.1-0.3-0.1h-0.3c-0.1,0-0.1,0-0.2,0.1c0,0-0.1,0.1-0.1,0.2v0.3
			c-0.1,0.1-0.2,0.1-0.3,0.1h-0.1c0,0,0-0.1,0-0.1c0,0,0.1,0,0.1,0v-0.3h0.4c0,0,0-0.1,0-0.1c0,0,0.1,0,0.1,0
			c0.1-0.1,0.1-0.2,0.1-0.4v-0.3c0-0.1-0.1-0.1-0.1-0.3c0,0,0-0.1,0-0.1c0,0-0.1,0-0.1,0c0,0,0.1,0,0.1,0c0,0,0-0.1,0-0.1
			C18,72.9,18.5,73.4,18.8,74z M17.2,73.3c0,0.1,0,0.1-0.1,0.1c-0.1,0.1-0.1,0.2-0.1,0.3h-0.4l-0.1,0.1V74c0,0.1-0.1,0.3-0.1,0.4
			c0,0.1,0.1,0.1,0.4,0.3c0.1,0,0.5-0.1,0.5-0.3V74h0.1c0.1,0,0.2,0.1,0.3,0.1h0.3c0.1,0,0.3,0.1,0.4,0h0.1v0.4l-0.1,0.1
			c-0.1,0-0.3,0.1-0.4,0.1c-0.1,0-0.3,0.1-0.4,0.3c-0.1,0.1-0.3,0.4-0.1,0.6v0.1c0,0.1,0,0.3,0.1,0.3c0,0.1,0.1,0.2,0.1,0.3
			c0,0.1,0.1,0.3,0.1,0.4c0.1,0.1,0.1,0.2,0.1,0.3c0,0.1,0,0.1,0.1,0.3c0.1,0.1,0.1,0.1,0.1,0.3V78c-0.5,0.7-1.2,1.2-1.9,1.4
			c-0.8,0.3-1.6,0.3-2.4,0c-0.8-0.3-1.5-0.8-2-1.4c-0.5-0.7-0.7-1.5-0.7-2.3c0-0.6,0.1-1.2,0.4-1.8c0.1,0.1,0.3,0.1,0.5,0.1
			c0.1,0.1,0.2,0.2,0.3,0.4c0,0.1,0,0.1,0.1,0.1c0.1,0.1,0.2,0.1,0.3,0.1c0.1,0.1,0.3,0.1,0.3,0.3c0,0.1,0.1,0.1,0.3,0.3H13
			c0,0-0.1,0-0.1,0c0,0,0,0.1,0,0.1c-0.1,0.1-0.1,0.4-0.1,0.8v0.3c0,0.1,0,0.3,0.6,0.5c0.1,0,0.1,0.3,0.1,0.4v1.4
			c0,0.5,0,0.6,0.1,0.8c0.1,0.1,0.1,0.1,0.3,0.1c0.1,0,0.2-0.1,0.3-0.1v-0.1c0.1-0.4,0.3-0.7,0.4-1.1c0-0.4,0.1-0.4,0.1-0.4l0.1-0.1
			l0.5-0.5c0.2-0.3,0.3-0.6,0.4-0.9c0-0.3-0.5-0.5-0.8-0.5c-0.3,0-0.5-0.3-0.6-0.3c-0.3-0.3-0.6-0.5-1-0.8c-0.1,0-0.4-0.5-0.5-0.6
			c-0.1-0.1,0.1-0.3,0.1-0.4h0.3c0,0,0.1,0,0.1,0c0,0,0,0.1,0,0.1c0,0.1,0,0.4,0.1,0.4c0.1,0,0.2,0,0.3-0.1c0.1-0.1,0.1-0.2,0.1-0.3
			c0-0.1,0.3-0.3,0.4-0.4c0,0,0,0,0,0c0,0,0,0,0,0c0,0,0,0,0,0c0,0,0,0,0,0h0.1c0.1,0.1,0.4,0,0.5-0.1c0,0,0.1-0.1,0.1-0.2
			c0-0.1,0-0.1,0-0.2v-0.5c0-0.3-0.1-0.3-0.3-0.3h-0.3c-0.1,0-0.3,0.1-0.4,0.3c-0.1,0.1-0.1,0.1-0.3,0.1c0,0-0.1,0-0.1,0
			c0,0,0-0.1,0-0.1v-0.4c0.4-0.2,0.9-0.2,1.4-0.3h0.1c0,0.1,0,0.3,0.1,0.4c0.1,0.1,0.1,0.3,0.3,0.3l0.1,0.1c0,0.1,0.1,0.3,0.4,0.3
			c0.1,0,0.3-0.3,0.3-0.6v-0.1c0,0,0-0.1,0-0.1c0,0,0.1,0,0.1,0c0.3,0.1,0.4,0.1,0.6,0.3c-0.1,0-0.1,0.1-0.1,0.3s0,0.1,0.1,0.3v0.4
			C17.2,73.1,17.2,73.3,17.2,73.3z M16.4,71.9c0,0.1-0.1,0.2-0.1,0.3v0.5c0-0.1-0.1-0.3-0.3-0.4c0,0-0.1,0-0.1,0c0,0,0-0.1,0-0.1
			v-0.4C16,71.8,16.2,71.9,16.4,71.9z M14.1,72.8c0.1,0,0.3-0.1,0.4-0.3c0.1-0.1,0.1-0.1,0.3-0.3H15V73l-0.1,0.1
			c-0.1,0-0.1-0.1-0.3-0.1h-0.1c-0.1,0.1-0.4,0.3-0.5,0.5c0,0,0,0.1,0,0.1c0,0-0.1,0-0.1,0v-0.1c0-0.1-0.1-0.3-0.3-0.4h-0.3
			c-0.1,0-0.1,0-0.1,0.1c-0.2,0.2-0.2,0.4-0.3,0.6c0.1,0.4,0.3,0.7,0.6,0.9c0.4,0.2,0.7,0.5,1,0.8c0.2,0.1,0.5,0.2,0.8,0.3
			c0.4,0.1,0.6,0.3,0.6,0.4c0,0.1-0.1,0.6-0.3,0.6s-0.4,0.3-0.5,0.5l-0.1,0.1c-0.1,0.1-0.1,0.1-0.3,0.5c-0.1,0.3-0.2,0.7-0.3,1h-0.1
			V77c0-0.1-0.1-0.2-0.1-0.3c-0.1-0.1-0.2-0.2-0.3-0.2c-0.1-0.1-0.3-0.1-0.4-0.3v-0.8c0,0,0.1,0,0.1,0c0,0,0-0.1,0-0.1
			c0.1-0.1,0.4-0.1,0.4-0.3c0-0.1,0-0.1-0.1-0.2c0,0-0.1-0.1-0.2-0.1h-0.1c0-0.1-0.1-0.3-0.4-0.4c-0.1,0-0.1-0.1-0.3-0.1v-0.1
			c-0.1-0.3-0.3-0.5-0.5-0.5c-0.1,0-0.3-0.1-0.4-0.1c0.4-0.7,1-1.2,1.8-1.5v0.3C13.7,72.8,14,72.9,14.1,72.8z M18.6,80.1v1.5V85
			h-1.1v-3.4c0-0.1,0-0.1-0.1-0.2c0,0-0.1-0.1-0.2-0.1H6.4v-1.4h12.2V80.1z M10.2,79.7H6.9L8.6,77L10.2,79.7z M9.7,78.3L9,77
			c0.1,0,0.1-0.1,0.3-0.1L9.7,78.3z M9.1,76c0,0.2-0.1,0.3-0.2,0.4c-0.1,0.1-0.3,0.2-0.4,0.2c-0.2,0-0.3-0.1-0.4-0.2
			c-0.1-0.1-0.2-0.3-0.2-0.4c0-0.1,0-0.2,0-0.2c0-0.1,0.1-0.2,0.1-0.2c0.1-0.1,0.1-0.1,0.2-0.1c0.1,0,0.2,0,0.2,0
			c0.2,0,0.3,0.1,0.4,0.2C9,75.7,9.1,75.9,9.1,76z M7.9,76.8c0.1,0,0.1,0.1,0.3,0.1l-0.8,1.4L7.9,76.8z M18.5,76.8
			c0-0.1-0.1-0.3-0.3-0.5c-0.1-0.1-0.1-0.2-0.1-0.3s-0.1-0.2-0.1-0.3c-0.1-0.1-0.1-0.2-0.1-0.3c0,0,0-0.1,0-0.1c0,0-0.1,0-0.1,0
			c0-0.1,0.1-0.2,0.1-0.3c0.1-0.1,0.2-0.1,0.3-0.1c0.1,0,0.2-0.1,0.3-0.1c0.1,0,0.3-0.3,0.3-0.3s0.1-0.1,0-0.1
			c0-0.1-0.1-0.2-0.1-0.3v-0.1c0.2,0.5,0.3,1,0.3,1.5c0,0.6-0.1,1.2-0.5,1.8V77c0-0.1,0-0.3-0.1-0.3H18.5z M15.2,71.4
			c-0.6,0-1.1,0.1-1.6,0.3c-0.5,0.2-1,0.5-1.4,0.9c-0.4,0.4-0.7,0.9-0.9,1.4c-0.2,0.5-0.3,1.1-0.3,1.6c0,0.9,0.3,1.7,0.8,2.5
			c0.5,0.7,1.2,1.3,2.1,1.6h-3.3l-1.1-3.1c0.1-0.1,0.1-0.3,0.1-0.5c0-0.3-0.1-0.5-0.3-0.7C9.1,75.1,8.8,75,8.6,75
			c-0.3,0-0.5,0.1-0.7,0.3c-0.2,0.2-0.3,0.4-0.3,0.7c0,0.2,0,0.4,0.1,0.5l-1.1,3.3H6.2c-0.1,0-0.1,0-0.2,0.1c0,0-0.1,0.1-0.1,0.2
			v1.8c0,0.1,0,0.1,0.1,0.2c0,0,0.1,0.1,0.2,0.1H17v3.4c0,0.1,0,0.1,0.1,0.2c0,0,0.1,0.1,0.2,0.1h1.6c0.1,0,0.1,0,0.2-0.1
			c0,0,0.1-0.1,0.1-0.2v-3.5v-2c0-0.1,0-0.1-0.1-0.2c0,0-0.1-0.1-0.2-0.1h-2.3c0.8-0.3,1.6-0.8,2.1-1.6c0.5-0.7,0.8-1.6,0.8-2.5
			c0-0.6-0.1-1.1-0.3-1.6c-0.2-0.5-0.5-1-0.9-1.4c-0.4-0.4-0.9-0.7-1.4-0.9C16.4,71.5,15.8,71.4,15.2,71.4z M9.1,45.9H5.7L7.4,42
			L9.1,45.9z M7.6,41.3C7.6,41.3,7.6,41.3,7.6,41.3c-0.1-0.1-0.1-0.1-0.1-0.1s-0.1,0-0.1,0c0,0,0,0.1,0,0.1L5.2,46v0.3l0.1,0.1h4
			c0.1,0,0.1,0,0.1-0.1V46L7.6,41.3z M16.2,45.9L18,42l1.8,3.9H16.2z M16,46.2h4c0.1,0,0.1,0,0.1-0.1v-0.3l-2-4.7c0,0,0-0.1,0-0.1
			c0,0-0.1,0-0.1,0c-0.1,0-0.1,0-0.1,0.1L15.7,46v0.3H16z M20.5,46.1c0,0.7-0.3,1.3-0.7,1.8c-0.5,0.5-1.1,0.7-1.8,0.7
			c-0.7,0-1.3-0.3-1.8-0.7c-0.5-0.5-0.7-1.1-0.7-1.8l2.4-5.4v-0.3l-0.1-0.1H7.7c-0.1,0-0.1,0-0.1,0.1v0.3l2.4,5.4
			c0,0.3-0.1,0.6-0.2,0.9c-0.1,0.3-0.3,0.6-0.6,0.8c-0.2,0.2-0.5,0.4-0.8,0.5c-0.3,0.1-0.6,0.2-0.9,0.2c-0.3,0-0.6,0-0.9-0.2
			c-0.3-0.1-0.6-0.3-0.8-0.5c-0.2-0.2-0.4-0.5-0.6-0.8c-0.1-0.3-0.2-0.6-0.2-0.9l2.6-6h10.3L20.5,46.1z M12.7,42.3l0.5,9.6h-1
			L12.7,42.3z M15.2,52.8h-5v-0.5h5V52.8z M13.2,54.5v1H12L13.2,54.5z M12.1,53.8v-0.6h0.8L12.1,53.8z M13.2,53.4V54L12,55v-0.6
			L13.2,53.4z M14.4,55.9c-0.1,0.4-0.3,0.7-0.6,1c-0.3,0.3-0.7,0.4-1.1,0.4c-0.4,0-0.8-0.2-1.1-0.4c-0.3-0.3-0.5-0.6-0.6-1H14.4z
			 M20.9,46.1l-2.8-6.3c0,0,0-0.1,0-0.1s-0.1,0-0.1,0h-5l-0.1-1.4c0-0.1,0-0.1-0.1-0.2c0,0-0.1-0.1-0.2-0.1s-0.1,0-0.2,0.1
			c0,0-0.1,0.1-0.1,0.2v1.4h-5c-0.1,0-0.1,0-0.1,0.1L4.4,46v0.1c0,0.8,0.3,1.5,0.8,2c0.5,0.5,1.3,0.8,2,0.8c0.8,0,1.5-0.3,2-0.8
			c0.5-0.5,0.8-1.3,0.8-2V46l-2.3-5.2h4.3l-0.5,10.9H10c-0.1,0-0.1,0-0.2,0.1c0,0-0.1,0.1-0.1,0.2v0.9c0,0.1,0,0.1,0.1,0.2
			c0,0,0.1,0.1,0.2,0.1h1.8l-0.1,2.4h-0.8v0.1c0,0.5,0.2,1,0.6,1.4c0.4,0.4,0.9,0.6,1.4,0.6c0.5,0,1-0.2,1.4-0.6s0.6-0.9,0.6-1.4
			v-0.1H14l-0.1-2.4h1.8c0.1,0,0.1,0,0.2-0.1c0,0,0.1-0.1,0.1-0.2V52c0-0.1,0-0.1-0.1-0.2c0,0-0.1-0.1-0.2-0.1h-1.9l-0.5-10.9h4.4
			L15.4,46v0.1c0,0.8,0.3,1.5,0.9,2c0.5,0.5,1.3,0.8,2,0.9c0.4,0,0.7-0.1,1.1-0.2c0.3-0.2,0.6-0.4,0.9-0.6c0.2-0.3,0.4-0.6,0.6-0.9
			C20.9,46.8,20.9,46.5,20.9,46.1z M24.2,56c0,0,0-0.1,0-0.1c0,0-0.1-0.1-0.1-0.1c0,0-0.1,0-0.1,0c0,0-0.1,0-0.1,0.1
			c0,0-0.1,0.1-0.1,0.1c0,0,0,0.1,0,0.1c0,0,0.1,0.1,0.1,0.1c0,0,0.1,0,0.1,0C24.2,56.3,24.2,56.2,24.2,56z M22.2,61.9
			c0,0.2,0.1,0.4,0.2,0.5c0.1,0.1,0.3,0.2,0.5,0.2c0.2,0,0.4-0.1,0.5-0.2c0.1-0.1,0.2-0.3,0.2-0.5c0-0.2-0.1-0.4-0.2-0.5
			c-0.1-0.1-0.3-0.2-0.5-0.2c-0.2,0-0.4,0.1-0.5,0.2C22.2,61.6,22.1,61.8,22.2,61.9z M31,41.8c0,0.1,0,0.1,0.1,0.2
			c0,0.1,0.1,0.1,0.2,0.1c0.1,0,0.1,0,0.2,0c0.1,0,0.1-0.1,0.2-0.1c0.1-0.1,0.1-0.1,0.1-0.2c0-0.1,0-0.1,0-0.2
			c0-0.1-0.1-0.1-0.1-0.2c-0.1,0-0.1-0.1-0.2-0.1c-0.1,0-0.2,0-0.3,0.1C31,41.6,31,41.7,31,41.8z M39.9,58.6l-0.3-0.1l-1.9-2.6v-0.1
			c0-0.1,0-0.2-0.1-0.3c0-0.1-0.1-0.2-0.2-0.2L37.4,55l-0.1-0.1l-0.1-0.1v-0.6l2.8,4.3V58.6z M37,55l0.1,0.1l0.1,0.1
			c0,0.1,0.1,0.1,0.1,0.3c0,0.6-0.1,1.1-0.3,1.6V57c0-0.3-0.1-0.4-0.3-0.6l-0.3-0.3c-0.1-0.1-0.2-0.1-0.3-0.3
			c-0.1-0.1-0.1-0.2-0.1-0.4v-0.1c0-0.3,0-0.5-0.1-0.8c-0.1-0.2-0.2-0.5-0.4-0.6c-0.3-0.3-0.5-0.3-0.8-0.4c-0.4-0.1-0.8-0.4-1-0.8
			c-0.4-0.5,0.1-1.1,0.4-1.5l0.1,0.1l0.1,0.1c0,0.1,0.1,0.1,0.1,0.3c0,0,0.1,0.1,0.1,0.2c0,0.1,0,0.1,0,0.2v0.3
			c0.1,0.1,0.2,0.1,0.3,0.1h0.6c0.1,0,0.4,0,0.4,0.1c0.1,0,0.2,0.1,0.3,0.2c0.1,0.1,0.1,0.2,0.1,0.4v0.4C36.5,54.5,36.7,54.9,37,55z
			 M36,52.4h-0.6L35,51.9c-0.1-0.1-0.1-0.3-0.3-0.4v-0.1l-0.1-0.3h0.8L36,52.4z M35.6,50.8c-0.1,0-0.1-0.1-0.3-0.1h-0.6
			c-0.1,0-0.1,0-0.2,0c-0.1,0-0.1,0.1-0.2,0.1c-0.4,0.1-0.8,0.1-1.3,0.1c-0.2,0-0.4,0-0.5-0.1c-0.2-0.1-0.3-0.2-0.5-0.3
			c-0.6-0.6-0.1-1.6,0.1-2c0.2,0.2,0.3,0.4,0.4,0.6v0.4c0.1,0.1,0.1,0.1,0.2,0.2c0.1,0,0.2,0.1,0.3,0.1c0.3,0,0.5,0,0.8-0.1h0.3
			c0.2-0.1,0.5-0.1,0.8-0.1c0.2,0,0.3,0,0.5,0.1c0.2,0.1,0.3,0.2,0.4,0.3C35.9,50,36,50.3,35.6,50.8z M32.1,47.5h0.6l1.1,1.8
			c-0.1,0-0.1,0-0.2,0c-0.1,0-0.1,0.1-0.2,0.1h-0.4l-1.3-1.8C31.9,47.5,32,47.5,32.1,47.5z M33.8,48c-0.3-0.4-0.5-1-1-1h-1.4
			c-0.6,0.1-1.3-0.1-1.8-0.5c-0.5-0.4-0.9-1-1-1.6c-0.1-0.6-0.1-1.3-0.1-1.9c0-0.2,0-0.4,0.1-0.5v-0.1c0-0.1,0.1-0.3,0.1-0.4
			c0-0.1,0.1-0.1,0.1-0.3c0-0.1,0.1-0.1,0.1-0.3c0,0,0-0.1,0-0.1c0,0,0.1,0,0.1,0c0.1-0.2,0.2-0.3,0.4-0.4c0.3-0.3,0.6-0.4,1-0.4
			c0.3,0,0.6,0.1,0.8,0.3c0.2,0.2,0.4,0.4,0.5,0.7c0.1,0.6-0.1,1.2-0.4,1.8c-0.3-0.1-0.6-0.3-0.8-0.6c0-0.1-0.1-0.1-0.3,0
			c-0.2,0.2-0.4,0.4-0.5,0.6c0,0.1-0.1,0.2-0.1,0.3v0.1c0,0.3-0.1,0.5-0.1,0.8v0.4c0,0.1,0,0.1,0.1,0.3v0.1c0,0.1,0.1,0.3,0.1,0.4
			c0.2,0.2,0.4,0.4,0.6,0.5c0.2,0.1,0.5,0.2,0.8,0.1h1c0.2,0,0.4,0,0.6,0.1c0.2,0.1,0.4,0.2,0.5,0.3C34.2,47,34,47.6,33.8,48z
			 M31.6,45.6H31c0,0-0.1,0-0.1,0c0,0,0-0.1,0-0.1h-0.1l-0.1-0.1c0,0-0.1-0.1-0.1-0.2c0-0.1,0-0.1,0-0.2c-0.1-0.3-0.1-0.7,0-1
			L31.6,45.6z M28.7,41.2c-0.1,0.1-0.1,0.3-0.3,0.4v0.1c0,0.1-0.1,0.3-0.1,0.5v0.3l-1.4-1.9l-0.1-0.1c-0.1,0-0.4,0.1-0.5,0.1
			c-0.2,0-0.5-0.1-0.6-0.3c-0.3-0.4,0.1-1.1,0.8-1.6c0.3-0.2,0.7-0.4,1.1-0.4c0.2,0,0.5,0.1,0.6,0.3c0.3,0.3,0.1,0.8-0.3,1.1v0.3
			L28.7,41.2z M40.3,59.2c0.1,0,0.1-0.1,0.1-0.3l-0.3-0.9v-0.1L37,53.1c0-0.1,0-0.3-0.1-0.4c-0.1-0.1-0.2-0.2-0.4-0.2l-0.9-1.4
			c0.5-0.6,0.6-1.1,0.4-1.6c-0.3-0.5-0.9-0.6-1.8-0.5L34,48.5c0.3-0.3,0.5-0.7,0.5-1.2c0-0.4-0.1-0.9-0.4-1.2
			c-0.2-0.2-0.4-0.3-0.6-0.4c-0.2-0.1-0.5-0.1-0.8-0.1h-0.5l-1.5-2.3c0,0,0-0.1,0-0.1c0,0,0.1,0,0.1,0c0.2,0.3,0.5,0.4,0.9,0.5h0.1
			c0.2-0.3,0.4-0.6,0.5-1c0.1-0.4,0.1-0.8,0.1-1.1c-0.1-0.4-0.3-0.7-0.7-1c-0.3-0.2-0.7-0.4-1.1-0.4c-0.2,0-0.5,0-0.7,0.1
			c-0.2,0.1-0.4,0.2-0.6,0.4L29.2,41l-0.8-1.1c0.2-0.2,0.3-0.5,0.3-0.7c0-0.3-0.1-0.6-0.2-0.8c-0.1-0.2-0.3-0.3-0.4-0.4
			c-0.2-0.1-0.4-0.1-0.6-0.1c-0.5,0-1,0.2-1.4,0.5c-0.4,0.2-0.7,0.6-0.9,1c-0.2,0.4-0.2,0.9,0,1.3c0.1,0.2,0.3,0.3,0.4,0.4
			c0.2,0.1,0.4,0.1,0.6,0.1h0.5l1.5,2.1c0,0.7,0,1.3,0.1,2c0,0.4,0.1,0.7,0.3,1.1c0.2,0.3,0.4,0.6,0.7,0.9c0.3,0.2,0.6,0.4,1,0.5
			s0.7,0.1,1.1,0.1l0.5,0.6c-0.5,0.6-1.1,1.9-0.3,2.8c0.3,0.3,0.8,0.5,1.3,0.5c0.4,0,0.8,0,1.1-0.1c-0.3,0.3-1,1.1-0.5,2
			c0.1,0.2,0.3,0.4,0.5,0.6c0.2,0.2,0.4,0.3,0.7,0.3c0.3,0.1,0.4,0.1,0.6,0.3c0.2,0.1,0.3,0.3,0.3,0.5c0.1,0.2,0.1,0.4,0,0.6v0.1
			c0,0.5,0.3,0.6,0.5,0.9l0.3,0.3c0.1,0.1,0.1,0.3,0.3,0.4c0.1,0.1,0.1,0.5,0.4,0.5c0.1,0,0.2-0.1,0.3-0.1c0.2-0.4,0.3-0.9,0.4-1.4
			l1.6,2.3L40.3,59.2z M42.4,36.1v24.1H28.7c-0.5-1.5-1.5-2.8-2.9-3.6c-0.1,0-0.3-0.3-0.4-0.4c-0.3-0.4-0.6-1-1.4-0.9
			c-0.4,0.1-0.6,0.1-0.8,0.3V36.1H42.4z M22.9,22.1V19l4.3,5.8L22.9,22.1z M27.4,24.6l-4.3-5.8l2.9,1V20L27.4,24.6z M26.4,19.3
			l-0.1,0.1l-3-1l6.9-2.3l-2.3,1.9l-0.4,0.3L26.4,19.3z M30.1,16.1l-6.8,2.3l1.8-2.5l1.5,0.1h0.5L30.1,16.1z M24.8,15.6L23,18.1
			v-7.2l1.3,3.1v0.1L24.8,15.6z M23.2,57.2c0.1,0.1,0.2,0.1,0.4,0.1c1.1,0.1,2.2,0.6,3,1.5c0.8,0.9,1.1,2,1.1,3.1
			c0,0.7-0.1,1.4-0.5,2l-1.1-2L23.2,57.2z M22.8,57.4l2,3.4c-0.6-0.4-1.3-0.6-2-0.6s-1.4,0.2-2,0.6L22.8,57.4z M18.5,64.1
			c-0.3-0.6-0.5-1.3-0.5-2c0-1.2,0.5-2.3,1.3-3.2c0.8-0.9,1.9-1.4,3.1-1.6l-2.8,4.8L18.5,64.1z M26.8,64.6c-0.4,0.7-1,1.2-1.7,1.6
			c-0.7,0.4-1.5,0.6-2.3,0.6c-0.8,0-1.6-0.2-2.3-0.6s-1.3-0.9-1.7-1.6H26.8z M25.7,62.3l1.1,1.9h-7.9l1.1-1.9c0.4,0.4,0.8,0.8,1.3,1
			c0.5,0.2,1,0.4,1.6,0.4c0.5,0,1.1-0.1,1.5-0.4C24.9,63.1,25.3,62.8,25.7,62.3z M24,60.9c0.5,0.3,1,0.7,1.4,1.1
			c-0.4,0.5-0.8,0.9-1.4,1.1c0.1-0.2,0.2-0.3,0.3-0.5c0.1-0.2,0.1-0.4,0.1-0.6c0-0.2,0-0.4,0-0.6C24.3,61.3,24.2,61.1,24,60.9z
			 M21.1,61.9c0,0.4,0.1,0.8,0.4,1.1c-0.5-0.3-1-0.7-1.4-1.1c0.4-0.5,0.8-0.9,1.4-1.1C21.3,61.1,21.2,61.5,21.1,61.9z M22.4,60.7
			h0.8c0.3,0.1,0.5,0.2,0.7,0.4c0.2,0.2,0.3,0.5,0.3,0.8c0,0.3-0.1,0.6-0.3,0.9s-0.5,0.4-0.8,0.5h-0.5c-0.3-0.1-0.6-0.2-0.8-0.5
			s-0.3-0.6-0.3-0.9c0-0.3,0.1-0.6,0.3-0.8C21.9,60.9,22.1,60.8,22.4,60.7z M23,56.3c0.1,0.1,0.1,0.2,0.1,0.3c-0.1,0-0.1,0-0.2,0.1
			c0,0-0.1,0.1-0.1,0.2v0.1h-0.1c-1.3,0-2.5,0.5-3.4,1.3c-0.9,0.8-1.5,2-1.6,3.2C17.6,62.7,18,64,18.7,65c0.7,1,1.8,1.7,3,2
			c1.2,0.3,2.5,0.1,3.6-0.5s1.9-1.6,2.3-2.8c0.4-1.2,0.4-2.5-0.1-3.6c-0.5-1.2-1.4-2.1-2.5-2.6c-0.5-0.2-0.9-0.3-1.4-0.4
			c-0.1,0-0.3,0-0.3-0.1h0.3c0.1,0,0.1,0,0.1-0.1v-0.3c-0.3-0.3-0.4-0.5-0.5-0.5c0.2-0.1,0.4-0.2,0.6-0.3c0.5-0.1,0.8,0.3,1,0.6
			c0.1,0.2,0.3,0.4,0.5,0.5c0.9,0.5,1.7,1.2,2.2,2.1c0.5,0.9,0.8,1.9,0.8,2.9c0,1.1-0.3,2.2-1,3.1c-0.6,0.9-1.5,1.7-2.5,2.1
			c-1,0.4-2.2,0.5-3.3,0.3s-2.1-0.8-2.9-1.5c-0.8-0.8-1.3-1.8-1.5-2.9c-0.2-1.1-0.1-2.2,0.3-3.3c0.4-1,1.2-1.9,2.1-2.5
			c0.9-0.6,2-1,3.1-1H23z M22.7,22.1L21.4,23h-0.1l-2.9,1.9l4.3-5.8V22.1z M22.7,18.1l-1.8-2.5l1.8-4.7V18.1z M22.4,18.2l-6.8-2.3
			l3.1-0.1h0.5l1.5-0.1L22.4,18.2z M15.5,16.3l6.8,2.3l-2.9,1l-0.1-0.1l-1.1-0.9l-0.4-0.3L15.5,16.3z M19.5,19.7l2.9-1l-4.1,5.9
			L19.5,19.7z M22.5,36.1v19.9c-1.3,0.1-2.5,0.5-3.5,1.3s-1.7,1.9-2.1,3.1H3.3V36.1H22.5z M3.3,60.9h13.6c0,0.4-0.1,0.8-0.1,1
			c0,1.6,0.6,3.1,1.7,4.2c1.1,1.1,2.6,1.8,4.1,1.8v19.4c-0.8-0.5-1.7-0.7-2.6-0.6H5.2c-0.3,0-0.5,0-0.8-0.1S4,86.4,3.8,86.2
			c-0.2-0.2-0.3-0.4-0.4-0.7c-0.1-0.2-0.1-0.5-0.1-0.8V60.9z M23.2,68.1c1.6-0.1,3-0.7,4.1-1.9c1.1-1.1,1.7-2.6,1.7-4.2
			c0-0.3,0-0.7-0.1-1h13.6V85c0,0.3,0,0.5-0.1,0.8c-0.1,0.2-0.2,0.5-0.4,0.7s-0.4,0.3-0.7,0.4c-0.2,0.1-0.5,0.1-0.8,0.1H25.8
			c-0.9,0-1.8,0.2-2.6,0.6V68.1z M23.2,34.9V22.6l0.9,0.5l2.5,7.7c0,0,0,0.1,0,0.1c0,0,0.1,0,0.1,0h0.3l0.3-0.1
			c0.1,0,0.1-0.1,0.1-0.3L25,23.7l2.5,1.6l5,6.9l0.1,0.1h0.1l0.3-0.1l0.1-0.1V32l-5.2-7l-0.9-2.9l5.9,4.3h0.1c0,0,0,0,0,0
			c0,0,0,0,0,0c0,0,0,0,0,0c0,0,0,0,0,0l0.1-0.3c0,0,0,0,0-0.1c0,0,0,0,0-0.1c0,0,0,0,0-0.1c0,0,0,0,0-0.1L26.9,21l-0.3-0.9L38.9,24
			H39l0.1-0.1l0.1-0.3c0-0.1,0-0.3-0.1-0.3l-12.1-3.9l0.8-0.6h8c0.1,0,0.1,0,0.2-0.1c0,0,0.1-0.1,0.1-0.2v-0.4h-7.5l2.4-1.9l8.2-2.6
			c0.1,0,0.1-0.1,0.1-0.3l-0.1-0.3c0,0,0-0.1,0-0.1c0,0-0.1,0-0.1,0h-0.1l-8.3,2.8l-2.9-0.1l5.9-4.3c0.1-0.1,0.1-0.3,0-0.3l-0.1-0.3
			l-0.1-0.1h-0.1l-6.5,4.8h-1l7.5-10.3V5.1c0,0,0-0.1,0-0.1c0,0-0.1,0-0.1,0l-0.4-0.5c0,0,0,0-0.1,0c0,0,0,0-0.1,0c0,0,0,0-0.1,0
			c0,0,0,0-0.1,0l-7.5,10.3l-0.4-0.9l2.5-7.7V6.1L26.9,6l-0.3-0.1c-0.1,0-0.3,0-0.3,0.1l-2.3,6.9L23,10.2V1.6c0-0.1,0-0.1-0.1-0.2
			c0,0-0.1-0.1-0.2-0.1h-0.3c-0.1,0-0.1,0-0.2,0.1c0,0-0.1,0.1-0.1,0.2v8.7L21.1,13l-2.3-6.9c0,0,0-0.1,0-0.1c0,0-0.1,0-0.1,0h-0.1
			l-0.3,0.1c0.1,0,0.1,0.1,0.1,0.3l2.5,7.7l-0.4,0.9L13.1,4.6c0-0.1-0.1-0.1-0.3-0.1l-0.3,0.1l-0.1,0.1v0.1L20,15.2h-1l-6.5-4.8
			h-0.1c0,0-0.1,0-0.1,0c0,0,0,0.1,0,0.1l-0.1,0.3c0,0,0,0,0,0.1c0,0,0,0,0,0.1c0,0,0,0,0,0.1c0,0,0,0,0,0.1l5.9,4.3l-2.9,0.1
			l-8.3-2.8H6.7l-0.1,0.1l-0.1,0.5c0,0.1,0,0.3,0.1,0.3l8.2,2.6l2.4,1.9H10c-0.1,0-0.1,0-0.2,0.1c0,0-0.1,0.1-0.1,0.2v0.3
			c0,0.1,0,0.1,0.1,0.2c0,0,0.1,0.1,0.2,0.1h8l0.8,0.6L6.6,23.4c-0.1,0-0.1,0.1-0.1,0.3l0.1,0.3c0,0,0,0.1,0,0.1c0,0,0.1,0,0.1,0
			h0.3l12.2-3.9L18.9,21l-6.7,4.8c-0.1,0.1-0.1,0.3,0,0.3l0.1,0.3l0.1,0.1h0.1l5.9-4.3L17.8,25l-5.2,7v0.1c0,0,0,0.1,0,0.1
			c0,0,0.1,0,0.1,0l0.3,0.1h0.1c0,0,0.1,0,0.1,0c0,0,0-0.1,0-0.1l5-6.9l2.5-1.6l-2.3,6.9v0.1l0.1,0.1l0.3,0.1c0.1,0,0.1,0,0.3-0.1
			l2.5-7.7l0.9-0.5V35H2.2v49.8c0,0.4,0,0.8,0.2,1.2c0.1,0.4,0.4,0.7,0.6,1c0.3,0.3,0.6,0.5,1,0.6c0.4,0.1,0.8,0.2,1.2,0.2h14.6
			c0.6,0,2.5,0.1,2.5,1v0.5h1.1v-0.5c0-0.8,1.8-1,2.5-1h14.6c0.4,0,0.8,0,1.2-0.2c0.4-0.1,0.7-0.4,1-0.6c0.3-0.3,0.5-0.6,0.6-1
			c0.1-0.4,0.2-0.8,0.2-1.2V34.9H23.2z"/>
		<path class="st1" d="M53.5,34.9h-1.8v52.9h1.8V34.9z"/>
		<path class="st1" d="M253.6,74.5c-0.1,0-0.1,0.1-0.3,0.1c-0.1,0,0,0.1-0.1,0.3v8.2h-0.6l-5.2-7.4v6.7c0,0.1,0,0.3,0.1,0.3
			c0.1,0,0.1,0.1,0.3,0.1h0.4v0.1H246v-0.1h0.4c0.1-0.1,0.2-0.1,0.3-0.1c0-0.1,0.1-0.1,0.1-0.3v-7.4c0-0.1-0.1-0.2-0.1-0.3
			c0,0,0-0.1,0-0.1c0,0-0.1,0-0.1,0l-0.1-0.1h-0.3v-0.1h1.8c0.8,1.3,1.6,2.4,2.4,3.5c0.8,1.1,1.6,2.4,2.4,3.5v-6.5
			c0-0.1,0-0.3-0.1-0.3c-0.1,0-0.1-0.1-0.3-0.1H252v-0.1h2.1v0.1C253.8,74.4,253.7,74.4,253.6,74.5z M242.7,77.3
			c-0.1-0.4-0.3-0.9-0.5-1.3c-0.2-0.4-0.5-0.7-0.9-0.9c-0.4-0.2-0.9-0.4-1.4-0.4c-0.5,0-1,0.1-1.4,0.4c-0.4,0.2-0.7,0.5-0.9,0.9
			c-0.2,0.4-0.4,0.8-0.5,1.3c-0.2,0.9-0.2,1.9,0,2.8c0.1,0.4,0.3,0.9,0.5,1.3c0.2,0.4,0.5,0.7,0.9,0.9c0.4,0.2,0.9,0.4,1.4,0.4
			c0.5,0,1-0.1,1.4-0.4c0.4-0.2,0.7-0.5,0.9-0.9c0.2-0.4,0.4-0.8,0.5-1.3c0.1-0.5,0.1-0.9,0.1-1.4C242.9,78.2,242.8,77.7,242.7,77.3
			z M243.8,80.4c-0.2,0.5-0.4,1-0.8,1.4c-0.3,0.4-0.8,0.8-1.3,1c-0.6,0.2-1.2,0.4-1.8,0.4c-0.6,0-1.2-0.1-1.8-0.4
			c-0.5-0.2-0.9-0.6-1.3-1c-0.4-0.4-0.6-0.9-0.8-1.4c-0.2-0.6-0.2-1.2-0.3-1.8c0-0.7,0.1-1.4,0.4-2c0.2-0.5,0.5-1,0.9-1.4
			c0.4-0.4,0.9-0.7,1.4-0.9c0.5-0.2,1-0.3,1.5-0.3c0.5,0,1,0.1,1.5,0.3c0.5,0.2,1,0.5,1.4,0.9c0.4,0.4,0.7,0.9,0.9,1.4
			c0.3,0.6,0.4,1.3,0.4,2C244.1,79.2,243.9,79.8,243.8,80.4z M239,73.8c0.2-0.1,0.3-0.3,0.4-0.5c0.1-0.2,0.2-0.4,0.4-0.5
			c0.1-0.1,0.3-0.4,0.4-0.5l0.4-0.4c0.1-0.1,0.1-0.1,0.3-0.1h0.3c0.1,0,0.1,0,0.3,0.1c0.1,0.1,0.1,0.1,0.1,0.3v0.1l-0.1,0.1
			c-0.3,0.2-0.6,0.5-0.9,0.8c-0.3,0.3-0.6,0.5-0.9,0.8L239,73.8z M231.2,83.1v-0.1h0.4c0.1,0,0.1,0,0.3-0.1l0.1-0.1v-8
			c0-0.1,0-0.1-0.1-0.1c-0.1,0-0.2-0.1-0.3-0.1h-0.4v-0.1h2.5v0.1h-0.4c-0.1,0-0.1,0-0.3,0.1l-0.1,0.1v8c0,0.1,0,0.1,0.1,0.1
			c0.1,0.1,0.2,0.1,0.3,0.1h0.4v0.1H231.2z M228.1,82.9c-0.5,0.1-1,0.2-1.5,0.3c-0.6,0-1.3-0.1-1.9-0.4c-0.5-0.2-1-0.5-1.4-0.9
			c-0.4-0.4-0.7-0.9-0.9-1.4c-0.2-0.6-0.3-1.2-0.3-1.9c0-0.6,0.1-1.2,0.3-1.8c0.2-0.5,0.5-1,0.9-1.5c0.4-0.4,0.9-0.7,1.4-1
			c0.6-0.3,1.2-0.4,1.8-0.4c0.5,0,0.9,0,1.4,0.1h0.3c0.1,0,0.1,0,0.3,0.1c0.1,0.1,0.1,0,0.3,0.1h0.3c0.1,0,0.1,0,0.2-0.1
			c0,0,0.1-0.1,0.1-0.2h0.1v1.5c0,0.2,0,0.4-0.1,0.5c-0.2-0.5-0.6-0.8-1-1.1c-0.5-0.2-1-0.4-1.5-0.4s-1,0.1-1.5,0.4
			c-0.4,0.2-0.7,0.5-1,0.9c-0.3,0.4-0.5,0.8-0.6,1.3c-0.3,1-0.3,2,0,3c0.1,0.5,0.3,0.9,0.6,1.3c0.3,0.4,0.6,0.7,1,0.9
			c0.5,0.2,1,0.3,1.5,0.3h0.6c0.3,0,0.5,0,0.8-0.1c0.2,0,0.4-0.1,0.6-0.1c0.3-0.1,0.4-0.3,0.6-0.4v0.3
			C228.9,82.6,228.5,82.8,228.1,82.9z M216.5,75.5l-1.8,4.3h3.4L216.5,75.5z M218.8,83.1v-0.1c0.3,0,0.4,0,0.5-0.1
			c0,0,0.1-0.1,0.1-0.1c0,0,0-0.1,0-0.1s0-0.1,0-0.1c0,0,0-0.1-0.1-0.1l-0.8-2h-3.9l-0.8,1.8c-0.1,0.2-0.1,0.3-0.1,0.5
			c0,0.1,0.3,0.1,0.5,0.1v0.1h-1.8v-0.1c0.1,0,0.3,0,0.3-0.1c0-0.1,0.1-0.1,0.3-0.1c0.1,0,0.1-0.1,0.1-0.3s0.1-0.1,0.1-0.3l3.3-7.9
			h0.8l3.4,8.3c0.1,0.3,0.3,0.4,0.5,0.4v0.1h-2.4V83.1z M209.8,82.9c-0.5,0.1-1,0.2-1.5,0.3c-0.6,0-1.3-0.1-1.9-0.4
			c-0.5-0.2-1-0.5-1.4-0.9c-0.4-0.4-0.7-0.9-0.9-1.4c-0.2-0.6-0.3-1.2-0.3-1.9c0-0.6,0.1-1.2,0.3-1.8c0.2-0.5,0.5-1,0.9-1.5
			c0.4-0.4,0.9-0.7,1.4-1c0.6-0.3,1.2-0.4,1.8-0.4c0.5,0,0.9,0,1.4,0.1h0.3c0.1,0,0.1,0,0.3,0.1c0.1,0.1,0.1,0,0.3,0.1h0.3
			c0.1,0,0.1,0,0.2-0.1c0,0,0.1-0.1,0.1-0.2h0.1v1.5c0,0.2,0,0.4-0.1,0.5c-0.2-0.5-0.6-0.8-1-1.1c-0.5-0.2-1-0.4-1.5-0.4
			c-0.5,0-1,0.1-1.5,0.4c-0.4,0.2-0.7,0.5-1,0.9c-0.3,0.4-0.5,0.8-0.6,1.3c-0.3,1-0.3,2,0,3c0.1,0.5,0.3,0.9,0.6,1.3
			c0.3,0.4,0.6,0.7,1,0.9c0.5,0.2,1,0.3,1.5,0.3h0.6c0.3,0,0.5,0,0.8-0.1c0.2,0,0.4-0.1,0.6-0.1c0.3-0.1,0.4-0.3,0.6-0.4v0.3
			C210.7,82.6,210.3,82.8,209.8,82.9z M201.7,74.4c-0.1,0-0.3,0-0.3,0.1c0,0.1-0.1,0.1-0.1,0.3v5.3c0,0.4,0,0.9-0.2,1.3
			c-0.2,0.4-0.4,0.8-0.7,1.1c-0.7,0.6-1.5,0.9-2.4,0.9c-0.4,0-0.9,0-1.3-0.2c-0.4-0.2-0.8-0.4-1.1-0.7c-0.3-0.3-0.6-0.7-0.7-1.1
			c-0.2-0.4-0.2-0.9-0.2-1.3v-4.9c0-0.3,0-0.4-0.1-0.5c-0.1-0.1-0.1-0.1-0.4-0.1H194v-0.1h2.4v0.1H196c-0.1,0-0.1,0-0.3,0.1
			c-0.1,0.1-0.1,0.1-0.1,0.3v5.3c0,0.7,0.1,1.3,0.5,1.9c0.2,0.3,0.5,0.5,0.8,0.6c0.3,0.1,0.6,0.2,1,0.2c0.3,0,0.6,0,0.9-0.1
			c0.3-0.1,0.6-0.3,0.8-0.5c0.2-0.2,0.4-0.5,0.5-0.8c0.1-0.3,0.1-0.6,0.1-0.9v-5.5c0-0.1-0.1-0.1-0.3-0.3c-0.1-0.1-0.3-0.1-0.4-0.1
			v-0.1H201.7v0.1V74.4z M185.7,82.2c0,0.1,0,0.1,0.1,0.1c0.1,0.1,0.2,0.1,0.3,0.1h0.5c0.6,0,1.2-0.1,1.8-0.3c0.5-0.1,1-0.3,1.4-0.6
			c0.4-0.3,0.7-0.7,0.9-1.1c0.2-0.6,0.3-1.2,0.3-1.8c0-0.6-0.1-1.1-0.3-1.6c-0.2-0.4-0.4-0.8-0.8-1.1c-0.4-0.3-0.8-0.5-1.3-0.8
			c-0.5-0.2-1.1-0.2-1.6-0.3h-0.5c-0.1,0-0.3,0.1-0.5,0.3v7H185.7z M184.1,82.9h0.4c0.1,0,0.1,0,0.3-0.1c0.1-0.1,0.1-0.2,0.1-0.3v-8
			c0-0.1,0-0.1-0.1-0.3c-0.1-0.1-0.1-0.1-0.3-0.1h-0.4V74h3c0.7,0,1.4,0.1,2,0.3c0.5,0.1,1.1,0.4,1.5,0.8c0.4,0.4,0.7,0.9,1,1.4
			c0.3,0.6,0.4,1.3,0.4,2c0,0.6-0.1,1.2-0.3,1.8c-0.2,0.6-0.6,1.1-1,1.5c-0.5,0.4-1,0.7-1.6,0.9c-0.6,0.1-1.2,0.2-1.9,0.3h-2.9v0.1
			H184.1z M181.8,83.1h-5.9v-0.1c0.3,0,0.4,0,0.5-0.1c0.1-0.1,0.1-0.3,0.1-0.5V75c0-0.3,0-0.5-0.1-0.5c-0.1,0-0.3-0.1-0.5-0.1v-0.1
			h5.8v1.4h-0.1c0-0.1,0-0.2-0.1-0.3c0-0.1-0.1-0.2-0.2-0.3c-0.1-0.1-0.4-0.1-0.8-0.1h-2.9v3.3h3c0.1,0,0.1,0,0.3-0.1
			c0.1-0.1,0.1-0.1,0.1-0.3c0-0.1,0-0.1,0-0.2s0.1-0.1,0.1-0.2h0.1v2h-0.1c0-0.1,0-0.1,0-0.2c0-0.1-0.1-0.1-0.1-0.2
			c0-0.1-0.1-0.1-0.1-0.3c0-0.1-0.1-0.1-0.3-0.1h-3v3.4c0,0.1,0,0.1,0.1,0.1l0.1,0.1h3c0.1,0,0.3-0.1,0.4-0.1c0.1,0,0.3-0.1,0.4-0.3
			c0.1-0.1,0.1-0.3,0.3-0.5h0.3L181.8,83.1z M167.6,74.5c-0.1,0-0.1,0.1-0.3,0.1c-0.1,0,0,0.1-0.1,0.3v8.2h-0.6l-5.2-7.4v6.7
			c0,0.1,0,0.3,0.1,0.3c0.1,0,0.1,0.1,0.3,0.1h0.4v0.1h-2.1v-0.1h0.4c0.1-0.1,0.2-0.1,0.3-0.1c0-0.1,0.1-0.1,0.1-0.3v-7.4
			c0-0.1-0.1-0.2-0.1-0.3c0,0,0-0.1,0-0.1c0,0-0.1,0-0.1,0l-0.1-0.1h-0.3v-0.1h1.8c0.8,1.3,1.6,2.4,2.4,3.5c0.8,1.1,1.6,2.4,2.4,3.5
			v-6.5c0-0.1,0-0.3-0.1-0.3c-0.1,0-0.1-0.1-0.3-0.1H166v-0.1h2.1v0.1C167.9,74.4,167.7,74.4,167.6,74.5z M157.9,83.1H152v-0.1
			c0.3,0,0.4,0,0.5-0.1c0.1-0.1,0.1-0.3,0.1-0.5V75c0-0.3,0-0.5-0.1-0.5c-0.1,0-0.3-0.1-0.5-0.1v-0.1h5.8v1.4h-0.1
			c0-0.1,0-0.2-0.1-0.3c0-0.1-0.1-0.2-0.2-0.3c-0.1-0.1-0.4-0.1-0.8-0.1h-2.9v3.3h3c0.1,0,0.1,0,0.3-0.1c0.1-0.1,0.1-0.1,0.1-0.3
			c0-0.1,0-0.1,0-0.2c0-0.1,0.1-0.1,0.1-0.2h0.1v2h-0.1c0-0.1,0-0.1,0-0.2c0-0.1-0.1-0.1-0.1-0.2c0-0.1-0.1-0.1-0.1-0.3
			c0-0.1-0.1-0.1-0.3-0.1h-3v3.4c0,0.1,0,0.1,0.1,0.1l0.1,0.1h3c0.1,0,0.3-0.1,0.4-0.1c0.1,0,0.3-0.1,0.4-0.3
			c0.1-0.1,0.1-0.3,0.3-0.5h0.3L157.9,83.1z M138.9,82.9l-0.1,0.1h-0.1l-0.1-1.9h0.1c0.1,0.3,0.4,0.6,0.6,0.9
			c0.2,0.2,0.5,0.4,0.9,0.5c0.3,0.1,0.6,0.1,0.9,0.1c0.3,0,0.6-0.1,0.9-0.3c0.3-0.1,0.5-0.3,0.6-0.5c0.1-0.2,0.2-0.5,0.3-0.8
			c0-0.3-0.1-0.6-0.3-0.9c-0.2-0.2-0.5-0.5-0.8-0.6c-0.3-0.2-0.7-0.4-1-0.6c-0.4-0.2-0.7-0.4-1-0.6l-0.8-0.8
			c-0.3-0.3-0.3-0.6-0.3-1.1c0-0.3,0.1-0.6,0.3-0.9c0.1-0.2,0.3-0.4,0.5-0.6c0.1-0.1,0.2-0.2,0.3-0.3c0.1-0.1,0.3-0.1,0.4-0.1
			c0.3-0.1,0.6-0.1,0.9-0.1h0.5c0.1,0,0.4,0.1,0.5,0.1h0.1c0.1,0,0.1,0,0.3,0.1c0.1,0.1,0.1,0,0.3,0.1h0.1c0.1,0,0.1,0,0.2-0.1
			c0,0,0.1-0.1,0.1-0.2h0.1c0,0.4,0.1,0.6,0.1,1v1h-0.1c0-0.2-0.1-0.3-0.2-0.4c-0.1-0.1-0.2-0.2-0.3-0.3c-0.2-0.2-0.5-0.4-0.8-0.5
			c-0.3-0.1-0.6-0.2-0.9-0.1c-0.3,0-0.5,0-0.8,0.1c-0.2,0.1-0.5,0.3-0.6,0.5c-0.1,0.2-0.2,0.5-0.3,0.8c0,0.2,0,0.4,0.1,0.6
			c0.1,0.2,0.3,0.4,0.5,0.5c0.3,0.1,0.5,0.4,0.8,0.5c0.3,0.1,0.5,0.3,0.8,0.5h-0.1c0.3,0.1,0.6,0.3,0.9,0.5c0.3,0.2,0.5,0.4,0.8,0.6
			c0.2,0.2,0.4,0.5,0.5,0.8c0.1,0.3,0.1,0.6,0.1,0.9c0,0.3-0.1,0.7-0.3,1c-0.2,0.3-0.4,0.5-0.6,0.8c-0.2,0.2-0.5,0.4-0.9,0.5
			c-0.3,0.1-0.7,0.1-1,0.1c-0.3,0-0.7,0-1-0.1c-0.4-0.1-0.6-0.1-1-0.3C138.9,82.8,138.9,82.8,138.9,82.9z M135,77.3
			c-0.1-0.4-0.3-0.9-0.5-1.3c-0.2-0.4-0.5-0.7-0.9-0.9c-0.4-0.2-0.9-0.4-1.4-0.4c-0.5,0-1,0.1-1.4,0.4c-0.4,0.2-0.7,0.5-0.9,0.9
			c-0.2,0.4-0.4,0.8-0.5,1.3c-0.2,0.9-0.2,1.9,0,2.8c0.1,0.4,0.3,0.9,0.5,1.3c0.2,0.4,0.5,0.7,0.9,0.9c0.4,0.2,0.9,0.4,1.4,0.4
			c0.5,0,1-0.1,1.4-0.4c0.4-0.2,0.7-0.5,0.9-0.9c0.2-0.4,0.4-0.8,0.5-1.3c0.1-0.5,0.1-0.9,0.1-1.4C135.2,78.2,135.1,77.7,135,77.3z
			 M136,80.4c-0.2,0.5-0.4,1-0.8,1.4c-0.3,0.4-0.8,0.7-1.2,1c-0.6,0.2-1.2,0.4-1.8,0.4c-0.6,0-1.2-0.1-1.8-0.4
			c-0.5-0.2-0.9-0.6-1.3-1c-0.4-0.4-0.6-0.9-0.8-1.4c-0.2-0.6-0.2-1.2-0.3-1.8c0-0.7,0.1-1.4,0.4-2c0.2-0.5,0.5-1,0.9-1.4
			c0.4-0.4,0.9-0.7,1.4-0.9c0.5-0.2,1-0.3,1.5-0.3c0.5,0,1,0.1,1.5,0.3c0.5,0.2,1,0.5,1.4,0.9c0.4,0.4,0.7,0.9,0.9,1.4
			c0.3,0.6,0.4,1.3,0.4,2C136.3,79.3,136.3,79.9,136,80.4z M119.5,82.2c0,0.1,0,0.1,0.1,0.1c0.1,0.1,0.2,0.1,0.3,0.1h0.5
			c0.6,0,1.2-0.1,1.8-0.3c0.5-0.1,1-0.3,1.4-0.6c0.4-0.3,0.7-0.7,0.9-1.1c0.2-0.6,0.3-1.2,0.3-1.8c0-0.6-0.1-1.1-0.3-1.6
			c-0.2-0.4-0.4-0.8-0.8-1.1c-0.4-0.3-0.8-0.5-1.3-0.8c-0.7-0.1-1.3-0.2-2-0.3h-0.5c-0.1,0-0.3,0.1-0.5,0.3v7H119.5z M117.7,82.9
			h0.4c0.1,0,0.1,0,0.3-0.1c0.1-0.1,0.1-0.2,0.1-0.3v-8c0-0.1,0-0.1-0.1-0.3c-0.1-0.1-0.2-0.1-0.3-0.1h-0.4V74h3
			c0.7,0,1.4,0.1,2,0.3c0.5,0.1,1.1,0.4,1.5,0.8c0.4,0.4,0.7,0.9,1,1.4c0.3,0.6,0.4,1.3,0.4,2c0,0.6-0.1,1.2-0.3,1.8
			c-0.2,0.6-0.6,1.1-1,1.5c-0.5,0.4-1,0.7-1.6,0.9c-0.6,0.1-1.2,0.2-1.9,0.3h-2.9v0.1H117.7z M111.3,75.5l-1.8,4.3h3.4L111.3,75.5z
			 M113.5,83.1v-0.1c0.3,0,0.4,0,0.5-0.1c0,0,0.1-0.1,0.1-0.1c0,0,0-0.1,0-0.1s0-0.1,0-0.1c0,0,0-0.1-0.1-0.1l-0.8-2h-3.9l-0.8,1.8
			c-0.1,0.2-0.1,0.3-0.1,0.5c0,0.1,0.3,0.1,0.5,0.1v0.1h-1.8v-0.1c0.1,0,0.3,0,0.3-0.1c0-0.1,0.1-0.1,0.3-0.1s0.1-0.1,0.1-0.3
			s0.1-0.1,0.1-0.3l3.3-7.9h0.8l3.4,8.3c0.1,0.3,0.3,0.4,0.5,0.4v0.1h-2.4V83.1z M105,83.1h-6.7v-0.5l5.3-7.7h-3.8
			c-0.3,0-0.5,0.1-0.8,0.3c-0.2,0.2-0.3,0.5-0.4,0.8h-0.1l0.1-1.5h6.3v0.5l-5.3,7.5h4.1c0.3,0,0.5-0.1,0.8-0.3
			c0.2-0.2,0.3-0.5,0.4-0.8h0.1L105,83.1z M95.7,74.5c-0.1,0-0.1,0.1-0.3,0.1s0,0.1-0.1,0.3v8.2h-0.6l-5.2-7.4v6.7
			c0,0.1,0,0.3,0.1,0.3c0.1,0,0.1,0.1,0.3,0.1h0.4v0.1h-2.1v-0.1h0.4c0.1,0,0.1-0.1,0.3-0.1c0.1,0,0.1-0.1,0.1-0.3v-7.4
			c0-0.1-0.1-0.2-0.1-0.3c0,0,0-0.1,0-0.1c0,0-0.1,0-0.1,0l-0.1-0.1h-0.3v-0.1H90c0.8,1.3,1.6,2.4,2.4,3.5c0.8,1.1,1.6,2.4,2.4,3.5
			v-6.5c0-0.1,0-0.3-0.1-0.3c-0.1,0-0.1-0.1-0.3-0.1h-0.4v-0.1h2.1v0.1C95.9,74.4,95.8,74.4,95.7,74.5z M81.7,75.5l-1.6,4.3h3.4
			L81.7,75.5z M84,83.1v-0.1c0.3,0,0.4,0,0.5-0.1c0,0,0.1-0.1,0.1-0.1c0,0,0-0.1,0-0.1s0-0.1,0-0.1c0,0,0-0.1-0.1-0.1l-0.8-2h-3.9
			l-0.8,1.8C79,82.3,79,82.5,79,82.7c0,0.1,0.3,0.1,0.5,0.1v0.1h-1.9v-0.1c0.1,0,0.3,0,0.3-0.1c0-0.1,0.1-0.1,0.3-0.1
			c0.1,0,0.1-0.1,0.1-0.3s0.1-0.1,0.1-0.3l3.3-7.9h0.8l3.4,8.3c0.1,0.3,0.3,0.4,0.5,0.4v0.1H84V83.1z M77.7,74.6
			c-0.1,0.1-0.1,0.3-0.3,0.4l-3.1,8.2h-0.5L70.4,75c-0.1-0.1-0.1-0.3-0.3-0.4c0,0-0.1-0.1-0.2-0.1c-0.1,0-0.1,0-0.2,0v-0.1h2.3v0.1
			h-0.5l-0.1,0.1v0.3l2.6,6.7l2.4-6.4c0.1-0.2,0.1-0.3,0.1-0.5c0-0.1-0.3-0.1-0.5-0.3v-0.1H78v0.1L77.7,74.6z M65.6,75.5l-1.8,4.3
			h3.4L65.6,75.5z M67.9,83.1v-0.1c0.3,0,0.4,0,0.5-0.1c0,0,0.1-0.1,0.1-0.1c0,0,0-0.1,0-0.1s0-0.1,0-0.1c0,0,0-0.1-0.1-0.1l-0.9-2
			h-3.9l-0.8,1.8c-0.1,0.2-0.1,0.3-0.1,0.5c0,0.1,0.3,0.1,0.5,0.1v0.1h-1.8v-0.1c0.1,0,0.3,0,0.3-0.1c0-0.1,0.1-0.1,0.3-0.1
			c0.1,0,0.1-0.1,0.1-0.3s0.1-0.1,0.1-0.3l3.3-7.9h0.8l3.4,8.3c0.1,0.3,0.3,0.4,0.5,0.4v0.1h-2.3V83.1z"/>
		<path class="st1" d="M248.9,67.1l-0.1,0.1h-0.1l-0.1-1.9h0.1c0.1,0.3,0.4,0.6,0.6,0.9c0.2,0.2,0.5,0.4,0.9,0.5
			c0.3,0.1,0.6,0.1,0.9,0.1c0.3,0,0.6-0.1,0.9-0.3c0.3-0.1,0.5-0.3,0.6-0.5c0.1-0.2,0.2-0.5,0.3-0.8c0-0.3-0.1-0.6-0.3-0.9
			c-0.2-0.2-0.5-0.5-0.8-0.6c-0.3-0.2-0.7-0.4-1-0.6c-0.4-0.2-0.7-0.4-1-0.6l-0.8-0.8c-0.3-0.3-0.3-0.6-0.3-1.1
			c0-0.3,0.1-0.6,0.3-0.9c0.1-0.3,0.4-0.5,0.6-0.6c0.1-0.1,0.2-0.2,0.3-0.3c0.1-0.1,0.3-0.1,0.4-0.1c0.3-0.1,0.6-0.1,0.9-0.1h0.5
			c0.1,0,0.4,0.1,0.5,0.1h0.1c0.1,0,0.1,0,0.3,0.1c0.1,0.1,0.1,0,0.3,0.1h0.1c0.1,0,0.1,0,0.2-0.1c0,0,0.1-0.1,0.1-0.2h0.1
			c0,0.4,0.1,0.6,0.1,1v1h-0.1c-0.1-0.3-0.3-0.6-0.5-0.9c-0.2-0.2-0.5-0.4-0.8-0.5c-0.3-0.1-0.6-0.2-0.9-0.1c-0.3,0-0.5,0-0.8,0.1
			c-0.2,0.1-0.5,0.3-0.6,0.5c-0.1,0.2-0.2,0.5-0.3,0.8c0,0.2,0,0.4,0.1,0.6c0.1,0.1,0.3,0.4,0.5,0.5c0.3,0.1,0.5,0.4,0.8,0.5
			c0.3,0.1,0.5,0.3,0.8,0.5h-0.1c0.3,0.1,0.6,0.3,0.9,0.5c0.3,0.2,0.5,0.4,0.8,0.6c0.2,0.2,0.4,0.5,0.5,0.8c0.1,0.3,0.2,0.7,0.1,1
			c0,0.3-0.1,0.7-0.3,1c-0.2,0.3-0.4,0.5-0.6,0.8c-0.2,0.2-0.5,0.4-0.9,0.5c-0.3,0.1-0.7,0.1-1,0.1c-0.3,0-0.7,0-1-0.1
			c-0.4-0.1-0.6-0.1-1-0.3C249.1,67.1,249.1,67.1,248.9,67.1z M243.8,61.6c-0.1-0.4-0.3-0.9-0.5-1.3c-0.2-0.4-0.5-0.7-0.9-0.9
			c-0.4-0.2-0.9-0.4-1.4-0.4c-0.5,0-1,0.1-1.4,0.4c-0.4,0.2-0.7,0.5-0.9,0.9c-0.2,0.4-0.4,0.8-0.5,1.3c-0.2,0.9-0.2,1.9,0,2.8
			c0.1,0.4,0.3,0.9,0.5,1.3c0.2,0.4,0.5,0.7,0.9,0.9c0.4,0.2,0.9,0.4,1.4,0.4c0.5,0,1-0.1,1.4-0.4c0.4-0.2,0.7-0.5,0.9-0.9
			c0.2-0.4,0.4-0.8,0.5-1.3c0.1-0.5,0.1-0.9,0.1-1.4C243.9,62.5,243.9,62,243.8,61.6z M244.8,64.7c-0.2,0.5-0.5,1-0.8,1.5
			c-0.4,0.4-0.8,0.7-1.3,1c-0.6,0.2-1.2,0.4-1.8,0.4c-0.6,0-1.2-0.1-1.8-0.4c-0.5-0.2-0.9-0.6-1.3-1c-0.4-0.4-0.7-0.9-0.8-1.5
			c-0.2-0.6-0.2-1.2-0.3-1.8c0-0.7,0.1-1.4,0.4-2c0.2-0.5,0.5-1,0.9-1.4c0.4-0.4,0.9-0.7,1.4-0.9c0.5-0.2,1-0.3,1.5-0.3
			c0.5,0,1,0.1,1.5,0.3c0.5,0.2,1,0.5,1.4,0.9c0.4,0.3,0.8,0.8,0.9,1.4c0.3,0.6,0.4,1.3,0.4,2C245.2,63.6,245,64.1,244.8,64.7z
			 M231,67.2v-0.1h0.4c0.1,0,0.1,0,0.3-0.1c0.1-0.1,0.1-0.2,0.1-0.3v-8c0-0.1,0-0.1-0.1-0.3c-0.1,0-0.2-0.1-0.3-0.1H231v-0.1h2.5
			v0.4h-0.4c-0.1,0-0.1,0-0.3,0.1c-0.1,0.1-0.1,0.2-0.1,0.3v8c0,0.1,0,0.1,0.1,0.3c0.1,0,0.2,0.1,0.3,0.1h0.4v0.1H231V67.2z
			 M221.5,66.3c0,0.1,0,0.1,0.1,0.1c0.1,0.1,0.2,0.1,0.3,0.1h0.5c0.6,0,1.2-0.1,1.8-0.3c0.5-0.1,1-0.3,1.4-0.6
			c0.4-0.3,0.7-0.7,0.9-1.1c0.2-0.6,0.3-1.2,0.3-1.8c0-0.6-0.1-1.1-0.3-1.6c-0.2-0.4-0.4-0.8-0.8-1.1c-0.4-0.3-0.8-0.6-1.3-0.8
			c-0.5-0.2-1.1-0.2-1.6-0.3h-0.5c-0.1,0-0.3,0.1-0.5,0.3v7H221.5z M219.8,67.1h0.4c0.1,0,0.1,0,0.3-0.1c0.1-0.1,0.1-0.2,0.1-0.3v-8
			c0-0.1,0-0.1-0.1-0.3c-0.1-0.1-0.2-0.1-0.3-0.1h-0.4v-0.1h3c0.7,0,1.4,0.1,2,0.3c0.5,0.1,1.1,0.4,1.5,0.8c0.4,0.4,0.7,0.9,1,1.4
			c0.3,0.6,0.4,1.3,0.4,2c0,0.6-0.1,1.2-0.3,1.8c-0.2,0.6-0.6,1.1-1,1.5c-0.5,0.4-1,0.7-1.6,0.9c-0.6,0.1-1.2,0.2-1.9,0.3H220v0.1
			H219.8z M215.6,58.6c-0.1,0-0.3,0-0.3,0.1c0,0.1-0.1,0.1-0.1,0.3v5.3c0,0.4,0,0.9-0.2,1.3s-0.4,0.8-0.7,1.1
			c-0.7,0.6-1.5,0.9-2.4,0.9c-0.4,0-0.9,0-1.3-0.2c-0.4-0.2-0.8-0.4-1.1-0.7c-0.3-0.3-0.6-0.7-0.7-1.1c-0.2-0.4-0.2-0.9-0.2-1.3
			v-4.9c0-0.3,0-0.4-0.1-0.5c-0.1-0.1-0.1-0.1-0.4-0.1H208v-0.1h2c-0.1,0-0.1,0-0.3,0.1c-0.1,0.1-0.1,0.2-0.1,0.3v5.3
			c0,0.7,0.1,1.3,0.5,1.9c0.2,0.3,0.5,0.5,0.8,0.6c0.3,0.1,0.6,0.2,1,0.2c0.3,0,0.6,0,1-0.1s0.6-0.3,0.8-0.5
			c0.2-0.2,0.4-0.5,0.5-0.8c0.1-0.3,0.1-0.6,0.1-0.9v-5.5c0-0.1-0.1-0.1-0.3-0.3c-0.1-0.1-0.3-0.1-0.4-0.1v-0.1h2V58.6z M204.2,60.1
			c-0.1-0.4-0.1-0.6-0.4-0.8c-0.3-0.1-0.4-0.1-0.8-0.1h-1.6V67c0,0.1,0,0.1,0.1,0.3c0.1,0.1,0.2,0.1,0.3,0.1h0.4v0.1h-2.5v-0.1h0.4
			c0.1,0,0.1,0,0.3-0.1c0.1-0.1,0.1-0.2,0.1-0.3v-7.8h-1.8c-0.3,0-0.5,0.1-0.8,0.3c-0.2,0.2-0.3,0.5-0.4,0.8h-0.1v-1.5h6.8v1.5V60.1
			z M189.2,67.1l-0.1,0.1H189l-0.1-1.9h0.1c0.1,0.3,0.4,0.6,0.6,0.9c0.2,0.2,0.5,0.4,0.9,0.5c0.3,0.1,0.6,0.1,0.9,0.1
			c0.3,0,0.6-0.1,0.9-0.3c0.3-0.1,0.5-0.3,0.6-0.5c0.1-0.2,0.2-0.5,0.3-0.8c0-0.3-0.1-0.6-0.3-0.9c-0.2-0.2-0.5-0.5-0.8-0.6
			c-0.3-0.2-0.7-0.4-1-0.6c-0.4-0.2-0.7-0.4-1-0.6l-0.8-0.8c-0.3-0.3-0.3-0.6-0.3-1.1c0-0.3,0.1-0.6,0.3-0.9
			c0.1-0.2,0.3-0.4,0.5-0.6c0.1-0.1,0.2-0.2,0.3-0.3c0.1-0.1,0.3-0.1,0.4-0.1c0.3,0,0.6-0.1,0.9-0.1h0.5c0.1,0,0.4,0.1,0.5,0.1h0.1
			c0.1,0,0.1,0,0.3,0.1c0.1,0.1,0.1,0,0.3,0.1h0.1c0.1,0,0.1,0,0.2-0.1c0,0,0.1-0.1,0.1-0.2h0.1c0,0.4,0.1,0.6,0.1,1v1h-0.1
			c-0.1-0.3-0.3-0.6-0.5-0.9c-0.2-0.2-0.5-0.4-0.8-0.5c-0.3-0.1-0.6-0.2-0.9-0.1c-0.3,0-0.5,0-0.8,0.1c-0.2,0.1-0.5,0.3-0.6,0.5
			c-0.1,0.2-0.2,0.5-0.3,0.8c0,0.3,0,0.5,0.3,0.6c0.3,0.1,0.3,0.4,0.5,0.5c0.3,0.1,0.5,0.4,0.8,0.5c0.3,0.1,0.5,0.3,0.8,0.5H192
			c0.3,0.1,0.6,0.3,0.9,0.5c0.3,0.2,0.5,0.4,0.8,0.6c0.2,0.2,0.4,0.5,0.5,0.8c0.1,0.3,0.2,0.7,0.1,1c0,0.3-0.1,0.7-0.3,1
			c-0.2,0.3-0.4,0.5-0.6,0.8c-0.2,0.2-0.5,0.4-0.9,0.5c-0.3,0.1-0.7,0.1-1,0.1c-0.3,0-0.7,0-1-0.1c-0.4-0.1-0.6-0.1-1-0.3
			C189.4,67.1,189.4,67.1,189.2,67.1z M185.2,67.2h-5.9v-0.1c0.3,0,0.4,0,0.5-0.1c0.1-0.1,0.1-0.3,0.1-0.5v-7.3c0-0.3,0-0.5-0.1-0.5
			c-0.1,0-0.3-0.1-0.5-0.1v-0.1h5.8v1.4H185c0-0.1,0-0.2-0.1-0.3c0-0.1-0.1-0.2-0.2-0.3c-0.1-0.1-0.4-0.1-0.8-0.1h-2.9v3.3h3
			c0.1,0,0.3,0,0.3-0.1c0-0.1,0.1-0.1,0.1-0.3c0-0.1,0-0.1,0-0.2c0-0.1,0.1-0.1,0.1-0.2h0.1v2h-0.3c0-0.1,0-0.1,0-0.2
			c0-0.1-0.1-0.1-0.1-0.2c0-0.1-0.1-0.1-0.1-0.3c0-0.1-0.1-0.1-0.3-0.1h-3v3.4c0,0.1,0,0.1,0.1,0.1c0,0,0.1,0,0.1,0c0,0,0,0.1,0,0.1
			h3.1c0.1,0,0.3-0.1,0.4-0.1c0.1,0,0.3-0.1,0.4-0.3c0.1-0.1,0.1-0.3,0.3-0.5h0.3L185.2,67.2z M169.9,67.2H164v-0.1
			c0.3,0,0.4,0,0.5-0.1c0.1-0.1,0.1-0.3,0.1-0.5v-7.3c0-0.3,0-0.5-0.1-0.5c-0.1,0-0.3-0.1-0.5-0.1v-0.1h5.8v1.4h-0.1
			c0-0.1,0-0.2,0-0.3c0-0.1-0.1-0.2-0.2-0.3c-0.1-0.1-0.4-0.1-0.8-0.1h-2.9v3.3h3c0.1,0,0.3,0,0.3-0.1c0-0.1,0.1-0.1,0.1-0.3
			c0-0.1,0-0.1,0-0.2c0-0.1,0.1-0.1,0.1-0.2h0.1v2h-0.1c0-0.1,0-0.1,0-0.2c0-0.1-0.1-0.1-0.1-0.2c0-0.1-0.1-0.1-0.1-0.3
			c0-0.1-0.1-0.1-0.3-0.1h-3v3.4c0,0.1,0,0.1,0.1,0.1c0,0,0.1,0,0.1,0c0,0,0,0.1,0,0.1h3.1c0.1,0,0.3-0.1,0.4-0.1
			c0.1,0,0.3-0.1,0.4-0.3c0.1-0.1,0.1-0.3,0.3-0.5h0.3L169.9,67.2z M154.4,66.3c0,0.1,0,0.1,0.1,0.1c0.1,0.1,0.2,0.1,0.3,0.1h0.5
			c0.6,0,1.2-0.1,1.8-0.3c0.5-0.1,1-0.3,1.4-0.6c0.4-0.3,0.7-0.7,0.9-1.1c0.2-0.6,0.3-1.2,0.3-1.8c0-0.6-0.1-1.1-0.3-1.6
			c-0.2-0.4-0.4-0.8-0.8-1.1c-0.4-0.3-0.8-0.6-1.3-0.8c-0.5-0.2-1.1-0.2-1.6-0.3h-0.5c-0.1,0-0.3,0.1-0.5,0.3v7H154.4z M152.8,67.1
			h0.4c0.1,0,0.1,0,0.3-0.1c0.1-0.1,0.1-0.2,0.1-0.3v-8c0-0.1,0-0.1-0.1-0.3c-0.1-0.1-0.2-0.1-0.3-0.1h-0.4v-0.1h3
			c0.7,0,1.4,0.1,2,0.3c0.5,0.1,1.1,0.4,1.5,0.8c0.4,0.4,0.7,0.9,1,1.4c0.3,0.6,0.4,1.3,0.4,2c0,0.6-0.1,1.2-0.3,1.8
			c-0.2,0.6-0.6,1.1-1,1.5c-0.5,0.4-1,0.7-1.6,0.9c-0.6,0.1-1.2,0.2-1.9,0.3H153v0.1H152.8z M142.2,61.6c-0.1-0.4-0.3-0.9-0.5-1.3
			c-0.2-0.4-0.5-0.7-0.9-0.9c-0.4-0.2-0.9-0.4-1.4-0.4c-0.5,0-1,0.1-1.4,0.4c-0.4,0.2-0.7,0.5-0.9,0.9c-0.2,0.4-0.4,0.8-0.5,1.3
			c-0.2,0.9-0.2,1.9,0,2.8c0.1,0.4,0.3,0.9,0.5,1.3c0.2,0.4,0.5,0.7,0.9,0.9c0.4,0.2,0.9,0.4,1.4,0.4c0.5,0,1-0.1,1.4-0.4
			c0.4-0.2,0.7-0.5,0.9-0.9c0.2-0.4,0.4-0.8,0.5-1.3c0.1-0.5,0.1-0.9,0.1-1.4C142.4,62.5,142.4,62,142.2,61.6z M143.3,64.7
			c-0.2,0.5-0.5,1-0.8,1.5c-0.4,0.4-0.8,0.7-1.3,1c-0.6,0.2-1.2,0.4-1.8,0.4c-0.6,0-1.2-0.1-1.8-0.4c-0.5-0.2-1-0.5-1.3-1
			c-0.4-0.4-0.7-0.9-0.8-1.5c-0.2-0.6-0.2-1.2-0.3-1.8c0-0.7,0.1-1.4,0.4-2c0.2-0.5,0.5-1,0.9-1.4c0.4-0.4,0.9-0.7,1.4-0.9
			c0.5-0.2,1-0.3,1.5-0.3c0.5,0,1,0.1,1.5,0.3c0.5,0.2,1,0.5,1.4,0.9c0.4,0.4,0.7,0.9,0.9,1.4c0.3,0.6,0.4,1.3,0.4,2
			C143.6,63.5,143.4,64.1,143.3,64.7z M132.8,60.1c-0.1-0.4-0.1-0.6-0.4-0.8c-0.3-0.1-0.4-0.1-0.8-0.1H130V67c0,0.1,0,0.1,0.1,0.3
			c0.1,0.1,0.2,0.1,0.3,0.1h0.4v0.1h-2.5v-0.1h0.4c0.1,0,0.1,0,0.3-0.1c0.1-0.1,0.1-0.2,0.1-0.3v-7.8h-1.8c-0.3,0-0.5,0.1-0.8,0.3
			c-0.2,0.2-0.3,0.5-0.4,0.8H126v-1.5h6.8v1.5V60.1z M122.2,58.6c-0.1,0-0.3,0-0.3,0.1c0,0.1-0.1,0.1-0.1,0.3v5.3
			c0,0.4,0,0.9-0.2,1.3c-0.2,0.4-0.4,0.8-0.7,1.1c-0.7,0.6-1.5,0.9-2.4,0.9c-0.4,0-0.9,0-1.3-0.2c-0.4-0.2-0.8-0.4-1.1-0.7
			c-0.3-0.3-0.6-0.7-0.7-1.1c-0.2-0.4-0.2-0.9-0.2-1.3v-4.9c0-0.3,0-0.4-0.1-0.5c-0.1-0.1-0.1-0.1-0.4-0.1h-0.3v-0.1h2
			c-0.1,0-0.1,0-0.3,0.1c-0.1,0.1-0.1,0.2-0.1,0.3v5.3c0,0.7,0.1,1.3,0.5,1.9c0.2,0.3,0.5,0.5,0.8,0.6c0.3,0.1,0.6,0.2,1,0.2
			c0.3,0,0.6,0,0.9-0.1s0.6-0.3,0.8-0.5c0.2-0.2,0.4-0.5,0.5-0.8c0.1-0.3,0.2-0.6,0.1-0.9v-5.5c0-0.1-0.1-0.1-0.3-0.3
			c-0.1-0.1-0.3-0.1-0.4-0.1v-0.1h2V58.6z M110.8,60.1c-0.1-0.4-0.1-0.6-0.4-0.8c-0.3-0.1-0.4-0.1-0.8-0.1H108V67
			c0,0.1,0,0.1,0.1,0.3c0.1,0.1,0.2,0.1,0.3,0.1h0.4v0.1h-2.5v-0.1h0.4c0.1,0,0.1,0,0.3-0.1c0.1-0.1,0.1-0.2,0.1-0.3v-7.8h-1.8
			c-0.3,0-0.5,0.1-0.8,0.3c-0.2,0.2-0.3,0.5-0.4,0.8H104v-1.5h6.8v1.5V60.1z M98.2,67.2v-0.1h0.4c0.1,0,0.1,0,0.3-0.1
			c0.1-0.1,0.1-0.2,0.1-0.3v-8c0-0.1,0-0.1-0.1-0.3c-0.1,0-0.2-0.1-0.3-0.1h-0.4v-0.1h2.5v0.4h-0.4c-0.1,0-0.1,0-0.3,0.1
			c-0.1,0.1-0.1,0.2-0.1,0.3v8c0,0.1,0,0.1,0.1,0.3c0.1,0,0.2,0.1,0.3,0.1h0.4v0.1h-2.5V67.2z M94.4,60.1c-0.1-0.4-0.1-0.6-0.4-0.8
			c-0.3-0.1-0.4-0.1-0.8-0.1h-1.6V67c0,0.1,0,0.1,0.1,0.3c0.1,0.1,0.2,0.1,0.3,0.1h0.4v0.1h-2.5v-0.1h0.4c0.1,0,0.1,0,0.3-0.1
			c0.1-0.1,0.1-0.2,0.1-0.3v-7.8h-1.8c-0.3,0-0.5,0.1-0.8,0.3c-0.2,0.2-0.3,0.5-0.4,0.8h-0.1v-1.5h6.8v1.5V60.1z M79.5,67.1
			l-0.1,0.1h-0.1l-0.1-1.9h0.1c0.1,0.3,0.4,0.6,0.6,0.9c0.2,0.2,0.5,0.4,0.9,0.5c0.3,0.1,0.6,0.1,0.9,0.1c0.3,0,0.6-0.1,0.9-0.3
			c0.3-0.1,0.5-0.3,0.6-0.5c0.1-0.2,0.2-0.5,0.3-0.8c0-0.3-0.1-0.6-0.3-0.9c-0.2-0.2-0.5-0.5-0.8-0.6c-0.3-0.2-0.7-0.4-1-0.6
			c-0.4-0.2-0.7-0.4-1-0.6l-0.8-0.8c-0.3-0.3-0.3-0.6-0.3-1.1c0-0.3,0.1-0.6,0.3-0.9c0.1-0.2,0.3-0.4,0.5-0.6
			c0.1-0.1,0.2-0.2,0.3-0.3c0.1-0.1,0.3-0.1,0.4-0.1c0.3,0,0.6-0.1,0.9-0.1h0.5c0.1,0,0.4,0.1,0.5,0.1h0.1c0.1,0,0.1,0,0.3,0.1
			c0.1,0.1,0.1,0,0.3,0.1h0.1c0.1,0,0.1,0,0.2-0.1c0,0,0.1-0.1,0.1-0.2h0.1c0,0.4,0.1,0.6,0.1,1v1h-0.1c-0.1-0.3-0.3-0.6-0.5-0.9
			c-0.2-0.2-0.5-0.4-0.8-0.5c-0.3-0.1-0.6-0.2-0.9-0.1c-0.3,0-0.5,0-0.8,0.1c-0.2,0.1-0.5,0.3-0.6,0.5c-0.1,0.2-0.2,0.5-0.3,0.8
			c0,0.3,0,0.5,0.3,0.6c0.3,0.1,0.3,0.4,0.5,0.5c0.3,0.1,0.5,0.4,0.8,0.5c0.3,0.1,0.5,0.3,0.8,0.5h-0.1c0.3,0.1,0.6,0.3,0.9,0.5
			c0.3,0.2,0.5,0.4,0.8,0.6c0.2,0.2,0.4,0.5,0.5,0.8c0.1,0.3,0.2,0.7,0.1,1c0,0.3-0.1,0.7-0.3,1c-0.2,0.3-0.4,0.5-0.6,0.8
			c-0.2,0.2-0.5,0.4-0.9,0.5c-0.3,0.1-0.7,0.1-1,0.1c-0.3,0-0.7,0-1-0.1c-0.4-0.1-0.6-0.1-1-0.3C79.6,67.1,79.6,67.1,79.5,67.1z
			 M75.5,58.7c-0.1,0-0.1,0.1-0.3,0.1s0,0.1-0.1,0.3v8.3h-0.6l-5.2-7.4v6.7c0,0.1,0,0.3,0.1,0.3c0.1,0,0.1,0.1,0.3,0.1H70v0.1h-2.1
			V67h0.4c0.1,0,0.1-0.1,0.3-0.1c0.1,0,0.1-0.1,0.1-0.3v-7.4c0-0.1-0.1-0.2-0.1-0.3c0,0,0-0.1,0-0.1c0,0-0.1,0-0.1,0l-0.1-0.1H68
			v-0.1h1.8c0.8,1.3,1.6,2.4,2.4,3.5c0.8,1.1,1.6,2.4,2.4,3.5v-6.5c0-0.1,0-0.3-0.1-0.3c-0.1,0-0.1-0.1-0.3-0.1h-0.4v-0.1H76
			C75.7,58.6,75.6,58.7,75.5,58.7z M61.5,67.2v-0.1h0.4c0.1,0,0.1,0,0.3-0.1c0.1-0.1,0.1-0.2,0.1-0.3v-8c0-0.1,0-0.1-0.1-0.3
			c-0.1,0-0.2-0.1-0.3-0.1h-0.4v-0.1H64v0.4h-0.4c-0.1,0-0.1,0-0.3,0.1c-0.1,0.1-0.1,0.2-0.1,0.3v8c0,0.1,0,0.1,0.1,0.3
			c0.1,0,0.2,0.1,0.3,0.1H64v0.1h-2.5V67.2z"/>
		<path class="st1" d="M71.8,39.9c-0.1,0-0.1,0-0.2,0c-0.1,0-0.1,0.1-0.2,0.1c-0.1,0.1-0.1,0.3-0.3,0.4v6.9c0,0.6,0,1.2-0.2,1.7
			c-0.2,0.5-0.5,1-0.9,1.4c-0.9,0.7-2.1,1.1-3.3,1.1c-1.2,0-2.3-0.4-3.3-1.1c-0.4-0.4-0.7-1-0.9-1.5c-0.2-0.6-0.3-1.2-0.2-1.8v-6.5
			c0-0.2,0-0.4-0.1-0.6c0-0.1-0.3-0.3-0.5-0.3h-0.3v-0.1h3.3v0.1h-0.5c-0.1,0-0.3,0-0.3,0.1c0,0.1-0.1,0.1-0.1,0.3v7
			c0,0.9,0.2,1.8,0.8,2.5c0.3,0.3,0.7,0.6,1.1,0.7c0.4,0.2,0.9,0.2,1.3,0.2c0.4,0,0.9,0,1.3-0.2c0.4-0.2,0.8-0.4,1.1-0.7
			c0.6-0.7,0.9-1.5,0.9-2.4v-6.9c0-0.1,0-0.4-0.1-0.4c0-0.1,0-0.1-0.1-0.2c0,0-0.1-0.1-0.2-0.1c-0.1,0-0.3-0.1-0.5-0.1v-0.1h2.8v0.1
			h-0.4V39.9z"/>
		<path class="st1" d="M84.4,40.1c-0.1,0-0.1,0-0.2,0.1c0,0-0.1,0.1-0.1,0.2c0,0.1-0.1,0.3-0.1,0.4v10.9h-0.9l-6.9-9.9v8.9
			c0,0.1,0,0.1,0,0.2c0,0.1,0.1,0.1,0.1,0.2c0,0.1,0.1,0.1,0.3,0.3c0.1,0.1,0.3,0.1,0.5,0.1v0.1h-2.8v-0.1c0.3,0,0.4,0,0.5-0.1
			c0.1,0,0.1,0,0.2-0.1c0,0,0.1-0.1,0.1-0.2c0-0.1,0.1-0.3,0.1-0.4V40.6c0,0-0.1-0.1-0.1-0.2c0-0.1,0-0.1,0-0.2
			c0-0.1-0.1-0.1-0.1-0.3c-0.1-0.1-0.2-0.1-0.3-0.1h-0.4v-0.1h2.3c1,1.6,2.1,3.1,3.3,4.7c1.1,1.5,2.1,3.1,3.3,4.7v-8.5
			c0-0.1,0-0.1,0-0.2c0-0.1-0.1-0.1-0.1-0.2c0-0.1-0.1-0.1-0.3-0.3c-0.1-0.1-0.4-0.1-0.5-0.1v-0.1H85v0.1
			C84.6,39.9,84.5,39.9,84.4,40.1z"/>
		<path class="st1" d="M87.1,51.5v-0.1h0.5c0.1,0,0.3,0,0.3-0.1c0-0.1,0.1-0.1,0.1-0.3V40.3c0-0.1-0.1-0.2-0.1-0.3
			c-0.1,0-0.1-0.1-0.3-0.1h-0.5v-0.1h3.4v0.1H90c-0.1,0-0.3,0-0.3,0.1c0,0.1-0.1,0.1-0.1,0.3V51c0,0.1,0.1,0.2,0.1,0.3
			c0.1,0,0.1,0.1,0.3,0.1h0.5v0.1H87.1z"/>
		<path class="st1" d="M103,40.2c-0.1,0.1-0.1,0.1-0.2,0.2c0,0.1-0.1,0.2-0.1,0.3l-4.3,10.9h-0.8l-4.4-10.9
			c-0.1-0.2-0.2-0.4-0.4-0.5c-0.1-0.1-0.3-0.2-0.5-0.3v-0.1h3v0.1h-0.4c-0.1,0-0.3,0-0.3,0.1c0,0-0.1,0-0.1,0c0,0,0,0.1,0,0.1v0.4
			l3.5,8.9l3.3-8.5c0.1-0.2,0.1-0.5,0.1-0.8c-0.1-0.1-0.2-0.2-0.3-0.2c-0.1,0-0.2-0.1-0.3,0v-0.1h2.5v0.1
			C103.3,40,103.1,40.1,103,40.2z"/>
		<path class="st1" d="M112,51.5h-7.9v-0.1c0.4,0,0.6,0,0.6-0.1c0-0.1,0.1-0.4,0.1-0.8v-9.7c0-0.4,0-0.6-0.1-0.8
			c-0.2-0.1-0.4-0.2-0.6-0.1v-0.1h7.7v1.8h-0.3c0-0.4-0.3-0.8-0.4-0.8c-0.3-0.1-0.6-0.2-0.9-0.1h-3.9V45h4c0.1,0,0.1,0,0.2,0
			c0.1,0,0.1-0.1,0.2-0.1c0.1,0,0.1-0.1,0.3-0.3c0.1-0.1,0.1-0.3,0.1-0.5h0.3v2.6h-0.3c0-0.3,0-0.4-0.1-0.5c0-0.1,0-0.1-0.1-0.2
			c0,0-0.1-0.1-0.2-0.1c0,0-0.1-0.1-0.2-0.1c-0.1,0-0.1,0-0.2,0h-4v4.5c0,0.1,0,0.1,0.1,0.3c0.1,0.1,0.1,0.1,0.3,0.1h4.1
			c0.3,0,0.4-0.1,0.5-0.1l0.4-0.4c0.2-0.2,0.3-0.4,0.4-0.6h0.3L112,51.5z"/>
		<path class="st1" d="M121.3,51.5c-0.2-0.6-0.5-1.1-0.9-1.6c-0.3-0.5-0.6-0.9-0.9-1.4c-0.4-0.4-0.6-0.9-1-1.3l-1.3-1.3h-1.3v4.9
			c0,0.1,0,0.3,0.1,0.3c0.1,0.1,0.2,0.1,0.3,0.1h0.5v0.1h-3.1v-0.1h0.4c0.1,0,0.3,0,0.3-0.1c0.1-0.1,0.1-0.2,0.1-0.3V40.2
			c0-0.1,0-0.3-0.1-0.3c-0.1-0.1-0.2-0.1-0.3-0.1h-0.4v-0.1h4.1c0.5,0,1,0,1.5,0.1c0.4,0.1,0.9,0.3,1.3,0.5c0.4,0.2,0.7,0.6,0.9,1
			c0.3,0.5,0.4,1,0.4,1.5c0,0.4-0.1,0.8-0.3,1.1c-0.1,0.3-0.3,0.6-0.6,0.9c-0.3,0.2-0.6,0.4-1,0.5c-0.4,0.1-0.7,0.2-1.1,0.3
			c0.3,0.2,0.6,0.4,0.8,0.8l0.5,0.5c0.1,0.1,0.3,0.4,0.5,0.5c0.3,0.1,0.4,0.4,0.5,0.6c0.3,0.3,0.5,0.6,0.6,1c0.2,0.4,0.4,0.7,0.6,1
			c0.1,0.3,0.3,0.5,0.5,0.8c0.1,0.3,0.3,0.4,0.4,0.4v0.1h-2V51.5z M116.1,45.2h0.9c0.4,0,0.8,0,1.3-0.1l1.1-0.4
			c0.3-0.2,0.6-0.4,0.8-0.8c0.2-0.4,0.3-0.8,0.3-1.3c0-0.3-0.1-0.7-0.3-1c-0.1-0.3-0.4-0.5-0.6-0.6c-0.3-0.1-0.6-0.3-0.9-0.4
			c-0.3-0.1-0.8-0.1-1-0.1h-0.8c-0.1,0-0.1,0-0.2,0c-0.1,0-0.1,0.1-0.2,0.1c-0.1,0-0.1,0-0.2,0.1c0,0-0.1,0.1-0.1,0.2v4.3H116.1z"/>
		<path class="st1" d="M125.6,51.3c-0.1,0.1-0.1,0.2-0.1,0.3h-0.3l-0.1-2.5h0.1c0.2,0.4,0.5,0.8,0.9,1.1c0.3,0.3,0.7,0.5,1.1,0.6
			c0.4,0.1,0.8,0.1,1.1,0.1c0.4,0,0.8-0.1,1.1-0.3c0.2-0.1,0.3-0.2,0.5-0.3c0.1-0.1,0.2-0.3,0.3-0.5c0.3-0.3,0.3-0.6,0.3-1.1
			c0-0.4-0.1-0.9-0.4-1.3c-0.3-0.4-0.6-0.7-1-0.9c-0.4-0.3-0.9-0.5-1.4-0.8c-0.5-0.2-1-0.5-1.4-0.9c-0.4-0.3-0.8-0.7-1-1.1
			c-0.3-0.5-0.4-1-0.4-1.5c0-0.4,0.1-0.9,0.3-1.3c0.2-0.3,0.5-0.6,0.8-0.9c0.3-0.3,0.6-0.5,1-0.6c0.4-0.2,0.8-0.2,1.3-0.3h0.8
			c0.3,0,0.5,0.1,0.8,0.1h0.3c0.1,0,0.1,0,0.2,0c0.1,0,0.1,0.1,0.2,0.1c0.1,0,0.3,0.1,0.4,0.1h0.1c0.3,0,0.3-0.1,0.4-0.4h0.3
			c0,0.4,0.1,0.9,0.1,1.3v1.3h-0.3c-0.2-0.4-0.4-0.8-0.6-1.1c-0.3-0.3-0.6-0.5-1-0.6c-0.4-0.1-0.7-0.2-1.1-0.3c-0.3,0-0.7,0.1-1,0.3
			c-0.2,0-0.3,0.1-0.4,0.2c-0.1,0.1-0.2,0.2-0.3,0.4c-0.2,0.3-0.3,0.7-0.3,1c0,0.3,0.1,0.6,0.3,0.9c0.1,0.3,0.4,0.5,0.6,0.6
			c0.3,0.3,0.6,0.5,1,0.6c0.4,0.3,0.6,0.4,1,0.6h-0.1c0.4,0.3,0.8,0.4,1.1,0.6c0.3,0.2,0.6,0.5,0.9,0.8c0.3,0.3,0.5,0.6,0.6,1
			c0.2,0.4,0.2,0.8,0.3,1.3c0,0.5-0.1,1-0.4,1.4c-0.2,0.4-0.5,0.7-0.9,1c-0.3,0.3-0.7,0.5-1.1,0.6c-0.4,0.2-0.9,0.2-1.4,0.3
			c-0.5,0-0.9,0-1.4-0.1c-0.4-0.1-0.9-0.3-1.4-0.4C125.7,51.1,125.6,51.1,125.6,51.3z"/>
		<path class="st1" d="M134,51.5v-0.1h0.5c0.1,0,0.3,0,0.3-0.1c0-0.1,0.1-0.1,0.1-0.3V40.3c0-0.1-0.1-0.2-0.1-0.3
			c-0.1,0-0.1-0.1-0.3-0.1H134v-0.1h3.4v0.1h-0.5c-0.1,0-0.3,0-0.3,0.1c0,0.1-0.1,0.1-0.1,0.3V51c0,0.1,0.1,0.2,0.1,0.3
			c0.1,0,0.1,0.1,0.3,0.1h0.5v0.1H134z"/>
		<path class="st1" d="M139.7,51.3h0.4c0.1,0,0.3,0,0.3-0.1c0.1-0.1,0.1-0.2,0.1-0.3V40.2c0-0.1-0.1-0.2-0.1-0.3
			c-0.1-0.1-0.2-0.1-0.3-0.1h-0.4v-0.1h4c0.9,0,1.8,0.1,2.6,0.4c0.7,0.2,1.4,0.6,2,1.1c0.6,0.5,1,1.2,1.3,1.9
			c0.3,0.8,0.5,1.7,0.5,2.6c0,0.8-0.1,1.6-0.4,2.4c-0.3,0.7-0.8,1.4-1.4,1.9c-0.6,0.6-1.4,1-2.3,1.1c-0.8,0.2-1.7,0.4-2.5,0.4h-3.9
			V51.3z M142,50.3c0,0.1,0,0.1,0.1,0.3c0.1,0.1,0.1,0.1,0.3,0.1h0.6c0.8,0,1.5-0.1,2.3-0.3c0.6-0.2,1.2-0.5,1.8-0.9
			c0.5-0.4,0.9-0.9,1.1-1.5c0.5-1.5,0.5-3.1,0-4.5c-0.2-0.6-0.6-1.1-1.1-1.5c-0.5-0.4-1-0.7-1.6-0.9c-0.7-0.2-1.5-0.3-2.3-0.3h-0.6
			c-0.3,0-0.4,0.1-0.6,0.3v9.2H142z"/>
		<path class="st1" d="M158.8,51.5v-0.1c0.2,0,0.4,0,0.6-0.1c0.1-0.1,0.1-0.3,0-0.6l-1.1-2.6h-5.2l-1,2.4c-0.1,0.2-0.1,0.4-0.1,0.6
			c0,0.1,0.3,0.3,0.6,0.3v0.1h-2.4v-0.1c0.1,0,0.1,0,0.2,0c0.1,0,0.1-0.1,0.2-0.1l0.3-0.3c0.1-0.1,0.1-0.3,0.3-0.3
			c0.1,0,0.1-0.3,0.1-0.4l4.4-10.6h1l4.7,11.1c0.1,0.1,0.2,0.3,0.3,0.4c0.1,0.1,0.3,0.2,0.4,0.2v0.1H158.8z M155.7,41.5l-2.3,5.7
			h4.5L155.7,41.5z"/>
		<path class="st1" d="M163.1,51.3h0.4c0.1,0,0.3,0,0.3-0.1c0.1-0.1,0.1-0.2,0.1-0.3V40.2c0-0.1-0.1-0.2-0.1-0.3
			c-0.1-0.1-0.2-0.1-0.3-0.1h-0.4v-0.1h4c0.9,0,1.8,0.1,2.6,0.4c0.7,0.2,1.4,0.6,2,1.1c0.6,0.5,1,1.2,1.3,1.9
			c0.3,0.8,0.5,1.7,0.5,2.6c0,0.8-0.1,1.6-0.4,2.4c-0.3,0.7-0.7,1.4-1.4,1.9c-0.6,0.6-1.4,1-2.3,1.1c-0.8,0.2-1.7,0.4-2.5,0.4h-3.9
			V51.3z M165.5,50.3c0,0.1,0,0.1,0.1,0.3c0.1,0.1,0.1,0.1,0.3,0.1h0.6c0.8,0,1.5-0.1,2.3-0.3c0.6-0.2,1.2-0.5,1.8-0.9
			c0.5-0.4,0.9-0.9,1.1-1.5c0.5-1.5,0.5-3.1,0-4.5c-0.2-0.6-0.6-1.1-1.1-1.5c-0.5-0.4-1-0.7-1.6-0.9c-0.7-0.2-1.5-0.3-2.3-0.3H166
			c-0.3,0-0.4,0.1-0.6,0.3v9.2H165.5z"/>
		<path class="st1" d="M180.3,51.3h0.4c0.1,0,0.3,0,0.3-0.1c0.1-0.1,0.1-0.2,0.1-0.3V40.2c0-0.1-0.1-0.2-0.1-0.3
			c-0.1-0.1-0.2-0.1-0.3-0.1h-0.4v-0.1h4c0.9,0,1.8,0.1,2.6,0.4c0.7,0.2,1.4,0.6,2,1.1c0.6,0.5,1,1.2,1.3,1.9
			c0.3,0.8,0.5,1.7,0.5,2.6c0,0.8-0.1,1.6-0.4,2.4c-0.3,0.7-0.7,1.4-1.4,1.9c-0.6,0.6-1.4,1-2.3,1.1c-0.8,0.2-1.7,0.4-2.5,0.4h-3.9
			V51.3z M182.7,50.3c0,0.1,0,0.1,0.1,0.3c0.1,0.1,0.1,0.1,0.3,0.1h0.6c0.8,0,1.5-0.1,2.3-0.3c0.6-0.2,1.2-0.5,1.8-0.9
			c0.5-0.4,0.9-0.9,1.1-1.5c0.5-1.5,0.5-3.1,0-4.5c-0.2-0.6-0.6-1.1-1.1-1.5c-0.5-0.4-1-0.7-1.6-0.9c-0.7-0.2-1.5-0.3-2.3-0.3h-0.6
			c-0.3,0-0.4,0.1-0.6,0.3v9.2H182.7z"/>
		<path class="st1" d="M200.3,51.5h-7.9v-0.1c0.4,0,0.6,0,0.6-0.1c0-0.1,0.1-0.4,0.1-0.8v-9.7c0-0.4,0-0.6-0.1-0.8
			c-0.2-0.1-0.4-0.2-0.6-0.1v-0.1h7.7v1.8h-0.3c0-0.4-0.3-0.8-0.4-0.8c-0.3-0.1-0.6-0.2-0.9-0.1h-3.9V45h4c0.1,0,0.1,0,0.2,0
			c0.1,0,0.1-0.1,0.2-0.1c0.1,0,0.1-0.1,0.3-0.3c0.1-0.1,0.1-0.3,0.1-0.5h0.3v2.6h-0.3c0-0.3,0-0.4-0.1-0.5c0-0.1,0-0.1-0.1-0.2
			c0,0-0.1-0.1-0.2-0.1c-0.1,0-0.1-0.1-0.2-0.1c-0.1,0-0.1,0-0.2,0h-4v4.5c0,0.1,0,0.1,0.1,0.3c0.1,0.1,0.1,0.1,0.3,0.1h4.1
			c0.3,0,0.4-0.1,0.5-0.1l0.4-0.4c0.2-0.2,0.3-0.4,0.4-0.6h0.3L200.3,51.5z"/>
		<path class="st1" d="M215.1,51.4c-0.7,0.3-1.4,0.4-2.1,0.4c-0.9,0-1.7-0.1-2.5-0.5c-0.7-0.3-1.4-0.7-1.9-1.3
			c-0.5-0.5-0.9-1.2-1.1-1.9c-0.3-0.8-0.4-1.7-0.4-2.5c0-0.8,0.1-1.6,0.4-2.4c0.2-0.7,0.6-1.4,1.1-1.9c0.5-0.6,1.2-1,1.9-1.3
			c0.8-0.3,1.6-0.5,2.4-0.5c0.6,0,1.3,0.1,1.9,0.3c0.1,0,0.1,0,0.3,0.1c0.1,0,0.1,0,0.2,0c0.1,0,0.1,0.1,0.2,0.1
			c0.1,0,0.3,0.1,0.4,0.1h0.3c0.3,0,0.4-0.1,0.4-0.3h0.3v2.1c0,0.2,0,0.4-0.1,0.6c-0.4-0.6-0.8-1.1-1.4-1.5
			c-0.6-0.4-1.2-0.5-1.9-0.5c-0.7,0-1.4,0.1-2,0.4c-0.5,0.3-1,0.7-1.4,1.1c-0.4,0.5-0.6,1-0.8,1.6c-0.3,1.3-0.3,2.7,0,4
			c0.2,0.6,0.5,1.2,0.9,1.6c0.4,0.5,0.8,0.9,1.4,1.1c0.6,0.3,1.3,0.4,2,0.4h0.9c0.3,0,0.7,0,1-0.1c0.3,0,0.6-0.1,0.9-0.3
			c0.3-0.1,0.5-0.3,0.8-0.5l0.1,0.3C216.4,50.8,215.8,51.1,215.1,51.4z"/>
		<path class="st1" d="M225.3,51.5v-0.1h0.5c0.1,0,0.3,0,0.3-0.1c0.1-0.1,0.1-0.2,0.1-0.3v-5h-5.7v5c0,0.1,0,0.3,0.1,0.3
			c0.1,0.1,0.2,0.1,0.3,0.1h0.5v0.1h-3.1v-0.1h0.5c0.1,0,0.3,0,0.3-0.1c0.1-0.1,0.1-0.2,0.1-0.3V40.3c0-0.1-0.1-0.2-0.1-0.3
			c-0.1-0.1-0.2-0.1-0.3-0.1h-0.5v-0.1h3.1v0.1h-0.5c-0.1,0-0.3,0-0.3,0.1c-0.1,0.1-0.1,0.2-0.1,0.3v4.8h5.7v-4.8
			c0-0.1-0.1-0.2-0.1-0.3c-0.1-0.1-0.2-0.1-0.3-0.1h-0.5v-0.1h3.1v0.1h-0.5c-0.1,0-0.3,0-0.3,0.1c0,0.1-0.1,0.1-0.1,0.3V51
			c0,0.1,0,0.3,0.1,0.3c0.1,0,0.1,0.1,0.3,0.1h0.5v0.1H225.3z"/>
		<path class="st1" d="M230.8,51.5v-0.1h0.5c0.1,0,0.3,0,0.3-0.1c0-0.1,0.1-0.1,0.1-0.3V40.3c0-0.1-0.1-0.2-0.1-0.3
			c-0.1,0-0.1-0.1-0.3-0.1h-0.5v-0.1h3.4v0.1h-0.5c-0.1,0-0.3,0-0.3,0.1c0,0.1-0.1,0.1-0.1,0.3V51c0,0.1,0.1,0.2,0.1,0.3
			c0.1,0,0.1,0.1,0.3,0.1h0.5v0.1H230.8z"/>
		<path class="st1" d="M244.3,51.5h-7.8v-0.1h0.5c0.1,0,0.3,0,0.3-0.1c0.1-0.1,0.1-0.2,0.1-0.3V40.3c0-0.1,0-0.3-0.1-0.3
			c-0.1-0.1-0.2-0.1-0.3-0.1h-0.5v-0.1h3.1v0.1h-0.5c-0.1,0-0.3,0-0.3,0.1c0,0.1-0.1,0.1-0.1,0.3v10.1c0,0.1,0,0.1,0.1,0.3
			c0.1,0.1,0.1,0.1,0.3,0.1h3.9c0.2,0,0.4-0.1,0.6-0.1c0.1-0.1,0.4-0.3,0.5-0.4c0.2-0.2,0.3-0.5,0.4-0.8h0.3L244.3,51.5z"/>
		<path class="st1" d="M253.6,51.5h-7.9v-0.1c0.4,0,0.6,0,0.6-0.1c0-0.1,0.1-0.4,0.1-0.8v-9.7c0-0.4,0-0.6-0.1-0.8
			c-0.2-0.1-0.4-0.2-0.6-0.1v-0.1h7.7v1.8h-0.3c0-0.4-0.3-0.8-0.4-0.8c-0.3-0.1-0.6-0.2-0.9-0.1h-3.9V45h4c0.1,0,0.1,0,0.2,0
			c0.1,0,0.1-0.1,0.2-0.1c0.1,0,0.1-0.1,0.3-0.3c0.1-0.1,0.1-0.3,0.1-0.5h0.3v2.6h-0.3c0-0.3,0-0.4-0.1-0.5c0-0.1,0-0.1-0.1-0.2
			s-0.1-0.1-0.2-0.1c0,0-0.1-0.1-0.2-0.1c-0.1,0-0.1,0-0.2,0h-4v4.5c0,0.1,0,0.1,0.1,0.3c0.1,0.1,0.1,0.1,0.3,0.1h4.1
			c0.3,0,0.4-0.1,0.5-0.1l0.4-0.4c0.2-0.2,0.3-0.4,0.4-0.6h0.3L253.6,51.5z"/>
		<path class="st1" d="M263,83.1v-0.6c0.6,0,1.2,0,1.8-0.1c0.2,0,0.4,0,0.5-0.1c0.2-0.1,0.3-0.2,0.5-0.3c0.2-0.2,0.4-0.5,0.5-0.9
			c0.1-0.6,0.2-1.2,0.1-1.8V53.8c0-0.6,0-1.2-0.1-1.8c-0.1-0.4-0.3-0.8-0.5-0.9c-0.3-0.1-0.6-0.3-1-0.4c-0.4-0.1-1-0.1-1.8-0.1V50
			h12.3v0.6c-0.6,0-1.2,0-1.8,0.1c-0.2,0-0.4,0-0.5,0.1c-0.2,0.1-0.3,0.2-0.5,0.3c-0.2,0.2-0.4,0.5-0.5,0.9
			c-0.1,0.6-0.2,1.2-0.1,1.8v25.5c0,0.6,0,1.2,0.1,1.8c0.1,0.4,0.3,0.8,0.5,0.9c0.3,0.1,0.6,0.3,1,0.4c0.4,0.1,1,0.1,1.8,0.1v0.6
			H263z"/>
		<path class="st1" d="M265.4,46.2c0,0.3,0.1,0.6,0.3,0.8s0.5,0.3,0.8,0.3h5.4c0.1,0,0.3,0,0.4-0.1c0.1-0.1,0.3-0.1,0.4-0.2
			c0.1-0.1,0.2-0.2,0.2-0.4c0.1-0.1,0.1-0.3,0.1-0.4v-5.4c0-0.1,0-0.3-0.1-0.4c-0.1-0.1-0.1-0.3-0.2-0.4c-0.1-0.1-0.2-0.2-0.4-0.2
			c-0.1-0.1-0.3-0.1-0.4-0.1h-5.4c-0.3,0-0.6,0.1-0.8,0.3c-0.2,0.2-0.3,0.5-0.3,0.8V46.2z"/>
		<path class="st1" d="M292.9,78.8c0,0.2,0,0.3,0.1,0.5c0.1,0.2,0.2,0.3,0.3,0.4c0.3,0.3,0.5,0.3,0.9,0.4h12.4c0.9,0,1.8,0,2.6-0.1
			c0.7-0.1,1.4-0.3,2-0.6c0.6-0.4,1.2-0.8,1.6-1.4c0.5-0.7,1-1.5,1.4-2.4h1l-1.6,7.7h-29v-0.8c0.9,0.1,1.8-0.1,2.5-0.5
			c0.4-0.4,0.5-1.3,0.5-2.6V43.5c0-1.4-0.1-2.3-0.5-2.6c-0.4-0.4-1.1-0.5-2.5-0.5v-0.6h28.4l0.1,6.5h-0.9c-0.3-1.7-0.8-2.7-1.5-3
			c-1.1-0.4-2.2-0.6-3.4-0.5h-12.8c-0.4-0.1-0.9,0-1.3,0.3c-0.1,0.4-0.2,0.8-0.1,1.3v34.6H292.9z"/>
		<path class="st1" d="M297.1,64.1c0,0.3,0.1,0.6,0.3,0.8c0.2,0.2,0.5,0.3,0.8,0.3h5.4c0.3,0,0.6-0.1,0.8-0.3
			c0.2-0.2,0.3-0.5,0.3-0.8v-5.4c0-0.3-0.1-0.6-0.3-0.8c-0.2-0.2-0.5-0.3-0.8-0.3h-5.4c-0.3,0-0.6,0.1-0.8,0.3
			c-0.2,0.2-0.3,0.5-0.3,0.8V64.1z"/>
	</g>
</g>
</svg>
