<?xml version="1.0" encoding="utf-8"?>
<!-- Generator: Adobe Illustrator 26.0.3, SVG Export Plug-In . SVG Version: 6.00 Build 0)  -->
<svg version="1.1" id="Capa_1" xmlns="http://www.w3.org/2000/svg" xmlns:xlink="http://www.w3.org/1999/xlink" x="0px" y="0px"
	 viewBox="0 0 102 90.7" style="enable-background:new 0 0 102 90.7;" xml:space="preserve">
<style type="text/css">
	.st0{clip-path:url(#SVGID_00000005244893747107888750000017646977029778747533_);}
	.st1{fill:#163252;}
</style>
<g>
	<defs>
		<rect id="SVGID_1_" x="3.9" y="35.4" width="94.2" height="54"/>
	</defs>
	<clipPath id="SVGID_00000152981292402921286870000006421547788005812638_">
		<use xlink:href="#SVGID_1_"  style="overflow:visible;"/>
	</clipPath>
	<g style="clip-path:url(#SVGID_00000152981292402921286870000006421547788005812638_);">
		<path class="st1" d="M70.8,78.9c0,0.3,0.1,0.6,0.2,0.9c0.1,0.3,0.3,0.5,0.5,0.8c0.2,0.2,0.5,0.4,0.8,0.5c0.3,0.1,0.6,0.2,0.9,0.2
			c0.6,0,1.2-0.2,1.6-0.6c0,0,0,0,0,0c0,0,0,0,0,0c0,0,0,0,0,0c0,0,0,0,0,0l-0.3-0.3c0,0-0.1,0-0.1,0s-0.1,0-0.1,0
			c-0.3,0.2-0.6,0.4-1.1,0.4c-0.9,0-1.6-0.8-1.6-1.7c0-0.9,0.7-1.7,1.6-1.7c0.4,0,0.8,0.2,1.1,0.4c0.1,0.1,0.1,0.1,0.2,0l0.3-0.3
			c0,0,0,0,0,0c0,0,0,0,0,0c0,0,0,0,0,0c0,0,0,0,0,0c-0.4-0.4-0.9-0.6-1.6-0.6c-0.3,0-0.6,0.1-0.9,0.2c-0.3,0.1-0.5,0.3-0.8,0.5
			c-0.2,0.2-0.4,0.5-0.5,0.8C70.9,78.3,70.8,78.6,70.8,78.9"/>
		<path class="st1" d="M80.7,78.9c0,0.3,0.1,0.6,0.2,0.9c0.1,0.3,0.3,0.5,0.5,0.8c0.2,0.2,0.5,0.4,0.8,0.5c0.3,0.1,0.6,0.2,0.9,0.2
			c0.6,0,1.2-0.2,1.6-0.6c0,0,0,0,0,0c0,0,0,0,0,0c0,0,0,0,0,0c0,0,0,0,0,0l-0.3-0.3c0,0-0.1,0-0.1,0c0,0-0.1,0-0.1,0
			c-0.3,0.2-0.6,0.4-1.1,0.4c-0.9,0-1.6-0.8-1.6-1.7c0-0.9,0.7-1.7,1.6-1.7c0.4,0,0.8,0.2,1.1,0.4c0.1,0.1,0.1,0.1,0.2,0l0.3-0.3
			c0,0,0,0,0,0c0,0,0,0,0,0c0,0,0,0,0,0c0,0,0,0,0,0c-0.4-0.4-0.9-0.6-1.6-0.6c-0.3,0-0.6,0.1-0.9,0.2c-0.3,0.1-0.5,0.3-0.8,0.5
			c-0.2,0.2-0.4,0.5-0.5,0.8C80.8,78.3,80.7,78.6,80.7,78.9"/>
		<path class="st1" d="M94.4,81C94.4,81.1,94.4,81.1,94.4,81c0.1,0.1,0.1,0.1,0.1,0.1h0.4c0,0,0.1,0,0.1,0c0,0,0-0.1,0-0.1v-3.1h0
			l2.8,3.3H98c0,0,0.1,0,0.1,0c0,0,0-0.1,0-0.1v-4.3c0,0,0-0.1,0-0.1c0,0-0.1,0-0.1,0h-0.4c0,0-0.1,0-0.1,0c0,0,0,0.1,0,0.1v3.1h0
			l-2.8-3.2h-0.2c0,0-0.1,0-0.1,0c0,0,0,0.1,0,0.1V81z"/>
		<path class="st1" d="M18.6,81C18.6,81.1,18.6,81.1,18.6,81c0.1,0.1,0.1,0.1,0.1,0.1h0.4c0,0,0.1,0,0.1,0c0,0,0-0.1,0-0.1v-3.1h0
			l2.8,3.3h0.2c0,0,0.1,0,0.1,0c0,0,0-0.1,0-0.1v-4.3c0,0,0-0.1,0-0.1c0,0-0.1,0-0.1,0h-0.4c0,0,0,0,0,0c0,0,0,0,0,0c0,0,0,0,0,0
			c0,0,0,0,0,0v3.1h0l-2.8-3.2h-0.2c0,0-0.1,0-0.1,0c0,0,0,0.1,0,0.1L18.6,81z"/>
		<path class="st1" d="M61.4,80.5v-3.3h0.9c1,0,1.7,0.7,1.7,1.6c0,1-0.7,1.7-1.7,1.7H61.4z M60.8,81C60.8,81.1,60.8,81.1,60.8,81
			c0.1,0.1,0.1,0.1,0.1,0.1h1.5c0.6,0,1.2-0.2,1.6-0.7c0.4-0.4,0.7-1,0.7-1.6c0-0.6-0.2-1.2-0.7-1.6c-0.4-0.4-1-0.7-1.6-0.7h-1.5
			c0,0-0.1,0-0.1,0c0,0,0,0.1,0,0.1V81z"/>
		<path class="st1" d="M33.5,80.5v-3.3h0.9c1,0,1.7,0.7,1.7,1.6c0,1-0.7,1.7-1.7,1.7H33.5z M32.8,81C32.8,81.1,32.8,81.1,32.8,81
			c0.1,0.1,0.1,0.1,0.1,0.1h1.5c0.6,0,1.2-0.2,1.6-0.7c0.4-0.4,0.7-1,0.7-1.6c0-0.6-0.2-1.2-0.7-1.6c-0.4-0.4-1-0.7-1.6-0.7h-1.5
			c0,0-0.1,0-0.1,0c0,0,0,0.1,0,0.1V81z"/>
		<path class="st1" d="M56.3,81C56.3,81,56.4,81.1,56.3,81C56.4,81.1,56.4,81.1,56.3,81c0,0.1,0.1,0.1,0.1,0.1c0,0,0,0,0,0h2.6
			c0,0,0,0,0,0c0,0,0,0,0,0c0,0,0,0,0,0c0,0,0,0,0,0v-0.4c0,0,0-0.1,0-0.1c0,0-0.1,0-0.1,0H57v-1.4h1.7c0,0,0.1,0,0.1,0
			c0,0,0-0.1,0-0.1v-0.4c0,0,0-0.1,0-0.1c0,0-0.1,0-0.1,0H57v-1.3h2.1c0,0,0,0,0,0c0,0,0,0,0,0c0,0,0,0,0,0c0,0,0,0,0,0v-0.4
			c0,0,0-0.1,0-0.1c0,0-0.1,0-0.1,0h-2.6c0,0,0,0,0,0c0,0,0,0,0,0c0,0,0,0,0,0s0,0,0,0V81z"/>
		<path class="st1" d="M49,81C49,81.1,49,81.1,49,81c0.1,0.1,0.1,0.1,0.1,0.1h0.4c0,0,0.1,0,0.1,0c0,0,0-0.1,0-0.1v-3.1h0l2.8,3.3
			h0.2c0,0,0.1,0,0.1,0c0,0,0-0.1,0-0.1v-4.3c0,0,0-0.1,0-0.1c0,0-0.1,0-0.1,0h-0.4c0,0,0,0,0,0c0,0,0,0,0,0c0,0,0,0,0,0
			c0,0,0,0,0,0v3.1h0l-2.8-3.2h-0.2c0,0-0.1,0-0.1,0c0,0,0,0.1,0,0.1L49,81z"/>
		<path class="st1" d="M44.9,81C44.9,81,44.9,81.1,44.9,81C44.9,81.1,44.9,81.1,44.9,81c0,0.1,0.1,0.1,0.1,0.1c0,0,0,0,0,0h2.6
			c0,0,0,0,0,0c0,0,0,0,0,0c0,0,0,0,0,0c0,0,0,0,0,0v-0.4c0,0,0-0.1,0-0.1c0,0-0.1,0-0.1,0h-2.1v-1.4h1.7c0,0,0.1,0,0.1,0
			c0,0,0-0.1,0-0.1v-0.4c0,0,0-0.1,0-0.1c0,0-0.1,0-0.1,0h-1.7v-1.3h2.1c0,0,0,0,0,0c0,0,0,0,0,0c0,0,0,0,0,0c0,0,0,0,0,0v-0.4
			c0,0,0-0.1,0-0.1s-0.1,0-0.1,0H45c0,0,0,0,0,0c0,0,0,0,0,0c0,0,0,0,0,0c0,0,0,0,0,0V81z"/>
		<path class="st1" d="M86.2,81C86.2,81.1,86.2,81.1,86.2,81c0.1,0.1,0.1,0.1,0.1,0.1h0.4c0,0,0.1,0,0.1,0c0,0,0-0.1,0-0.1v-4.3
			c0,0,0-0.1,0-0.1c0,0-0.1,0-0.1,0h-0.4c0,0-0.1,0-0.1,0c0,0,0,0.1,0,0.1V81z"/>
		<path class="st1" d="M10.5,81.1C10.5,81.1,10.5,81.2,10.5,81.1c0.1,0.1,0.1,0.1,0.1,0.1h0.1c0,0,0,0,0.1,0c0,0,0,0,0-0.1l2-4.3
			c0,0,0,0,0-0.1s0,0,0-0.1c0,0,0,0,0,0c0,0,0,0-0.1,0h-0.5c0,0,0,0-0.1,0c0,0,0,0,0,0.1l-1.4,3.2h0l-1.4-3.2c0,0,0,0,0-0.1
			c0,0,0,0-0.1,0H8.6c0,0,0,0-0.1,0c0,0,0,0,0,0c0,0,0,0,0,0.1c0,0,0,0,0,0.1L10.5,81.1z"/>
		<path class="st1" d="M77.1,79.6l0.8-1.8h0l0.8,1.8H77.1z M75.9,81.2h0.4c0,0,0.1,0,0.1,0c0,0,0,0,0.1-0.1c0.1-0.3,0.3-0.6,0.4-0.9
			H79l0.4,0.9c0,0,0,0.1,0.1,0.1c0,0,0.1,0,0.1,0h0.4c0,0,0,0,0.1,0c0,0,0,0,0,0c0,0,0,0,0-0.1c0,0,0,0,0-0.1l-2-4.3c0,0,0,0,0,0
			c0,0,0,0-0.1,0h-0.1c0,0,0,0-0.1,0c0,0,0,0,0,0l-2,4.3c0,0,0,0,0,0.1c0,0,0,0,0,0.1C75.8,81.2,75.8,81.2,75.9,81.2
			C75.8,81.2,75.9,81.2,75.9,81.2z"/>
		<path class="st1" d="M5.2,79.6L6,77.9h0l0.8,1.8H5.2z M4,81.2h0.4c0,0,0.1,0,0.1,0c0,0,0,0,0.1-0.1c0.1-0.3,0.3-0.6,0.4-0.9h2.1
			l0.4,0.9c0,0,0,0.1,0.1,0.1c0,0,0.1,0,0.1,0h0.4c0,0,0,0,0.1,0c0,0,0,0,0,0c0,0,0,0,0-0.1c0,0,0,0,0-0.1l-2-4.3c0,0,0,0,0,0
			c0,0,0,0-0.1,0H6c0,0,0,0-0.1,0c0,0,0,0,0,0l-2,4.3c0,0,0,0,0,0.1c0,0,0,0,0,0.1C3.9,81.1,4,81.2,4,81.2C4,81.2,4,81.2,4,81.2z"/>
		<path class="st1" d="M14.4,79.6l0.8-1.8h0l0.8,1.8H14.4z M13.2,81.2h0.4c0,0,0.1,0,0.1,0c0,0,0,0,0.1-0.1c0.1-0.3,0.3-0.6,0.4-0.9
			h2.1l0.4,0.9c0,0,0,0.1,0.1,0.1c0,0,0.1,0,0.1,0h0.4c0,0,0,0,0.1,0c0,0,0,0,0,0c0,0,0,0,0-0.1s0,0,0-0.1l-2-4.3c0,0,0,0,0,0
			s0,0-0.1,0h-0.1c0,0,0,0-0.1,0c0,0,0,0,0,0l-2,4.3c0,0,0,0,0,0.1c0,0,0,0,0,0.1C13.1,81.1,13.1,81.2,13.2,81.2
			C13.2,81.2,13.2,81.2,13.2,81.2"/>
		<path class="st1" d="M28.9,79.6l0.8-1.8h0l0.8,1.8H28.9z M27.7,81.2h0.4c0,0,0.1,0,0.1,0c0,0,0,0,0.1-0.1c0.1-0.3,0.3-0.6,0.4-0.9
			h2.1l0.4,0.9c0,0,0,0.1,0.1,0.1c0,0,0.1,0,0.1,0h0.4c0,0,0,0,0.1,0c0,0,0,0,0,0c0,0,0,0,0-0.1c0,0,0,0,0-0.1l-2-4.3c0,0,0,0,0,0
			c0,0,0,0-0.1,0h-0.1c0,0,0,0-0.1,0c0,0,0,0,0,0l-2,4.3c0,0,0,0,0,0.1c0,0,0,0,0,0.1C27.6,81.2,27.6,81.2,27.7,81.2
			C27.7,81.2,27.7,81.2,27.7,81.2z"/>
		<path class="st1" d="M38.6,79.6l0.8-1.8h0l0.8,1.8H38.6z M37.4,81.2h0.4c0,0,0.1,0,0.1,0c0,0,0,0,0.1-0.1c0.1-0.3,0.3-0.6,0.4-0.9
			h2.1l0.4,0.9c0,0,0,0.1,0.1,0.1c0,0,0.1,0,0.1,0h0.4c0,0,0,0,0.1,0c0,0,0,0,0,0c0,0,0,0,0-0.1c0,0,0,0,0-0.1l-2-4.3c0,0,0,0,0,0
			c0,0,0,0-0.1,0h-0.1c0,0,0,0-0.1,0c0,0,0,0,0,0l-2,4.3c0,0,0,0,0,0.1s0,0,0,0.1C37.3,81.1,37.3,81.2,37.4,81.2
			C37.3,81.2,37.3,81.2,37.4,81.2"/>
		<path class="st1" d="M3.9,70.8c0,0.3,0.1,0.6,0.2,0.9c0.1,0.3,0.3,0.5,0.5,0.8c0.2,0.2,0.5,0.4,0.8,0.5C5.7,73,6,73.1,6.3,73.1
			c0.6,0,1.2-0.2,1.6-0.6c0,0,0,0,0,0c0,0,0,0,0,0c0,0,0,0,0,0c0,0,0,0,0,0L7.5,72c0,0-0.1,0-0.1,0c0,0-0.1,0-0.1,0
			c-0.3,0.2-0.6,0.4-1.1,0.4c-0.9,0-1.6-0.8-1.6-1.7c0-0.9,0.7-1.7,1.6-1.7c0.4,0,0.8,0.2,1.1,0.4c0.1,0.1,0.1,0.1,0.2,0l0.3-0.3
			c0,0,0,0,0,0c0,0,0,0,0-0.1c0,0,0,0,0,0c0,0,0,0,0,0c-0.4-0.4-0.9-0.6-1.6-0.6c-0.3,0-0.6,0.1-0.9,0.2c-0.3,0.1-0.5,0.3-0.8,0.5
			c-0.2,0.2-0.4,0.5-0.5,0.8C4,70.2,3.9,70.5,3.9,70.8z"/>
		<path class="st1" d="M81.7,70.8c0,0.3,0.1,0.6,0.2,0.9c0.1,0.3,0.3,0.5,0.5,0.8c0.2,0.2,0.5,0.4,0.8,0.5c0.3,0.1,0.6,0.2,0.9,0.2
			c0.6,0,1.2-0.2,1.6-0.6c0,0,0,0,0,0c0,0,0,0,0,0c0,0,0,0,0,0c0,0,0,0,0,0L85.3,72c0,0,0,0-0.1,0c0,0-0.1,0-0.1,0
			c-0.3,0.2-0.6,0.4-1.1,0.4c-0.9,0-1.6-0.8-1.6-1.7c0-0.9,0.7-1.7,1.6-1.7c0.4,0,0.8,0.2,1.1,0.4c0.1,0.1,0.1,0.1,0.2,0l0.3-0.3
			c0,0,0,0,0,0c0,0,0,0,0-0.1c0,0,0,0,0,0c0,0,0,0,0,0c-0.4-0.4-0.9-0.6-1.6-0.6c-0.3,0-0.6,0.1-0.9,0.2c-0.3,0.1-0.5,0.3-0.8,0.5
			c-0.2,0.2-0.4,0.5-0.5,0.8C81.7,70.2,81.7,70.5,81.7,70.8"/>
		<path class="st1" d="M9,72.9C9,72.9,9,72.9,9,72.9C9,73,9.1,73,9,72.9C9.1,73,9.1,73,9.1,73c0,0,0,0,0,0h2.6c0,0,0,0,0,0
			c0,0,0,0,0,0c0,0,0,0,0,0c0,0,0,0,0,0v-0.4c0,0,0-0.1,0-0.1c0,0-0.1,0-0.1,0H9.7V71h1.7c0,0,0.1,0,0.1,0c0,0,0-0.1,0-0.1v-0.4
			c0,0,0-0.1,0-0.1c0,0-0.1,0-0.1,0H9.7v-1.3h2.1c0,0,0,0,0,0c0,0,0,0,0,0c0,0,0,0,0,0c0,0,0,0,0,0v-0.4c0,0,0,0,0,0c0,0,0,0,0,0
			c0,0,0,0,0,0c0,0,0,0,0,0H9.2c0,0,0,0,0,0c0,0,0,0,0,0c0,0,0,0,0,0c0,0,0,0,0,0V72.9z"/>
		<path class="st1" d="M57.6,72.9C57.6,72.9,57.6,72.9,57.6,72.9C57.6,73,57.6,73,57.6,72.9c0,0.1,0.1,0.1,0.1,0.1c0,0,0,0,0,0h2.6
			c0,0,0,0,0,0c0,0,0,0,0,0c0,0,0,0,0,0c0,0,0,0,0,0v-0.4c0,0,0-0.1,0-0.1c0,0-0.1,0-0.1,0h-2.1V71H60c0,0,0.1,0,0.1,0
			c0,0,0-0.1,0-0.1v-0.4c0,0,0-0.1,0-0.1c0,0-0.1,0-0.1,0h-1.7v-1.3h2.1c0,0,0,0,0,0c0,0,0,0,0,0c0,0,0,0,0,0c0,0,0,0,0,0v-0.4
			c0,0,0,0,0,0c0,0,0,0,0,0c0,0,0,0,0,0c0,0,0,0,0,0h-2.6c0,0,0,0,0,0c0,0,0,0,0,0c0,0,0,0,0,0c0,0,0,0,0,0V72.9z"/>
		<path class="st1" d="M13.2,72.9C13.2,72.9,13.2,73,13.2,72.9c0.1,0.1,0.1,0.1,0.1,0.1h0.4c0,0,0.1,0,0.1,0c0,0,0-0.1,0-0.1v-3.1h0
			l2.8,3.3h0.2c0,0,0.1,0,0.1,0c0,0,0-0.1,0-0.1v-4.3c0,0,0-0.1,0-0.1c0,0-0.1,0-0.1,0h-0.4c0,0-0.1,0-0.1,0c0,0,0,0.1,0,0.1v3.1h0
			l-2.8-3.2h-0.2c0,0-0.1,0-0.1,0c0,0,0,0.1,0,0.1V72.9z"/>
		<path class="st1" d="M94.4,72.9C94.4,72.9,94.4,73,94.4,72.9c0.1,0.1,0.1,0.1,0.1,0.1h0.4c0,0,0.1,0,0.1,0c0,0,0-0.1,0-0.1v-3.1h0
			l2.8,3.3H98c0,0,0.1,0,0.1,0c0,0,0-0.1,0-0.1v-4.3c0,0,0-0.1,0-0.1c0,0-0.1,0-0.1,0h-0.4c0,0-0.1,0-0.1,0c0,0,0,0.1,0,0.1v3.1h0
			l-2.8-3.2h-0.2c0,0-0.1,0-0.1,0c0,0,0,0.1,0,0.1V72.9z"/>
		<path class="st1" d="M47.5,72.9C47.5,72.9,47.5,73,47.5,72.9c0.1,0.1,0.1,0.1,0.1,0.1h0.4c0,0,0.1,0,0.1,0c0,0,0-0.1,0-0.1v-3.1h0
			l2.8,3.3h0.2c0,0,0.1,0,0.1,0c0,0,0-0.1,0-0.1v-4.3c0,0,0-0.1,0-0.1c0,0-0.1,0-0.1,0h-0.4c0,0-0.1,0-0.1,0c0,0,0,0.1,0,0.1v3.1h0
			l-2.8-3.2h-0.2c0,0-0.1,0-0.1,0c0,0,0,0.1,0,0.1V72.9z"/>
		<path class="st1" d="M19.3,72.9C19.3,72.9,19.3,73,19.3,72.9c0.1,0.1,0.1,0.1,0.1,0.1h0.4c0,0,0.1,0,0.1,0c0,0,0-0.1,0-0.1v-3.8
			h1.1c0,0,0,0,0,0c0,0,0,0,0,0c0,0,0,0,0,0c0,0,0,0,0,0v-0.4c0,0,0,0,0,0c0,0,0,0,0,0c0,0,0,0,0,0c0,0,0,0,0,0h-2.8c0,0,0,0,0,0
			c0,0,0,0,0,0c0,0,0,0,0,0c0,0,0,0,0,0V69c0,0,0,0.1,0,0.1c0,0,0.1,0,0.1,0h1.1L19.3,72.9L19.3,72.9z"/>
		<path class="st1" d="M66.6,72.9C66.6,72.9,66.6,73,66.6,72.9c0.1,0.1,0.1,0.1,0.1,0.1h0.4c0,0,0.1,0,0.1,0c0,0,0-0.1,0-0.1v-3.8
			h1.1c0,0,0,0,0,0c0,0,0,0,0,0c0,0,0,0,0,0c0,0,0,0,0,0v-0.4c0,0,0,0,0,0c0,0,0,0,0,0c0,0,0,0,0,0c0,0,0,0,0,0h-2.8c0,0,0,0,0,0
			c0,0,0,0,0,0c0,0,0,0,0,0c0,0,0,0,0,0V69c0,0,0,0.1,0,0.1c0,0,0.1,0,0.1,0h1.1L66.6,72.9L66.6,72.9z"/>
		<path class="st1" d="M23.1,70.7v-1.6h1.2c0.4,0,0.8,0.3,0.8,0.8c0,0.2-0.1,0.4-0.2,0.6c-0.1,0.1-0.4,0.2-0.6,0.2L23.1,70.7
			L23.1,70.7z M22.4,72.9C22.4,72.9,22.4,72.9,22.4,72.9C22.5,73,22.5,73,22.4,72.9c0,0.1,0.1,0.1,0.1,0.1c0,0,0,0,0,0H23
			c0,0,0.1,0,0.1,0c0,0,0-0.1,0-0.1v-1.6h1L25,73c0,0,0,0,0,0c0,0,0,0,0.1,0h0.5c0,0,0,0,0.1,0c0,0,0,0,0,0c0,0,0,0,0-0.1s0,0,0-0.1
			l-0.9-1.6c0.6-0.2,1-0.7,1-1.3c0-0.2,0-0.4-0.1-0.5c-0.1-0.2-0.2-0.3-0.3-0.5c-0.1-0.1-0.3-0.2-0.5-0.3c-0.2-0.1-0.4-0.1-0.5-0.1
			h-1.8c0,0,0,0,0,0c0,0,0,0,0,0c0,0,0,0,0,0c0,0,0,0,0,0V72.9L22.4,72.9z"/>
		<path class="st1" d="M27.3,70.8c0-0.9,0.8-1.7,1.7-1.7c0.4,0,0.9,0.2,1.2,0.5c0.3,0.3,0.5,0.7,0.5,1.2c0,0.4-0.2,0.9-0.5,1.2
			c-0.3,0.3-0.7,0.5-1.2,0.5c-0.4,0-0.9-0.2-1.2-0.5C27.5,71.6,27.3,71.2,27.3,70.8L27.3,70.8z M26.7,70.8c0,0.5,0.1,0.9,0.4,1.3
			c0.3,0.4,0.6,0.7,1.1,0.9c0.4,0.2,0.9,0.2,1.3,0.1c0.5-0.1,0.9-0.3,1.2-0.6c0.3-0.3,0.5-0.7,0.6-1.2c0.1-0.5,0-0.9-0.1-1.3
			c-0.2-0.4-0.5-0.8-0.9-1c-0.4-0.3-0.8-0.4-1.3-0.4c-0.3,0-0.6,0.1-0.9,0.2c-0.3,0.1-0.5,0.3-0.8,0.5c-0.2,0.2-0.4,0.5-0.5,0.8
			C26.7,70.2,26.7,70.5,26.7,70.8"/>
		<path class="st1" d="M35.1,72.4v-3.3h0.9c1,0,1.7,0.7,1.7,1.6c0,0.9-0.7,1.7-1.7,1.7H35.1z M34.4,72.9
			C34.4,72.9,34.4,73,34.4,72.9c0.1,0.1,0.1,0.1,0.1,0.1H36c0.6,0,1.2-0.2,1.6-0.7c0.4-0.4,0.7-1,0.7-1.6c0-0.6-0.2-1.2-0.7-1.6
			c-0.4-0.4-1-0.7-1.6-0.7h-1.5c0,0-0.1,0-0.1,0c0,0,0,0.1,0,0.1L34.4,72.9z"/>
		<path class="st1" d="M39.4,72.9C39.4,72.9,39.4,72.9,39.4,72.9C39.4,73,39.4,73,39.4,72.9c0,0.1,0.1,0.1,0.1,0.1c0,0,0,0,0,0h2.6
			c0,0,0,0,0,0c0,0,0,0,0,0c0,0,0,0,0,0c0,0,0,0,0,0v-0.4c0,0,0-0.1,0-0.1c0,0-0.1,0-0.1,0h-2.1V71h1.7c0,0,0.1,0,0.1,0
			c0,0,0-0.1,0-0.1v-0.4c0,0,0-0.1,0-0.1c0,0-0.1,0-0.1,0h-1.7v-1.3h2.1c0,0,0,0,0,0c0,0,0,0,0,0c0,0,0,0,0,0c0,0,0,0,0,0v-0.4
			c0,0,0,0,0,0c0,0,0,0,0,0c0,0,0,0,0,0c0,0,0,0,0,0h-2.6c0,0,0,0,0,0c0,0,0,0,0,0c0,0,0,0,0,0s0,0,0,0V72.9L39.4,72.9z"/>
		<path class="st1" d="M45.3,72.9C45.3,72.9,45.3,73,45.3,72.9c0.1,0.1,0.1,0.1,0.1,0.1h0.4c0,0,0.1,0,0.1,0c0,0,0-0.1,0-0.1v-4.3
			c0,0,0-0.1,0-0.1c0,0-0.1,0-0.1,0h-0.4c0,0-0.1,0-0.1,0c0,0,0,0.1,0,0.1V72.9z"/>
		<path class="st1" d="M69.7,72.9C69.7,72.9,69.7,73,69.7,72.9c0.1,0.1,0.1,0.1,0.1,0.1h0.4c0,0,0.1,0,0.1,0c0,0,0-0.1,0-0.1v-4.3
			c0,0,0-0.1,0-0.1c0,0-0.1,0-0.1,0h-0.4c0,0-0.1,0-0.1,0c0,0,0,0.1,0,0.1L69.7,72.9z"/>
		<path class="st1" d="M86.8,72.9C86.8,72.9,86.8,73,86.8,72.9c0.1,0.1,0.1,0.1,0.1,0.1h0.4c0,0,0.1,0,0.1,0c0,0,0-0.1,0-0.1v-4.3
			c0,0,0-0.1,0-0.1c0,0-0.1,0-0.1,0h-0.4c0,0-0.1,0-0.1,0c0,0,0,0.1,0,0.1V72.9z"/>
		<path class="st1" d="M54.3,73C54.3,73,54.3,73,54.3,73c0.1,0.1,0.1,0.1,0.1,0.1h0.1c0,0,0,0,0.1,0c0,0,0,0,0-0.1l2-4.3
			c0,0,0,0,0-0.1c0,0,0,0,0-0.1c0,0,0,0,0,0c0,0,0,0-0.1,0H56c0,0,0,0-0.1,0c0,0,0,0,0,0.1l-1.4,3.2h0L53,68.6c0,0,0,0,0-0.1
			c0,0,0,0-0.1,0h-0.5c0,0,0,0-0.1,0c0,0,0,0,0,0c0,0,0,0,0,0.1c0,0,0,0,0,0.1L54.3,73z"/>
		<path class="st1" d="M61.6,72.6c0.4,0.3,0.9,0.5,1.4,0.5c0.8,0,1.4-0.5,1.4-1.2c0-0.8-0.6-1.1-1.4-1.4c-0.5-0.2-0.8-0.4-0.8-0.8
			c0-0.2,0.2-0.6,0.7-0.6c0.4,0,0.8,0.3,0.9,0.3c0.1,0.1,0.2,0,0.2-0.1c0.1-0.1,0.1-0.2,0.2-0.2c0,0,0,0,0-0.1c0,0,0,0,0-0.1
			c0,0,0,0,0-0.1c0,0,0,0,0,0c-0.4-0.2-0.8-0.4-1.2-0.4c-1,0-1.4,0.7-1.4,1.2c0,0.7,0.5,1.1,1.2,1.4c0.6,0.3,1,0.5,1,0.9
			c0,0.3-0.3,0.6-0.7,0.6c-0.5,0-1-0.4-1-0.4c-0.1-0.1-0.2,0-0.2,0c-0.1,0.1-0.1,0.2-0.2,0.3C61.5,72.5,61.5,72.5,61.6,72.6"/>
		<path class="st1" d="M71.7,70.8c0,0.3,0.1,0.6,0.2,0.9c0.1,0.3,0.3,0.5,0.5,0.8s0.5,0.4,0.8,0.5c0.3,0.1,0.6,0.2,0.9,0.2
			c0.6,0,1.1-0.1,1.6-0.4c0,0,0-0.1,0-0.1c0-0.5,0-1,0-1.6c0,0,0-0.1,0-0.1c0,0-0.1,0-0.1,0h-1.2c0,0,0,0,0,0c0,0,0,0,0,0
			c0,0,0,0,0,0c0,0,0,0,0,0v0.4c0,0,0,0,0,0c0,0,0,0,0,0c0,0,0,0,0,0c0,0,0,0,0,0H75v0.7c-0.3,0.1-0.6,0.2-1,0.2
			c-0.9,0-1.6-0.8-1.6-1.7c0-0.9,0.7-1.7,1.6-1.7c0.4,0,0.8,0.2,1.1,0.4c0.1,0.1,0.1,0.1,0.2,0c0.1-0.1,0.2-0.2,0.3-0.3c0,0,0,0,0,0
			c0,0,0,0,0,0c0,0,0,0,0,0c0,0,0,0,0,0c-0.4-0.4-1-0.6-1.6-0.6c-0.3,0-0.6,0.1-0.9,0.2c-0.3,0.1-0.5,0.3-0.8,0.5
			c-0.2,0.2-0.4,0.5-0.5,0.8C71.7,70.2,71.7,70.5,71.7,70.8z"/>
		<path class="st1" d="M78,71.5l0.8-1.8h0l0.8,1.8H78z M76.8,73h0.4c0,0,0.1,0,0.1,0c0,0,0,0,0.1-0.1c0.1-0.3,0.3-0.6,0.4-0.9h2.1
			l0.4,0.9c0,0,0,0.1,0.1,0.1c0,0,0.1,0,0.1,0h0.4c0,0,0,0,0.1,0c0,0,0,0,0,0c0,0,0,0,0-0.1c0,0,0,0,0-0.1l-2-4.3c0,0,0,0,0,0
			c0,0,0,0-0.1,0h-0.1c0,0,0,0-0.1,0c0,0,0,0,0,0l-2,4.3c0,0,0,0,0,0.1c0,0,0,0,0,0.1C76.7,73,76.7,73,76.8,73
			C76.7,73,76.8,73,76.8,73z"/>
		<path class="st1" d="M92.2,67.7L92,67.4c0-0.1-0.1,0-0.2,0l-1,0.6c0,0,0,0,0,0.1c0,0,0,0,0,0.1l0.1,0.2c0,0.1,0.1,0.1,0.2,0
			l1.1-0.5c0,0,0,0,0,0C92.2,67.8,92.2,67.8,92.2,67.7C92.2,67.7,92.2,67.7,92.2,67.7C92.2,67.7,92.2,67.7,92.2,67.7L92.2,67.7z
			 M92.6,70.8c0,0.4-0.2,0.9-0.5,1.2c-0.3,0.3-0.7,0.5-1.2,0.5s-0.9-0.2-1.2-0.5c-0.3-0.3-0.5-0.7-0.5-1.2c0-0.9,0.8-1.7,1.7-1.7
			c0.4,0,0.9,0.2,1.2,0.5C92.4,69.9,92.6,70.3,92.6,70.8L92.6,70.8z M93.3,70.8c0-0.5-0.1-0.9-0.4-1.3c-0.3-0.4-0.6-0.7-1-0.9
			s-0.9-0.2-1.3-0.1c-0.5,0.1-0.9,0.3-1.2,0.6c-0.3,0.3-0.5,0.7-0.6,1.2c-0.1,0.5,0,0.9,0.1,1.3c0.2,0.4,0.5,0.8,0.9,1
			c0.4,0.3,0.8,0.4,1.3,0.4c0.6,0,1.2-0.2,1.7-0.7C93,72,93.3,71.4,93.3,70.8z"/>
		<path class="st1" d="M91.9,75.8l-0.1-0.3c0-0.1-0.1,0-0.2,0l-1,0.6c0,0,0,0,0,0.1c0,0,0,0,0,0.1l0.1,0.2c0,0.1,0.1,0.1,0.2,0
			l1.1-0.5c0,0,0,0,0,0C91.9,75.9,91.9,75.9,91.9,75.8C91.9,75.9,91.9,75.9,91.9,75.8C91.9,75.8,91.9,75.8,91.9,75.8z M92.3,78.9
			c0,0.4-0.2,0.9-0.5,1.2c-0.3,0.3-0.7,0.5-1.2,0.5s-0.9-0.2-1.2-0.5c-0.3-0.3-0.5-0.7-0.5-1.2c0-0.9,0.8-1.7,1.7-1.7
			c0.4,0,0.9,0.2,1.2,0.5C92.1,78,92.3,78.5,92.3,78.9L92.3,78.9z M93,78.9c0-0.5-0.1-0.9-0.4-1.3c-0.3-0.4-0.6-0.7-1-0.9
			c-0.4-0.2-0.9-0.2-1.3-0.1c-0.5,0.1-0.9,0.3-1.2,0.6c-0.3,0.3-0.5,0.7-0.6,1.2c-0.1,0.5,0,0.9,0.1,1.3s0.5,0.8,0.9,1
			c0.4,0.3,0.8,0.4,1.3,0.4c0.6,0,1.2-0.2,1.7-0.7C92.7,80.1,93,79.5,93,78.9z"/>
		<path class="st1" d="M23.6,81C23.6,81.1,23.7,81.1,23.6,81c0.1,0.1,0.1,0.1,0.1,0.1h2.7c0,0,0,0,0,0c0,0,0,0,0,0c0,0,0,0,0,0
			c0,0,0,0,0,0v-0.4c0,0,0,0,0,0c0,0,0,0,0,0c0,0,0,0,0,0c0,0,0,0,0,0h-1.9v0l2.1-3.7v-0.1c0,0,0-0.1,0-0.1c0,0-0.1,0-0.1,0H24
			c0,0-0.1,0-0.1,0c0,0,0,0.1,0,0.1v0.4c0,0,0,0.1,0,0.1c0,0,0.1,0,0.1,0h1.8v0l-2.1,3.6V81L23.6,81z"/>
		<path class="st1" d="M66,79.4c0,1,0.7,1.7,1.8,1.7c1,0,1.8-0.8,1.8-1.7v-2.7c0,0,0-0.1,0-0.1c0,0-0.1,0-0.1,0H69c0,0,0,0,0,0
			c0,0,0,0,0,0c0,0,0,0,0,0c0,0,0,0,0,0v2.7c0,0.6-0.4,1.1-1.1,1.1c-0.7,0-1.1-0.5-1.1-1.1v-2.7c0,0,0-0.1,0-0.1c0,0-0.1,0-0.1,0
			h-0.4c0,0-0.1,0-0.1,0c0,0,0,0.1,0,0.1L66,79.4L66,79.4z"/>
		<path class="st1" d="M3.9,87.5c0,0.2,0,0.5,0.1,0.7c0.1,0.2,0.2,0.4,0.4,0.6C4.6,89,4.8,89.1,5,89.2c0.2,0.1,0.5,0.1,0.7,0.1
			c1,0,1.8-0.8,1.8-1.8v-2.7c0,0,0-0.1,0-0.1c0,0-0.1,0-0.1,0H6.8c0,0,0,0,0,0c0,0,0,0,0,0c0,0,0,0,0,0c0,0,0,0,0,0v2.6
			c0,0.5-0.4,1-0.9,1c-0.6,0-0.9-0.4-0.9-1v-2.6c0,0,0,0,0,0c0,0,0,0,0,0c0,0,0,0,0,0c0,0,0,0,0,0H4c0,0-0.1,0-0.1,0
			c0,0,0,0.1,0,0.1V87.5L3.9,87.5z"/>
		<path class="st1" d="M9.4,89.2C9.4,89.2,9.4,89.2,9.4,89.2c0.1,0.1,0.1,0.1,0.1,0.1h0.6c0,0,0.1,0,0.1,0c0,0,0-0.1,0-0.1v-2.8h0
			l2.7,3h0.2c0,0,0.1,0,0.1,0c0,0,0-0.1,0-0.1v-4.3c0,0,0-0.1,0-0.1c0,0-0.1,0-0.1,0h-0.6c0,0,0,0,0,0c0,0,0,0,0,0c0,0,0,0,0,0
			c0,0,0,0,0,0v2.7h0l-2.7-2.9H9.6c0,0-0.1,0-0.1,0c0,0,0,0.1,0,0.1L9.4,89.2L9.4,89.2z"/>
		<path class="st1" d="M15.5,89.2C15.5,89.2,15.5,89.2,15.5,89.2c0.1,0.1,0.1,0.1,0.1,0.1h0.6c0,0,0.1,0,0.1,0c0,0,0-0.1,0-0.1v-4.3
			c0,0,0-0.1,0-0.1c0,0-0.1,0-0.1,0h-0.6c0,0-0.1,0-0.1,0c0,0,0,0.1,0,0.1V89.2z"/>
		<path class="st1" d="M39,89.2C39,89.2,39,89.2,39,89.2c0.1,0.1,0.1,0.1,0.1,0.1h0.6c0,0,0.1,0,0.1,0c0,0,0-0.1,0-0.1v-4.3
			c0,0,0-0.1,0-0.1c0,0-0.1,0-0.1,0h-0.6c0,0-0.1,0-0.1,0c0,0,0,0.1,0,0.1V89.2z"/>
		<path class="st1" d="M86.9,89.2C86.9,89.3,86.9,89.3,86.9,89.2c0.1,0.1,0.1,0.1,0.1,0.1h0.6c0,0,0.1,0,0.1,0c0,0,0-0.1,0-0.1V85
			c0,0,0-0.1,0-0.1c0,0-0.1,0-0.1,0H87c0,0-0.1,0-0.1,0c0,0,0,0.1,0,0.1V89.2z"/>
		<path class="st1" d="M20,89.2C20,89.3,20,89.3,20,89.2c0.1,0.1,0.1,0.1,0.1,0.1h0.1c0,0,0,0,0.1,0c0,0,0,0,0-0.1l2-4.3
			c0,0,0,0,0-0.1c0,0,0,0,0-0.1c0,0,0,0,0,0c0,0,0,0-0.1,0h-0.7c0,0,0,0-0.1,0c0,0,0,0,0,0.1l-1.2,2.8h0l-1.2-2.8c0,0,0,0,0-0.1
			c0,0,0,0-0.1,0h-0.7c0,0,0,0-0.1,0c0,0,0,0,0,0c0,0,0,0,0,0.1c0,0,0,0,0,0.1L20,89.2z"/>
		<path class="st1" d="M24,89.2C24,89.2,24,89.2,24,89.2C24,89.2,24,89.2,24,89.2c0,0.1,0.1,0.1,0.1,0.1c0,0,0,0,0,0h2.6
			c0,0,0,0,0,0c0,0,0,0,0,0c0,0,0,0,0,0c0,0,0,0,0,0v-0.5c0,0,0-0.1,0-0.1c0,0-0.1,0-0.1,0h-1.9v-1.1h1.6c0,0,0.1,0,0.1,0
			c0,0,0-0.1,0-0.1v-0.5c0,0,0-0.1,0-0.1c0,0-0.1,0-0.1,0h-1.6v-1.1h1.9c0,0,0.1,0,0.1,0c0,0,0-0.1,0-0.1v-0.5c0,0,0-0.1,0-0.1
			c0,0-0.1,0-0.1,0h-2.6c0,0,0,0,0,0c0,0,0,0,0,0c0,0,0,0,0,0c0,0,0,0,0,0V89.2L24,89.2z"/>
		<path class="st1" d="M95.2,89.2C95.2,89.2,95.3,89.2,95.2,89.2c0.1,0.1,0.1,0.1,0.1,0.1H98c0,0,0,0,0,0c0,0,0,0,0,0c0,0,0,0,0,0
			c0,0,0,0,0,0v-0.5c0,0,0-0.1,0-0.1c0,0-0.1,0-0.1,0h-1.9v-1.1h1.6c0,0,0.1,0,0.1,0c0,0,0-0.1,0-0.1v-0.5c0,0,0-0.1,0-0.1
			s-0.1,0-0.1,0h-1.6v-1.1H98c0,0,0.1,0,0.1,0c0,0,0-0.1,0-0.1v-0.5c0,0,0-0.1,0-0.1c0,0-0.1,0-0.1,0h-2.6c0,0-0.1,0-0.1,0
			c0,0,0,0.1,0,0.1V89.2z"/>
		<path class="st1" d="M29.7,86.8v-1.3h1.1c0.2,0,0.3,0.1,0.5,0.2c0.1,0.1,0.2,0.3,0.2,0.4c0,0.2-0.1,0.3-0.2,0.5
			c-0.1,0.1-0.3,0.2-0.5,0.2L29.7,86.8L29.7,86.8z M28.9,89.2C28.9,89.2,28.9,89.2,28.9,89.2C28.9,89.2,28.9,89.2,28.9,89.2
			c0,0.1,0.1,0.1,0.1,0.1c0,0,0,0,0,0h0.6c0,0,0.1,0,0.1,0c0,0,0-0.1,0-0.1v-1.6h0.7l0.9,1.7c0,0,0,0,0,0c0,0,0,0,0.1,0h0.7
			c0,0,0,0,0.1,0c0,0,0,0,0,0c0,0,0,0,0-0.1c0,0,0,0,0-0.1l-0.9-1.6c0.6-0.2,1-0.7,1-1.3c0-0.2,0-0.4-0.1-0.5
			c-0.1-0.2-0.2-0.3-0.3-0.5c-0.1-0.1-0.3-0.2-0.5-0.3c-0.2-0.1-0.4-0.1-0.5-0.1H29c0,0,0,0,0,0c0,0,0,0,0,0c0,0,0,0,0,0s0,0,0,0
			V89.2L28.9,89.2z"/>
		<path class="st1" d="M34.1,88.9c0.1,0.1,0.6,0.5,1.4,0.5c0.9,0,1.5-0.6,1.5-1.3c0-0.8-0.7-1.2-1.4-1.5c-0.5-0.2-0.8-0.4-0.8-0.7
			c0-0.2,0.2-0.5,0.6-0.5c0.4,0,0.9,0.3,0.9,0.4c0.1,0,0.2,0,0.2-0.1l0.2-0.4c0,0,0-0.1,0-0.1s0-0.1-0.1-0.1
			c-0.1-0.1-0.6-0.4-1.3-0.4c-1,0-1.5,0.7-1.5,1.2c0,0.8,0.6,1.1,1.2,1.4c0.5,0.2,0.8,0.4,0.8,0.8c0,0.3-0.3,0.5-0.6,0.5
			c-0.4,0-0.9-0.4-1-0.4c0,0,0,0-0.1,0c0,0,0,0-0.1,0c0,0,0,0-0.1,0c0,0,0,0,0,0l-0.2,0.4C34,88.8,34.1,88.8,34.1,88.9"/>
		<path class="st1" d="M43.1,88.5v-3h0.7c0.8,0,1.5,0.6,1.5,1.5c0,0.8-0.6,1.5-1.5,1.5H43.1z M42.3,89.2
			C42.3,89.2,42.3,89.2,42.3,89.2c0.1,0.1,0.1,0.1,0.1,0.1h1.5c0.6,0,1.2-0.2,1.6-0.7c0.4-0.4,0.7-1,0.7-1.6c0-0.6-0.2-1.2-0.7-1.6
			c-0.4-0.4-1-0.7-1.6-0.7h-1.5c0,0-0.1,0-0.1,0c0,0,0,0.1,0,0.1V89.2z"/>
		<path class="st1" d="M54.4,88.5v-3h0.7c0.8,0,1.5,0.6,1.5,1.5c0,0.8-0.6,1.5-1.5,1.5H54.4z M53.5,89.2
			C53.5,89.2,53.5,89.2,53.5,89.2c0.1,0.1,0.1,0.1,0.1,0.1h1.5c0.6,0,1.2-0.2,1.6-0.7c0.4-0.4,0.7-1,0.7-1.6c0-0.6-0.2-1.2-0.7-1.6
			c-0.4-0.4-1-0.7-1.6-0.7h-1.5c0,0-0.1,0-0.1,0c0,0,0,0.1,0,0.1V89.2z"/>
		<path class="st1" d="M67.5,89.2C67.5,89.2,67.5,89.3,67.5,89.2c0.1,0.1,0.1,0.1,0.1,0.1h2.6c0,0,0,0,0,0c0,0,0,0,0,0c0,0,0,0,0,0
			c0,0,0,0,0,0v-0.5c0,0,0-0.1,0-0.1c0,0-0.1,0-0.1,0h-1.9v-1.1H70c0,0,0.1,0,0.1,0c0,0,0-0.1,0-0.1v-0.5c0,0,0-0.1,0-0.1
			s-0.1,0-0.1,0h-1.6v-1.1h1.9c0,0,0.1,0,0.1,0c0,0,0-0.1,0-0.1v-0.5c0,0,0-0.1,0-0.1c0,0-0.1,0-0.1,0h-2.6c0,0-0.1,0-0.1,0
			c0,0,0,0.1,0,0.1V89.2z"/>
		<path class="st1" d="M62.6,88.5v-3h0.7c0.8,0,1.5,0.6,1.5,1.5c0,0.8-0.6,1.5-1.5,1.5H62.6z M61.7,89.1
			C61.7,89.2,61.7,89.2,61.7,89.1c0.1,0.1,0.1,0.1,0.1,0.1h1.5c0.6,0,1.2-0.2,1.6-0.7c0.4-0.4,0.7-1,0.7-1.6c0-0.6-0.2-1.2-0.7-1.6
			c-0.4-0.4-1-0.7-1.6-0.7h-1.5c0,0-0.1,0-0.1,0c0,0,0,0.1,0,0.1V89.1z"/>
		<path class="st1" d="M48.9,87.8l0.6-1.4h0l0.6,1.4H48.9z M47.5,89.3h0.6c0,0,0.1,0,0.1,0s0.1-0.1,0.1-0.1l0.3-0.7h1.9l0.3,0.7
			c0,0.1,0.1,0.1,0.2,0.1h0.6c0,0,0,0,0.1,0c0,0,0,0,0,0c0,0,0,0,0-0.1c0,0,0,0,0-0.1l-2-4.3c0,0,0,0,0-0.1c0,0,0,0-0.1,0h-0.1
			c0,0,0,0-0.1,0c0,0,0,0,0,0.1l-2,4.3c0,0,0,0,0,0.1s0,0,0,0.1C47.4,89.3,47.4,89.3,47.5,89.3C47.5,89.3,47.5,89.3,47.5,89.3z"/>
		<path class="st1" d="M74.8,87c0,0.3,0.1,0.6,0.2,0.9c0.1,0.3,0.3,0.5,0.5,0.8c0.2,0.2,0.5,0.4,0.8,0.5c0.3,0.1,0.6,0.2,0.9,0.2
			c0.6,0,1.2-0.2,1.6-0.6c0,0,0,0,0,0c0,0,0,0,0,0c0,0,0,0,0,0c0,0,0,0,0,0l-0.4-0.4c0,0-0.1,0-0.1,0c0,0-0.1,0-0.1,0
			c-0.3,0.2-0.6,0.4-1,0.4c-0.8,0-1.5-0.7-1.5-1.5c0-0.8,0.6-1.5,1.4-1.5c0.4,0,0.7,0.1,1,0.4c0,0,0,0,0,0c0,0,0,0,0,0c0,0,0,0,0,0
			c0,0,0,0,0,0l0.4-0.4c0,0,0,0,0,0c0,0,0,0,0-0.1c0,0,0,0,0,0c0,0,0,0,0,0c-0.4-0.4-0.9-0.6-1.6-0.6c-0.3,0-0.6,0.1-0.9,0.2
			c-0.3,0.1-0.5,0.3-0.8,0.5c-0.2,0.2-0.4,0.5-0.5,0.8C74.9,86.4,74.8,86.7,74.8,87"/>
		<path class="st1" d="M80.7,89.2C80.7,89.3,80.7,89.3,80.7,89.2c0.1,0.1,0.1,0.1,0.1,0.1h0.6c0,0,0,0,0,0c0,0,0,0,0,0c0,0,0,0,0,0
			c0,0,0,0,0,0v-1.8h2.1v1.8c0,0,0,0,0,0c0,0,0,0,0,0c0,0,0,0,0,0c0,0,0,0,0,0h0.6c0,0,0.1,0,0.1,0c0,0,0-0.1,0-0.1V85
			c0,0,0-0.1,0-0.1c0,0-0.1,0-0.1,0h-0.6c0,0,0,0,0,0c0,0,0,0,0,0c0,0,0,0,0,0c0,0,0,0,0,0v1.7h-2.1V85c0,0,0,0,0,0c0,0,0,0,0,0
			c0,0,0,0,0,0c0,0,0,0,0,0h-0.6c0,0-0.1,0-0.1,0c0,0,0,0.1,0,0.1V89.2z"/>
		<path class="st1" d="M90.5,89.2C90.5,89.2,90.5,89.3,90.5,89.2c0.1,0.1,0.1,0.1,0.1,0.1H93c0,0,0,0,0,0c0,0,0,0,0,0c0,0,0,0,0,0
			c0,0,0,0,0,0v-0.5c0,0,0-0.1,0-0.1c0,0-0.1,0-0.1,0h-1.7v-3.6c0,0,0-0.1,0-0.1c0,0-0.1,0-0.1,0h-0.6c0,0-0.1,0-0.1,0
			c0,0,0,0.1,0,0.1L90.5,89.2L90.5,89.2z"/>
		<path class="st1" d="M33.3,63.9v-0.4c0.5,0,0.9,0,1.1,0c0.3,0,0.5-0.1,0.7-0.2c0.2-0.1,0.3-0.3,0.3-0.6c0.1-0.3,0.1-0.7,0.1-1.2
			V45c0-0.5,0-0.9-0.1-1.2c-0.1-0.3-0.2-0.5-0.3-0.6c-0.2-0.1-0.4-0.2-0.7-0.2c-0.3,0-0.7,0-1.1,0v-0.4h8.1V43c-0.5,0-0.9,0-1.1,0
			c-0.3,0-0.5,0.1-0.7,0.2c-0.2,0.1-0.3,0.3-0.3,0.6c-0.1,0.3-0.1,0.7-0.1,1.2v16.5c0,0.5,0,0.9,0.1,1.2c0.1,0.3,0.2,0.5,0.3,0.6
			c0.2,0.1,0.4,0.2,0.7,0.2c0.3,0,0.7,0,1.1,0v0.4L33.3,63.9L33.3,63.9z"/>
		<path class="st1" d="M34.8,40.1c0,0.2,0.1,0.4,0.2,0.5c0.1,0.1,0.3,0.2,0.5,0.2h3.5c0.2,0,0.4-0.1,0.5-0.2
			c0.1-0.1,0.2-0.3,0.2-0.5v-3.5c0-0.2-0.1-0.4-0.2-0.5s-0.3-0.2-0.5-0.2h-3.5c-0.2,0-0.4,0.1-0.5,0.2c-0.1,0.1-0.2,0.3-0.2,0.5
			V40.1z"/>
		<path class="st1" d="M23.1,63.7c-1.6,0.5-3.3,0.8-5,0.8c-2.2,0-4.2-0.4-5.9-1.1c-1.7-0.7-3.2-1.7-4.4-3c-1.2-1.3-2.2-2.8-2.8-4.6
			c-0.6-1.8-1-3.7-1-5.9c0-2.1,0.3-4,1-5.8c0.7-1.8,1.6-3.3,2.9-4.6c1.2-1.3,2.7-2.3,4.5-3.1c1.7-0.7,3.7-1.1,5.8-1.1
			c1.5,0,3,0.2,4.4,0.5c0.2,0.1,0.4,0.1,0.6,0.2c0.3,0.1,0.5,0.1,0.8,0.2c0.3,0.1,0.5,0.2,0.8,0.2c0.2,0,0.4,0.1,0.6,0.1
			c0.5,0,0.9-0.2,1-0.7h0.5v1.5c0,0.6,0,1.1,0,1.7s0,1.1-0.1,1.7c0,0.5-0.1,1-0.2,1.5c-1-1.6-2.1-2.8-3.3-3.6
			c-1.2-0.8-2.8-1.2-4.7-1.2c-1.9,0-3.5,0.3-4.8,1c-1.4,0.7-2.5,1.6-3.4,2.7c-0.9,1.1-1.5,2.5-2,4c-0.4,1.6-0.7,3.2-0.6,4.8
			c0,1.7,0.2,3.4,0.7,4.9c0.4,1.5,1.1,2.8,2,4c0.9,1.1,2,2,3.4,2.7c1.4,0.6,3,1,4.9,1c0.7,0,1.4,0,2.2,0c0.8,0,1.5-0.1,2.3-0.2
			c0.7-0.1,1.5-0.3,2.2-0.6c0.7-0.3,1.3-0.6,1.9-1.1l0.2,0.7C26.2,62.3,24.7,63.2,23.1,63.7"/>
		<path class="st1" d="M83.6,61.2c0,0.2,0.1,0.4,0.2,0.6c0.2,0.1,0.3,0.2,0.5,0.2c0.2,0,0.4,0,0.7,0c0.2,0,0.4,0,0.6,0h6.9
			c0.6,0,1.2,0,1.7-0.1c0.5-0.1,0.9-0.2,1.3-0.4c0.4-0.2,0.8-0.5,1-0.9c0.3-0.4,0.6-0.9,0.9-1.5h0.7l-1,4.9h-19v-0.4
			c0.9,0,1.4-0.1,1.6-0.4c0.2-0.2,0.3-0.8,0.3-1.7V38.3c0-0.9-0.1-1.4-0.3-1.7c-0.2-0.2-0.8-0.4-1.6-0.4v-0.4h18.6l0,4.3h-0.6
			c-0.1-1-0.5-1.7-1-1.9c-0.5-0.2-1.3-0.4-2.2-0.4h-8.4c-0.5,0-0.7,0-0.8,0.1c-0.1,0.1-0.1,0.4-0.1,0.8V61.2L83.6,61.2z"/>
		<path class="st1" d="M86.3,51.7c0,0.2,0.1,0.4,0.2,0.5c0.1,0.1,0.3,0.2,0.5,0.2h3.5c0.2,0,0.4-0.1,0.5-0.2
			c0.1-0.1,0.2-0.3,0.2-0.5v-3.5c0-0.2-0.1-0.4-0.2-0.5c-0.1-0.1-0.3-0.2-0.5-0.2H87c-0.2,0-0.4,0.1-0.5,0.2
			c-0.1,0.1-0.2,0.3-0.2,0.5V51.7z"/>
		<path class="st1" d="M66.9,63.9v-0.4c0.6,0,1.1-0.1,1.4-0.4c0.3-0.2,0.3-0.7,0-1.4l-2.6-6.3H53.1l-2.3,5.8
			c-0.3,0.7-0.4,1.3-0.3,1.7c0.1,0.4,0.6,0.6,1.5,0.6v0.4h-5.8v-0.4c0.3,0,0.6-0.1,0.9-0.3c0.2-0.2,0.4-0.4,0.6-0.6
			c0.2-0.2,0.3-0.5,0.5-0.7c0.1-0.3,0.2-0.5,0.4-0.8l10.7-25.5h2.3l11.1,26.6c0.3,0.7,0.9,1.2,1.8,1.4v0.4L66.9,63.9L66.9,63.9z
			 M59.5,39.9L54,53.5h11L59.5,39.9z"/>
	</g>
</g>
</svg>
