<?xml version="1.0" encoding="UTF-8" standalone="no"?>
<!DOCTYPE svg PUBLIC "-//W3C//DTD SVG 1.1//EN" "http://www.w3.org/Graphics/SVG/1.1/DTD/svg11.dtd">
<svg width="100%" height="100%" viewBox="0 0 91 91" version="1.1" xmlns="http://www.w3.org/2000/svg" xmlns:xlink="http://www.w3.org/1999/xlink" xml:space="preserve" xmlns:serif="http://www.serif.com/" style="fill-rule:evenodd;clip-rule:evenodd;stroke-linejoin:round;stroke-miterlimit:2;">
    <g transform="matrix(1.0079,0,0,1.0079,-129.584,1.0636)">
        <g transform="matrix(1.17256,0,0,1.17256,196.136,59.6276)">
            <path d="M0,-25.318C-1.224,-24.764 -2.614,-24.428 -3.935,-24.206C-3.308,-24.311 -2.405,-25.447 -2.035,-25.906C-1.472,-26.606 -1.013,-27.404 -0.75,-28.267C-0.716,-28.334 -0.696,-28.419 -0.763,-28.469C-0.848,-28.503 -0.904,-28.485 -0.972,-28.452C-2.446,-27.661 -3.974,-27.089 -5.597,-26.682C-5.731,-26.649 -5.832,-26.682 -5.916,-26.767C-6.051,-26.919 -6.178,-27.063 -6.32,-27.18C-7.003,-27.761 -7.735,-28.216 -8.561,-28.553C-9.645,-28.995 -10.829,-29.182 -11.996,-29.106C-13.132,-29.032 -14.247,-28.713 -15.256,-28.186C-16.266,-27.657 -17.167,-26.923 -17.885,-26.038C-18.627,-25.122 -19.175,-24.04 -19.455,-22.893C-19.726,-21.786 -19.703,-20.692 -19.538,-19.573C-19.513,-19.387 -19.529,-19.362 -19.697,-19.387C-26.048,-20.333 -31.312,-22.605 -35.586,-27.474C-35.771,-27.686 -35.872,-27.686 -36.024,-27.458C-37.895,-24.655 -36.986,-20.152 -34.651,-17.939C-34.34,-17.644 -34.02,-17.349 -33.675,-17.08C-33.801,-17.054 -35.354,-17.222 -36.74,-17.939C-36.926,-18.056 -37.019,-17.988 -37.035,-17.778C-37.053,-17.476 -37.026,-17.197 -36.985,-16.868C-36.626,-14.027 -34.658,-11.399 -31.964,-10.373C-31.644,-10.239 -31.29,-10.121 -30.944,-10.062C-31.559,-9.927 -32.191,-9.831 -33.952,-9.969C-34.171,-10.011 -34.255,-9.901 -34.171,-9.691C-32.848,-6.085 -29.992,-5.012 -27.854,-4.401C-27.566,-4.351 -27.28,-4.351 -26.993,-4.283C-27.011,-4.257 -27.027,-4.257 -27.044,-4.233C-27.754,-3.151 -30.213,-2.346 -31.358,-1.945C-33.442,-1.217 -35.71,-0.89 -37.911,-1.107C-38.264,-1.159 -38.338,-1.154 -38.434,-1.107C-38.53,-1.047 -38.445,-0.963 -38.333,-0.872C-37.886,-0.576 -37.432,-0.315 -36.968,-0.062C-35.569,0.679 -34.111,1.269 -32.587,1.69C-24.715,3.864 -15.848,2.266 -9.937,-3.606C-5.296,-8.218 -3.669,-14.578 -3.669,-20.946C-3.669,-21.195 -3.374,-21.333 -3.199,-21.464C-1.991,-22.372 -0.946,-23.458 -0.045,-24.671C0.157,-24.943 0.229,-25.185 0.229,-25.284L0.229,-25.318C0.229,-25.42 0.157,-25.389 0,-25.318" style="fill:rgb(0,74,147);fill-rule:nonzero;"/>
        </g>
        <g transform="matrix(1.17256,0,0,1.17256,173.713,5.78659)">
            <path d="M0,65.33C-18.012,65.33 -32.665,50.677 -32.665,32.665C-32.665,14.654 -18.012,0 0,0C18.012,0 32.665,14.654 32.665,32.665C32.665,50.677 18.012,65.33 0,65.33M0,-4.805C-20.661,-4.805 -37.47,12.004 -37.47,32.665C-37.47,53.326 -20.661,70.135 0,70.135C20.661,70.135 37.47,53.326 37.47,32.665C37.47,12.004 20.661,-4.805 0,-4.805" style="fill:rgb(0,74,147);fill-rule:nonzero;"/>
        </g>
    </g>
</svg>
