<?xml version="1.0" encoding="UTF-8" standalone="no"?>
<!DOCTYPE svg PUBLIC "-//W3C//DTD SVG 1.1//EN" "http://www.w3.org/Graphics/SVG/1.1/DTD/svg11.dtd">
<svg width="100%" height="100%" viewBox="0 0 91 91" version="1.1" xmlns="http://www.w3.org/2000/svg" xmlns:xlink="http://www.w3.org/1999/xlink" xml:space="preserve" xmlns:serif="http://www.serif.com/" style="fill-rule:evenodd;clip-rule:evenodd;stroke-linejoin:round;stroke-miterlimit:2;">
    <g transform="matrix(1.0079,0,0,1.0079,-521.99,0.918825)">
        <g transform="matrix(1.17256,0,0,1.17256,557.128,19.5444)">
            <path d="M0,34.467L7.153,34.467L7.153,23.078C7.153,20.075 7.721,17.167 11.447,17.167C15.114,17.167 15.166,20.601 15.166,23.273L15.166,34.467L22.318,34.467L22.318,21.839C22.318,15.638 20.982,10.872 13.736,10.872C10.251,10.872 7.916,12.78 6.959,14.592L6.865,14.592L6.865,11.443L0,11.443L0,34.467ZM-8.073,0C-5.781,0 -3.924,1.861 -3.924,4.148C-3.924,6.438 -5.781,8.3 -8.073,8.3C-10.371,8.3 -12.229,6.438 -12.229,4.148C-12.229,1.861 -10.371,0 -8.073,0M-11.658,11.443L-4.49,11.443L-4.49,34.467L-11.658,34.467L-11.658,11.443Z" style="fill:rgb(0,74,147);fill-rule:nonzero;"/>
        </g>
        <g transform="matrix(1.17256,0,0,1.17256,563.043,5.93081)">
            <path d="M0,65.329C-18.011,65.329 -32.664,50.676 -32.664,32.664C-32.664,14.653 -18.011,0 0,0C18.012,0 32.665,14.653 32.665,32.664C32.665,50.676 18.012,65.329 0,65.329M0,-4.806C-20.661,-4.806 -37.47,12.003 -37.47,32.664C-37.47,53.325 -20.661,70.135 0,70.135C20.661,70.135 37.471,53.325 37.471,32.664C37.471,12.003 20.661,-4.806 0,-4.806" style="fill:rgb(0,74,147);fill-rule:nonzero;"/>
        </g>
    </g>
</svg>
