<?xml version="1.0" encoding="UTF-8" standalone="no"?>
<!DOCTYPE svg PUBLIC "-//W3C//DTD SVG 1.1//EN" "http://www.w3.org/Graphics/SVG/1.1/DTD/svg11.dtd">
<svg width="100%" height="100%" viewBox="0 0 91 91" version="1.1" xmlns="http://www.w3.org/2000/svg" xmlns:xlink="http://www.w3.org/1999/xlink" xml:space="preserve" xmlns:serif="http://www.serif.com/" style="fill-rule:evenodd;clip-rule:evenodd;stroke-linejoin:round;stroke-miterlimit:2;">
    <g transform="matrix(1.0079,0,0,1.0079,-391.188,1.06301)">
        <g transform="matrix(1.17256,0,0,1.17256,442.212,43.7854)">
            <path d="M0,0.519L-10.074,5.484C-10.468,5.698 -11.843,5.413 -11.843,4.964L-11.843,-5.227C-11.843,-5.68 -10.457,-5.964 -10.063,-5.74L-0.437,-0.514C-0.035,-0.284 0.407,0.298 0,0.519M12.387,-4.683C12.387,-9.516 8.468,-13.435 3.634,-13.435L-18.892,-13.435C-23.725,-13.435 -27.644,-9.516 -27.644,-4.683L-27.644,5.202C-27.644,10.035 -23.725,13.954 -18.892,13.954L3.634,13.954C8.468,13.954 12.387,10.035 12.387,5.202L12.387,-4.683Z" style="fill:rgb(0,74,147);fill-rule:nonzero;"/>
        </g>
        <g transform="matrix(1.17256,0,0,1.17256,433.267,5.78776)">
            <path d="M0,65.329C-18.012,65.329 -32.665,50.676 -32.665,32.664C-32.665,14.653 -18.012,0 0,0C18.012,0 32.665,14.653 32.665,32.664C32.665,50.676 18.012,65.329 0,65.329M0,-4.806C-20.661,-4.806 -37.47,12.003 -37.47,32.664C-37.47,53.325 -20.661,70.135 0,70.135C20.661,70.135 37.47,53.325 37.47,32.664C37.47,12.003 20.661,-4.806 0,-4.806" style="fill:rgb(0,74,147);fill-rule:nonzero;"/>
        </g>
    </g>
</svg>
