<?xml version="1.0" encoding="UTF-8" standalone="no"?>
<!DOCTYPE svg PUBLIC "-//W3C//DTD SVG 1.1//EN" "http://www.w3.org/Graphics/SVG/1.1/DTD/svg11.dtd">
<svg width="100%" height="100%" viewBox="0 0 91 91" version="1.1" xmlns="http://www.w3.org/2000/svg" xmlns:xlink="http://www.w3.org/1999/xlink" xml:space="preserve" xmlns:serif="http://www.serif.com/" style="fill-rule:evenodd;clip-rule:evenodd;stroke-linejoin:round;stroke-miterlimit:2;">
    <g transform="matrix(1.0079,0,0,1.0079,-260.386,1.14101)">
        <g transform="matrix(1.17256,0,0,1.17256,321.749,35.0136)">
            <path d="M0,15.348C0,19.71 -3.536,23.246 -7.898,23.246L-23.245,23.246C-27.607,23.246 -31.144,19.71 -31.144,15.348L-31.144,0C-31.144,-4.362 -27.607,-7.898 -23.245,-7.898L-7.898,-7.898C-3.536,-7.898 0,-4.362 0,0L0,15.348ZM3.775,-0.173C3.775,-6.524 -1.374,-11.673 -7.726,-11.673L-23.418,-11.673C-29.77,-11.673 -34.919,-6.524 -34.919,-0.173L-34.919,15.521C-34.919,21.872 -29.77,27.021 -23.418,27.021L-7.726,27.021C-1.374,27.021 3.775,21.872 3.775,15.521L3.775,-0.173ZM-9.269,7.402C-9.269,4.072 -11.979,1.362 -15.309,1.362C-18.639,1.362 -21.349,4.072 -21.349,7.402C-21.349,10.732 -18.639,13.442 -15.309,13.442C-11.979,13.442 -9.269,10.732 -9.269,7.402M-5.88,7.402C-5.88,12.6 -10.109,16.83 -15.309,16.83C-20.508,16.83 -24.737,12.6 -24.737,7.402C-24.737,2.203 -20.508,-2.027 -15.309,-2.027C-10.109,-2.027 -5.88,2.203 -5.88,7.402M-3.085,-2.661C-3.085,-1.421 -4.09,-0.416 -5.33,-0.416C-6.569,-0.416 -7.574,-1.421 -7.574,-2.661C-7.574,-3.901 -6.569,-4.905 -5.33,-4.905C-4.09,-4.905 -3.085,-3.901 -3.085,-2.661" style="fill:rgb(0,74,147);fill-rule:nonzero;"/>
        </g>
        <g transform="matrix(1.17256,0,0,1.17256,303.49,5.70978)">
            <path d="M0,65.33C-18.011,65.33 -32.664,50.677 -32.664,32.665C-32.664,14.654 -18.011,0.001 0,0.001C18.012,0.001 32.665,14.654 32.665,32.665C32.665,50.677 18.012,65.33 0,65.33M0,-4.805C-20.661,-4.805 -37.47,12.004 -37.47,32.665C-37.47,53.326 -20.661,70.135 0,70.135C20.661,70.135 37.47,53.326 37.47,32.665C37.47,12.004 20.661,-4.805 0,-4.805" style="fill:rgb(0,74,147);fill-rule:nonzero;"/>
        </g>
    </g>
</svg>
